ISO-10303-21;
HEADER;
/* Generated by software containing ST-Developer
 * from STEP Tools, Inc. (www.steptools.com) 
 */
/* OPTION: using custom renumber hook */

FILE_DESCRIPTION(
/* description */ ('STEP AP242 Edition 2',
'CAx-IF Rec.Pracs.---Representation and Presentation of Product Manufa
cturing Information (PMI)---4.0---2014-10-13',
'CAx-IF Rec.Pracs.---3D Tessellated Geometry---0.4---2014-09-14','2;1',
'CAx-IF Rec.Pracs.---User Defined Attributes---1.5---2016-08-15'),
/* implementation_level */ '2;1');

FILE_NAME(
/* name */ 'Hexarm - Leader - Crank',
/* time_stamp */ '2026-08-09T23:34:53Z',
/* author */ (''),
/* organization */ (''),
/* preprocessor_version */ 'ST-DEVELOPER v20',
/* originating_system */ 'ONSHAPE BY PTC INC, 1.219',
/* authorisation */ '  ');

FILE_SCHEMA (('AP242_MANAGED_MODEL_BASED_3D_ENGINEERING_MIM_LF { 1 0 10303 442 3 1 4 }'));
ENDSEC;

DATA;
#10=SHAPE_REPRESENTATION_RELATIONSHIP('','',#385,#11);
#11=ADVANCED_BREP_SHAPE_REPRESENTATION('',(#383),#657);
#12=CYLINDRICAL_SURFACE('',#400,0.003);
#13=CYLINDRICAL_SURFACE('',#403,0.0116);
#14=CYLINDRICAL_SURFACE('',#405,0.0017);
#15=CYLINDRICAL_SURFACE('',#409,0.003);
#16=CYLINDRICAL_SURFACE('',#411,0.0017);
#17=CYLINDRICAL_SURFACE('',#415,0.003);
#18=CYLINDRICAL_SURFACE('',#417,0.0017);
#19=CYLINDRICAL_SURFACE('',#421,0.003);
#20=CYLINDRICAL_SURFACE('',#423,0.0017);
#21=CYLINDRICAL_SURFACE('',#431,0.0096);
#22=CYLINDRICAL_SURFACE('',#433,0.0116);
#23=CIRCLE('',#389,0.0017);
#24=CIRCLE('',#390,0.0017);
#25=CIRCLE('',#391,0.0017);
#26=CIRCLE('',#392,0.0017);
#27=CIRCLE('',#393,0.0116);
#28=CIRCLE('',#394,0.0096);
#29=CIRCLE('',#397,0.0017);
#30=CIRCLE('',#398,0.003);
#31=CIRCLE('',#399,0.0096);
#32=CIRCLE('',#401,0.003);
#33=CIRCLE('',#402,0.003);
#34=CIRCLE('',#404,0.0116);
#35=CIRCLE('',#406,0.0017);
#36=CIRCLE('',#408,0.003);
#37=CIRCLE('',#410,0.003);
#38=CIRCLE('',#412,0.0017);
#39=CIRCLE('',#414,0.003);
#40=CIRCLE('',#416,0.003);
#41=CIRCLE('',#418,0.0017);
#42=CIRCLE('',#420,0.003);
#43=CIRCLE('',#422,0.003);
#44=CIRCLE('',#425,0.0116);
#45=CIRCLE('',#427,0.0096);
#46=CIRCLE('',#428,0.0096);
#47=CIRCLE('',#429,0.0116);
#48=CIRCLE('',#434,0.0116);
#49=ORIENTED_EDGE('',*,*,#137,.T.);
#50=ORIENTED_EDGE('',*,*,#138,.F.);
#51=ORIENTED_EDGE('',*,*,#139,.T.);
#52=ORIENTED_EDGE('',*,*,#140,.T.);
#53=ORIENTED_EDGE('',*,*,#141,.F.);
#54=ORIENTED_EDGE('',*,*,#142,.F.);
#55=ORIENTED_EDGE('',*,*,#143,.F.);
#56=ORIENTED_EDGE('',*,*,#144,.F.);
#57=ORIENTED_EDGE('',*,*,#145,.F.);
#58=ORIENTED_EDGE('',*,*,#146,.F.);
#59=ORIENTED_EDGE('',*,*,#147,.T.);
#60=ORIENTED_EDGE('',*,*,#148,.T.);
#61=ORIENTED_EDGE('',*,*,#149,.T.);
#62=ORIENTED_EDGE('',*,*,#150,.F.);
#63=ORIENTED_EDGE('',*,*,#151,.F.);
#64=ORIENTED_EDGE('',*,*,#152,.F.);
#65=ORIENTED_EDGE('',*,*,#153,.T.);
#66=ORIENTED_EDGE('',*,*,#154,.F.);
#67=ORIENTED_EDGE('',*,*,#155,.T.);
#68=ORIENTED_EDGE('',*,*,#156,.F.);
#69=ORIENTED_EDGE('',*,*,#154,.T.);
#70=ORIENTED_EDGE('',*,*,#157,.T.);
#71=ORIENTED_EDGE('',*,*,#158,.F.);
#72=ORIENTED_EDGE('',*,*,#159,.T.);
#73=ORIENTED_EDGE('',*,*,#149,.F.);
#74=ORIENTED_EDGE('',*,*,#160,.F.);
#75=ORIENTED_EDGE('',*,*,#138,.T.);
#76=ORIENTED_EDGE('',*,*,#161,.T.);
#77=ORIENTED_EDGE('',*,*,#146,.T.);
#78=ORIENTED_EDGE('',*,*,#162,.F.);
#79=ORIENTED_EDGE('',*,*,#163,.F.);
#80=ORIENTED_EDGE('',*,*,#141,.T.);
#81=ORIENTED_EDGE('',*,*,#163,.T.);
#82=ORIENTED_EDGE('',*,*,#164,.F.);
#83=ORIENTED_EDGE('',*,*,#164,.T.);
#84=ORIENTED_EDGE('',*,*,#165,.F.);
#85=ORIENTED_EDGE('',*,*,#166,.F.);
#86=ORIENTED_EDGE('',*,*,#142,.T.);
#87=ORIENTED_EDGE('',*,*,#166,.T.);
#88=ORIENTED_EDGE('',*,*,#167,.F.);
#89=ORIENTED_EDGE('',*,*,#167,.T.);
#90=ORIENTED_EDGE('',*,*,#168,.F.);
#91=ORIENTED_EDGE('',*,*,#169,.F.);
#92=ORIENTED_EDGE('',*,*,#143,.T.);
#93=ORIENTED_EDGE('',*,*,#169,.T.);
#94=ORIENTED_EDGE('',*,*,#170,.F.);
#95=ORIENTED_EDGE('',*,*,#170,.T.);
#96=ORIENTED_EDGE('',*,*,#171,.F.);
#97=ORIENTED_EDGE('',*,*,#153,.F.);
#98=ORIENTED_EDGE('',*,*,#144,.T.);
#99=ORIENTED_EDGE('',*,*,#172,.F.);
#100=ORIENTED_EDGE('',*,*,#139,.F.);
#101=ORIENTED_EDGE('',*,*,#160,.T.);
#102=ORIENTED_EDGE('',*,*,#152,.T.);
#103=ORIENTED_EDGE('',*,*,#156,.T.);
#104=ORIENTED_EDGE('',*,*,#171,.T.);
#105=ORIENTED_EDGE('',*,*,#168,.T.);
#106=ORIENTED_EDGE('',*,*,#165,.T.);
#107=ORIENTED_EDGE('',*,*,#150,.T.);
#108=ORIENTED_EDGE('',*,*,#173,.T.);
#109=ORIENTED_EDGE('',*,*,#174,.F.);
#110=ORIENTED_EDGE('',*,*,#158,.T.);
#111=ORIENTED_EDGE('',*,*,#175,.F.);
#112=ORIENTED_EDGE('',*,*,#176,.F.);
#113=ORIENTED_EDGE('',*,*,#137,.F.);
#114=ORIENTED_EDGE('',*,*,#177,.T.);
#115=ORIENTED_EDGE('',*,*,#162,.T.);
#116=ORIENTED_EDGE('',*,*,#145,.T.);
#117=ORIENTED_EDGE('',*,*,#178,.F.);
#118=ORIENTED_EDGE('',*,*,#173,.F.);
#119=ORIENTED_EDGE('',*,*,#155,.F.);
#120=ORIENTED_EDGE('',*,*,#159,.F.);
#121=ORIENTED_EDGE('',*,*,#174,.T.);
#122=ORIENTED_EDGE('',*,*,#178,.T.);
#123=ORIENTED_EDGE('',*,*,#148,.F.);
#124=ORIENTED_EDGE('',*,*,#179,.F.);
#125=ORIENTED_EDGE('',*,*,#175,.T.);
#126=ORIENTED_EDGE('',*,*,#157,.F.);
#127=ORIENTED_EDGE('',*,*,#176,.T.);
#128=ORIENTED_EDGE('',*,*,#179,.T.);
#129=ORIENTED_EDGE('',*,*,#147,.F.);
#130=ORIENTED_EDGE('',*,*,#161,.F.);
#131=ORIENTED_EDGE('',*,*,#177,.F.);
#132=ORIENTED_EDGE('',*,*,#140,.F.);
#133=ORIENTED_EDGE('',*,*,#172,.T.);
#134=ORIENTED_EDGE('',*,*,#151,.T.);
#135=ORIENTED_EDGE('',*,*,#180,.F.);
#136=ORIENTED_EDGE('',*,*,#180,.T.);
#137=EDGE_CURVE('',#181,#182,#215,.T.);
#138=EDGE_CURVE('',#183,#182,#216,.T.);
#139=EDGE_CURVE('',#183,#184,#217,.T.);
#140=EDGE_CURVE('',#184,#181,#218,.T.);
#141=EDGE_CURVE('',#185,#185,#23,.F.);
#142=EDGE_CURVE('',#186,#186,#24,.F.);
#143=EDGE_CURVE('',#187,#187,#25,.F.);
#144=EDGE_CURVE('',#188,#188,#26,.F.);
#145=EDGE_CURVE('',#189,#190,#219,.T.);
#146=EDGE_CURVE('',#191,#189,#27,.T.);
#147=EDGE_CURVE('',#191,#192,#220,.T.);
#148=EDGE_CURVE('',#192,#190,#28,.T.);
#149=EDGE_CURVE('',#193,#194,#221,.T.);
#150=EDGE_CURVE('',#195,#194,#222,.T.);
#151=EDGE_CURVE('',#196,#195,#223,.T.);
#152=EDGE_CURVE('',#193,#196,#224,.T.);
#153=EDGE_CURVE('',#197,#197,#29,.T.);
#154=EDGE_CURVE('',#198,#199,#30,.T.);
#155=EDGE_CURVE('',#198,#199,#31,.T.);
#156=EDGE_CURVE('',#200,#200,#32,.T.);
#157=EDGE_CURVE('',#199,#201,#225,.F.);
#158=EDGE_CURVE('',#202,#201,#33,.T.);
#159=EDGE_CURVE('',#202,#198,#226,.T.);
#160=EDGE_CURVE('',#183,#193,#34,.T.);
#161=EDGE_CURVE('',#182,#191,#227,.T.);
#162=EDGE_CURVE('',#194,#189,#228,.T.);
#163=EDGE_CURVE('',#203,#203,#35,.T.);
#164=EDGE_CURVE('',#204,#204,#36,.T.);
#165=EDGE_CURVE('',#205,#205,#37,.T.);
#166=EDGE_CURVE('',#206,#206,#38,.T.);
#167=EDGE_CURVE('',#207,#207,#39,.T.);
#168=EDGE_CURVE('',#208,#208,#40,.T.);
#169=EDGE_CURVE('',#209,#209,#41,.T.);
#170=EDGE_CURVE('',#210,#210,#42,.T.);
#171=EDGE_CURVE('',#211,#211,#43,.T.);
#172=EDGE_CURVE('',#184,#196,#44,.T.);
#173=EDGE_CURVE('',#194,#212,#229,.T.);
#174=EDGE_CURVE('',#202,#212,#45,.F.);
#175=EDGE_CURVE('',#213,#201,#46,.F.);
#176=EDGE_CURVE('',#182,#213,#230,.T.);
#177=EDGE_CURVE('',#181,#195,#47,.F.);
#178=EDGE_CURVE('',#212,#190,#231,.T.);
#179=EDGE_CURVE('',#213,#192,#232,.T.);
#180=EDGE_CURVE('',#214,#214,#48,.T.);
#181=VERTEX_POINT('',#557);
#182=VERTEX_POINT('',#558);
#183=VERTEX_POINT('',#560);
#184=VERTEX_POINT('',#562);
#185=VERTEX_POINT('',#566);
#186=VERTEX_POINT('',#568);
#187=VERTEX_POINT('',#570);
#188=VERTEX_POINT('',#572);
#189=VERTEX_POINT('',#574);
#190=VERTEX_POINT('',#575);
#191=VERTEX_POINT('',#577);
#192=VERTEX_POINT('',#579);
#193=VERTEX_POINT('',#583);
#194=VERTEX_POINT('',#584);
#195=VERTEX_POINT('',#586);
#196=VERTEX_POINT('',#588);
#197=VERTEX_POINT('',#592);
#198=VERTEX_POINT('',#594);
#199=VERTEX_POINT('',#595);
#200=VERTEX_POINT('',#599);
#201=VERTEX_POINT('',#601);
#202=VERTEX_POINT('',#603);
#203=VERTEX_POINT('',#611);
#204=VERTEX_POINT('',#614);
#205=VERTEX_POINT('',#617);
#206=VERTEX_POINT('',#620);
#207=VERTEX_POINT('',#623);
#208=VERTEX_POINT('',#626);
#209=VERTEX_POINT('',#629);
#210=VERTEX_POINT('',#632);
#211=VERTEX_POINT('',#635);
#212=VERTEX_POINT('',#641);
#213=VERTEX_POINT('',#644);
#214=VERTEX_POINT('',#654);
#215=LINE('',#556,#233);
#216=LINE('',#559,#234);
#217=LINE('',#561,#235);
#218=LINE('',#563,#236);
#219=LINE('',#573,#237);
#220=LINE('',#578,#238);
#221=LINE('',#582,#239);
#222=LINE('',#585,#240);
#223=LINE('',#587,#241);
#224=LINE('',#589,#242);
#225=LINE('',#600,#243);
#226=LINE('',#604,#244);
#227=LINE('',#607,#245);
#228=LINE('',#608,#246);
#229=LINE('',#640,#247);
#230=LINE('',#645,#248);
#231=LINE('',#648,#249);
#232=LINE('',#650,#250);
#233=VECTOR('',#440,1.);
#234=VECTOR('',#441,1.);
#235=VECTOR('',#442,1.);
#236=VECTOR('',#443,1.);
#237=VECTOR('',#454,1.);
#238=VECTOR('',#457,1.);
#239=VECTOR('',#462,1.);
#240=VECTOR('',#463,1.);
#241=VECTOR('',#464,1.);
#242=VECTOR('',#465,1.);
#243=VECTOR('',#478,1.);
#244=VECTOR('',#481,1.);
#245=VECTOR('',#486,1.);
#246=VECTOR('',#487,1.);
#247=VECTOR('',#532,1.);
#248=VECTOR('',#537,1.);
#249=VECTOR('',#542,1.);
#250=VECTOR('',#545,1.);
#251=EDGE_LOOP('',(#49,#50,#51,#52));
#252=EDGE_LOOP('',(#53));
#253=EDGE_LOOP('',(#54));
#254=EDGE_LOOP('',(#55));
#255=EDGE_LOOP('',(#56));
#256=EDGE_LOOP('',(#57,#58,#59,#60));
#257=EDGE_LOOP('',(#61,#62,#63,#64));
#258=EDGE_LOOP('',(#65));
#259=EDGE_LOOP('',(#66,#67));
#260=EDGE_LOOP('',(#68));
#261=EDGE_LOOP('',(#69,#70,#71,#72));
#262=EDGE_LOOP('',(#73,#74,#75,#76,#77,#78));
#263=EDGE_LOOP('',(#79));
#264=EDGE_LOOP('',(#80));
#265=EDGE_LOOP('',(#81));
#266=EDGE_LOOP('',(#82));
#267=EDGE_LOOP('',(#83));
#268=EDGE_LOOP('',(#84));
#269=EDGE_LOOP('',(#85));
#270=EDGE_LOOP('',(#86));
#271=EDGE_LOOP('',(#87));
#272=EDGE_LOOP('',(#88));
#273=EDGE_LOOP('',(#89));
#274=EDGE_LOOP('',(#90));
#275=EDGE_LOOP('',(#91));
#276=EDGE_LOOP('',(#92));
#277=EDGE_LOOP('',(#93));
#278=EDGE_LOOP('',(#94));
#279=EDGE_LOOP('',(#95));
#280=EDGE_LOOP('',(#96));
#281=EDGE_LOOP('',(#97));
#282=EDGE_LOOP('',(#98));
#283=EDGE_LOOP('',(#99,#100,#101,#102));
#284=EDGE_LOOP('',(#103));
#285=EDGE_LOOP('',(#104));
#286=EDGE_LOOP('',(#105));
#287=EDGE_LOOP('',(#106));
#288=EDGE_LOOP('',(#107,#108,#109,#110,#111,#112,#113,#114));
#289=EDGE_LOOP('',(#115,#116,#117,#118));
#290=EDGE_LOOP('',(#119,#120,#121,#122,#123,#124,#125,#126));
#291=EDGE_LOOP('',(#127,#128,#129,#130));
#292=EDGE_LOOP('',(#131,#132,#133,#134));
#293=EDGE_LOOP('',(#135));
#294=EDGE_LOOP('',(#136));
#295=FACE_BOUND('',#251,.T.);
#296=FACE_BOUND('',#252,.T.);
#297=FACE_BOUND('',#253,.T.);
#298=FACE_BOUND('',#254,.T.);
#299=FACE_BOUND('',#255,.T.);
#300=FACE_BOUND('',#256,.T.);
#301=FACE_BOUND('',#257,.T.);
#302=FACE_BOUND('',#258,.T.);
#303=FACE_BOUND('',#259,.T.);
#304=FACE_BOUND('',#260,.T.);
#305=FACE_BOUND('',#261,.T.);
#306=FACE_BOUND('',#262,.T.);
#307=FACE_BOUND('',#263,.T.);
#308=FACE_BOUND('',#264,.T.);
#309=FACE_BOUND('',#265,.T.);
#310=FACE_BOUND('',#266,.T.);
#311=FACE_BOUND('',#267,.T.);
#312=FACE_BOUND('',#268,.T.);
#313=FACE_BOUND('',#269,.T.);
#314=FACE_BOUND('',#270,.T.);
#315=FACE_BOUND('',#271,.T.);
#316=FACE_BOUND('',#272,.T.);
#317=FACE_BOUND('',#273,.T.);
#318=FACE_BOUND('',#274,.T.);
#319=FACE_BOUND('',#275,.T.);
#320=FACE_BOUND('',#276,.T.);
#321=FACE_BOUND('',#277,.T.);
#322=FACE_BOUND('',#278,.T.);
#323=FACE_BOUND('',#279,.T.);
#324=FACE_BOUND('',#280,.T.);
#325=FACE_BOUND('',#281,.T.);
#326=FACE_BOUND('',#282,.T.);
#327=FACE_BOUND('',#283,.T.);
#328=FACE_BOUND('',#284,.T.);
#329=FACE_BOUND('',#285,.T.);
#330=FACE_BOUND('',#286,.T.);
#331=FACE_BOUND('',#287,.T.);
#332=FACE_BOUND('',#288,.T.);
#333=FACE_BOUND('',#289,.T.);
#334=FACE_BOUND('',#290,.T.);
#335=FACE_BOUND('',#291,.T.);
#336=FACE_BOUND('',#292,.T.);
#337=FACE_BOUND('',#293,.T.);
#338=FACE_BOUND('',#294,.T.);
#339=PLANE('',#387);
#340=PLANE('',#388);
#341=PLANE('',#395);
#342=PLANE('',#396);
#343=PLANE('',#407);
#344=PLANE('',#413);
#345=PLANE('',#419);
#346=PLANE('',#424);
#347=PLANE('',#426);
#348=PLANE('',#430);
#349=PLANE('',#432);
#350=PLANE('',#435);
#351=ADVANCED_FACE('',(#295),#339,.F.);
#352=ADVANCED_FACE('',(#296,#297,#298,#299,#300),#340,.F.);
#353=ADVANCED_FACE('',(#301),#341,.T.);
#354=ADVANCED_FACE('',(#302,#303),#342,.T.);
#355=ADVANCED_FACE('',(#304,#305),#12,.F.);
#356=ADVANCED_FACE('',(#306),#13,.T.);
#357=ADVANCED_FACE('',(#307,#308),#14,.F.);
#358=ADVANCED_FACE('',(#309,#310),#343,.T.);
#359=ADVANCED_FACE('',(#311,#312),#15,.F.);
#360=ADVANCED_FACE('',(#313,#314),#16,.F.);
#361=ADVANCED_FACE('',(#315,#316),#344,.T.);
#362=ADVANCED_FACE('',(#317,#318),#17,.F.);
#363=ADVANCED_FACE('',(#319,#320),#18,.F.);
#364=ADVANCED_FACE('',(#321,#322),#345,.T.);
#365=ADVANCED_FACE('',(#323,#324),#19,.F.);
#366=ADVANCED_FACE('',(#325,#326),#20,.F.);
#367=ADVANCED_FACE('',(#327,#328,#329,#330,#331),#346,.T.);
#368=ADVANCED_FACE('',(#332),#347,.F.);
#369=ADVANCED_FACE('',(#333),#348,.F.);
#370=ADVANCED_FACE('',(#334),#21,.T.);
#371=ADVANCED_FACE('',(#335),#349,.T.);
#372=ADVANCED_FACE('',(#336,#337),#22,.T.);
#373=ADVANCED_FACE('',(#338),#350,.T.);
#374=CLOSED_SHELL('',(#351,#352,#353,#354,#355,#356,#357,#358,#359,#360,
#361,#362,#363,#364,#365,#366,#367,#368,#369,#370,#371,#372,#373));
#375=STYLED_ITEM('',(#376),#383);
#376=PRESENTATION_STYLE_ASSIGNMENT((#377));
#377=SURFACE_STYLE_USAGE(.BOTH.,#378);
#378=SURFACE_SIDE_STYLE('',(#379));
#379=SURFACE_STYLE_FILL_AREA(#380);
#380=FILL_AREA_STYLE('',(#381));
#381=FILL_AREA_STYLE_COLOUR('',#382);
#382=COLOUR_RGB('',0.768627450980392,0.886274509803922,0.952941176470588);
#383=MANIFOLD_SOLID_BREP('Crank',#374);
#384=SHAPE_DEFINITION_REPRESENTATION(#662,#385);
#385=SHAPE_REPRESENTATION('Crank',(#386),#657);
#386=AXIS2_PLACEMENT_3D('',#554,#436,#437);
#387=AXIS2_PLACEMENT_3D('',#555,#438,#439);
#388=AXIS2_PLACEMENT_3D('',#564,#444,#445);
#389=AXIS2_PLACEMENT_3D('',#565,#446,#447);
#390=AXIS2_PLACEMENT_3D('',#567,#448,#449);
#391=AXIS2_PLACEMENT_3D('',#569,#450,#451);
#392=AXIS2_PLACEMENT_3D('',#571,#452,#453);
#393=AXIS2_PLACEMENT_3D('',#576,#455,#456);
#394=AXIS2_PLACEMENT_3D('',#580,#458,#459);
#395=AXIS2_PLACEMENT_3D('',#581,#460,#461);
#396=AXIS2_PLACEMENT_3D('',#590,#466,#467);
#397=AXIS2_PLACEMENT_3D('',#591,#468,#469);
#398=AXIS2_PLACEMENT_3D('',#593,#470,#471);
#399=AXIS2_PLACEMENT_3D('',#596,#472,#473);
#400=AXIS2_PLACEMENT_3D('',#597,#474,#475);
#401=AXIS2_PLACEMENT_3D('',#598,#476,#477);
#402=AXIS2_PLACEMENT_3D('',#602,#479,#480);
#403=AXIS2_PLACEMENT_3D('',#605,#482,#483);
#404=AXIS2_PLACEMENT_3D('',#606,#484,#485);
#405=AXIS2_PLACEMENT_3D('',#609,#488,#489);
#406=AXIS2_PLACEMENT_3D('',#610,#490,#491);
#407=AXIS2_PLACEMENT_3D('',#612,#492,#493);
#408=AXIS2_PLACEMENT_3D('',#613,#494,#495);
#409=AXIS2_PLACEMENT_3D('',#615,#496,#497);
#410=AXIS2_PLACEMENT_3D('',#616,#498,#499);
#411=AXIS2_PLACEMENT_3D('',#618,#500,#501);
#412=AXIS2_PLACEMENT_3D('',#619,#502,#503);
#413=AXIS2_PLACEMENT_3D('',#621,#504,#505);
#414=AXIS2_PLACEMENT_3D('',#622,#506,#507);
#415=AXIS2_PLACEMENT_3D('',#624,#508,#509);
#416=AXIS2_PLACEMENT_3D('',#625,#510,#511);
#417=AXIS2_PLACEMENT_3D('',#627,#512,#513);
#418=AXIS2_PLACEMENT_3D('',#628,#514,#515);
#419=AXIS2_PLACEMENT_3D('',#630,#516,#517);
#420=AXIS2_PLACEMENT_3D('',#631,#518,#519);
#421=AXIS2_PLACEMENT_3D('',#633,#520,#521);
#422=AXIS2_PLACEMENT_3D('',#634,#522,#523);
#423=AXIS2_PLACEMENT_3D('',#636,#524,#525);
#424=AXIS2_PLACEMENT_3D('',#637,#526,#527);
#425=AXIS2_PLACEMENT_3D('',#638,#528,#529);
#426=AXIS2_PLACEMENT_3D('',#639,#530,#531);
#427=AXIS2_PLACEMENT_3D('',#642,#533,#534);
#428=AXIS2_PLACEMENT_3D('',#643,#535,#536);
#429=AXIS2_PLACEMENT_3D('',#646,#538,#539);
#430=AXIS2_PLACEMENT_3D('',#647,#540,#541);
#431=AXIS2_PLACEMENT_3D('',#649,#543,#544);
#432=AXIS2_PLACEMENT_3D('',#651,#546,#547);
#433=AXIS2_PLACEMENT_3D('',#652,#548,#549);
#434=AXIS2_PLACEMENT_3D('',#653,#550,#551);
#435=AXIS2_PLACEMENT_3D('',#655,#552,#553);
#436=DIRECTION('',(0.,0.,1.));
#437=DIRECTION('',(1.,0.,0.));
#438=DIRECTION('',(6.30875559957544E-5,0.99999999800998,0.));
#439=DIRECTION('',(0.99999999800998,-6.30875559957544E-5,0.));
#440=DIRECTION('',(0.99999999800998,-6.30875559957544E-5,0.));
#441=DIRECTION('',(0.,0.,-1.));
#442=DIRECTION('',(-0.99999999800998,6.30875559957544E-5,0.));
#443=DIRECTION('',(0.,0.,-1.));
#444=DIRECTION('',(-9.71445146547012E-17,-7.13752313003836E-17,1.));
#445=DIRECTION('',(1.,-6.9337122030428E-33,9.71445146547012E-17));
#446=DIRECTION('',(-9.71445146547012E-17,-7.13752313003836E-17,1.));
#447=DIRECTION('',(1.,0.,9.71445146547012E-17));
#448=DIRECTION('',(-9.71445146547012E-17,-7.13752313003836E-17,1.));
#449=DIRECTION('',(1.,0.,9.71445146547012E-17));
#450=DIRECTION('',(-9.71445146547012E-17,-7.13752313003836E-17,1.));
#451=DIRECTION('',(1.,0.,9.71445146547012E-17));
#452=DIRECTION('',(-9.71445146547012E-17,-7.13752313003836E-17,1.));
#453=DIRECTION('',(1.,0.,9.71445146547012E-17));
#454=DIRECTION('',(-0.707151389418044,-0.707062170140738,-1.1916260444996E-16));
#455=DIRECTION('',(-9.71445146547012E-17,-7.13752313003836E-17,1.));
#456=DIRECTION('',(1.,0.,9.71445146547012E-17));
#457=DIRECTION('',(-0.707062170140738,0.707151389418044,-1.82141173649212E-17));
#458=DIRECTION('',(9.71445146547012E-17,7.13752313003836E-17,-1.));
#459=DIRECTION('',(-1.,0.,-9.71445146547012E-17));
#460=DIRECTION('',(6.30875559957544E-5,0.99999999800998,0.));
#461=DIRECTION('',(0.99999999800998,-6.30875559957544E-5,0.));
#462=DIRECTION('',(0.,0.,-1.));
#463=DIRECTION('',(0.99999999800998,-6.30875559957544E-5,0.));
#464=DIRECTION('',(0.,0.,-1.));
#465=DIRECTION('',(-0.99999999800998,6.30875559957544E-5,0.));
#466=DIRECTION('',(-9.71445146547012E-17,-7.13752313003836E-17,1.));
#467=DIRECTION('',(1.,0.,9.71445146547012E-17));
#468=DIRECTION('',(9.71445146547012E-17,7.13752313003836E-17,-1.));
#469=DIRECTION('',(-1.,0.,-9.71445146547012E-17));
#470=DIRECTION('',(9.71445146547012E-17,7.13752313003836E-17,-1.));
#471=DIRECTION('',(-1.,0.,-9.71445146547012E-17));
#472=DIRECTION('',(-9.71445146547012E-17,-7.13752313003836E-17,1.));
#473=DIRECTION('',(1.,0.,9.71445146547012E-17));
#474=DIRECTION('',(9.71445146547012E-17,7.13752313003836E-17,-1.));
#475=DIRECTION('',(-1.,0.,-9.71445146547012E-17));
#476=DIRECTION('',(9.71445146547012E-17,7.13752313003836E-17,-1.));
#477=DIRECTION('',(-1.,0.,-9.71445146547012E-17));
#478=DIRECTION('',(9.71445146547012E-17,7.13752313003836E-17,-1.));
#479=DIRECTION('',(0.,0.,1.));
#480=DIRECTION('',(0.,-1.,0.));
#481=DIRECTION('',(9.71445146547012E-17,7.13752313003836E-17,-1.));
#482=DIRECTION('',(9.71445146547012E-17,7.13752313003836E-17,-1.));
#483=DIRECTION('',(-1.,0.,-9.71445146547012E-17));
#484=DIRECTION('',(-9.71445146547012E-17,-7.13752313003836E-17,1.));
#485=DIRECTION('',(1.,0.,9.71445146547012E-17));
#486=DIRECTION('',(9.71445146547012E-17,7.13752313003836E-17,-1.));
#487=DIRECTION('',(9.71445146547012E-17,7.13752313003836E-17,-1.));
#488=DIRECTION('',(9.71445146547012E-17,7.13752313003836E-17,-1.));
#489=DIRECTION('',(-1.,0.,-9.71445146547012E-17));
#490=DIRECTION('',(9.71445146547012E-17,7.13752313003836E-17,-1.));
#491=DIRECTION('',(-1.,0.,-9.71445146547012E-17));
#492=DIRECTION('',(-9.71445146547012E-17,-7.13752313003836E-17,1.));
#493=DIRECTION('',(1.,0.,9.71445146547012E-17));
#494=DIRECTION('',(9.71445146547012E-17,7.13752313003836E-17,-1.));
#495=DIRECTION('',(-1.,0.,-9.71445146547012E-17));
#496=DIRECTION('',(9.71445146547012E-17,7.13752313003836E-17,-1.));
#497=DIRECTION('',(-1.,0.,-9.71445146547012E-17));
#498=DIRECTION('',(9.71445146547012E-17,7.13752313003836E-17,-1.));
#499=DIRECTION('',(-1.,0.,-9.71445146547012E-17));
#500=DIRECTION('',(9.71445146547012E-17,7.13752313003836E-17,-1.));
#501=DIRECTION('',(-1.,0.,-9.71445146547012E-17));
#502=DIRECTION('',(9.71445146547012E-17,7.13752313003836E-17,-1.));
#503=DIRECTION('',(-1.,0.,-9.71445146547012E-17));
#504=DIRECTION('',(-9.71445146547012E-17,-7.13752313003836E-17,1.));
#505=DIRECTION('',(1.,0.,9.71445146547012E-17));
#506=DIRECTION('',(9.71445146547012E-17,7.13752313003836E-17,-1.));
#507=DIRECTION('',(-1.,0.,-9.71445146547012E-17));
#508=DIRECTION('',(9.71445146547012E-17,7.13752313003836E-17,-1.));
#509=DIRECTION('',(-1.,0.,-9.71445146547012E-17));
#510=DIRECTION('',(9.71445146547012E-17,7.13752313003836E-17,-1.));
#511=DIRECTION('',(-1.,0.,-9.71445146547012E-17));
#512=DIRECTION('',(9.71445146547012E-17,7.13752313003836E-17,-1.));
#513=DIRECTION('',(-1.,0.,-9.71445146547012E-17));
#514=DIRECTION('',(9.71445146547012E-17,7.13752313003836E-17,-1.));
#515=DIRECTION('',(-1.,0.,-9.71445146547012E-17));
#516=DIRECTION('',(-9.71445146547012E-17,-7.13752313003836E-17,1.));
#517=DIRECTION('',(1.,0.,9.71445146547012E-17));
#518=DIRECTION('',(9.71445146547012E-17,7.13752313003836E-17,-1.));
#519=DIRECTION('',(-1.,0.,-9.71445146547012E-17));
#520=DIRECTION('',(9.71445146547012E-17,7.13752313003836E-17,-1.));
#521=DIRECTION('',(-1.,0.,-9.71445146547012E-17));
#522=DIRECTION('',(9.71445146547012E-17,7.13752313003836E-17,-1.));
#523=DIRECTION('',(-1.,0.,-9.71445146547012E-17));
#524=DIRECTION('',(9.71445146547012E-17,7.13752313003836E-17,-1.));
#525=DIRECTION('',(-1.,0.,-9.71445146547012E-17));
#526=DIRECTION('',(-9.71445146547012E-17,-7.13752313003836E-17,1.));
#527=DIRECTION('',(1.,-6.9337122030428E-33,9.71445146547012E-17));
#528=DIRECTION('',(-9.71445146547012E-17,-7.13752313003836E-17,1.));
#529=DIRECTION('',(1.,0.,9.71445146547012E-17));
#530=DIRECTION('',(0.,0.,1.));
#531=DIRECTION('',(0.,-1.,0.));
#532=DIRECTION('',(-0.707151389418044,-0.707062170140738,0.));
#533=DIRECTION('',(0.,0.,1.));
#534=DIRECTION('',(0.,-1.,0.));
#535=DIRECTION('',(0.,0.,1.));
#536=DIRECTION('',(0.,-1.,0.));
#537=DIRECTION('',(-0.707062170140738,0.707151389418044,0.));
#538=DIRECTION('',(0.,0.,1.));
#539=DIRECTION('',(0.,-1.,0.));
#540=DIRECTION('',(0.707062170140738,-0.707151389418044,1.82141173649212E-17));
#541=DIRECTION('',(-0.707151389418044,-0.707062170140738,0.));
#542=DIRECTION('',(9.71445146547012E-17,7.13752313003836E-17,-1.));
#543=DIRECTION('',(9.71445146547012E-17,7.13752313003836E-17,-1.));
#544=DIRECTION('',(-1.,0.,-9.71445146547012E-17));
#545=DIRECTION('',(9.71445146547012E-17,7.13752313003836E-17,-1.));
#546=DIRECTION('',(-0.707151389418044,-0.707062170140738,-1.1916260444996E-16));
#547=DIRECTION('',(-0.707062170140738,0.707151389418044,0.));
#548=DIRECTION('',(-9.71445146547012E-17,-7.13752313003836E-17,1.));
#549=DIRECTION('',(1.,0.,9.71445146547012E-17));
#550=DIRECTION('',(-9.71445146547012E-17,-7.13752313003836E-17,1.));
#551=DIRECTION('',(1.,0.,9.71445146547012E-17));
#552=DIRECTION('',(-9.71445146547012E-17,-7.13752313003836E-17,1.));
#553=DIRECTION('',(1.,-6.9337122030428E-33,9.71445146547012E-17));
#554=CARTESIAN_POINT('',(0.,0.,0.));
#555=CARTESIAN_POINT('',(-0.0579253522819495,-0.00816594162451124,0.0805931946522883));
#556=CARTESIAN_POINT('',(-0.10952735217926,-0.00816268618044675,0.0815931946522883));
#557=CARTESIAN_POINT('',(-0.10952735217926,-0.00816268618044675,0.0815931946522883));
#558=CARTESIAN_POINT('',(-0.0579273522819456,-0.00816594149833614,0.0815931946522883));
#559=CARTESIAN_POINT('',(-0.0579273522819456,-0.00816594149833613,0.0805931946522883));
#560=CARTESIAN_POINT('',(-0.0579273522819456,-0.00816594149833614,0.0875931946522883));
#561=CARTESIAN_POINT('',(-0.0579253522819495,-0.00816594162451124,0.0875931946522883));
#562=CARTESIAN_POINT('',(-0.109527352179261,-0.00816268618044675,0.0875931946522883));
#563=CARTESIAN_POINT('',(-0.109527352179261,-0.00816268618044675,0.0805931946522883));
#564=CARTESIAN_POINT('',(-0.057926620466296,0.00343405847857964,0.0785931946522883));
#565=CARTESIAN_POINT('',(-0.0579270620793062,-0.00356594338059021,0.0785931946522883));
#566=CARTESIAN_POINT('',(-0.0562270620793062,-0.00356594338059021,0.0785931946522883));
#567=CARTESIAN_POINT('',(-0.0509266186071262,0.0034336168655695,0.0785931946522883));
#568=CARTESIAN_POINT('',(-0.0492266186071262,0.0034336168655695,0.0785931946522883));
#569=CARTESIAN_POINT('',(-0.0579261788532859,0.0104340603377495,0.0785931946522883));
#570=CARTESIAN_POINT('',(-0.0562261788532859,0.0104340603377495,0.0785931946522883));
#571=CARTESIAN_POINT('',(-0.0649266223254659,0.00343450009158979,0.0785931946522883));
#572=CARTESIAN_POINT('',(-0.0632266223254659,0.00343450009158979,0.0785931946522883));
#573=CARTESIAN_POINT('',(-0.0590624411373256,0.0138976493644074,0.0785931946522883));
#574=CARTESIAN_POINT('',(-0.0579258886506465,0.0150340584554954,0.0785931946522883));
#575=CARTESIAN_POINT('',(-0.0601989936240046,0.0127612402733194,0.0785931946522883));
#576=CARTESIAN_POINT('',(-0.057926620466296,0.00343405847857964,0.0785931946522883));
#577=CARTESIAN_POINT('',(-0.0579273522819456,-0.00816594149833614,0.0785931946522883));
#578=CARTESIAN_POINT('',(-0.0590637613730336,-0.00702938901165703,0.0785931946522883));
#579=CARTESIAN_POINT('',(-0.0602001704641216,-0.00589283652497793,0.0785931946522883));
#580=CARTESIAN_POINT('',(-0.057926620466296,0.00343405847857963,0.0785931946522883));
#581=CARTESIAN_POINT('',(-0.0579238886506504,0.0150340583293203,0.0805931946522883));
#582=CARTESIAN_POINT('',(-0.0579258886506465,0.0150340584554954,0.0805931946522883));
#583=CARTESIAN_POINT('',(-0.0579258886506465,0.0150340584554954,0.0875931946522883));
#584=CARTESIAN_POINT('',(-0.0579258886506465,0.0150340584554954,0.0815931946522883));
#585=CARTESIAN_POINT('',(-0.109525888547961,0.0150373137733848,0.0815931946522883));
#586=CARTESIAN_POINT('',(-0.109525888547961,0.0150373137733848,0.0815931946522883));
#587=CARTESIAN_POINT('',(-0.109525888547961,0.0150373137733848,0.0805931946522883));
#588=CARTESIAN_POINT('',(-0.109525888547961,0.0150373137733848,0.0875931946522883));
#589=CARTESIAN_POINT('',(-0.0579238886506504,0.0150340583293203,0.0875931946522883));
#590=CARTESIAN_POINT('',(-0.0619266223254659,0.00343450009158979,0.0805931946522883));
#591=CARTESIAN_POINT('',(-0.0649266223254659,0.00343450009158979,0.0805931946522883));
#592=CARTESIAN_POINT('',(-0.0666266223254659,0.00343450009158979,0.0805931946522883));
#593=CARTESIAN_POINT('',(-0.0649266223254659,0.00343450009158979,0.0805931946522883));
#594=CARTESIAN_POINT('',(-0.0673665096817409,0.00518005149120226,0.0805931946522883));
#595=CARTESIAN_POINT('',(-0.0673667299074622,0.00168925655893188,0.0805931946522883));
#596=CARTESIAN_POINT('',(-0.057926620466296,0.00343405847857963,0.0805931946522883));
#597=CARTESIAN_POINT('',(-0.0649266223254659,0.00343450009158979,0.0825931946522883));
#598=CARTESIAN_POINT('',(-0.0649266223254659,0.00343450009158979,0.0875931946522883));
#599=CARTESIAN_POINT('',(-0.0679266223254659,0.00343450009158979,0.0875931946522883));
#600=CARTESIAN_POINT('',(-0.0673667299074622,0.00168925655893188,0.0800931946522883));
#601=CARTESIAN_POINT('',(-0.0673667299074622,0.00168925655893188,0.0815931946522883));
#602=CARTESIAN_POINT('',(-0.0649266223254659,0.00343450009158979,0.0815931946522883));
#603=CARTESIAN_POINT('',(-0.0673665096817409,0.00518005149120226,0.0815931946522883));
#604=CARTESIAN_POINT('',(-0.0673665096817409,0.00518005149120226,0.0800931946522883));
#605=CARTESIAN_POINT('',(-0.057926620466296,0.00343405847857964,0.0825931946522883));
#606=CARTESIAN_POINT('',(-0.057926620466296,0.00343405847857964,0.0875931946522883));
#607=CARTESIAN_POINT('',(-0.0579273522819456,-0.00816594149833614,0.0815951946522884));
#608=CARTESIAN_POINT('',(-0.0579258886506465,0.0150340584554954,0.0815951946522883));
#609=CARTESIAN_POINT('',(-0.0579270620793062,-0.00356594338059021,0.0825931946522883));
#610=CARTESIAN_POINT('',(-0.0579270620793062,-0.00356594338059021,0.0805931946522883));
#611=CARTESIAN_POINT('',(-0.0596270620793062,-0.00356594338059021,0.0805931946522883));
#612=CARTESIAN_POINT('',(-0.0549270620793062,-0.00356594338059021,0.0805931946522883));
#613=CARTESIAN_POINT('',(-0.0579270620793062,-0.00356594338059021,0.0805931946522883));
#614=CARTESIAN_POINT('',(-0.0609270620793062,-0.00356594338059021,0.0805931946522883));
#615=CARTESIAN_POINT('',(-0.0579270620793062,-0.00356594338059021,0.0825931946522883));
#616=CARTESIAN_POINT('',(-0.0579270620793062,-0.00356594338059021,0.0875931946522883));
#617=CARTESIAN_POINT('',(-0.0609270620793062,-0.00356594338059021,0.0875931946522883));
#618=CARTESIAN_POINT('',(-0.0509266186071262,0.0034336168655695,0.0825931946522883));
#619=CARTESIAN_POINT('',(-0.0509266186071262,0.0034336168655695,0.0805931946522883));
#620=CARTESIAN_POINT('',(-0.0526266186071262,0.0034336168655695,0.0805931946522883));
#621=CARTESIAN_POINT('',(-0.0479266186071262,0.0034336168655695,0.0805931946522883));
#622=CARTESIAN_POINT('',(-0.0509266186071262,0.0034336168655695,0.0805931946522883));
#623=CARTESIAN_POINT('',(-0.0539266186071262,0.0034336168655695,0.0805931946522883));
#624=CARTESIAN_POINT('',(-0.0509266186071262,0.0034336168655695,0.0825931946522883));
#625=CARTESIAN_POINT('',(-0.0509266186071262,0.0034336168655695,0.0875931946522883));
#626=CARTESIAN_POINT('',(-0.0539266186071262,0.0034336168655695,0.0875931946522883));
#627=CARTESIAN_POINT('',(-0.0579261788532859,0.0104340603377495,0.0825931946522883));
#628=CARTESIAN_POINT('',(-0.0579261788532859,0.0104340603377495,0.0805931946522883));
#629=CARTESIAN_POINT('',(-0.0596261788532859,0.0104340603377495,0.0805931946522883));
#630=CARTESIAN_POINT('',(-0.0549261788532859,0.0104340603377495,0.0805931946522883));
#631=CARTESIAN_POINT('',(-0.0579261788532859,0.0104340603377495,0.0805931946522883));
#632=CARTESIAN_POINT('',(-0.0609261788532859,0.0104340603377495,0.0805931946522883));
#633=CARTESIAN_POINT('',(-0.0579261788532859,0.0104340603377495,0.0825931946522883));
#634=CARTESIAN_POINT('',(-0.0579261788532859,0.0104340603377495,0.0875931946522883));
#635=CARTESIAN_POINT('',(-0.0609261788532859,0.0104340603377495,0.0875931946522883));
#636=CARTESIAN_POINT('',(-0.0649266223254659,0.00343450009158979,0.0825931946522883));
#637=CARTESIAN_POINT('',(-0.057926620466296,0.00343405847857964,0.0875931946522883));
#638=CARTESIAN_POINT('',(-0.109526620363611,0.00343731379646902,0.0875931946522883));
#639=CARTESIAN_POINT('',(-0.109526620363611,0.00343731379646902,0.0815931946522883));
#640=CARTESIAN_POINT('',(-0.0590624411373256,0.0138976493644074,0.0815931946522883));
#641=CARTESIAN_POINT('',(-0.0601989936240046,0.0127612402733194,0.0815931946522883));
#642=CARTESIAN_POINT('',(-0.057926620466296,0.00343405847857963,0.0815931946522883));
#643=CARTESIAN_POINT('',(-0.057926620466296,0.00343405847857963,0.0815931946522883));
#644=CARTESIAN_POINT('',(-0.0602001704641216,-0.00589283652497793,0.0815931946522883));
#645=CARTESIAN_POINT('',(-0.0590637613730336,-0.00702938901165703,0.0815931946522883));
#646=CARTESIAN_POINT('',(-0.109526620363611,0.00343731379646902,0.0815931946522883));
#647=CARTESIAN_POINT('',(-0.0590624411373256,0.0138976493644074,0.0815951946522884));
#648=CARTESIAN_POINT('',(-0.0601989936240046,0.0127612402733194,0.0815951946522884));
#649=CARTESIAN_POINT('',(-0.057926620466296,0.00343405847857963,0.0815951946522884));
#650=CARTESIAN_POINT('',(-0.0602001704641216,-0.00589283652497793,0.0815951946522884));
#651=CARTESIAN_POINT('',(-0.0590637613730336,-0.00702938901165703,0.0815951946522884));
#652=CARTESIAN_POINT('',(-0.109526620363611,0.00343731379646902,0.0815911946522883));
#653=CARTESIAN_POINT('',(-0.109526620363611,0.00343731379646902,0.107593194652288));
#654=CARTESIAN_POINT('',(-0.097926620363611,0.00343731379646902,0.107593194652288));
#655=CARTESIAN_POINT('',(-0.0837266204149535,0.00343568613752434,0.107593194652288));
#656=MECHANICAL_DESIGN_GEOMETRIC_PRESENTATION_REPRESENTATION('',(#375),
#657);
#657=(
GEOMETRIC_REPRESENTATION_CONTEXT(3)
GLOBAL_UNCERTAINTY_ASSIGNED_CONTEXT((#658))
GLOBAL_UNIT_ASSIGNED_CONTEXT((#661,#660,#659))
REPRESENTATION_CONTEXT('Crank','TOP_LEVEL_ASSEMBLY_PART')
);
#658=UNCERTAINTY_MEASURE_WITH_UNIT(LENGTH_MEASURE(1.E-8),#661,
'DISTANCE_ACCURACY_VALUE','Maximum Tolerance applied to model');
#659=(
NAMED_UNIT(*)
SI_UNIT($,.STERADIAN.)
SOLID_ANGLE_UNIT()
);
#660=(
NAMED_UNIT(*)
PLANE_ANGLE_UNIT()
SI_UNIT($,.RADIAN.)
);
#661=(
LENGTH_UNIT()
NAMED_UNIT(*)
SI_UNIT($,.METRE.)
);
#662=PRODUCT_DEFINITION_SHAPE('','',#663);
#663=PRODUCT_DEFINITION('','',#665,#664);
#664=PRODUCT_DEFINITION_CONTEXT('',#671,'design');
#665=PRODUCT_DEFINITION_FORMATION_WITH_SPECIFIED_SOURCE('','',#667,
 .NOT_KNOWN.);
#666=PRODUCT_RELATED_PRODUCT_CATEGORY('','',(#667));
#667=PRODUCT('Crank','Crank','Crank',(#669));
#668=PRODUCT_CATEGORY('','');
#669=PRODUCT_CONTEXT('',#671,'mechanical');
#670=APPLICATION_PROTOCOL_DEFINITION('international standard',
'ap242_managed_model_based_3d_engineering',2020,#671);
#671=APPLICATION_CONTEXT('managed model based 3d engineering');
ENDSEC;
END-ISO-10303-21;
