ISO-10303-21;
HEADER;
/* Generated by software containing ST-Developer
 * from STEP Tools, Inc. (www.steptools.com) 
 */
/* OPTION: using custom renumber hook */

FILE_DESCRIPTION(
/* description */ ('STEP AP242 Edition 2',
'CAx-IF Rec.Pracs.---Representation and Presentation of Product Manufa
cturing Information (PMI)---4.0---2014-10-13',
'CAx-IF Rec.Pracs.---3D Tessellated Geometry---0.4---2014-09-14','2;1',
'CAx-IF Rec.Pracs.---User Defined Attributes---1.5---2016-08-15'),
/* implementation_level */ '2;1');

FILE_NAME(
/* name */ 'Hexarm - Follower - Arducam BO385',
/* time_stamp */ '2026-08-09T23:35:34Z',
/* author */ (''),
/* organization */ (''),
/* preprocessor_version */ 'ST-DEVELOPER v20',
/* originating_system */ 'ONSHAPE BY PTC INC, 1.219',
/* authorisation */ '  ');

FILE_SCHEMA (('AP242_MANAGED_MODEL_BASED_3D_ENGINEERING_MIM_LF { 1 0 10303 442 3 1 4 }'));
ENDSEC;

DATA;
#10=SHAPE_REPRESENTATION_RELATIONSHIP('','',#1185,#11);
#11=ADVANCED_BREP_SHAPE_REPRESENTATION('',(#1183),#1921);
#12=SPHERICAL_SURFACE('',#1251,0.002);
#13=CONICAL_SURFACE('',#1249,0.0068,1.0471975511966);
#14=CYLINDRICAL_SURFACE('',#1214,0.0014);
#15=CYLINDRICAL_SURFACE('',#1215,0.0013);
#16=CYLINDRICAL_SURFACE('',#1216,0.0013);
#17=CYLINDRICAL_SURFACE('',#1217,0.0013);
#18=CYLINDRICAL_SURFACE('',#1218,0.0013);
#19=CYLINDRICAL_SURFACE('',#1219,0.0014);
#20=CYLINDRICAL_SURFACE('',#1220,0.0014);
#21=CYLINDRICAL_SURFACE('',#1221,0.0014);
#22=CYLINDRICAL_SURFACE('',#1227,0.002);
#23=CYLINDRICAL_SURFACE('',#1234,0.002);
#24=CYLINDRICAL_SURFACE('',#1237,0.0066);
#25=CYLINDRICAL_SURFACE('',#1241,0.0055);
#26=CYLINDRICAL_SURFACE('',#1243,0.007);
#27=LINE('',#1603,#145);
#28=LINE('',#1605,#146);
#29=LINE('',#1607,#147);
#30=LINE('',#1611,#148);
#31=LINE('',#1613,#149);
#32=LINE('',#1615,#150);
#33=LINE('',#1633,#151);
#34=LINE('',#1636,#152);
#35=LINE('',#1638,#153);
#36=LINE('',#1640,#154);
#37=LINE('',#1641,#155);
#38=LINE('',#1644,#156);
#39=LINE('',#1648,#157);
#40=LINE('',#1650,#158);
#41=LINE('',#1652,#159);
#42=LINE('',#1654,#160);
#43=LINE('',#1656,#161);
#44=LINE('',#1660,#162);
#45=LINE('',#1662,#163);
#46=LINE('',#1664,#164);
#47=LINE('',#1666,#165);
#48=LINE('',#1669,#166);
#49=LINE('',#1670,#167);
#50=LINE('',#1672,#168);
#51=LINE('',#1674,#169);
#52=LINE('',#1676,#170);
#53=LINE('',#1678,#171);
#54=LINE('',#1680,#172);
#55=LINE('',#1682,#173);
#56=LINE('',#1685,#174);
#57=LINE('',#1687,#175);
#58=LINE('',#1689,#176);
#59=LINE('',#1715,#177);
#60=LINE('',#1716,#178);
#61=LINE('',#1718,#179);
#62=LINE('',#1720,#180);
#63=LINE('',#1722,#181);
#64=LINE('',#1724,#182);
#65=LINE('',#1726,#183);
#66=LINE('',#1728,#184);
#67=LINE('',#1730,#185);
#68=LINE('',#1732,#186);
#69=LINE('',#1736,#187);
#70=LINE('',#1738,#188);
#71=LINE('',#1740,#189);
#72=LINE('',#1742,#190);
#73=LINE('',#1744,#191);
#74=LINE('',#1745,#192);
#75=LINE('',#1747,#193);
#76=LINE('',#1749,#194);
#77=LINE('',#1779,#195);
#78=LINE('',#1782,#196);
#79=LINE('',#1784,#197);
#80=LINE('',#1786,#198);
#81=LINE('',#1787,#199);
#82=LINE('',#1790,#200);
#83=LINE('',#1792,#201);
#84=LINE('',#1794,#202);
#85=LINE('',#1795,#203);
#86=LINE('',#1798,#204);
#87=LINE('',#1800,#205);
#88=LINE('',#1802,#206);
#89=LINE('',#1803,#207);
#90=LINE('',#1806,#208);
#91=LINE('',#1808,#209);
#92=LINE('',#1810,#210);
#93=LINE('',#1811,#211);
#94=LINE('',#1814,#212);
#95=LINE('',#1816,#213);
#96=LINE('',#1818,#214);
#97=LINE('',#1820,#215);
#98=LINE('',#1822,#216);
#99=LINE('',#1824,#217);
#100=LINE('',#1826,#218);
#101=LINE('',#1828,#219);
#102=LINE('',#1830,#220);
#103=LINE('',#1832,#221);
#104=LINE('',#1834,#222);
#105=LINE('',#1836,#223);
#106=LINE('',#1839,#224);
#107=LINE('',#1841,#225);
#108=LINE('',#1843,#226);
#109=LINE('',#1845,#227);
#110=LINE('',#1846,#228);
#111=LINE('',#1848,#229);
#112=LINE('',#1850,#230);
#113=LINE('',#1853,#231);
#114=LINE('',#1856,#232);
#115=LINE('',#1858,#233);
#116=LINE('',#1860,#234);
#117=LINE('',#1862,#235);
#118=LINE('',#1863,#236);
#119=LINE('',#1865,#237);
#120=LINE('',#1867,#238);
#121=LINE('',#1870,#239);
#122=LINE('',#1873,#240);
#123=LINE('',#1875,#241);
#124=LINE('',#1877,#242);
#125=LINE('',#1879,#243);
#126=LINE('',#1880,#244);
#127=LINE('',#1882,#245);
#128=LINE('',#1884,#246);
#129=LINE('',#1887,#247);
#130=LINE('',#1890,#248);
#131=LINE('',#1892,#249);
#132=LINE('',#1894,#250);
#133=LINE('',#1896,#251);
#134=LINE('',#1897,#252);
#135=LINE('',#1899,#253);
#136=LINE('',#1901,#254);
#137=LINE('',#1904,#255);
#138=LINE('',#1907,#256);
#139=LINE('',#1909,#257);
#140=LINE('',#1911,#258);
#141=LINE('',#1913,#259);
#142=LINE('',#1914,#260);
#143=LINE('',#1916,#261);
#144=LINE('',#1918,#262);
#145=VECTOR('',#1290,1.);
#146=VECTOR('',#1291,1.);
#147=VECTOR('',#1292,1.);
#148=VECTOR('',#1295,1.);
#149=VECTOR('',#1296,1.);
#150=VECTOR('',#1297,1.);
#151=VECTOR('',#1316,1.);
#152=VECTOR('',#1317,1.);
#153=VECTOR('',#1318,1.);
#154=VECTOR('',#1319,1.);
#155=VECTOR('',#1320,1.);
#156=VECTOR('',#1321,1.);
#157=VECTOR('',#1324,1.);
#158=VECTOR('',#1325,1.);
#159=VECTOR('',#1326,1.);
#160=VECTOR('',#1327,1.);
#161=VECTOR('',#1328,1.);
#162=VECTOR('',#1331,1.);
#163=VECTOR('',#1332,1.);
#164=VECTOR('',#1333,1.);
#165=VECTOR('',#1336,1.);
#166=VECTOR('',#1337,1.);
#167=VECTOR('',#1338,1.);
#168=VECTOR('',#1341,1.);
#169=VECTOR('',#1342,1.);
#170=VECTOR('',#1345,1.);
#171=VECTOR('',#1346,1.);
#172=VECTOR('',#1349,1.);
#173=VECTOR('',#1352,1.);
#174=VECTOR('',#1353,1.);
#175=VECTOR('',#1354,1.);
#176=VECTOR('',#1355,1.);
#177=VECTOR('',#1390,1.);
#178=VECTOR('',#1391,1.);
#179=VECTOR('',#1394,1.);
#180=VECTOR('',#1397,1.);
#181=VECTOR('',#1398,1.);
#182=VECTOR('',#1401,1.);
#183=VECTOR('',#1402,1.);
#184=VECTOR('',#1405,1.);
#185=VECTOR('',#1406,1.);
#186=VECTOR('',#1409,1.);
#187=VECTOR('',#1414,1.);
#188=VECTOR('',#1415,1.);
#189=VECTOR('',#1418,1.);
#190=VECTOR('',#1419,1.);
#191=VECTOR('',#1422,1.);
#192=VECTOR('',#1423,1.);
#193=VECTOR('',#1426,1.);
#194=VECTOR('',#1429,1.);
#195=VECTOR('',#1472,1.);
#196=VECTOR('',#1473,1.);
#197=VECTOR('',#1474,1.);
#198=VECTOR('',#1475,1.);
#199=VECTOR('',#1476,1.);
#200=VECTOR('',#1477,1.);
#201=VECTOR('',#1478,1.);
#202=VECTOR('',#1479,1.);
#203=VECTOR('',#1480,1.);
#204=VECTOR('',#1481,1.);
#205=VECTOR('',#1482,1.);
#206=VECTOR('',#1483,1.);
#207=VECTOR('',#1484,1.);
#208=VECTOR('',#1485,1.);
#209=VECTOR('',#1486,1.);
#210=VECTOR('',#1487,1.);
#211=VECTOR('',#1488,1.);
#212=VECTOR('',#1489,1.);
#213=VECTOR('',#1490,1.);
#214=VECTOR('',#1491,1.);
#215=VECTOR('',#1494,1.);
#216=VECTOR('',#1495,1.);
#217=VECTOR('',#1496,1.);
#218=VECTOR('',#1499,1.);
#219=VECTOR('',#1500,1.);
#220=VECTOR('',#1503,1.);
#221=VECTOR('',#1504,1.);
#222=VECTOR('',#1507,1.);
#223=VECTOR('',#1510,1.);
#224=VECTOR('',#1511,1.);
#225=VECTOR('',#1512,1.);
#226=VECTOR('',#1513,1.);
#227=VECTOR('',#1516,1.);
#228=VECTOR('',#1517,1.);
#229=VECTOR('',#1520,1.);
#230=VECTOR('',#1523,1.);
#231=VECTOR('',#1528,1.);
#232=VECTOR('',#1529,1.);
#233=VECTOR('',#1530,1.);
#234=VECTOR('',#1531,1.);
#235=VECTOR('',#1534,1.);
#236=VECTOR('',#1535,1.);
#237=VECTOR('',#1538,1.);
#238=VECTOR('',#1541,1.);
#239=VECTOR('',#1546,1.);
#240=VECTOR('',#1547,1.);
#241=VECTOR('',#1548,1.);
#242=VECTOR('',#1549,1.);
#243=VECTOR('',#1552,1.);
#244=VECTOR('',#1553,1.);
#245=VECTOR('',#1556,1.);
#246=VECTOR('',#1559,1.);
#247=VECTOR('',#1564,1.);
#248=VECTOR('',#1565,1.);
#249=VECTOR('',#1566,1.);
#250=VECTOR('',#1567,1.);
#251=VECTOR('',#1570,1.);
#252=VECTOR('',#1571,1.);
#253=VECTOR('',#1574,1.);
#254=VECTOR('',#1577,1.);
#255=VECTOR('',#1582,1.);
#256=VECTOR('',#1583,1.);
#257=VECTOR('',#1584,1.);
#258=VECTOR('',#1585,1.);
#259=VECTOR('',#1588,1.);
#260=VECTOR('',#1589,1.);
#261=VECTOR('',#1592,1.);
#262=VECTOR('',#1595,1.);
#263=ORIENTED_EDGE('',*,*,#559,.F.);
#264=ORIENTED_EDGE('',*,*,#560,.F.);
#265=ORIENTED_EDGE('',*,*,#561,.F.);
#266=ORIENTED_EDGE('',*,*,#562,.T.);
#267=ORIENTED_EDGE('',*,*,#563,.F.);
#268=ORIENTED_EDGE('',*,*,#564,.F.);
#269=ORIENTED_EDGE('',*,*,#565,.F.);
#270=ORIENTED_EDGE('',*,*,#566,.T.);
#271=ORIENTED_EDGE('',*,*,#567,.F.);
#272=ORIENTED_EDGE('',*,*,#568,.F.);
#273=ORIENTED_EDGE('',*,*,#569,.F.);
#274=ORIENTED_EDGE('',*,*,#570,.F.);
#275=ORIENTED_EDGE('',*,*,#571,.F.);
#276=ORIENTED_EDGE('',*,*,#572,.F.);
#277=ORIENTED_EDGE('',*,*,#573,.F.);
#278=ORIENTED_EDGE('',*,*,#574,.F.);
#279=ORIENTED_EDGE('',*,*,#575,.F.);
#280=ORIENTED_EDGE('',*,*,#576,.T.);
#281=ORIENTED_EDGE('',*,*,#577,.T.);
#282=ORIENTED_EDGE('',*,*,#578,.F.);
#283=ORIENTED_EDGE('',*,*,#579,.T.);
#284=ORIENTED_EDGE('',*,*,#580,.T.);
#285=ORIENTED_EDGE('',*,*,#581,.T.);
#286=ORIENTED_EDGE('',*,*,#582,.F.);
#287=ORIENTED_EDGE('',*,*,#583,.T.);
#288=ORIENTED_EDGE('',*,*,#584,.T.);
#289=ORIENTED_EDGE('',*,*,#585,.F.);
#290=ORIENTED_EDGE('',*,*,#586,.T.);
#291=ORIENTED_EDGE('',*,*,#587,.F.);
#292=ORIENTED_EDGE('',*,*,#588,.F.);
#293=ORIENTED_EDGE('',*,*,#589,.F.);
#294=ORIENTED_EDGE('',*,*,#590,.F.);
#295=ORIENTED_EDGE('',*,*,#591,.F.);
#296=ORIENTED_EDGE('',*,*,#592,.F.);
#297=ORIENTED_EDGE('',*,*,#575,.T.);
#298=ORIENTED_EDGE('',*,*,#593,.T.);
#299=ORIENTED_EDGE('',*,*,#594,.T.);
#300=ORIENTED_EDGE('',*,*,#595,.F.);
#301=ORIENTED_EDGE('',*,*,#576,.F.);
#302=ORIENTED_EDGE('',*,*,#592,.T.);
#303=ORIENTED_EDGE('',*,*,#596,.T.);
#304=ORIENTED_EDGE('',*,*,#597,.F.);
#305=ORIENTED_EDGE('',*,*,#577,.F.);
#306=ORIENTED_EDGE('',*,*,#595,.T.);
#307=ORIENTED_EDGE('',*,*,#598,.F.);
#308=ORIENTED_EDGE('',*,*,#593,.F.);
#309=ORIENTED_EDGE('',*,*,#578,.T.);
#310=ORIENTED_EDGE('',*,*,#597,.T.);
#311=ORIENTED_EDGE('',*,*,#599,.F.);
#312=ORIENTED_EDGE('',*,*,#600,.F.);
#313=ORIENTED_EDGE('',*,*,#601,.T.);
#314=ORIENTED_EDGE('',*,*,#602,.T.);
#315=ORIENTED_EDGE('',*,*,#603,.T.);
#316=ORIENTED_EDGE('',*,*,#604,.T.);
#317=ORIENTED_EDGE('',*,*,#605,.T.);
#318=ORIENTED_EDGE('',*,*,#606,.T.);
#319=ORIENTED_EDGE('',*,*,#607,.T.);
#320=ORIENTED_EDGE('',*,*,#608,.T.);
#321=ORIENTED_EDGE('',*,*,#609,.T.);
#322=ORIENTED_EDGE('',*,*,#610,.T.);
#323=ORIENTED_EDGE('',*,*,#591,.T.);
#324=ORIENTED_EDGE('',*,*,#598,.T.);
#325=ORIENTED_EDGE('',*,*,#596,.F.);
#326=ORIENTED_EDGE('',*,*,#594,.F.);
#327=ORIENTED_EDGE('',*,*,#574,.T.);
#328=ORIENTED_EDGE('',*,*,#610,.F.);
#329=ORIENTED_EDGE('',*,*,#573,.T.);
#330=ORIENTED_EDGE('',*,*,#609,.F.);
#331=ORIENTED_EDGE('',*,*,#572,.T.);
#332=ORIENTED_EDGE('',*,*,#608,.F.);
#333=ORIENTED_EDGE('',*,*,#571,.T.);
#334=ORIENTED_EDGE('',*,*,#607,.F.);
#335=ORIENTED_EDGE('',*,*,#570,.T.);
#336=ORIENTED_EDGE('',*,*,#606,.F.);
#337=ORIENTED_EDGE('',*,*,#569,.T.);
#338=ORIENTED_EDGE('',*,*,#605,.F.);
#339=ORIENTED_EDGE('',*,*,#568,.T.);
#340=ORIENTED_EDGE('',*,*,#604,.F.);
#341=ORIENTED_EDGE('',*,*,#567,.T.);
#342=ORIENTED_EDGE('',*,*,#603,.F.);
#343=ORIENTED_EDGE('',*,*,#580,.F.);
#344=ORIENTED_EDGE('',*,*,#611,.F.);
#345=ORIENTED_EDGE('',*,*,#564,.T.);
#346=ORIENTED_EDGE('',*,*,#612,.T.);
#347=ORIENTED_EDGE('',*,*,#579,.F.);
#348=ORIENTED_EDGE('',*,*,#613,.F.);
#349=ORIENTED_EDGE('',*,*,#565,.T.);
#350=ORIENTED_EDGE('',*,*,#611,.T.);
#351=ORIENTED_EDGE('',*,*,#590,.T.);
#352=ORIENTED_EDGE('',*,*,#614,.F.);
#353=ORIENTED_EDGE('',*,*,#615,.F.);
#354=ORIENTED_EDGE('',*,*,#566,.F.);
#355=ORIENTED_EDGE('',*,*,#613,.T.);
#356=ORIENTED_EDGE('',*,*,#589,.T.);
#357=ORIENTED_EDGE('',*,*,#616,.F.);
#358=ORIENTED_EDGE('',*,*,#617,.F.);
#359=ORIENTED_EDGE('',*,*,#614,.T.);
#360=ORIENTED_EDGE('',*,*,#588,.T.);
#361=ORIENTED_EDGE('',*,*,#618,.F.);
#362=ORIENTED_EDGE('',*,*,#619,.F.);
#363=ORIENTED_EDGE('',*,*,#616,.T.);
#364=ORIENTED_EDGE('',*,*,#587,.T.);
#365=ORIENTED_EDGE('',*,*,#620,.F.);
#366=ORIENTED_EDGE('',*,*,#621,.F.);
#367=ORIENTED_EDGE('',*,*,#618,.T.);
#368=ORIENTED_EDGE('',*,*,#586,.F.);
#369=ORIENTED_EDGE('',*,*,#622,.F.);
#370=ORIENTED_EDGE('',*,*,#623,.T.);
#371=ORIENTED_EDGE('',*,*,#620,.T.);
#372=ORIENTED_EDGE('',*,*,#585,.T.);
#373=ORIENTED_EDGE('',*,*,#624,.F.);
#374=ORIENTED_EDGE('',*,*,#625,.F.);
#375=ORIENTED_EDGE('',*,*,#622,.T.);
#376=ORIENTED_EDGE('',*,*,#584,.F.);
#377=ORIENTED_EDGE('',*,*,#626,.F.);
#378=ORIENTED_EDGE('',*,*,#560,.T.);
#379=ORIENTED_EDGE('',*,*,#627,.T.);
#380=ORIENTED_EDGE('',*,*,#624,.T.);
#381=ORIENTED_EDGE('',*,*,#583,.F.);
#382=ORIENTED_EDGE('',*,*,#628,.F.);
#383=ORIENTED_EDGE('',*,*,#561,.T.);
#384=ORIENTED_EDGE('',*,*,#626,.T.);
#385=ORIENTED_EDGE('',*,*,#582,.T.);
#386=ORIENTED_EDGE('',*,*,#629,.F.);
#387=ORIENTED_EDGE('',*,*,#562,.F.);
#388=ORIENTED_EDGE('',*,*,#628,.T.);
#389=ORIENTED_EDGE('',*,*,#581,.F.);
#390=ORIENTED_EDGE('',*,*,#612,.F.);
#391=ORIENTED_EDGE('',*,*,#563,.T.);
#392=ORIENTED_EDGE('',*,*,#629,.T.);
#393=ORIENTED_EDGE('',*,*,#630,.F.);
#394=ORIENTED_EDGE('',*,*,#615,.T.);
#395=ORIENTED_EDGE('',*,*,#617,.T.);
#396=ORIENTED_EDGE('',*,*,#619,.T.);
#397=ORIENTED_EDGE('',*,*,#621,.T.);
#398=ORIENTED_EDGE('',*,*,#623,.F.);
#399=ORIENTED_EDGE('',*,*,#625,.T.);
#400=ORIENTED_EDGE('',*,*,#627,.F.);
#401=ORIENTED_EDGE('',*,*,#631,.F.);
#402=ORIENTED_EDGE('',*,*,#559,.T.);
#403=ORIENTED_EDGE('',*,*,#630,.T.);
#404=ORIENTED_EDGE('',*,*,#632,.F.);
#405=ORIENTED_EDGE('',*,*,#631,.T.);
#406=ORIENTED_EDGE('',*,*,#633,.F.);
#407=ORIENTED_EDGE('',*,*,#632,.T.);
#408=ORIENTED_EDGE('',*,*,#634,.F.);
#409=ORIENTED_EDGE('',*,*,#635,.T.);
#410=ORIENTED_EDGE('',*,*,#636,.F.);
#411=ORIENTED_EDGE('',*,*,#634,.T.);
#412=ORIENTED_EDGE('',*,*,#633,.T.);
#413=ORIENTED_EDGE('',*,*,#635,.F.);
#414=ORIENTED_EDGE('',*,*,#637,.F.);
#415=ORIENTED_EDGE('',*,*,#636,.T.);
#416=ORIENTED_EDGE('',*,*,#638,.T.);
#417=ORIENTED_EDGE('',*,*,#638,.F.);
#418=ORIENTED_EDGE('',*,*,#637,.T.);
#419=ORIENTED_EDGE('',*,*,#639,.T.);
#420=ORIENTED_EDGE('',*,*,#640,.T.);
#421=ORIENTED_EDGE('',*,*,#641,.F.);
#422=ORIENTED_EDGE('',*,*,#642,.F.);
#423=ORIENTED_EDGE('',*,*,#643,.F.);
#424=ORIENTED_EDGE('',*,*,#644,.F.);
#425=ORIENTED_EDGE('',*,*,#645,.F.);
#426=ORIENTED_EDGE('',*,*,#646,.F.);
#427=ORIENTED_EDGE('',*,*,#647,.T.);
#428=ORIENTED_EDGE('',*,*,#648,.F.);
#429=ORIENTED_EDGE('',*,*,#649,.F.);
#430=ORIENTED_EDGE('',*,*,#650,.T.);
#431=ORIENTED_EDGE('',*,*,#651,.F.);
#432=ORIENTED_EDGE('',*,*,#652,.T.);
#433=ORIENTED_EDGE('',*,*,#653,.T.);
#434=ORIENTED_EDGE('',*,*,#654,.F.);
#435=ORIENTED_EDGE('',*,*,#655,.T.);
#436=ORIENTED_EDGE('',*,*,#656,.T.);
#437=ORIENTED_EDGE('',*,*,#657,.F.);
#438=ORIENTED_EDGE('',*,*,#658,.F.);
#439=ORIENTED_EDGE('',*,*,#600,.T.);
#440=ORIENTED_EDGE('',*,*,#659,.F.);
#441=ORIENTED_EDGE('',*,*,#660,.F.);
#442=ORIENTED_EDGE('',*,*,#661,.T.);
#443=ORIENTED_EDGE('',*,*,#601,.F.);
#444=ORIENTED_EDGE('',*,*,#661,.F.);
#445=ORIENTED_EDGE('',*,*,#662,.T.);
#446=ORIENTED_EDGE('',*,*,#663,.T.);
#447=ORIENTED_EDGE('',*,*,#602,.F.);
#448=ORIENTED_EDGE('',*,*,#663,.F.);
#449=ORIENTED_EDGE('',*,*,#664,.T.);
#450=ORIENTED_EDGE('',*,*,#665,.T.);
#451=ORIENTED_EDGE('',*,*,#599,.T.);
#452=ORIENTED_EDGE('',*,*,#665,.F.);
#453=ORIENTED_EDGE('',*,*,#666,.F.);
#454=ORIENTED_EDGE('',*,*,#659,.T.);
#455=ORIENTED_EDGE('',*,*,#667,.T.);
#456=ORIENTED_EDGE('',*,*,#668,.T.);
#457=ORIENTED_EDGE('',*,*,#669,.T.);
#458=ORIENTED_EDGE('',*,*,#670,.T.);
#459=ORIENTED_EDGE('',*,*,#660,.T.);
#460=ORIENTED_EDGE('',*,*,#666,.T.);
#461=ORIENTED_EDGE('',*,*,#664,.F.);
#462=ORIENTED_EDGE('',*,*,#662,.F.);
#463=ORIENTED_EDGE('',*,*,#671,.F.);
#464=ORIENTED_EDGE('',*,*,#646,.T.);
#465=ORIENTED_EDGE('',*,*,#672,.T.);
#466=ORIENTED_EDGE('',*,*,#667,.F.);
#467=ORIENTED_EDGE('',*,*,#673,.F.);
#468=ORIENTED_EDGE('',*,*,#643,.T.);
#469=ORIENTED_EDGE('',*,*,#671,.T.);
#470=ORIENTED_EDGE('',*,*,#670,.F.);
#471=ORIENTED_EDGE('',*,*,#672,.F.);
#472=ORIENTED_EDGE('',*,*,#645,.T.);
#473=ORIENTED_EDGE('',*,*,#674,.T.);
#474=ORIENTED_EDGE('',*,*,#668,.F.);
#475=ORIENTED_EDGE('',*,*,#674,.F.);
#476=ORIENTED_EDGE('',*,*,#644,.T.);
#477=ORIENTED_EDGE('',*,*,#673,.T.);
#478=ORIENTED_EDGE('',*,*,#669,.F.);
#479=ORIENTED_EDGE('',*,*,#675,.T.);
#480=ORIENTED_EDGE('',*,*,#676,.T.);
#481=ORIENTED_EDGE('',*,*,#677,.F.);
#482=ORIENTED_EDGE('',*,*,#678,.F.);
#483=ORIENTED_EDGE('',*,*,#677,.T.);
#484=ORIENTED_EDGE('',*,*,#679,.T.);
#485=ORIENTED_EDGE('',*,*,#647,.F.);
#486=ORIENTED_EDGE('',*,*,#680,.F.);
#487=ORIENTED_EDGE('',*,*,#681,.T.);
#488=ORIENTED_EDGE('',*,*,#648,.T.);
#489=ORIENTED_EDGE('',*,*,#679,.F.);
#490=ORIENTED_EDGE('',*,*,#676,.F.);
#491=ORIENTED_EDGE('',*,*,#678,.T.);
#492=ORIENTED_EDGE('',*,*,#680,.T.);
#493=ORIENTED_EDGE('',*,*,#650,.F.);
#494=ORIENTED_EDGE('',*,*,#682,.F.);
#495=ORIENTED_EDGE('',*,*,#682,.T.);
#496=ORIENTED_EDGE('',*,*,#649,.T.);
#497=ORIENTED_EDGE('',*,*,#681,.F.);
#498=ORIENTED_EDGE('',*,*,#675,.F.);
#499=ORIENTED_EDGE('',*,*,#683,.T.);
#500=ORIENTED_EDGE('',*,*,#684,.T.);
#501=ORIENTED_EDGE('',*,*,#685,.F.);
#502=ORIENTED_EDGE('',*,*,#686,.F.);
#503=ORIENTED_EDGE('',*,*,#686,.T.);
#504=ORIENTED_EDGE('',*,*,#687,.T.);
#505=ORIENTED_EDGE('',*,*,#639,.F.);
#506=ORIENTED_EDGE('',*,*,#688,.F.);
#507=ORIENTED_EDGE('',*,*,#685,.T.);
#508=ORIENTED_EDGE('',*,*,#689,.T.);
#509=ORIENTED_EDGE('',*,*,#640,.F.);
#510=ORIENTED_EDGE('',*,*,#687,.F.);
#511=ORIENTED_EDGE('',*,*,#688,.T.);
#512=ORIENTED_EDGE('',*,*,#642,.T.);
#513=ORIENTED_EDGE('',*,*,#690,.F.);
#514=ORIENTED_EDGE('',*,*,#683,.F.);
#515=ORIENTED_EDGE('',*,*,#690,.T.);
#516=ORIENTED_EDGE('',*,*,#641,.T.);
#517=ORIENTED_EDGE('',*,*,#689,.F.);
#518=ORIENTED_EDGE('',*,*,#684,.F.);
#519=ORIENTED_EDGE('',*,*,#691,.T.);
#520=ORIENTED_EDGE('',*,*,#692,.F.);
#521=ORIENTED_EDGE('',*,*,#693,.F.);
#522=ORIENTED_EDGE('',*,*,#694,.T.);
#523=ORIENTED_EDGE('',*,*,#695,.T.);
#524=ORIENTED_EDGE('',*,*,#654,.T.);
#525=ORIENTED_EDGE('',*,*,#696,.F.);
#526=ORIENTED_EDGE('',*,*,#691,.F.);
#527=ORIENTED_EDGE('',*,*,#697,.T.);
#528=ORIENTED_EDGE('',*,*,#651,.T.);
#529=ORIENTED_EDGE('',*,*,#695,.F.);
#530=ORIENTED_EDGE('',*,*,#694,.F.);
#531=ORIENTED_EDGE('',*,*,#693,.T.);
#532=ORIENTED_EDGE('',*,*,#698,.T.);
#533=ORIENTED_EDGE('',*,*,#652,.F.);
#534=ORIENTED_EDGE('',*,*,#697,.F.);
#535=ORIENTED_EDGE('',*,*,#692,.T.);
#536=ORIENTED_EDGE('',*,*,#696,.T.);
#537=ORIENTED_EDGE('',*,*,#653,.F.);
#538=ORIENTED_EDGE('',*,*,#698,.F.);
#539=ORIENTED_EDGE('',*,*,#699,.T.);
#540=ORIENTED_EDGE('',*,*,#700,.T.);
#541=ORIENTED_EDGE('',*,*,#701,.F.);
#542=ORIENTED_EDGE('',*,*,#702,.F.);
#543=ORIENTED_EDGE('',*,*,#702,.T.);
#544=ORIENTED_EDGE('',*,*,#703,.T.);
#545=ORIENTED_EDGE('',*,*,#655,.F.);
#546=ORIENTED_EDGE('',*,*,#704,.F.);
#547=ORIENTED_EDGE('',*,*,#701,.T.);
#548=ORIENTED_EDGE('',*,*,#705,.T.);
#549=ORIENTED_EDGE('',*,*,#656,.F.);
#550=ORIENTED_EDGE('',*,*,#703,.F.);
#551=ORIENTED_EDGE('',*,*,#704,.T.);
#552=ORIENTED_EDGE('',*,*,#658,.T.);
#553=ORIENTED_EDGE('',*,*,#706,.F.);
#554=ORIENTED_EDGE('',*,*,#699,.F.);
#555=ORIENTED_EDGE('',*,*,#706,.T.);
#556=ORIENTED_EDGE('',*,*,#657,.T.);
#557=ORIENTED_EDGE('',*,*,#705,.F.);
#558=ORIENTED_EDGE('',*,*,#700,.F.);
#559=EDGE_CURVE('',#707,#708,#813,.T.);
#560=EDGE_CURVE('',#709,#707,#27,.T.);
#561=EDGE_CURVE('',#710,#709,#28,.T.);
#562=EDGE_CURVE('',#710,#711,#29,.T.);
#563=EDGE_CURVE('',#712,#711,#814,.T.);
#564=EDGE_CURVE('',#713,#712,#30,.T.);
#565=EDGE_CURVE('',#714,#713,#31,.T.);
#566=EDGE_CURVE('',#714,#708,#32,.T.);
#567=EDGE_CURVE('',#715,#715,#815,.T.);
#568=EDGE_CURVE('',#716,#716,#816,.T.);
#569=EDGE_CURVE('',#717,#717,#817,.T.);
#570=EDGE_CURVE('',#718,#718,#818,.T.);
#571=EDGE_CURVE('',#719,#719,#819,.T.);
#572=EDGE_CURVE('',#720,#720,#820,.T.);
#573=EDGE_CURVE('',#721,#721,#821,.T.);
#574=EDGE_CURVE('',#722,#722,#822,.T.);
#575=EDGE_CURVE('',#723,#724,#33,.T.);
#576=EDGE_CURVE('',#723,#725,#34,.T.);
#577=EDGE_CURVE('',#725,#726,#35,.T.);
#578=EDGE_CURVE('',#724,#726,#36,.T.);
#579=EDGE_CURVE('',#727,#728,#37,.T.);
#580=EDGE_CURVE('',#728,#729,#38,.T.);
#581=EDGE_CURVE('',#729,#730,#823,.T.);
#582=EDGE_CURVE('',#731,#730,#39,.T.);
#583=EDGE_CURVE('',#731,#732,#40,.T.);
#584=EDGE_CURVE('',#732,#733,#41,.T.);
#585=EDGE_CURVE('',#734,#733,#42,.T.);
#586=EDGE_CURVE('',#734,#735,#43,.T.);
#587=EDGE_CURVE('',#736,#735,#824,.T.);
#588=EDGE_CURVE('',#737,#736,#44,.T.);
#589=EDGE_CURVE('',#738,#737,#45,.T.);
#590=EDGE_CURVE('',#727,#738,#46,.T.);
#591=EDGE_CURVE('',#739,#740,#47,.T.);
#592=EDGE_CURVE('',#723,#739,#48,.T.);
#593=EDGE_CURVE('',#724,#740,#49,.T.);
#594=EDGE_CURVE('',#739,#741,#50,.T.);
#595=EDGE_CURVE('',#725,#741,#51,.T.);
#596=EDGE_CURVE('',#741,#742,#52,.T.);
#597=EDGE_CURVE('',#726,#742,#53,.T.);
#598=EDGE_CURVE('',#740,#742,#54,.T.);
#599=EDGE_CURVE('',#743,#744,#55,.T.);
#600=EDGE_CURVE('',#745,#743,#56,.T.);
#601=EDGE_CURVE('',#745,#746,#57,.T.);
#602=EDGE_CURVE('',#746,#744,#58,.T.);
#603=EDGE_CURVE('',#747,#747,#825,.T.);
#604=EDGE_CURVE('',#748,#748,#826,.T.);
#605=EDGE_CURVE('',#749,#749,#827,.T.);
#606=EDGE_CURVE('',#750,#750,#828,.T.);
#607=EDGE_CURVE('',#751,#751,#829,.T.);
#608=EDGE_CURVE('',#752,#752,#830,.T.);
#609=EDGE_CURVE('',#753,#753,#831,.T.);
#610=EDGE_CURVE('',#754,#754,#832,.T.);
#611=EDGE_CURVE('',#713,#728,#59,.T.);
#612=EDGE_CURVE('',#712,#729,#60,.T.);
#613=EDGE_CURVE('',#714,#727,#61,.T.);
#614=EDGE_CURVE('',#755,#738,#62,.T.);
#615=EDGE_CURVE('',#708,#755,#63,.T.);
#616=EDGE_CURVE('',#756,#737,#64,.T.);
#617=EDGE_CURVE('',#755,#756,#65,.T.);
#618=EDGE_CURVE('',#757,#736,#66,.T.);
#619=EDGE_CURVE('',#756,#757,#67,.T.);
#620=EDGE_CURVE('',#758,#735,#68,.T.);
#621=EDGE_CURVE('',#757,#758,#833,.T.);
#622=EDGE_CURVE('',#759,#734,#69,.T.);
#623=EDGE_CURVE('',#759,#758,#70,.T.);
#624=EDGE_CURVE('',#760,#733,#71,.T.);
#625=EDGE_CURVE('',#759,#760,#72,.T.);
#626=EDGE_CURVE('',#709,#732,#73,.T.);
#627=EDGE_CURVE('',#707,#760,#74,.T.);
#628=EDGE_CURVE('',#710,#731,#75,.T.);
#629=EDGE_CURVE('',#711,#730,#76,.T.);
#630=EDGE_CURVE('',#708,#707,#834,.T.);
#631=EDGE_CURVE('',#761,#761,#835,.T.);
#632=EDGE_CURVE('',#762,#762,#836,.T.);
#633=EDGE_CURVE('',#763,#763,#837,.T.);
#634=EDGE_CURVE('',#764,#764,#838,.T.);
#635=EDGE_CURVE('',#765,#765,#839,.T.);
#636=EDGE_CURVE('',#766,#766,#840,.T.);
#637=EDGE_CURVE('',#767,#767,#841,.T.);
#638=EDGE_CURVE('',#768,#768,#842,.T.);
#639=EDGE_CURVE('',#769,#770,#77,.T.);
#640=EDGE_CURVE('',#770,#771,#78,.T.);
#641=EDGE_CURVE('',#772,#771,#79,.T.);
#642=EDGE_CURVE('',#769,#772,#80,.T.);
#643=EDGE_CURVE('',#773,#774,#81,.T.);
#644=EDGE_CURVE('',#775,#773,#82,.T.);
#645=EDGE_CURVE('',#776,#775,#83,.T.);
#646=EDGE_CURVE('',#774,#776,#84,.T.);
#647=EDGE_CURVE('',#777,#778,#85,.T.);
#648=EDGE_CURVE('',#779,#778,#86,.T.);
#649=EDGE_CURVE('',#780,#779,#87,.T.);
#650=EDGE_CURVE('',#780,#777,#88,.T.);
#651=EDGE_CURVE('',#781,#782,#89,.T.);
#652=EDGE_CURVE('',#781,#783,#90,.T.);
#653=EDGE_CURVE('',#783,#784,#91,.T.);
#654=EDGE_CURVE('',#782,#784,#92,.T.);
#655=EDGE_CURVE('',#785,#786,#93,.T.);
#656=EDGE_CURVE('',#786,#787,#94,.T.);
#657=EDGE_CURVE('',#788,#787,#95,.T.);
#658=EDGE_CURVE('',#785,#788,#96,.T.);
#659=EDGE_CURVE('',#789,#743,#97,.T.);
#660=EDGE_CURVE('',#790,#789,#98,.T.);
#661=EDGE_CURVE('',#790,#745,#99,.T.);
#662=EDGE_CURVE('',#790,#791,#100,.T.);
#663=EDGE_CURVE('',#791,#746,#101,.T.);
#664=EDGE_CURVE('',#791,#792,#102,.T.);
#665=EDGE_CURVE('',#792,#744,#103,.T.);
#666=EDGE_CURVE('',#789,#792,#104,.T.);
#667=EDGE_CURVE('',#793,#794,#105,.T.);
#668=EDGE_CURVE('',#794,#795,#106,.T.);
#669=EDGE_CURVE('',#795,#796,#107,.T.);
#670=EDGE_CURVE('',#796,#793,#108,.T.);
#671=EDGE_CURVE('',#774,#793,#109,.T.);
#672=EDGE_CURVE('',#776,#794,#110,.T.);
#673=EDGE_CURVE('',#773,#796,#111,.T.);
#674=EDGE_CURVE('',#775,#795,#112,.T.);
#675=EDGE_CURVE('',#797,#798,#113,.T.);
#676=EDGE_CURVE('',#798,#799,#114,.T.);
#677=EDGE_CURVE('',#800,#799,#115,.T.);
#678=EDGE_CURVE('',#797,#800,#116,.T.);
#679=EDGE_CURVE('',#799,#778,#117,.T.);
#680=EDGE_CURVE('',#800,#777,#118,.T.);
#681=EDGE_CURVE('',#798,#779,#119,.T.);
#682=EDGE_CURVE('',#797,#780,#120,.T.);
#683=EDGE_CURVE('',#801,#802,#121,.T.);
#684=EDGE_CURVE('',#802,#803,#122,.T.);
#685=EDGE_CURVE('',#804,#803,#123,.T.);
#686=EDGE_CURVE('',#801,#804,#124,.T.);
#687=EDGE_CURVE('',#804,#770,#125,.T.);
#688=EDGE_CURVE('',#801,#769,#126,.T.);
#689=EDGE_CURVE('',#803,#771,#127,.T.);
#690=EDGE_CURVE('',#802,#772,#128,.T.);
#691=EDGE_CURVE('',#805,#806,#129,.T.);
#692=EDGE_CURVE('',#807,#806,#130,.T.);
#693=EDGE_CURVE('',#808,#807,#131,.T.);
#694=EDGE_CURVE('',#808,#805,#132,.T.);
#695=EDGE_CURVE('',#805,#782,#133,.T.);
#696=EDGE_CURVE('',#806,#784,#134,.T.);
#697=EDGE_CURVE('',#808,#781,#135,.T.);
#698=EDGE_CURVE('',#807,#783,#136,.T.);
#699=EDGE_CURVE('',#809,#810,#137,.T.);
#700=EDGE_CURVE('',#810,#811,#138,.T.);
#701=EDGE_CURVE('',#812,#811,#139,.T.);
#702=EDGE_CURVE('',#809,#812,#140,.T.);
#703=EDGE_CURVE('',#812,#786,#141,.T.);
#704=EDGE_CURVE('',#809,#785,#142,.T.);
#705=EDGE_CURVE('',#811,#787,#143,.T.);
#706=EDGE_CURVE('',#810,#788,#144,.T.);
#707=VERTEX_POINT('',#1601);
#708=VERTEX_POINT('',#1602);
#709=VERTEX_POINT('',#1604);
#710=VERTEX_POINT('',#1606);
#711=VERTEX_POINT('',#1608);
#712=VERTEX_POINT('',#1610);
#713=VERTEX_POINT('',#1612);
#714=VERTEX_POINT('',#1614);
#715=VERTEX_POINT('',#1618);
#716=VERTEX_POINT('',#1620);
#717=VERTEX_POINT('',#1622);
#718=VERTEX_POINT('',#1624);
#719=VERTEX_POINT('',#1626);
#720=VERTEX_POINT('',#1628);
#721=VERTEX_POINT('',#1630);
#722=VERTEX_POINT('',#1632);
#723=VERTEX_POINT('',#1634);
#724=VERTEX_POINT('',#1635);
#725=VERTEX_POINT('',#1637);
#726=VERTEX_POINT('',#1639);
#727=VERTEX_POINT('',#1642);
#728=VERTEX_POINT('',#1643);
#729=VERTEX_POINT('',#1645);
#730=VERTEX_POINT('',#1647);
#731=VERTEX_POINT('',#1649);
#732=VERTEX_POINT('',#1651);
#733=VERTEX_POINT('',#1653);
#734=VERTEX_POINT('',#1655);
#735=VERTEX_POINT('',#1657);
#736=VERTEX_POINT('',#1659);
#737=VERTEX_POINT('',#1661);
#738=VERTEX_POINT('',#1663);
#739=VERTEX_POINT('',#1667);
#740=VERTEX_POINT('',#1668);
#741=VERTEX_POINT('',#1673);
#742=VERTEX_POINT('',#1677);
#743=VERTEX_POINT('',#1683);
#744=VERTEX_POINT('',#1684);
#745=VERTEX_POINT('',#1686);
#746=VERTEX_POINT('',#1688);
#747=VERTEX_POINT('',#1691);
#748=VERTEX_POINT('',#1693);
#749=VERTEX_POINT('',#1695);
#750=VERTEX_POINT('',#1697);
#751=VERTEX_POINT('',#1699);
#752=VERTEX_POINT('',#1701);
#753=VERTEX_POINT('',#1703);
#754=VERTEX_POINT('',#1705);
#755=VERTEX_POINT('',#1721);
#756=VERTEX_POINT('',#1725);
#757=VERTEX_POINT('',#1729);
#758=VERTEX_POINT('',#1733);
#759=VERTEX_POINT('',#1737);
#760=VERTEX_POINT('',#1741);
#761=VERTEX_POINT('',#1755);
#762=VERTEX_POINT('',#1758);
#763=VERTEX_POINT('',#1761);
#764=VERTEX_POINT('',#1764);
#765=VERTEX_POINT('',#1766);
#766=VERTEX_POINT('',#1769);
#767=VERTEX_POINT('',#1773);
#768=VERTEX_POINT('',#1776);
#769=VERTEX_POINT('',#1780);
#770=VERTEX_POINT('',#1781);
#771=VERTEX_POINT('',#1783);
#772=VERTEX_POINT('',#1785);
#773=VERTEX_POINT('',#1788);
#774=VERTEX_POINT('',#1789);
#775=VERTEX_POINT('',#1791);
#776=VERTEX_POINT('',#1793);
#777=VERTEX_POINT('',#1796);
#778=VERTEX_POINT('',#1797);
#779=VERTEX_POINT('',#1799);
#780=VERTEX_POINT('',#1801);
#781=VERTEX_POINT('',#1804);
#782=VERTEX_POINT('',#1805);
#783=VERTEX_POINT('',#1807);
#784=VERTEX_POINT('',#1809);
#785=VERTEX_POINT('',#1812);
#786=VERTEX_POINT('',#1813);
#787=VERTEX_POINT('',#1815);
#788=VERTEX_POINT('',#1817);
#789=VERTEX_POINT('',#1821);
#790=VERTEX_POINT('',#1823);
#791=VERTEX_POINT('',#1827);
#792=VERTEX_POINT('',#1831);
#793=VERTEX_POINT('',#1837);
#794=VERTEX_POINT('',#1838);
#795=VERTEX_POINT('',#1840);
#796=VERTEX_POINT('',#1842);
#797=VERTEX_POINT('',#1854);
#798=VERTEX_POINT('',#1855);
#799=VERTEX_POINT('',#1857);
#800=VERTEX_POINT('',#1859);
#801=VERTEX_POINT('',#1871);
#802=VERTEX_POINT('',#1872);
#803=VERTEX_POINT('',#1874);
#804=VERTEX_POINT('',#1876);
#805=VERTEX_POINT('',#1888);
#806=VERTEX_POINT('',#1889);
#807=VERTEX_POINT('',#1891);
#808=VERTEX_POINT('',#1893);
#809=VERTEX_POINT('',#1905);
#810=VERTEX_POINT('',#1906);
#811=VERTEX_POINT('',#1908);
#812=VERTEX_POINT('',#1910);
#813=CIRCLE('',#1188,0.0066);
#814=CIRCLE('',#1189,0.002);
#815=CIRCLE('',#1191,0.0014);
#816=CIRCLE('',#1192,0.0014);
#817=CIRCLE('',#1193,0.0014);
#818=CIRCLE('',#1194,0.0013);
#819=CIRCLE('',#1195,0.0013);
#820=CIRCLE('',#1196,0.0013);
#821=CIRCLE('',#1197,0.0013);
#822=CIRCLE('',#1198,0.0014);
#823=CIRCLE('',#1199,0.002);
#824=CIRCLE('',#1200,0.002);
#825=CIRCLE('',#1206,0.0014);
#826=CIRCLE('',#1207,0.0014);
#827=CIRCLE('',#1208,0.0014);
#828=CIRCLE('',#1209,0.0013);
#829=CIRCLE('',#1210,0.0013);
#830=CIRCLE('',#1211,0.0013);
#831=CIRCLE('',#1212,0.0013);
#832=CIRCLE('',#1213,0.0014);
#833=CIRCLE('',#1228,0.002);
#834=CIRCLE('',#1236,0.0066);
#835=CIRCLE('',#1238,0.0066);
#836=CIRCLE('',#1240,0.0055);
#837=CIRCLE('',#1242,0.0055);
#838=CIRCLE('',#1244,0.007);
#839=CIRCLE('',#1245,0.007);
#840=CIRCLE('',#1247,0.0068);
#841=CIRCLE('',#1250,0.00307609076372692);
#842=CIRCLE('',#1252,0.002);
#843=EDGE_LOOP('',(#263,#264,#265,#266,#267,#268,#269,#270));
#844=EDGE_LOOP('',(#271));
#845=EDGE_LOOP('',(#272));
#846=EDGE_LOOP('',(#273));
#847=EDGE_LOOP('',(#274));
#848=EDGE_LOOP('',(#275));
#849=EDGE_LOOP('',(#276));
#850=EDGE_LOOP('',(#277));
#851=EDGE_LOOP('',(#278));
#852=EDGE_LOOP('',(#279,#280,#281,#282));
#853=EDGE_LOOP('',(#283,#284,#285,#286,#287,#288,#289,#290,#291,#292,#293,
#294));
#854=EDGE_LOOP('',(#295,#296,#297,#298));
#855=EDGE_LOOP('',(#299,#300,#301,#302));
#856=EDGE_LOOP('',(#303,#304,#305,#306));
#857=EDGE_LOOP('',(#307,#308,#309,#310));
#858=EDGE_LOOP('',(#311,#312,#313,#314));
#859=EDGE_LOOP('',(#315));
#860=EDGE_LOOP('',(#316));
#861=EDGE_LOOP('',(#317));
#862=EDGE_LOOP('',(#318));
#863=EDGE_LOOP('',(#319));
#864=EDGE_LOOP('',(#320));
#865=EDGE_LOOP('',(#321));
#866=EDGE_LOOP('',(#322));
#867=EDGE_LOOP('',(#323,#324,#325,#326));
#868=EDGE_LOOP('',(#327));
#869=EDGE_LOOP('',(#328));
#870=EDGE_LOOP('',(#329));
#871=EDGE_LOOP('',(#330));
#872=EDGE_LOOP('',(#331));
#873=EDGE_LOOP('',(#332));
#874=EDGE_LOOP('',(#333));
#875=EDGE_LOOP('',(#334));
#876=EDGE_LOOP('',(#335));
#877=EDGE_LOOP('',(#336));
#878=EDGE_LOOP('',(#337));
#879=EDGE_LOOP('',(#338));
#880=EDGE_LOOP('',(#339));
#881=EDGE_LOOP('',(#340));
#882=EDGE_LOOP('',(#341));
#883=EDGE_LOOP('',(#342));
#884=EDGE_LOOP('',(#343,#344,#345,#346));
#885=EDGE_LOOP('',(#347,#348,#349,#350));
#886=EDGE_LOOP('',(#351,#352,#353,#354,#355));
#887=EDGE_LOOP('',(#356,#357,#358,#359));
#888=EDGE_LOOP('',(#360,#361,#362,#363));
#889=EDGE_LOOP('',(#364,#365,#366,#367));
#890=EDGE_LOOP('',(#368,#369,#370,#371));
#891=EDGE_LOOP('',(#372,#373,#374,#375));
#892=EDGE_LOOP('',(#376,#377,#378,#379,#380));
#893=EDGE_LOOP('',(#381,#382,#383,#384));
#894=EDGE_LOOP('',(#385,#386,#387,#388));
#895=EDGE_LOOP('',(#389,#390,#391,#392));
#896=EDGE_LOOP('',(#393,#394,#395,#396,#397,#398,#399,#400));
#897=EDGE_LOOP('',(#401));
#898=EDGE_LOOP('',(#402,#403));
#899=EDGE_LOOP('',(#404));
#900=EDGE_LOOP('',(#405));
#901=EDGE_LOOP('',(#406));
#902=EDGE_LOOP('',(#407));
#903=EDGE_LOOP('',(#408));
#904=EDGE_LOOP('',(#409));
#905=EDGE_LOOP('',(#410));
#906=EDGE_LOOP('',(#411));
#907=EDGE_LOOP('',(#412));
#908=EDGE_LOOP('',(#413));
#909=EDGE_LOOP('',(#414));
#910=EDGE_LOOP('',(#415));
#911=EDGE_LOOP('',(#416));
#912=EDGE_LOOP('',(#417));
#913=EDGE_LOOP('',(#418));
#914=EDGE_LOOP('',(#419,#420,#421,#422));
#915=EDGE_LOOP('',(#423,#424,#425,#426));
#916=EDGE_LOOP('',(#427,#428,#429,#430));
#917=EDGE_LOOP('',(#431,#432,#433,#434));
#918=EDGE_LOOP('',(#435,#436,#437,#438));
#919=EDGE_LOOP('',(#439,#440,#441,#442));
#920=EDGE_LOOP('',(#443,#444,#445,#446));
#921=EDGE_LOOP('',(#447,#448,#449,#450));
#922=EDGE_LOOP('',(#451,#452,#453,#454));
#923=EDGE_LOOP('',(#455,#456,#457,#458));
#924=EDGE_LOOP('',(#459,#460,#461,#462));
#925=EDGE_LOOP('',(#463,#464,#465,#466));
#926=EDGE_LOOP('',(#467,#468,#469,#470));
#927=EDGE_LOOP('',(#471,#472,#473,#474));
#928=EDGE_LOOP('',(#475,#476,#477,#478));
#929=EDGE_LOOP('',(#479,#480,#481,#482));
#930=EDGE_LOOP('',(#483,#484,#485,#486));
#931=EDGE_LOOP('',(#487,#488,#489,#490));
#932=EDGE_LOOP('',(#491,#492,#493,#494));
#933=EDGE_LOOP('',(#495,#496,#497,#498));
#934=EDGE_LOOP('',(#499,#500,#501,#502));
#935=EDGE_LOOP('',(#503,#504,#505,#506));
#936=EDGE_LOOP('',(#507,#508,#509,#510));
#937=EDGE_LOOP('',(#511,#512,#513,#514));
#938=EDGE_LOOP('',(#515,#516,#517,#518));
#939=EDGE_LOOP('',(#519,#520,#521,#522));
#940=EDGE_LOOP('',(#523,#524,#525,#526));
#941=EDGE_LOOP('',(#527,#528,#529,#530));
#942=EDGE_LOOP('',(#531,#532,#533,#534));
#943=EDGE_LOOP('',(#535,#536,#537,#538));
#944=EDGE_LOOP('',(#539,#540,#541,#542));
#945=EDGE_LOOP('',(#543,#544,#545,#546));
#946=EDGE_LOOP('',(#547,#548,#549,#550));
#947=EDGE_LOOP('',(#551,#552,#553,#554));
#948=EDGE_LOOP('',(#555,#556,#557,#558));
#949=FACE_BOUND('',#843,.T.);
#950=FACE_BOUND('',#844,.T.);
#951=FACE_BOUND('',#845,.T.);
#952=FACE_BOUND('',#846,.T.);
#953=FACE_BOUND('',#847,.T.);
#954=FACE_BOUND('',#848,.T.);
#955=FACE_BOUND('',#849,.T.);
#956=FACE_BOUND('',#850,.T.);
#957=FACE_BOUND('',#851,.T.);
#958=FACE_BOUND('',#852,.T.);
#959=FACE_BOUND('',#853,.T.);
#960=FACE_BOUND('',#854,.T.);
#961=FACE_BOUND('',#855,.T.);
#962=FACE_BOUND('',#856,.T.);
#963=FACE_BOUND('',#857,.T.);
#964=FACE_BOUND('',#858,.T.);
#965=FACE_BOUND('',#859,.T.);
#966=FACE_BOUND('',#860,.T.);
#967=FACE_BOUND('',#861,.T.);
#968=FACE_BOUND('',#862,.T.);
#969=FACE_BOUND('',#863,.T.);
#970=FACE_BOUND('',#864,.T.);
#971=FACE_BOUND('',#865,.T.);
#972=FACE_BOUND('',#866,.T.);
#973=FACE_BOUND('',#867,.T.);
#974=FACE_BOUND('',#868,.T.);
#975=FACE_BOUND('',#869,.T.);
#976=FACE_BOUND('',#870,.T.);
#977=FACE_BOUND('',#871,.T.);
#978=FACE_BOUND('',#872,.T.);
#979=FACE_BOUND('',#873,.T.);
#980=FACE_BOUND('',#874,.T.);
#981=FACE_BOUND('',#875,.T.);
#982=FACE_BOUND('',#876,.T.);
#983=FACE_BOUND('',#877,.T.);
#984=FACE_BOUND('',#878,.T.);
#985=FACE_BOUND('',#879,.T.);
#986=FACE_BOUND('',#880,.T.);
#987=FACE_BOUND('',#881,.T.);
#988=FACE_BOUND('',#882,.T.);
#989=FACE_BOUND('',#883,.T.);
#990=FACE_BOUND('',#884,.T.);
#991=FACE_BOUND('',#885,.T.);
#992=FACE_BOUND('',#886,.T.);
#993=FACE_BOUND('',#887,.T.);
#994=FACE_BOUND('',#888,.T.);
#995=FACE_BOUND('',#889,.T.);
#996=FACE_BOUND('',#890,.T.);
#997=FACE_BOUND('',#891,.T.);
#998=FACE_BOUND('',#892,.T.);
#999=FACE_BOUND('',#893,.T.);
#1000=FACE_BOUND('',#894,.T.);
#1001=FACE_BOUND('',#895,.T.);
#1002=FACE_BOUND('',#896,.T.);
#1003=FACE_BOUND('',#897,.T.);
#1004=FACE_BOUND('',#898,.T.);
#1005=FACE_BOUND('',#899,.T.);
#1006=FACE_BOUND('',#900,.T.);
#1007=FACE_BOUND('',#901,.T.);
#1008=FACE_BOUND('',#902,.T.);
#1009=FACE_BOUND('',#903,.T.);
#1010=FACE_BOUND('',#904,.T.);
#1011=FACE_BOUND('',#905,.T.);
#1012=FACE_BOUND('',#906,.T.);
#1013=FACE_BOUND('',#907,.T.);
#1014=FACE_BOUND('',#908,.T.);
#1015=FACE_BOUND('',#909,.T.);
#1016=FACE_BOUND('',#910,.T.);
#1017=FACE_BOUND('',#911,.T.);
#1018=FACE_BOUND('',#912,.T.);
#1019=FACE_BOUND('',#913,.T.);
#1020=FACE_BOUND('',#914,.T.);
#1021=FACE_BOUND('',#915,.T.);
#1022=FACE_BOUND('',#916,.T.);
#1023=FACE_BOUND('',#917,.T.);
#1024=FACE_BOUND('',#918,.T.);
#1025=FACE_BOUND('',#919,.T.);
#1026=FACE_BOUND('',#920,.T.);
#1027=FACE_BOUND('',#921,.T.);
#1028=FACE_BOUND('',#922,.T.);
#1029=FACE_BOUND('',#923,.T.);
#1030=FACE_BOUND('',#924,.T.);
#1031=FACE_BOUND('',#925,.T.);
#1032=FACE_BOUND('',#926,.T.);
#1033=FACE_BOUND('',#927,.T.);
#1034=FACE_BOUND('',#928,.T.);
#1035=FACE_BOUND('',#929,.T.);
#1036=FACE_BOUND('',#930,.T.);
#1037=FACE_BOUND('',#931,.T.);
#1038=FACE_BOUND('',#932,.T.);
#1039=FACE_BOUND('',#933,.T.);
#1040=FACE_BOUND('',#934,.T.);
#1041=FACE_BOUND('',#935,.T.);
#1042=FACE_BOUND('',#936,.T.);
#1043=FACE_BOUND('',#937,.T.);
#1044=FACE_BOUND('',#938,.T.);
#1045=FACE_BOUND('',#939,.T.);
#1046=FACE_BOUND('',#940,.T.);
#1047=FACE_BOUND('',#941,.T.);
#1048=FACE_BOUND('',#942,.T.);
#1049=FACE_BOUND('',#943,.T.);
#1050=FACE_BOUND('',#944,.T.);
#1051=FACE_BOUND('',#945,.T.);
#1052=FACE_BOUND('',#946,.T.);
#1053=FACE_BOUND('',#947,.T.);
#1054=FACE_BOUND('',#948,.T.);
#1055=PLANE('',#1187);
#1056=PLANE('',#1190);
#1057=PLANE('',#1201);
#1058=PLANE('',#1202);
#1059=PLANE('',#1203);
#1060=PLANE('',#1204);
#1061=PLANE('',#1205);
#1062=PLANE('',#1222);
#1063=PLANE('',#1223);
#1064=PLANE('',#1224);
#1065=PLANE('',#1225);
#1066=PLANE('',#1226);
#1067=PLANE('',#1229);
#1068=PLANE('',#1230);
#1069=PLANE('',#1231);
#1070=PLANE('',#1232);
#1071=PLANE('',#1233);
#1072=PLANE('',#1235);
#1073=PLANE('',#1239);
#1074=PLANE('',#1246);
#1075=PLANE('',#1248);
#1076=PLANE('',#1253);
#1077=PLANE('',#1254);
#1078=PLANE('',#1255);
#1079=PLANE('',#1256);
#1080=PLANE('',#1257);
#1081=PLANE('',#1258);
#1082=PLANE('',#1259);
#1083=PLANE('',#1260);
#1084=PLANE('',#1261);
#1085=PLANE('',#1262);
#1086=PLANE('',#1263);
#1087=PLANE('',#1264);
#1088=PLANE('',#1265);
#1089=PLANE('',#1266);
#1090=PLANE('',#1267);
#1091=PLANE('',#1268);
#1092=PLANE('',#1269);
#1093=PLANE('',#1270);
#1094=PLANE('',#1271);
#1095=PLANE('',#1272);
#1096=PLANE('',#1273);
#1097=PLANE('',#1274);
#1098=PLANE('',#1275);
#1099=PLANE('',#1276);
#1100=PLANE('',#1277);
#1101=PLANE('',#1278);
#1102=PLANE('',#1279);
#1103=PLANE('',#1280);
#1104=PLANE('',#1281);
#1105=PLANE('',#1282);
#1106=PLANE('',#1283);
#1107=ADVANCED_FACE('',(#949),#1055,.T.);
#1108=ADVANCED_FACE('',(#950,#951,#952,#953,#954,#955,#956,#957,#958,#959),
#1056,.T.);
#1109=ADVANCED_FACE('',(#960),#1057,.T.);
#1110=ADVANCED_FACE('',(#961),#1058,.F.);
#1111=ADVANCED_FACE('',(#962),#1059,.F.);
#1112=ADVANCED_FACE('',(#963),#1060,.T.);
#1113=ADVANCED_FACE('',(#964,#965,#966,#967,#968,#969,#970,#971,#972,#973),
#1061,.F.);
#1114=ADVANCED_FACE('',(#974,#975),#14,.F.);
#1115=ADVANCED_FACE('',(#976,#977),#15,.F.);
#1116=ADVANCED_FACE('',(#978,#979),#16,.F.);
#1117=ADVANCED_FACE('',(#980,#981),#17,.F.);
#1118=ADVANCED_FACE('',(#982,#983),#18,.F.);
#1119=ADVANCED_FACE('',(#984,#985),#19,.F.);
#1120=ADVANCED_FACE('',(#986,#987),#20,.F.);
#1121=ADVANCED_FACE('',(#988,#989),#21,.F.);
#1122=ADVANCED_FACE('',(#990),#1062,.T.);
#1123=ADVANCED_FACE('',(#991),#1063,.T.);
#1124=ADVANCED_FACE('',(#992),#1064,.F.);
#1125=ADVANCED_FACE('',(#993),#1065,.F.);
#1126=ADVANCED_FACE('',(#994),#1066,.F.);
#1127=ADVANCED_FACE('',(#995),#22,.T.);
#1128=ADVANCED_FACE('',(#996),#1067,.T.);
#1129=ADVANCED_FACE('',(#997),#1068,.F.);
#1130=ADVANCED_FACE('',(#998),#1069,.T.);
#1131=ADVANCED_FACE('',(#999),#1070,.T.);
#1132=ADVANCED_FACE('',(#1000),#1071,.F.);
#1133=ADVANCED_FACE('',(#1001),#23,.T.);
#1134=ADVANCED_FACE('',(#1002),#1072,.T.);
#1135=ADVANCED_FACE('',(#1003,#1004),#24,.T.);
#1136=ADVANCED_FACE('',(#1005,#1006),#1073,.T.);
#1137=ADVANCED_FACE('',(#1007,#1008),#25,.T.);
#1138=ADVANCED_FACE('',(#1009,#1010),#26,.T.);
#1139=ADVANCED_FACE('',(#1011,#1012),#1074,.T.);
#1140=ADVANCED_FACE('',(#1013,#1014),#1075,.F.);
#1141=ADVANCED_FACE('',(#1015,#1016),#13,.F.);
#1142=ADVANCED_FACE('',(#1017),#12,.T.);
#1143=ADVANCED_FACE('',(#1018,#1019),#1076,.F.);
#1144=ADVANCED_FACE('',(#1020,#1021,#1022,#1023,#1024),#1077,.F.);
#1145=ADVANCED_FACE('',(#1025),#1078,.T.);
#1146=ADVANCED_FACE('',(#1026),#1079,.F.);
#1147=ADVANCED_FACE('',(#1027),#1080,.F.);
#1148=ADVANCED_FACE('',(#1028),#1081,.T.);
#1149=ADVANCED_FACE('',(#1029,#1030),#1082,.T.);
#1150=ADVANCED_FACE('',(#1031),#1083,.F.);
#1151=ADVANCED_FACE('',(#1032),#1084,.F.);
#1152=ADVANCED_FACE('',(#1033),#1085,.F.);
#1153=ADVANCED_FACE('',(#1034),#1086,.F.);
#1154=ADVANCED_FACE('',(#1035),#1087,.T.);
#1155=ADVANCED_FACE('',(#1036),#1088,.F.);
#1156=ADVANCED_FACE('',(#1037),#1089,.T.);
#1157=ADVANCED_FACE('',(#1038),#1090,.F.);
#1158=ADVANCED_FACE('',(#1039),#1091,.T.);
#1159=ADVANCED_FACE('',(#1040),#1092,.T.);
#1160=ADVANCED_FACE('',(#1041),#1093,.F.);
#1161=ADVANCED_FACE('',(#1042),#1094,.F.);
#1162=ADVANCED_FACE('',(#1043),#1095,.T.);
#1163=ADVANCED_FACE('',(#1044),#1096,.T.);
#1164=ADVANCED_FACE('',(#1045),#1097,.T.);
#1165=ADVANCED_FACE('',(#1046),#1098,.T.);
#1166=ADVANCED_FACE('',(#1047),#1099,.T.);
#1167=ADVANCED_FACE('',(#1048),#1100,.F.);
#1168=ADVANCED_FACE('',(#1049),#1101,.F.);
#1169=ADVANCED_FACE('',(#1050),#1102,.T.);
#1170=ADVANCED_FACE('',(#1051),#1103,.F.);
#1171=ADVANCED_FACE('',(#1052),#1104,.F.);
#1172=ADVANCED_FACE('',(#1053),#1105,.T.);
#1173=ADVANCED_FACE('',(#1054),#1106,.T.);
#1174=CLOSED_SHELL('',(#1107,#1108,#1109,#1110,#1111,#1112,#1113,#1114,
#1115,#1116,#1117,#1118,#1119,#1120,#1121,#1122,#1123,#1124,#1125,#1126,
#1127,#1128,#1129,#1130,#1131,#1132,#1133,#1134,#1135,#1136,#1137,#1138,
#1139,#1140,#1141,#1142,#1143,#1144,#1145,#1146,#1147,#1148,#1149,#1150,
#1151,#1152,#1153,#1154,#1155,#1156,#1157,#1158,#1159,#1160,#1161,#1162,
#1163,#1164,#1165,#1166,#1167,#1168,#1169,#1170,#1171,#1172,#1173));
#1175=STYLED_ITEM('',(#1176),#1183);
#1176=PRESENTATION_STYLE_ASSIGNMENT((#1177));
#1177=SURFACE_STYLE_USAGE(.BOTH.,#1178);
#1178=SURFACE_SIDE_STYLE('',(#1179));
#1179=SURFACE_STYLE_FILL_AREA(#1180);
#1180=FILL_AREA_STYLE('',(#1181));
#1181=FILL_AREA_STYLE_COLOUR('',#1182);
#1182=COLOUR_RGB('',0.301960784313725,0.301960784313725,0.301960784313725);
#1183=MANIFOLD_SOLID_BREP('Arducam BO385',#1174);
#1184=SHAPE_DEFINITION_REPRESENTATION(#1926,#1185);
#1185=SHAPE_REPRESENTATION('Arducam BO385',(#1186),#1921);
#1186=AXIS2_PLACEMENT_3D('',#1598,#1284,#1285);
#1187=AXIS2_PLACEMENT_3D('',#1599,#1286,#1287);
#1188=AXIS2_PLACEMENT_3D('',#1600,#1288,#1289);
#1189=AXIS2_PLACEMENT_3D('',#1609,#1293,#1294);
#1190=AXIS2_PLACEMENT_3D('',#1616,#1298,#1299);
#1191=AXIS2_PLACEMENT_3D('',#1617,#1300,#1301);
#1192=AXIS2_PLACEMENT_3D('',#1619,#1302,#1303);
#1193=AXIS2_PLACEMENT_3D('',#1621,#1304,#1305);
#1194=AXIS2_PLACEMENT_3D('',#1623,#1306,#1307);
#1195=AXIS2_PLACEMENT_3D('',#1625,#1308,#1309);
#1196=AXIS2_PLACEMENT_3D('',#1627,#1310,#1311);
#1197=AXIS2_PLACEMENT_3D('',#1629,#1312,#1313);
#1198=AXIS2_PLACEMENT_3D('',#1631,#1314,#1315);
#1199=AXIS2_PLACEMENT_3D('',#1646,#1322,#1323);
#1200=AXIS2_PLACEMENT_3D('',#1658,#1329,#1330);
#1201=AXIS2_PLACEMENT_3D('',#1665,#1334,#1335);
#1202=AXIS2_PLACEMENT_3D('',#1671,#1339,#1340);
#1203=AXIS2_PLACEMENT_3D('',#1675,#1343,#1344);
#1204=AXIS2_PLACEMENT_3D('',#1679,#1347,#1348);
#1205=AXIS2_PLACEMENT_3D('',#1681,#1350,#1351);
#1206=AXIS2_PLACEMENT_3D('',#1690,#1356,#1357);
#1207=AXIS2_PLACEMENT_3D('',#1692,#1358,#1359);
#1208=AXIS2_PLACEMENT_3D('',#1694,#1360,#1361);
#1209=AXIS2_PLACEMENT_3D('',#1696,#1362,#1363);
#1210=AXIS2_PLACEMENT_3D('',#1698,#1364,#1365);
#1211=AXIS2_PLACEMENT_3D('',#1700,#1366,#1367);
#1212=AXIS2_PLACEMENT_3D('',#1702,#1368,#1369);
#1213=AXIS2_PLACEMENT_3D('',#1704,#1370,#1371);
#1214=AXIS2_PLACEMENT_3D('',#1706,#1372,#1373);
#1215=AXIS2_PLACEMENT_3D('',#1707,#1374,#1375);
#1216=AXIS2_PLACEMENT_3D('',#1708,#1376,#1377);
#1217=AXIS2_PLACEMENT_3D('',#1709,#1378,#1379);
#1218=AXIS2_PLACEMENT_3D('',#1710,#1380,#1381);
#1219=AXIS2_PLACEMENT_3D('',#1711,#1382,#1383);
#1220=AXIS2_PLACEMENT_3D('',#1712,#1384,#1385);
#1221=AXIS2_PLACEMENT_3D('',#1713,#1386,#1387);
#1222=AXIS2_PLACEMENT_3D('',#1714,#1388,#1389);
#1223=AXIS2_PLACEMENT_3D('',#1717,#1392,#1393);
#1224=AXIS2_PLACEMENT_3D('',#1719,#1395,#1396);
#1225=AXIS2_PLACEMENT_3D('',#1723,#1399,#1400);
#1226=AXIS2_PLACEMENT_3D('',#1727,#1403,#1404);
#1227=AXIS2_PLACEMENT_3D('',#1731,#1407,#1408);
#1228=AXIS2_PLACEMENT_3D('',#1734,#1410,#1411);
#1229=AXIS2_PLACEMENT_3D('',#1735,#1412,#1413);
#1230=AXIS2_PLACEMENT_3D('',#1739,#1416,#1417);
#1231=AXIS2_PLACEMENT_3D('',#1743,#1420,#1421);
#1232=AXIS2_PLACEMENT_3D('',#1746,#1424,#1425);
#1233=AXIS2_PLACEMENT_3D('',#1748,#1427,#1428);
#1234=AXIS2_PLACEMENT_3D('',#1750,#1430,#1431);
#1235=AXIS2_PLACEMENT_3D('',#1751,#1432,#1433);
#1236=AXIS2_PLACEMENT_3D('',#1752,#1434,#1435);
#1237=AXIS2_PLACEMENT_3D('',#1753,#1436,#1437);
#1238=AXIS2_PLACEMENT_3D('',#1754,#1438,#1439);
#1239=AXIS2_PLACEMENT_3D('',#1756,#1440,#1441);
#1240=AXIS2_PLACEMENT_3D('',#1757,#1442,#1443);
#1241=AXIS2_PLACEMENT_3D('',#1759,#1444,#1445);
#1242=AXIS2_PLACEMENT_3D('',#1760,#1446,#1447);
#1243=AXIS2_PLACEMENT_3D('',#1762,#1448,#1449);
#1244=AXIS2_PLACEMENT_3D('',#1763,#1450,#1451);
#1245=AXIS2_PLACEMENT_3D('',#1765,#1452,#1453);
#1246=AXIS2_PLACEMENT_3D('',#1767,#1454,#1455);
#1247=AXIS2_PLACEMENT_3D('',#1768,#1456,#1457);
#1248=AXIS2_PLACEMENT_3D('',#1770,#1458,#1459);
#1249=AXIS2_PLACEMENT_3D('',#1771,#1460,#1461);
#1250=AXIS2_PLACEMENT_3D('',#1772,#1462,#1463);
#1251=AXIS2_PLACEMENT_3D('',#1774,#1464,#1465);
#1252=AXIS2_PLACEMENT_3D('',#1775,#1466,#1467);
#1253=AXIS2_PLACEMENT_3D('',#1777,#1468,#1469);
#1254=AXIS2_PLACEMENT_3D('',#1778,#1470,#1471);
#1255=AXIS2_PLACEMENT_3D('',#1819,#1492,#1493);
#1256=AXIS2_PLACEMENT_3D('',#1825,#1497,#1498);
#1257=AXIS2_PLACEMENT_3D('',#1829,#1501,#1502);
#1258=AXIS2_PLACEMENT_3D('',#1833,#1505,#1506);
#1259=AXIS2_PLACEMENT_3D('',#1835,#1508,#1509);
#1260=AXIS2_PLACEMENT_3D('',#1844,#1514,#1515);
#1261=AXIS2_PLACEMENT_3D('',#1847,#1518,#1519);
#1262=AXIS2_PLACEMENT_3D('',#1849,#1521,#1522);
#1263=AXIS2_PLACEMENT_3D('',#1851,#1524,#1525);
#1264=AXIS2_PLACEMENT_3D('',#1852,#1526,#1527);
#1265=AXIS2_PLACEMENT_3D('',#1861,#1532,#1533);
#1266=AXIS2_PLACEMENT_3D('',#1864,#1536,#1537);
#1267=AXIS2_PLACEMENT_3D('',#1866,#1539,#1540);
#1268=AXIS2_PLACEMENT_3D('',#1868,#1542,#1543);
#1269=AXIS2_PLACEMENT_3D('',#1869,#1544,#1545);
#1270=AXIS2_PLACEMENT_3D('',#1878,#1550,#1551);
#1271=AXIS2_PLACEMENT_3D('',#1881,#1554,#1555);
#1272=AXIS2_PLACEMENT_3D('',#1883,#1557,#1558);
#1273=AXIS2_PLACEMENT_3D('',#1885,#1560,#1561);
#1274=AXIS2_PLACEMENT_3D('',#1886,#1562,#1563);
#1275=AXIS2_PLACEMENT_3D('',#1895,#1568,#1569);
#1276=AXIS2_PLACEMENT_3D('',#1898,#1572,#1573);
#1277=AXIS2_PLACEMENT_3D('',#1900,#1575,#1576);
#1278=AXIS2_PLACEMENT_3D('',#1902,#1578,#1579);
#1279=AXIS2_PLACEMENT_3D('',#1903,#1580,#1581);
#1280=AXIS2_PLACEMENT_3D('',#1912,#1586,#1587);
#1281=AXIS2_PLACEMENT_3D('',#1915,#1590,#1591);
#1282=AXIS2_PLACEMENT_3D('',#1917,#1593,#1594);
#1283=AXIS2_PLACEMENT_3D('',#1919,#1596,#1597);
#1284=DIRECTION('',(0.,0.,1.));
#1285=DIRECTION('',(1.,0.,0.));
#1286=DIRECTION('',(0.,1.,0.));
#1287=DIRECTION('',(1.,0.,0.));
#1288=DIRECTION('',(0.,1.,0.));
#1289=DIRECTION('',(1.,0.,0.));
#1290=DIRECTION('',(0.,0.,1.));
#1291=DIRECTION('',(1.,0.,0.));
#1292=DIRECTION('',(0.,0.,-1.));
#1293=DIRECTION('',(0.,-1.,0.));
#1294=DIRECTION('',(1.,0.,0.));
#1295=DIRECTION('',(0.,0.,-1.));
#1296=DIRECTION('',(1.,0.,0.));
#1297=DIRECTION('',(0.,0.,1.));
#1298=DIRECTION('',(0.,1.,0.));
#1299=DIRECTION('',(1.,0.,0.));
#1300=DIRECTION('',(0.,1.,0.));
#1301=DIRECTION('',(1.,0.,0.));
#1302=DIRECTION('',(0.,1.,0.));
#1303=DIRECTION('',(1.,0.,0.));
#1304=DIRECTION('',(0.,1.,0.));
#1305=DIRECTION('',(1.,0.,0.));
#1306=DIRECTION('',(0.,1.,0.));
#1307=DIRECTION('',(1.,0.,0.));
#1308=DIRECTION('',(0.,1.,0.));
#1309=DIRECTION('',(1.,0.,0.));
#1310=DIRECTION('',(0.,1.,0.));
#1311=DIRECTION('',(1.,0.,0.));
#1312=DIRECTION('',(0.,1.,0.));
#1313=DIRECTION('',(1.,0.,0.));
#1314=DIRECTION('',(0.,1.,0.));
#1315=DIRECTION('',(1.,0.,0.));
#1316=DIRECTION('',(-1.,0.,0.));
#1317=DIRECTION('',(1.82602471155453E-16,0.,-1.));
#1318=DIRECTION('',(-1.,0.,0.));
#1319=DIRECTION('',(0.,0.,-1.));
#1320=DIRECTION('',(1.,0.,0.));
#1321=DIRECTION('',(0.,0.,-1.));
#1322=DIRECTION('',(0.,-1.,0.));
#1323=DIRECTION('',(1.,0.,0.));
#1324=DIRECTION('',(0.,0.,-1.));
#1325=DIRECTION('',(1.,0.,0.));
#1326=DIRECTION('',(0.,0.,1.));
#1327=DIRECTION('',(1.,0.,0.));
#1328=DIRECTION('',(0.,0.,1.));
#1329=DIRECTION('',(0.,1.,0.));
#1330=DIRECTION('',(1.,0.,0.));
#1331=DIRECTION('',(0.,0.,1.));
#1332=DIRECTION('',(1.,0.,0.));
#1333=DIRECTION('',(0.,0.,1.));
#1334=DIRECTION('',(0.,0.,1.));
#1335=DIRECTION('',(0.,-1.,0.));
#1336=DIRECTION('',(-1.,0.,0.));
#1337=DIRECTION('',(0.,-1.,0.));
#1338=DIRECTION('',(0.,-1.,0.));
#1339=DIRECTION('',(-1.,0.,-1.82602471155453E-16));
#1340=DIRECTION('',(-1.82602471155453E-16,0.,1.));
#1341=DIRECTION('',(1.82602471155453E-16,0.,-1.));
#1342=DIRECTION('',(0.,-1.,0.));
#1343=DIRECTION('',(0.,0.,1.));
#1344=DIRECTION('',(0.,-1.,0.));
#1345=DIRECTION('',(-1.,0.,0.));
#1346=DIRECTION('',(0.,-1.,0.));
#1347=DIRECTION('',(-1.,0.,0.));
#1348=DIRECTION('',(0.,1.,0.));
#1349=DIRECTION('',(0.,0.,-1.));
#1350=DIRECTION('',(0.,1.,0.));
#1351=DIRECTION('',(1.,0.,0.));
#1352=DIRECTION('',(0.,0.,1.));
#1353=DIRECTION('',(1.,0.,0.));
#1354=DIRECTION('',(0.,0.,1.));
#1355=DIRECTION('',(1.,0.,0.));
#1356=DIRECTION('',(0.,1.,0.));
#1357=DIRECTION('',(1.,0.,0.));
#1358=DIRECTION('',(0.,1.,0.));
#1359=DIRECTION('',(1.,0.,0.));
#1360=DIRECTION('',(0.,1.,0.));
#1361=DIRECTION('',(1.,0.,0.));
#1362=DIRECTION('',(0.,1.,0.));
#1363=DIRECTION('',(1.,0.,0.));
#1364=DIRECTION('',(0.,1.,0.));
#1365=DIRECTION('',(1.,0.,0.));
#1366=DIRECTION('',(0.,1.,0.));
#1367=DIRECTION('',(1.,0.,0.));
#1368=DIRECTION('',(0.,1.,0.));
#1369=DIRECTION('',(1.,0.,0.));
#1370=DIRECTION('',(0.,1.,0.));
#1371=DIRECTION('',(1.,0.,0.));
#1372=DIRECTION('',(0.,1.,0.));
#1373=DIRECTION('',(1.,0.,0.));
#1374=DIRECTION('',(0.,1.,0.));
#1375=DIRECTION('',(1.,0.,0.));
#1376=DIRECTION('',(0.,1.,0.));
#1377=DIRECTION('',(1.,0.,0.));
#1378=DIRECTION('',(0.,1.,0.));
#1379=DIRECTION('',(1.,0.,0.));
#1380=DIRECTION('',(0.,1.,0.));
#1381=DIRECTION('',(1.,0.,0.));
#1382=DIRECTION('',(0.,1.,0.));
#1383=DIRECTION('',(1.,0.,0.));
#1384=DIRECTION('',(0.,1.,0.));
#1385=DIRECTION('',(1.,0.,0.));
#1386=DIRECTION('',(0.,1.,0.));
#1387=DIRECTION('',(1.,0.,0.));
#1388=DIRECTION('',(-1.,0.,0.));
#1389=DIRECTION('',(0.,1.,0.));
#1390=DIRECTION('',(0.,-1.,0.));
#1391=DIRECTION('',(0.,-1.,0.));
#1392=DIRECTION('',(0.,0.,-1.));
#1393=DIRECTION('',(0.,1.,0.));
#1394=DIRECTION('',(0.,-1.,0.));
#1395=DIRECTION('',(1.,0.,0.));
#1396=DIRECTION('',(0.,-1.,0.));
#1397=DIRECTION('',(0.,-1.,0.));
#1398=DIRECTION('',(0.,0.,1.));
#1399=DIRECTION('',(0.,0.,-1.));
#1400=DIRECTION('',(0.,1.,0.));
#1401=DIRECTION('',(0.,-1.,0.));
#1402=DIRECTION('',(1.,0.,0.));
#1403=DIRECTION('',(1.,0.,0.));
#1404=DIRECTION('',(0.,-1.,0.));
#1405=DIRECTION('',(0.,-1.,0.));
#1406=DIRECTION('',(0.,0.,1.));
#1407=DIRECTION('',(0.,-1.,0.));
#1408=DIRECTION('',(-1.,0.,0.));
#1409=DIRECTION('',(0.,-1.,0.));
#1410=DIRECTION('',(0.,1.,0.));
#1411=DIRECTION('',(1.,0.,0.));
#1412=DIRECTION('',(1.,0.,0.));
#1413=DIRECTION('',(0.,-1.,0.));
#1414=DIRECTION('',(0.,-1.,0.));
#1415=DIRECTION('',(0.,0.,1.));
#1416=DIRECTION('',(0.,0.,-1.));
#1417=DIRECTION('',(0.,1.,0.));
#1418=DIRECTION('',(0.,-1.,0.));
#1419=DIRECTION('',(1.,0.,0.));
#1420=DIRECTION('',(1.,0.,0.));
#1421=DIRECTION('',(0.,-1.,0.));
#1422=DIRECTION('',(0.,-1.,0.));
#1423=DIRECTION('',(0.,0.,1.));
#1424=DIRECTION('',(0.,0.,-1.));
#1425=DIRECTION('',(0.,1.,0.));
#1426=DIRECTION('',(0.,-1.,0.));
#1427=DIRECTION('',(-1.,0.,0.));
#1428=DIRECTION('',(0.,1.,0.));
#1429=DIRECTION('',(0.,-1.,0.));
#1430=DIRECTION('',(0.,-1.,0.));
#1431=DIRECTION('',(-1.,0.,0.));
#1432=DIRECTION('',(0.,1.,0.));
#1433=DIRECTION('',(1.,0.,0.));
#1434=DIRECTION('',(0.,1.,0.));
#1435=DIRECTION('',(1.,0.,0.));
#1436=DIRECTION('',(0.,-1.,0.));
#1437=DIRECTION('',(-1.,0.,0.));
#1438=DIRECTION('',(0.,1.,0.));
#1439=DIRECTION('',(1.,0.,0.));
#1440=DIRECTION('',(0.,1.,0.));
#1441=DIRECTION('',(1.,0.,0.));
#1442=DIRECTION('',(0.,1.,0.));
#1443=DIRECTION('',(1.,0.,0.));
#1444=DIRECTION('',(0.,-1.,0.));
#1445=DIRECTION('',(-1.,0.,0.));
#1446=DIRECTION('',(0.,1.,0.));
#1447=DIRECTION('',(1.,0.,0.));
#1448=DIRECTION('',(0.,-1.,0.));
#1449=DIRECTION('',(-1.,0.,0.));
#1450=DIRECTION('',(0.,1.,0.));
#1451=DIRECTION('',(1.,0.,0.));
#1452=DIRECTION('',(0.,1.,0.));
#1453=DIRECTION('',(1.,0.,0.));
#1454=DIRECTION('',(0.,1.,0.));
#1455=DIRECTION('',(1.,0.,0.));
#1456=DIRECTION('',(0.,1.,0.));
#1457=DIRECTION('',(1.,0.,0.));
#1458=DIRECTION('',(0.,1.,0.));
#1459=DIRECTION('',(1.,0.,0.));
#1460=DIRECTION('',(0.,1.,0.));
#1461=DIRECTION('',(1.,0.,0.));
#1462=DIRECTION('',(0.,1.,0.));
#1463=DIRECTION('',(1.,0.,0.));
#1464=DIRECTION('',(0.,1.,0.));
#1465=DIRECTION('',(0.,0.,-1.));
#1466=DIRECTION('',(0.,1.,0.));
#1467=DIRECTION('',(1.,0.,0.));
#1468=DIRECTION('',(0.,-1.,0.));
#1469=DIRECTION('',(-1.,0.,0.));
#1470=DIRECTION('',(0.,1.,0.));
#1471=DIRECTION('',(1.,0.,0.));
#1472=DIRECTION('',(-1.,0.,0.));
#1473=DIRECTION('',(0.,0.,1.));
#1474=DIRECTION('',(-1.,0.,0.));
#1475=DIRECTION('',(0.,0.,1.));
#1476=DIRECTION('',(-1.,0.,0.));
#1477=DIRECTION('',(0.,0.,-1.));
#1478=DIRECTION('',(1.,0.,0.));
#1479=DIRECTION('',(0.,0.,1.));
#1480=DIRECTION('',(-1.,0.,0.));
#1481=DIRECTION('',(0.,0.,-1.));
#1482=DIRECTION('',(-1.,0.,0.));
#1483=DIRECTION('',(0.,0.,-1.));
#1484=DIRECTION('',(-1.,0.,0.));
#1485=DIRECTION('',(0.,0.,-1.));
#1486=DIRECTION('',(-1.,0.,0.));
#1487=DIRECTION('',(0.,0.,-1.));
#1488=DIRECTION('',(-1.,0.,0.));
#1489=DIRECTION('',(0.,0.,1.));
#1490=DIRECTION('',(-1.,0.,0.));
#1491=DIRECTION('',(0.,0.,1.));
#1492=DIRECTION('',(0.,0.,-1.));
#1493=DIRECTION('',(0.,-1.,0.));
#1494=DIRECTION('',(0.,1.,0.));
#1495=DIRECTION('',(1.,0.,0.));
#1496=DIRECTION('',(0.,1.,0.));
#1497=DIRECTION('',(1.,0.,0.));
#1498=DIRECTION('',(0.,-1.,0.));
#1499=DIRECTION('',(0.,0.,1.));
#1500=DIRECTION('',(0.,1.,0.));
#1501=DIRECTION('',(0.,0.,-1.));
#1502=DIRECTION('',(0.,-1.,0.));
#1503=DIRECTION('',(1.,0.,0.));
#1504=DIRECTION('',(0.,1.,0.));
#1505=DIRECTION('',(1.,0.,0.));
#1506=DIRECTION('',(0.,-1.,0.));
#1507=DIRECTION('',(0.,0.,1.));
#1508=DIRECTION('',(0.,-1.,0.));
#1509=DIRECTION('',(1.,0.,0.));
#1510=DIRECTION('',(0.,0.,1.));
#1511=DIRECTION('',(1.,0.,0.));
#1512=DIRECTION('',(0.,0.,-1.));
#1513=DIRECTION('',(-1.,0.,0.));
#1514=DIRECTION('',(-1.,0.,0.));
#1515=DIRECTION('',(0.,1.,0.));
#1516=DIRECTION('',(0.,-1.,0.));
#1517=DIRECTION('',(0.,-1.,0.));
#1518=DIRECTION('',(0.,0.,-1.));
#1519=DIRECTION('',(0.,-1.,0.));
#1520=DIRECTION('',(0.,-1.,0.));
#1521=DIRECTION('',(0.,0.,1.));
#1522=DIRECTION('',(0.,1.,0.));
#1523=DIRECTION('',(0.,-1.,0.));
#1524=DIRECTION('',(1.,0.,0.));
#1525=DIRECTION('',(0.,-1.,0.));
#1526=DIRECTION('',(0.,-1.,0.));
#1527=DIRECTION('',(1.,0.,0.));
#1528=DIRECTION('',(-1.,0.,0.));
#1529=DIRECTION('',(0.,0.,-1.));
#1530=DIRECTION('',(-1.,0.,0.));
#1531=DIRECTION('',(0.,0.,-1.));
#1532=DIRECTION('',(0.,0.,1.));
#1533=DIRECTION('',(0.,1.,0.));
#1534=DIRECTION('',(0.,1.,0.));
#1535=DIRECTION('',(0.,1.,0.));
#1536=DIRECTION('',(-1.,0.,0.));
#1537=DIRECTION('',(0.,1.,0.));
#1538=DIRECTION('',(0.,1.,0.));
#1539=DIRECTION('',(-1.,0.,0.));
#1540=DIRECTION('',(0.,1.,0.));
#1541=DIRECTION('',(0.,1.,0.));
#1542=DIRECTION('',(0.,0.,1.));
#1543=DIRECTION('',(0.,1.,0.));
#1544=DIRECTION('',(0.,-1.,0.));
#1545=DIRECTION('',(1.,0.,0.));
#1546=DIRECTION('',(0.,0.,1.));
#1547=DIRECTION('',(-1.,0.,0.));
#1548=DIRECTION('',(0.,0.,1.));
#1549=DIRECTION('',(-1.,0.,0.));
#1550=DIRECTION('',(0.,0.,1.));
#1551=DIRECTION('',(0.,1.,0.));
#1552=DIRECTION('',(0.,1.,0.));
#1553=DIRECTION('',(0.,1.,0.));
#1554=DIRECTION('',(1.,0.,0.));
#1555=DIRECTION('',(0.,-1.,0.));
#1556=DIRECTION('',(0.,1.,0.));
#1557=DIRECTION('',(1.,0.,0.));
#1558=DIRECTION('',(0.,-1.,0.));
#1559=DIRECTION('',(0.,1.,0.));
#1560=DIRECTION('',(0.,0.,1.));
#1561=DIRECTION('',(0.,1.,0.));
#1562=DIRECTION('',(0.,-1.,0.));
#1563=DIRECTION('',(1.,0.,0.));
#1564=DIRECTION('',(0.,0.,-1.));
#1565=DIRECTION('',(-1.,0.,0.));
#1566=DIRECTION('',(0.,0.,-1.));
#1567=DIRECTION('',(-1.,0.,0.));
#1568=DIRECTION('',(-1.,0.,0.));
#1569=DIRECTION('',(0.,1.,0.));
#1570=DIRECTION('',(0.,1.,0.));
#1571=DIRECTION('',(0.,1.,0.));
#1572=DIRECTION('',(0.,0.,1.));
#1573=DIRECTION('',(0.,1.,0.));
#1574=DIRECTION('',(0.,1.,0.));
#1575=DIRECTION('',(-1.,0.,0.));
#1576=DIRECTION('',(0.,1.,0.));
#1577=DIRECTION('',(0.,1.,0.));
#1578=DIRECTION('',(0.,0.,1.));
#1579=DIRECTION('',(0.,1.,0.));
#1580=DIRECTION('',(0.,-1.,0.));
#1581=DIRECTION('',(1.,0.,0.));
#1582=DIRECTION('',(0.,0.,1.));
#1583=DIRECTION('',(-1.,0.,0.));
#1584=DIRECTION('',(0.,0.,1.));
#1585=DIRECTION('',(-1.,0.,0.));
#1586=DIRECTION('',(0.,0.,1.));
#1587=DIRECTION('',(0.,1.,0.));
#1588=DIRECTION('',(0.,1.,0.));
#1589=DIRECTION('',(0.,1.,0.));
#1590=DIRECTION('',(1.,0.,0.));
#1591=DIRECTION('',(0.,-1.,0.));
#1592=DIRECTION('',(0.,1.,0.));
#1593=DIRECTION('',(1.,0.,0.));
#1594=DIRECTION('',(0.,-1.,0.));
#1595=DIRECTION('',(0.,1.,0.));
#1596=DIRECTION('',(0.,0.,1.));
#1597=DIRECTION('',(0.,1.,0.));
#1598=CARTESIAN_POINT('',(0.,0.,0.));
#1599=CARTESIAN_POINT('',(-0.0671210970457035,0.0054,-0.0646012680706731));
#1600=CARTESIAN_POINT('',(-0.0671210970457035,0.0054,-0.0646012680706731));
#1601=CARTESIAN_POINT('',(-0.0605210970457036,0.0054,-0.0646012680706731));
#1602=CARTESIAN_POINT('',(-0.0737210970457036,0.0054,-0.0646012680706731));
#1603=CARTESIAN_POINT('',(-0.0605210970457036,0.0054,-0.0646012680706731));
#1604=CARTESIAN_POINT('',(-0.0605210970457036,0.0054,-0.0712012680706731));
#1605=CARTESIAN_POINT('',(-0.0628210970457035,0.0054,-0.0712012680706731));
#1606=CARTESIAN_POINT('',(-0.0651210970457035,0.0054,-0.0712012680706731));
#1607=CARTESIAN_POINT('',(-0.0651210970457035,0.0054,-0.0724012680706731));
#1608=CARTESIAN_POINT('',(-0.0651210970457035,0.0054,-0.0736012680706731));
#1609=CARTESIAN_POINT('',(-0.0671210970457035,0.0054,-0.0736012680706731));
#1610=CARTESIAN_POINT('',(-0.0691210970457035,0.0054,-0.0736012680706731));
#1611=CARTESIAN_POINT('',(-0.0691210970457035,0.0054,-0.0724012680706731));
#1612=CARTESIAN_POINT('',(-0.0691210970457035,0.0054,-0.0712012680706731));
#1613=CARTESIAN_POINT('',(-0.0714210970457035,0.0054,-0.0712012680706731));
#1614=CARTESIAN_POINT('',(-0.0737210970457036,0.0054,-0.0712012680706731));
#1615=CARTESIAN_POINT('',(-0.0737210970457036,0.0054,-0.0646012680706731));
#1616=CARTESIAN_POINT('',(-0.0671210970457035,0.0016,-0.0646012680706731));
#1617=CARTESIAN_POINT('',(-0.0531210970457035,0.0016,-0.0786012680706731));
#1618=CARTESIAN_POINT('',(-0.0517210970457035,0.0016,-0.0786012680706731));
#1619=CARTESIAN_POINT('',(-0.0531210970457035,0.0016,-0.0506012680706731));
#1620=CARTESIAN_POINT('',(-0.0517210970457035,0.0016,-0.0506012680706731));
#1621=CARTESIAN_POINT('',(-0.0811210970457035,0.0016,-0.0506012680706731));
#1622=CARTESIAN_POINT('',(-0.0797210970457035,0.0016,-0.0506012680706731));
#1623=CARTESIAN_POINT('',(-0.0841210970457035,0.0016,-0.0816012680706731));
#1624=CARTESIAN_POINT('',(-0.0828210970457035,0.0016,-0.0816012680706731));
#1625=CARTESIAN_POINT('',(-0.0501210970457035,0.0016,-0.0816012680706731));
#1626=CARTESIAN_POINT('',(-0.0488210970457035,0.0016,-0.0816012680706731));
#1627=CARTESIAN_POINT('',(-0.0501210970457035,0.0016,-0.0476012680706731));
#1628=CARTESIAN_POINT('',(-0.0488210970457035,0.0016,-0.0476012680706731));
#1629=CARTESIAN_POINT('',(-0.0841210970457035,0.0016,-0.0476012680706731));
#1630=CARTESIAN_POINT('',(-0.0828210970457035,0.0016,-0.0476012680706731));
#1631=CARTESIAN_POINT('',(-0.0811210970457035,0.0016,-0.0786012680706731));
#1632=CARTESIAN_POINT('',(-0.0797210970457035,0.0016,-0.0786012680706731));
#1633=CARTESIAN_POINT('',(-0.0671210970457035,0.0016,-0.0456012680706731));
#1634=CARTESIAN_POINT('',(-0.0481210970457036,0.0016,-0.0456012680706731));
#1635=CARTESIAN_POINT('',(-0.0861210970457036,0.0016,-0.0456012680706731));
#1636=CARTESIAN_POINT('',(-0.0481210970457036,0.0016,-0.0646012680706731));
#1637=CARTESIAN_POINT('',(-0.0481210970457036,0.0016,-0.0836012680706731));
#1638=CARTESIAN_POINT('',(-0.0671210970457035,0.0016,-0.0836012680706731));
#1639=CARTESIAN_POINT('',(-0.0861210970457036,0.0016,-0.0836012680706731));
#1640=CARTESIAN_POINT('',(-0.0861210970457036,0.0016,-0.0646012680706731));
#1641=CARTESIAN_POINT('',(-0.0714210970457035,0.0016,-0.0712012680706731));
#1642=CARTESIAN_POINT('',(-0.0737210970457036,0.0016,-0.0712012680706731));
#1643=CARTESIAN_POINT('',(-0.0691210970457035,0.0016,-0.0712012680706731));
#1644=CARTESIAN_POINT('',(-0.0691210970457035,0.0016,-0.0724012680706731));
#1645=CARTESIAN_POINT('',(-0.0691210970457035,0.0016,-0.0736012680706731));
#1646=CARTESIAN_POINT('',(-0.0671210970457035,0.0016,-0.0736012680706731));
#1647=CARTESIAN_POINT('',(-0.0651210970457035,0.0016,-0.0736012680706731));
#1648=CARTESIAN_POINT('',(-0.0651210970457035,0.0016,-0.0724012680706731));
#1649=CARTESIAN_POINT('',(-0.0651210970457035,0.0016,-0.0712012680706731));
#1650=CARTESIAN_POINT('',(-0.0628210970457035,0.0016,-0.0712012680706731));
#1651=CARTESIAN_POINT('',(-0.0605210970457036,0.0016,-0.0712012680706731));
#1652=CARTESIAN_POINT('',(-0.0605210970457036,0.0016,-0.0646012680706731));
#1653=CARTESIAN_POINT('',(-0.0605210970457036,0.0016,-0.0580012680706731));
#1654=CARTESIAN_POINT('',(-0.0628210970457035,0.0016,-0.0580012680706731));
#1655=CARTESIAN_POINT('',(-0.0651210970457035,0.0016,-0.0580012680706731));
#1656=CARTESIAN_POINT('',(-0.0651210970457035,0.0016,-0.0568012680706731));
#1657=CARTESIAN_POINT('',(-0.0651210970457035,0.0016,-0.0556012680706731));
#1658=CARTESIAN_POINT('',(-0.0671210970457035,0.0016,-0.0556012680706731));
#1659=CARTESIAN_POINT('',(-0.0691210970457035,0.0016,-0.0556012680706731));
#1660=CARTESIAN_POINT('',(-0.0691210970457035,0.0016,-0.0568012680706731));
#1661=CARTESIAN_POINT('',(-0.0691210970457035,0.0016,-0.0580012680706731));
#1662=CARTESIAN_POINT('',(-0.0714210970457035,0.0016,-0.0580012680706731));
#1663=CARTESIAN_POINT('',(-0.0737210970457036,0.0016,-0.0580012680706731));
#1664=CARTESIAN_POINT('',(-0.0737210970457036,0.0016,-0.0646012680706731));
#1665=CARTESIAN_POINT('',(-0.0671210970457035,0.0016,-0.0456012680706731));
#1666=CARTESIAN_POINT('',(-0.0671210970457035,0.,-0.0456012680706731));
#1667=CARTESIAN_POINT('',(-0.0481210970457036,0.,-0.0456012680706731));
#1668=CARTESIAN_POINT('',(-0.0861210970457036,0.,-0.0456012680706731));
#1669=CARTESIAN_POINT('',(-0.0481210970457036,0.0016,-0.0456012680706731));
#1670=CARTESIAN_POINT('',(-0.0861210970457036,0.0016,-0.0456012680706731));
#1671=CARTESIAN_POINT('',(-0.0481210970457036,0.0016,-0.0646012680706731));
#1672=CARTESIAN_POINT('',(-0.0481210970457036,0.,-0.0646012680706731));
#1673=CARTESIAN_POINT('',(-0.0481210970457036,0.,-0.0836012680706731));
#1674=CARTESIAN_POINT('',(-0.0481210970457036,0.0016,-0.0836012680706731));
#1675=CARTESIAN_POINT('',(-0.0671210970457035,0.0016,-0.0836012680706731));
#1676=CARTESIAN_POINT('',(-0.0671210970457035,0.,-0.0836012680706731));
#1677=CARTESIAN_POINT('',(-0.0861210970457036,0.,-0.0836012680706731));
#1678=CARTESIAN_POINT('',(-0.0861210970457036,0.0016,-0.0836012680706731));
#1679=CARTESIAN_POINT('',(-0.0861210970457036,0.0016,-0.0646012680706731));
#1680=CARTESIAN_POINT('',(-0.0861210970457036,0.,-0.0646012680706731));
#1681=CARTESIAN_POINT('',(-0.0671210970457035,0.,-0.0646012680706731));
#1682=CARTESIAN_POINT('',(-0.0788410970457036,0.,-0.0715812680706731));
#1683=CARTESIAN_POINT('',(-0.0788410970457036,0.,-0.0753612680706731));
#1684=CARTESIAN_POINT('',(-0.0788410970457036,0.,-0.0678012680706731));
#1685=CARTESIAN_POINT('',(-0.0807460970457035,0.,-0.0753612680706731));
#1686=CARTESIAN_POINT('',(-0.0826510970457035,0.,-0.0753612680706731));
#1687=CARTESIAN_POINT('',(-0.0826510970457035,0.,-0.0715812680706731));
#1688=CARTESIAN_POINT('',(-0.0826510970457035,0.,-0.0678012680706731));
#1689=CARTESIAN_POINT('',(-0.0807460970457035,0.,-0.0678012680706731));
#1690=CARTESIAN_POINT('',(-0.0531210970457035,0.,-0.0786012680706731));
#1691=CARTESIAN_POINT('',(-0.0517210970457035,0.,-0.0786012680706731));
#1692=CARTESIAN_POINT('',(-0.0531210970457035,0.,-0.0506012680706731));
#1693=CARTESIAN_POINT('',(-0.0517210970457035,0.,-0.0506012680706731));
#1694=CARTESIAN_POINT('',(-0.0811210970457035,0.,-0.0506012680706731));
#1695=CARTESIAN_POINT('',(-0.0797210970457035,0.,-0.0506012680706731));
#1696=CARTESIAN_POINT('',(-0.0841210970457035,0.,-0.0816012680706731));
#1697=CARTESIAN_POINT('',(-0.0828210970457035,0.,-0.0816012680706731));
#1698=CARTESIAN_POINT('',(-0.0501210970457035,0.,-0.0816012680706731));
#1699=CARTESIAN_POINT('',(-0.0488210970457035,0.,-0.0816012680706731));
#1700=CARTESIAN_POINT('',(-0.0501210970457035,0.,-0.0476012680706731));
#1701=CARTESIAN_POINT('',(-0.0488210970457035,0.,-0.0476012680706731));
#1702=CARTESIAN_POINT('',(-0.0841210970457035,0.,-0.0476012680706731));
#1703=CARTESIAN_POINT('',(-0.0828210970457035,0.,-0.0476012680706731));
#1704=CARTESIAN_POINT('',(-0.0811210970457035,0.,-0.0786012680706731));
#1705=CARTESIAN_POINT('',(-0.0797210970457035,0.,-0.0786012680706731));
#1706=CARTESIAN_POINT('',(-0.0811210970457035,-0.338303817014042,-0.0786012680706731));
#1707=CARTESIAN_POINT('',(-0.0841210970457035,-0.338303817014042,-0.0476012680706731));
#1708=CARTESIAN_POINT('',(-0.0501210970457035,-0.338303817014042,-0.0476012680706731));
#1709=CARTESIAN_POINT('',(-0.0501210970457035,-0.338303817014042,-0.0816012680706731));
#1710=CARTESIAN_POINT('',(-0.0841210970457035,-0.338303817014042,-0.0816012680706731));
#1711=CARTESIAN_POINT('',(-0.0811210970457035,-0.338303817014042,-0.0506012680706731));
#1712=CARTESIAN_POINT('',(-0.0531210970457035,-0.338303817014042,-0.0506012680706731));
#1713=CARTESIAN_POINT('',(-0.0531210970457035,-0.338303817014042,-0.0786012680706731));
#1714=CARTESIAN_POINT('',(-0.0691210970457035,0.0054,-0.0724012680706731));
#1715=CARTESIAN_POINT('',(-0.0691210970457035,0.0054,-0.0712012680706731));
#1716=CARTESIAN_POINT('',(-0.0691210970457035,0.0054,-0.0736012680706731));
#1717=CARTESIAN_POINT('',(-0.0714210970457035,0.0054,-0.0712012680706731));
#1718=CARTESIAN_POINT('',(-0.0737210970457036,0.0054,-0.0712012680706731));
#1719=CARTESIAN_POINT('',(-0.0737210970457036,0.0054,-0.0646012680706731));
#1720=CARTESIAN_POINT('',(-0.0737210970457036,0.0054,-0.0580012680706731));
#1721=CARTESIAN_POINT('',(-0.0737210970457036,0.0054,-0.0580012680706731));
#1722=CARTESIAN_POINT('',(-0.0737210970457036,0.0054,-0.0646012680706731));
#1723=CARTESIAN_POINT('',(-0.0714210970457035,0.0054,-0.0580012680706731));
#1724=CARTESIAN_POINT('',(-0.0691210970457035,0.0054,-0.0580012680706731));
#1725=CARTESIAN_POINT('',(-0.0691210970457035,0.0054,-0.0580012680706731));
#1726=CARTESIAN_POINT('',(-0.0714210970457035,0.0054,-0.0580012680706731));
#1727=CARTESIAN_POINT('',(-0.0691210970457035,0.0054,-0.0568012680706731));
#1728=CARTESIAN_POINT('',(-0.0691210970457035,0.0054,-0.0556012680706731));
#1729=CARTESIAN_POINT('',(-0.0691210970457035,0.0054,-0.0556012680706731));
#1730=CARTESIAN_POINT('',(-0.0691210970457035,0.0054,-0.0568012680706731));
#1731=CARTESIAN_POINT('',(-0.0671210970457035,0.0054,-0.0556012680706731));
#1732=CARTESIAN_POINT('',(-0.0651210970457035,0.0054,-0.0556012680706731));
#1733=CARTESIAN_POINT('',(-0.0651210970457035,0.0054,-0.0556012680706731));
#1734=CARTESIAN_POINT('',(-0.0671210970457035,0.0054,-0.0556012680706731));
#1735=CARTESIAN_POINT('',(-0.0651210970457035,0.0054,-0.0568012680706731));
#1736=CARTESIAN_POINT('',(-0.0651210970457035,0.0054,-0.0580012680706731));
#1737=CARTESIAN_POINT('',(-0.0651210970457035,0.0054,-0.0580012680706731));
#1738=CARTESIAN_POINT('',(-0.0651210970457035,0.0054,-0.0568012680706731));
#1739=CARTESIAN_POINT('',(-0.0628210970457035,0.0054,-0.0580012680706731));
#1740=CARTESIAN_POINT('',(-0.0605210970457036,0.0054,-0.0580012680706731));
#1741=CARTESIAN_POINT('',(-0.0605210970457036,0.0054,-0.0580012680706731));
#1742=CARTESIAN_POINT('',(-0.0628210970457035,0.0054,-0.0580012680706731));
#1743=CARTESIAN_POINT('',(-0.0605210970457036,0.0054,-0.0646012680706731));
#1744=CARTESIAN_POINT('',(-0.0605210970457036,0.0054,-0.0712012680706731));
#1745=CARTESIAN_POINT('',(-0.0605210970457036,0.0054,-0.0646012680706731));
#1746=CARTESIAN_POINT('',(-0.0628210970457035,0.0054,-0.0712012680706731));
#1747=CARTESIAN_POINT('',(-0.0651210970457035,0.0054,-0.0712012680706731));
#1748=CARTESIAN_POINT('',(-0.0651210970457035,0.0054,-0.0724012680706731));
#1749=CARTESIAN_POINT('',(-0.0651210970457035,0.0054,-0.0736012680706731));
#1750=CARTESIAN_POINT('',(-0.0671210970457035,0.0054,-0.0736012680706731));
#1751=CARTESIAN_POINT('',(-0.0671210970457035,0.0054,-0.0646012680706731));
#1752=CARTESIAN_POINT('',(-0.0671210970457035,0.0054,-0.0646012680706731));
#1753=CARTESIAN_POINT('',(-0.0671210970457035,0.0124,-0.0646012680706731));
#1754=CARTESIAN_POINT('',(-0.0671210970457035,0.0124,-0.0646012680706731));
#1755=CARTESIAN_POINT('',(-0.0605210970457035,0.0124,-0.0646012680706731));
#1756=CARTESIAN_POINT('',(-0.0671210970457035,0.0124,-0.0646012680706731));
#1757=CARTESIAN_POINT('',(-0.0671210970457035,0.0124,-0.0646012680706731));
#1758=CARTESIAN_POINT('',(-0.0616210970457035,0.0124,-0.0646012680706731));
#1759=CARTESIAN_POINT('',(-0.0671210970457035,0.0159,-0.0646012680706731));
#1760=CARTESIAN_POINT('',(-0.0671210970457035,0.0159,-0.0646012680706731));
#1761=CARTESIAN_POINT('',(-0.0616210970457035,0.0159,-0.0646012680706731));
#1762=CARTESIAN_POINT('',(-0.0671210970457035,0.0202,-0.0646012680706731));
#1763=CARTESIAN_POINT('',(-0.0671210970457035,0.0202,-0.0646012680706731));
#1764=CARTESIAN_POINT('',(-0.0601210970457035,0.0202,-0.0646012680706731));
#1765=CARTESIAN_POINT('',(-0.0671210970457035,0.0159,-0.0646012680706731));
#1766=CARTESIAN_POINT('',(-0.0601210970457035,0.0159,-0.0646012680706731));
#1767=CARTESIAN_POINT('',(-0.0671210970457035,0.0202,-0.0646012680706731));
#1768=CARTESIAN_POINT('',(-0.0671210970457035,0.0202,-0.0646012680706731));
#1769=CARTESIAN_POINT('',(-0.0603210970457035,0.0202,-0.0646012680706731));
#1770=CARTESIAN_POINT('',(-0.0671210970457035,0.0159,-0.0646012680706731));
#1771=CARTESIAN_POINT('',(-0.0671210970457035,0.0202,-0.0646012680706731));
#1772=CARTESIAN_POINT('',(-0.0671210970457035,0.01805,-0.0646012680706731));
#1773=CARTESIAN_POINT('',(-0.0640450062819766,0.01805,-0.0646012680706731));
#1774=CARTESIAN_POINT('',(-0.0671210970457035,0.01805,-0.0646012680706731));
#1775=CARTESIAN_POINT('',(-0.0671210970457035,0.01805,-0.0646012680706731));
#1776=CARTESIAN_POINT('',(-0.0651210970457035,0.01805,-0.0646012680706731));
#1777=CARTESIAN_POINT('',(-0.0671210970457035,0.01805,-0.0620632226888096));
#1778=CARTESIAN_POINT('',(-0.0671210970457035,-0.0005,-0.0646012680706731));
#1779=CARTESIAN_POINT('',(-0.0800435970457035,-0.0005,-0.0710112680706731));
#1780=CARTESIAN_POINT('',(-0.0797935970457035,-0.0005,-0.0710112680706731));
#1781=CARTESIAN_POINT('',(-0.0802935970457035,-0.0005,-0.0710112680706731));
#1782=CARTESIAN_POINT('',(-0.0802935970457035,-0.0005,-0.0707612680706731));
#1783=CARTESIAN_POINT('',(-0.0802935970457035,-0.0005,-0.0705112680706731));
#1784=CARTESIAN_POINT('',(-0.0800435970457035,-0.0005,-0.0705112680706731));
#1785=CARTESIAN_POINT('',(-0.0797935970457035,-0.0005,-0.0705112680706731));
#1786=CARTESIAN_POINT('',(-0.0797935970457035,-0.0005,-0.0707612680706731));
#1787=CARTESIAN_POINT('',(-0.0807460970457035,-0.0005,-0.0748612680706731));
#1788=CARTESIAN_POINT('',(-0.0793410970457036,-0.0005,-0.0748612680706731));
#1789=CARTESIAN_POINT('',(-0.0821510970457035,-0.0005,-0.0748612680706731));
#1790=CARTESIAN_POINT('',(-0.0793410970457036,-0.0005,-0.0715812680706731));
#1791=CARTESIAN_POINT('',(-0.0793410970457036,-0.0005,-0.0683012680706731));
#1792=CARTESIAN_POINT('',(-0.0807460970457035,-0.0005,-0.0683012680706731));
#1793=CARTESIAN_POINT('',(-0.0821510970457035,-0.0005,-0.0683012680706731));
#1794=CARTESIAN_POINT('',(-0.0821510970457035,-0.0005,-0.0715812680706731));
#1795=CARTESIAN_POINT('',(-0.0800435970457035,-0.0005,-0.0693712680706731));
#1796=CARTESIAN_POINT('',(-0.0797935970457035,-0.0005,-0.0693712680706731));
#1797=CARTESIAN_POINT('',(-0.0802935970457035,-0.0005,-0.0693712680706731));
#1798=CARTESIAN_POINT('',(-0.0802935970457035,-0.0005,-0.0691212680706731));
#1799=CARTESIAN_POINT('',(-0.0802935970457035,-0.0005,-0.0688712680706731));
#1800=CARTESIAN_POINT('',(-0.0800435970457035,-0.0005,-0.0688712680706731));
#1801=CARTESIAN_POINT('',(-0.0797935970457035,-0.0005,-0.0688712680706731));
#1802=CARTESIAN_POINT('',(-0.0797935970457035,-0.0005,-0.0691212680706731));
#1803=CARTESIAN_POINT('',(-0.0800435970457035,-0.0005,-0.0721512680706731));
#1804=CARTESIAN_POINT('',(-0.0797935970457035,-0.0005,-0.0721512680706731));
#1805=CARTESIAN_POINT('',(-0.0802935970457035,-0.0005,-0.0721512680706731));
#1806=CARTESIAN_POINT('',(-0.0797935970457035,-0.0005,-0.0724012680706731));
#1807=CARTESIAN_POINT('',(-0.0797935970457035,-0.0005,-0.0726512680706731));
#1808=CARTESIAN_POINT('',(-0.0800435970457035,-0.0005,-0.0726512680706731));
#1809=CARTESIAN_POINT('',(-0.0802935970457035,-0.0005,-0.0726512680706731));
#1810=CARTESIAN_POINT('',(-0.0802935970457035,-0.0005,-0.0724012680706731));
#1811=CARTESIAN_POINT('',(-0.0800435970457035,-0.0005,-0.0742912680706731));
#1812=CARTESIAN_POINT('',(-0.0797935970457035,-0.0005,-0.0742912680706731));
#1813=CARTESIAN_POINT('',(-0.0802935970457035,-0.0005,-0.0742912680706731));
#1814=CARTESIAN_POINT('',(-0.0802935970457035,-0.0005,-0.0740412680706731));
#1815=CARTESIAN_POINT('',(-0.0802935970457035,-0.0005,-0.0737912680706731));
#1816=CARTESIAN_POINT('',(-0.0800435970457035,-0.0005,-0.0737912680706731));
#1817=CARTESIAN_POINT('',(-0.0797935970457035,-0.0005,-0.0737912680706731));
#1818=CARTESIAN_POINT('',(-0.0797935970457035,-0.0005,-0.0740412680706731));
#1819=CARTESIAN_POINT('',(-0.0807460970457035,-0.0049,-0.0753612680706731));
#1820=CARTESIAN_POINT('',(-0.0788410970457036,-0.0049,-0.0753612680706731));
#1821=CARTESIAN_POINT('',(-0.0788410970457036,-0.0049,-0.0753612680706731));
#1822=CARTESIAN_POINT('',(-0.0807460970457035,-0.0049,-0.0753612680706731));
#1823=CARTESIAN_POINT('',(-0.0826510970457035,-0.0049,-0.0753612680706731));
#1824=CARTESIAN_POINT('',(-0.0826510970457035,-0.0049,-0.0753612680706731));
#1825=CARTESIAN_POINT('',(-0.0826510970457035,-0.0049,-0.0715812680706731));
#1826=CARTESIAN_POINT('',(-0.0826510970457035,-0.0049,-0.0715812680706731));
#1827=CARTESIAN_POINT('',(-0.0826510970457035,-0.0049,-0.0678012680706731));
#1828=CARTESIAN_POINT('',(-0.0826510970457035,-0.0049,-0.0678012680706731));
#1829=CARTESIAN_POINT('',(-0.0807460970457035,-0.0049,-0.0678012680706731));
#1830=CARTESIAN_POINT('',(-0.0807460970457035,-0.0049,-0.0678012680706731));
#1831=CARTESIAN_POINT('',(-0.0788410970457036,-0.0049,-0.0678012680706731));
#1832=CARTESIAN_POINT('',(-0.0788410970457036,-0.0049,-0.0678012680706731));
#1833=CARTESIAN_POINT('',(-0.0788410970457036,-0.0049,-0.0715812680706731));
#1834=CARTESIAN_POINT('',(-0.0788410970457036,-0.0049,-0.0715812680706731));
#1835=CARTESIAN_POINT('',(-0.0671210970457035,-0.0049,-0.0646012680706731));
#1836=CARTESIAN_POINT('',(-0.0821510970457035,-0.0049,-0.0715812680706731));
#1837=CARTESIAN_POINT('',(-0.0821510970457035,-0.0049,-0.0748612680706731));
#1838=CARTESIAN_POINT('',(-0.0821510970457035,-0.0049,-0.0683012680706731));
#1839=CARTESIAN_POINT('',(-0.0807460970457035,-0.0049,-0.0683012680706731));
#1840=CARTESIAN_POINT('',(-0.0793410970457036,-0.0049,-0.0683012680706731));
#1841=CARTESIAN_POINT('',(-0.0793410970457036,-0.0049,-0.0715812680706731));
#1842=CARTESIAN_POINT('',(-0.0793410970457036,-0.0049,-0.0748612680706731));
#1843=CARTESIAN_POINT('',(-0.0807460970457035,-0.0049,-0.0748612680706731));
#1844=CARTESIAN_POINT('',(-0.0821510970457035,0.373595379835045,-0.0715812680706731));
#1845=CARTESIAN_POINT('',(-0.0821510970457035,0.373595379835045,-0.0748612680706731));
#1846=CARTESIAN_POINT('',(-0.0821510970457035,0.373595379835045,-0.0683012680706731));
#1847=CARTESIAN_POINT('',(-0.0807460970457035,0.373595379835045,-0.0748612680706731));
#1848=CARTESIAN_POINT('',(-0.0793410970457036,0.373595379835045,-0.0748612680706731));
#1849=CARTESIAN_POINT('',(-0.0807460970457035,0.373595379835045,-0.0683012680706731));
#1850=CARTESIAN_POINT('',(-0.0793410970457036,0.373595379835045,-0.0683012680706731));
#1851=CARTESIAN_POINT('',(-0.0793410970457036,0.373595379835045,-0.0715812680706731));
#1852=CARTESIAN_POINT('',(-0.0671210970457035,-0.0039,-0.0646012680706731));
#1853=CARTESIAN_POINT('',(-0.0800435970457035,-0.0039,-0.0688712680706731));
#1854=CARTESIAN_POINT('',(-0.0797935970457035,-0.00390000000000012,-0.0688712680706731));
#1855=CARTESIAN_POINT('',(-0.0802935970457035,-0.00390000000000012,-0.0688712680706731));
#1856=CARTESIAN_POINT('',(-0.0802935970457035,-0.0039,-0.0691212680706731));
#1857=CARTESIAN_POINT('',(-0.0802935970457035,-0.00390000000000012,-0.0693712680706731));
#1858=CARTESIAN_POINT('',(-0.0800435970457035,-0.0039,-0.0693712680706731));
#1859=CARTESIAN_POINT('',(-0.0797935970457035,-0.00390000000000012,-0.0693712680706731));
#1860=CARTESIAN_POINT('',(-0.0797935970457035,-0.0039,-0.0691212680706731));
#1861=CARTESIAN_POINT('',(-0.0800435970457035,-0.378495379835045,-0.0693712680706731));
#1862=CARTESIAN_POINT('',(-0.0802935970457035,-0.378495379835045,-0.0693712680706731));
#1863=CARTESIAN_POINT('',(-0.0797935970457035,-0.378495379835045,-0.0693712680706731));
#1864=CARTESIAN_POINT('',(-0.0802935970457035,-0.378495379835045,-0.0691212680706731));
#1865=CARTESIAN_POINT('',(-0.0802935970457035,-0.378495379835045,-0.0688712680706731));
#1866=CARTESIAN_POINT('',(-0.0797935970457035,-0.378495379835045,-0.0691212680706731));
#1867=CARTESIAN_POINT('',(-0.0797935970457035,-0.378495379835045,-0.0688712680706731));
#1868=CARTESIAN_POINT('',(-0.0800435970457035,-0.378495379835045,-0.0688712680706731));
#1869=CARTESIAN_POINT('',(-0.0671210970457035,-0.0039,-0.0646012680706731));
#1870=CARTESIAN_POINT('',(-0.0797935970457035,-0.0039,-0.0707612680706731));
#1871=CARTESIAN_POINT('',(-0.0797935970457035,-0.00390000000000012,-0.0710112680706731));
#1872=CARTESIAN_POINT('',(-0.0797935970457035,-0.00390000000000012,-0.0705112680706731));
#1873=CARTESIAN_POINT('',(-0.0800435970457035,-0.0039,-0.0705112680706731));
#1874=CARTESIAN_POINT('',(-0.0802935970457035,-0.00390000000000012,-0.0705112680706731));
#1875=CARTESIAN_POINT('',(-0.0802935970457035,-0.0039,-0.0707612680706731));
#1876=CARTESIAN_POINT('',(-0.0802935970457035,-0.00390000000000012,-0.0710112680706731));
#1877=CARTESIAN_POINT('',(-0.0800435970457035,-0.0039,-0.0710112680706731));
#1878=CARTESIAN_POINT('',(-0.0800435970457035,-0.378495379835045,-0.0710112680706731));
#1879=CARTESIAN_POINT('',(-0.0802935970457035,-0.378495379835045,-0.0710112680706731));
#1880=CARTESIAN_POINT('',(-0.0797935970457035,-0.378495379835045,-0.0710112680706731));
#1881=CARTESIAN_POINT('',(-0.0802935970457035,-0.378495379835045,-0.0707612680706731));
#1882=CARTESIAN_POINT('',(-0.0802935970457035,-0.378495379835045,-0.0705112680706731));
#1883=CARTESIAN_POINT('',(-0.0797935970457035,-0.378495379835045,-0.0707612680706731));
#1884=CARTESIAN_POINT('',(-0.0797935970457035,-0.378495379835045,-0.0705112680706731));
#1885=CARTESIAN_POINT('',(-0.0800435970457035,-0.378495379835045,-0.0705112680706731));
#1886=CARTESIAN_POINT('',(-0.0671210970457035,-0.0039,-0.0646012680706731));
#1887=CARTESIAN_POINT('',(-0.0802935970457035,-0.0039,-0.0724012680706731));
#1888=CARTESIAN_POINT('',(-0.0802935970457035,-0.00390000000000012,-0.0721512680706731));
#1889=CARTESIAN_POINT('',(-0.0802935970457035,-0.00390000000000012,-0.0726512680706731));
#1890=CARTESIAN_POINT('',(-0.0800435970457035,-0.0039,-0.0726512680706731));
#1891=CARTESIAN_POINT('',(-0.0797935970457035,-0.00390000000000012,-0.0726512680706731));
#1892=CARTESIAN_POINT('',(-0.0797935970457035,-0.0039,-0.0724012680706731));
#1893=CARTESIAN_POINT('',(-0.0797935970457035,-0.00390000000000012,-0.0721512680706731));
#1894=CARTESIAN_POINT('',(-0.0800435970457035,-0.0039,-0.0721512680706731));
#1895=CARTESIAN_POINT('',(-0.0802935970457035,-0.378495379835045,-0.0724012680706731));
#1896=CARTESIAN_POINT('',(-0.0802935970457035,-0.378495379835045,-0.0721512680706731));
#1897=CARTESIAN_POINT('',(-0.0802935970457035,-0.378495379835045,-0.0726512680706731));
#1898=CARTESIAN_POINT('',(-0.0800435970457035,-0.378495379835045,-0.0721512680706731));
#1899=CARTESIAN_POINT('',(-0.0797935970457035,-0.378495379835045,-0.0721512680706731));
#1900=CARTESIAN_POINT('',(-0.0797935970457035,-0.378495379835045,-0.0724012680706731));
#1901=CARTESIAN_POINT('',(-0.0797935970457035,-0.378495379835045,-0.0726512680706731));
#1902=CARTESIAN_POINT('',(-0.0800435970457035,-0.378495379835045,-0.0726512680706731));
#1903=CARTESIAN_POINT('',(-0.0671210970457035,-0.0039,-0.0646012680706731));
#1904=CARTESIAN_POINT('',(-0.0797935970457035,-0.0039,-0.0740412680706731));
#1905=CARTESIAN_POINT('',(-0.0797935970457035,-0.00390000000000012,-0.0742912680706731));
#1906=CARTESIAN_POINT('',(-0.0797935970457035,-0.00390000000000012,-0.0737912680706731));
#1907=CARTESIAN_POINT('',(-0.0800435970457035,-0.0039,-0.0737912680706731));
#1908=CARTESIAN_POINT('',(-0.0802935970457035,-0.00390000000000012,-0.0737912680706731));
#1909=CARTESIAN_POINT('',(-0.0802935970457035,-0.0039,-0.0740412680706731));
#1910=CARTESIAN_POINT('',(-0.0802935970457035,-0.00390000000000012,-0.0742912680706731));
#1911=CARTESIAN_POINT('',(-0.0800435970457035,-0.0039,-0.0742912680706731));
#1912=CARTESIAN_POINT('',(-0.0800435970457035,-0.378495379835045,-0.0742912680706731));
#1913=CARTESIAN_POINT('',(-0.0802935970457035,-0.378495379835045,-0.0742912680706731));
#1914=CARTESIAN_POINT('',(-0.0797935970457035,-0.378495379835045,-0.0742912680706731));
#1915=CARTESIAN_POINT('',(-0.0802935970457035,-0.378495379835045,-0.0740412680706731));
#1916=CARTESIAN_POINT('',(-0.0802935970457035,-0.378495379835045,-0.0737912680706731));
#1917=CARTESIAN_POINT('',(-0.0797935970457035,-0.378495379835045,-0.0740412680706731));
#1918=CARTESIAN_POINT('',(-0.0797935970457035,-0.378495379835045,-0.0737912680706731));
#1919=CARTESIAN_POINT('',(-0.0800435970457035,-0.378495379835045,-0.0737912680706731));
#1920=MECHANICAL_DESIGN_GEOMETRIC_PRESENTATION_REPRESENTATION('',(#1175),
#1921);
#1921=(
GEOMETRIC_REPRESENTATION_CONTEXT(3)
GLOBAL_UNCERTAINTY_ASSIGNED_CONTEXT((#1922))
GLOBAL_UNIT_ASSIGNED_CONTEXT((#1925,#1924,#1923))
REPRESENTATION_CONTEXT('Arducam BO385','TOP_LEVEL_ASSEMBLY_PART')
);
#1922=UNCERTAINTY_MEASURE_WITH_UNIT(LENGTH_MEASURE(1.E-8),#1925,
'DISTANCE_ACCURACY_VALUE','Maximum Tolerance applied to model');
#1923=(
NAMED_UNIT(*)
SI_UNIT($,.STERADIAN.)
SOLID_ANGLE_UNIT()
);
#1924=(
NAMED_UNIT(*)
PLANE_ANGLE_UNIT()
SI_UNIT($,.RADIAN.)
);
#1925=(
LENGTH_UNIT()
NAMED_UNIT(*)
SI_UNIT($,.METRE.)
);
#1926=PRODUCT_DEFINITION_SHAPE('','',#1927);
#1927=PRODUCT_DEFINITION('','',#1929,#1928);
#1928=PRODUCT_DEFINITION_CONTEXT('',#1935,'design');
#1929=PRODUCT_DEFINITION_FORMATION_WITH_SPECIFIED_SOURCE('','',#1931,
 .NOT_KNOWN.);
#1930=PRODUCT_RELATED_PRODUCT_CATEGORY('','',(#1931));
#1931=PRODUCT('Arducam BO385','Arducam BO385','Arducam BO385',(#1933));
#1932=PRODUCT_CATEGORY('','');
#1933=PRODUCT_CONTEXT('',#1935,'mechanical');
#1934=APPLICATION_PROTOCOL_DEFINITION('international standard',
'ap242_managed_model_based_3d_engineering',2020,#1935);
#1935=APPLICATION_CONTEXT('managed model based 3d engineering');
ENDSEC;
END-ISO-10303-21;
