ISO-10303-21;
HEADER;
/* Generated by software containing ST-Developer
 * from STEP Tools, Inc. (www.steptools.com) 
 */
/* OPTION: using custom renumber hook */

FILE_DESCRIPTION(
/* description */ ('STEP AP242 Edition 2',
'CAx-IF Rec.Pracs.---Representation and Presentation of Product Manufa
cturing Information (PMI)---4.0---2014-10-13',
'CAx-IF Rec.Pracs.---3D Tessellated Geometry---0.4---2014-09-14','2;1',
'CAx-IF Rec.Pracs.---User Defined Attributes---1.5---2016-08-15'),
/* implementation_level */ '2;1');

FILE_NAME(
/* name */ 'Hexarm - Follower - Part 18',
/* time_stamp */ '2026-08-09T23:35:35Z',
/* author */ (''),
/* organization */ (''),
/* preprocessor_version */ 'ST-DEVELOPER v20',
/* originating_system */ 'ONSHAPE BY PTC INC, 1.219',
/* authorisation */ '  ');

FILE_SCHEMA (('AP242_MANAGED_MODEL_BASED_3D_ENGINEERING_MIM_LF { 1 0 10303 442 3 1 4 }'));
ENDSEC;

DATA;
#10=SHAPE_REPRESENTATION_RELATIONSHIP('','',#633,#11);
#11=ADVANCED_BREP_SHAPE_REPRESENTATION('',(#631),#1039);
#12=CYLINDRICAL_SURFACE('',#669,0.00225);
#13=CYLINDRICAL_SURFACE('',#670,0.00225);
#14=B_SPLINE_SURFACE_WITH_KNOTS('',3,1,((#908,#909),(#910,#911),(#912,#913),
(#914,#915)),.SURF_OF_LINEAR_EXTRUSION.,.F.,.F.,.F.,(4,4),(2,2),(8.713274646336E-9,
0.999999991286695),(0.,1.),.PIECEWISE_BEZIER_KNOTS.);
#15=B_SPLINE_SURFACE_WITH_KNOTS('',3,1,((#922,#923),(#924,#925),(#926,#927),
(#928,#929)),.SURF_OF_LINEAR_EXTRUSION.,.F.,.F.,.F.,(4,4),(2,2),(-7.27145346556331E-10,
1.00000000501386),(0.,1.),.PIECEWISE_BEZIER_KNOTS.);
#16=B_SPLINE_SURFACE_WITH_KNOTS('',3,1,((#943,#944),(#945,#946),(#947,#948),
(#949,#950)),.SURF_OF_LINEAR_EXTRUSION.,.F.,.F.,.F.,(4,4),(2,2),(-7.27145289530791E-10,
1.00000000501386),(0.,1.),.PIECEWISE_BEZIER_KNOTS.);
#17=B_SPLINE_SURFACE_WITH_KNOTS('',3,1,((#970,#971),(#972,#973),(#974,#975),
(#976,#977)),.SURF_OF_LINEAR_EXTRUSION.,.F.,.F.,.F.,(4,4),(2,2),(0.108153448849861,
1.00000000000003),(0.,1.),.PIECEWISE_BEZIER_KNOTS.);
#18=B_SPLINE_CURVE_WITH_KNOTS('',3,(#875,#876,#877,#878),.UNSPECIFIED.,
 .F.,.F.,(4,4),(0.,1.),.PIECEWISE_BEZIER_KNOTS.);
#19=B_SPLINE_CURVE_WITH_KNOTS('',3,(#886,#887,#888,#889),.UNSPECIFIED.,
 .F.,.F.,(4,4),(0.,1.),.PIECEWISE_BEZIER_KNOTS.);
#20=B_SPLINE_CURVE_WITH_KNOTS('',3,(#904,#905,#906,#907),.UNSPECIFIED.,
 .F.,.F.,(4,4),(0.,1.),.PIECEWISE_BEZIER_KNOTS.);
#21=B_SPLINE_CURVE_WITH_KNOTS('',3,(#916,#917,#918,#919),.UNSPECIFIED.,
 .F.,.F.,(4,4),(0.,1.),.PIECEWISE_BEZIER_KNOTS.);
#22=B_SPLINE_CURVE_WITH_KNOTS('',3,(#932,#933,#934,#935),.UNSPECIFIED.,
 .F.,.F.,(4,4),(0.,1.),.PIECEWISE_BEZIER_KNOTS.);
#23=B_SPLINE_CURVE_WITH_KNOTS('',3,(#939,#940,#941,#942),.UNSPECIFIED.,
 .F.,.F.,(4,4),(0.,1.),.PIECEWISE_BEZIER_KNOTS.);
#24=B_SPLINE_CURVE_WITH_KNOTS('',3,(#953,#954,#955,#956),.UNSPECIFIED.,
 .F.,.F.,(4,4),(0.,1.),.PIECEWISE_BEZIER_KNOTS.);
#25=B_SPLINE_CURVE_WITH_KNOTS('',3,(#966,#967,#968,#969),.UNSPECIFIED.,
 .F.,.F.,(4,4),(0.,1.),.PIECEWISE_BEZIER_KNOTS.);
#26=CIRCLE('',#640,0.00225);
#27=CIRCLE('',#641,0.00225);
#28=CIRCLE('',#660,0.00225);
#29=CIRCLE('',#668,0.00225);
#30=ORIENTED_EDGE('',*,*,#194,.F.);
#31=ORIENTED_EDGE('',*,*,#195,.F.);
#32=ORIENTED_EDGE('',*,*,#196,.T.);
#33=ORIENTED_EDGE('',*,*,#197,.T.);
#34=ORIENTED_EDGE('',*,*,#198,.F.);
#35=ORIENTED_EDGE('',*,*,#199,.F.);
#36=ORIENTED_EDGE('',*,*,#200,.T.);
#37=ORIENTED_EDGE('',*,*,#195,.T.);
#38=ORIENTED_EDGE('',*,*,#201,.T.);
#39=ORIENTED_EDGE('',*,*,#197,.F.);
#40=ORIENTED_EDGE('',*,*,#202,.F.);
#41=ORIENTED_EDGE('',*,*,#203,.T.);
#42=ORIENTED_EDGE('',*,*,#204,.F.);
#43=ORIENTED_EDGE('',*,*,#205,.F.);
#44=ORIENTED_EDGE('',*,*,#206,.F.);
#45=ORIENTED_EDGE('',*,*,#207,.F.);
#46=ORIENTED_EDGE('',*,*,#208,.F.);
#47=ORIENTED_EDGE('',*,*,#209,.F.);
#48=ORIENTED_EDGE('',*,*,#210,.F.);
#49=ORIENTED_EDGE('',*,*,#211,.F.);
#50=ORIENTED_EDGE('',*,*,#212,.F.);
#51=ORIENTED_EDGE('',*,*,#213,.F.);
#52=ORIENTED_EDGE('',*,*,#214,.F.);
#53=ORIENTED_EDGE('',*,*,#215,.F.);
#54=ORIENTED_EDGE('',*,*,#196,.F.);
#55=ORIENTED_EDGE('',*,*,#200,.F.);
#56=ORIENTED_EDGE('',*,*,#216,.F.);
#57=ORIENTED_EDGE('',*,*,#202,.T.);
#58=ORIENTED_EDGE('',*,*,#217,.T.);
#59=ORIENTED_EDGE('',*,*,#218,.T.);
#60=ORIENTED_EDGE('',*,*,#194,.T.);
#61=ORIENTED_EDGE('',*,*,#201,.F.);
#62=ORIENTED_EDGE('',*,*,#219,.T.);
#63=ORIENTED_EDGE('',*,*,#198,.T.);
#64=ORIENTED_EDGE('',*,*,#220,.F.);
#65=ORIENTED_EDGE('',*,*,#221,.F.);
#66=ORIENTED_EDGE('',*,*,#222,.T.);
#67=ORIENTED_EDGE('',*,*,#223,.T.);
#68=ORIENTED_EDGE('',*,*,#224,.F.);
#69=ORIENTED_EDGE('',*,*,#225,.F.);
#70=ORIENTED_EDGE('',*,*,#226,.F.);
#71=ORIENTED_EDGE('',*,*,#227,.T.);
#72=ORIENTED_EDGE('',*,*,#228,.F.);
#73=ORIENTED_EDGE('',*,*,#229,.F.);
#74=ORIENTED_EDGE('',*,*,#230,.T.);
#75=ORIENTED_EDGE('',*,*,#221,.T.);
#76=ORIENTED_EDGE('',*,*,#231,.T.);
#77=ORIENTED_EDGE('',*,*,#227,.F.);
#78=ORIENTED_EDGE('',*,*,#232,.F.);
#79=ORIENTED_EDGE('',*,*,#233,.T.);
#80=ORIENTED_EDGE('',*,*,#219,.F.);
#81=ORIENTED_EDGE('',*,*,#228,.T.);
#82=ORIENTED_EDGE('',*,*,#220,.T.);
#83=ORIENTED_EDGE('',*,*,#231,.F.);
#84=ORIENTED_EDGE('',*,*,#229,.T.);
#85=ORIENTED_EDGE('',*,*,#203,.F.);
#86=ORIENTED_EDGE('',*,*,#234,.F.);
#87=ORIENTED_EDGE('',*,*,#234,.T.);
#88=ORIENTED_EDGE('',*,*,#216,.T.);
#89=ORIENTED_EDGE('',*,*,#235,.F.);
#90=ORIENTED_EDGE('',*,*,#236,.F.);
#91=ORIENTED_EDGE('',*,*,#235,.T.);
#92=ORIENTED_EDGE('',*,*,#199,.T.);
#93=ORIENTED_EDGE('',*,*,#233,.F.);
#94=ORIENTED_EDGE('',*,*,#237,.F.);
#95=ORIENTED_EDGE('',*,*,#238,.F.);
#96=ORIENTED_EDGE('',*,*,#232,.T.);
#97=ORIENTED_EDGE('',*,*,#226,.T.);
#98=ORIENTED_EDGE('',*,*,#238,.T.);
#99=ORIENTED_EDGE('',*,*,#239,.F.);
#100=ORIENTED_EDGE('',*,*,#240,.F.);
#101=ORIENTED_EDGE('',*,*,#236,.T.);
#102=ORIENTED_EDGE('',*,*,#240,.T.);
#103=ORIENTED_EDGE('',*,*,#241,.F.);
#104=ORIENTED_EDGE('',*,*,#222,.F.);
#105=ORIENTED_EDGE('',*,*,#230,.F.);
#106=ORIENTED_EDGE('',*,*,#242,.T.);
#107=ORIENTED_EDGE('',*,*,#243,.T.);
#108=ORIENTED_EDGE('',*,*,#244,.F.);
#109=ORIENTED_EDGE('',*,*,#223,.F.);
#110=ORIENTED_EDGE('',*,*,#241,.T.);
#111=ORIENTED_EDGE('',*,*,#245,.F.);
#112=ORIENTED_EDGE('',*,*,#246,.T.);
#113=ORIENTED_EDGE('',*,*,#247,.F.);
#114=ORIENTED_EDGE('',*,*,#237,.T.);
#115=ORIENTED_EDGE('',*,*,#225,.T.);
#116=ORIENTED_EDGE('',*,*,#247,.T.);
#117=ORIENTED_EDGE('',*,*,#248,.T.);
#118=ORIENTED_EDGE('',*,*,#242,.F.);
#119=ORIENTED_EDGE('',*,*,#239,.T.);
#120=ORIENTED_EDGE('',*,*,#244,.T.);
#121=ORIENTED_EDGE('',*,*,#249,.T.);
#122=ORIENTED_EDGE('',*,*,#245,.T.);
#123=ORIENTED_EDGE('',*,*,#224,.T.);
#124=ORIENTED_EDGE('',*,*,#243,.F.);
#125=ORIENTED_EDGE('',*,*,#248,.F.);
#126=ORIENTED_EDGE('',*,*,#246,.F.);
#127=ORIENTED_EDGE('',*,*,#249,.F.);
#128=ORIENTED_EDGE('',*,*,#210,.T.);
#129=ORIENTED_EDGE('',*,*,#250,.F.);
#130=ORIENTED_EDGE('',*,*,#251,.F.);
#131=ORIENTED_EDGE('',*,*,#252,.T.);
#132=ORIENTED_EDGE('',*,*,#215,.T.);
#133=ORIENTED_EDGE('',*,*,#253,.F.);
#134=ORIENTED_EDGE('',*,*,#254,.F.);
#135=ORIENTED_EDGE('',*,*,#250,.T.);
#136=ORIENTED_EDGE('',*,*,#214,.T.);
#137=ORIENTED_EDGE('',*,*,#255,.F.);
#138=ORIENTED_EDGE('',*,*,#256,.F.);
#139=ORIENTED_EDGE('',*,*,#253,.T.);
#140=ORIENTED_EDGE('',*,*,#213,.T.);
#141=ORIENTED_EDGE('',*,*,#257,.F.);
#142=ORIENTED_EDGE('',*,*,#258,.F.);
#143=ORIENTED_EDGE('',*,*,#255,.T.);
#144=ORIENTED_EDGE('',*,*,#212,.T.);
#145=ORIENTED_EDGE('',*,*,#259,.F.);
#146=ORIENTED_EDGE('',*,*,#260,.F.);
#147=ORIENTED_EDGE('',*,*,#257,.T.);
#148=ORIENTED_EDGE('',*,*,#211,.T.);
#149=ORIENTED_EDGE('',*,*,#252,.F.);
#150=ORIENTED_EDGE('',*,*,#261,.F.);
#151=ORIENTED_EDGE('',*,*,#259,.T.);
#152=ORIENTED_EDGE('',*,*,#262,.F.);
#153=ORIENTED_EDGE('',*,*,#251,.T.);
#154=ORIENTED_EDGE('',*,*,#254,.T.);
#155=ORIENTED_EDGE('',*,*,#256,.T.);
#156=ORIENTED_EDGE('',*,*,#258,.T.);
#157=ORIENTED_EDGE('',*,*,#260,.T.);
#158=ORIENTED_EDGE('',*,*,#261,.T.);
#159=ORIENTED_EDGE('',*,*,#204,.T.);
#160=ORIENTED_EDGE('',*,*,#263,.F.);
#161=ORIENTED_EDGE('',*,*,#264,.F.);
#162=ORIENTED_EDGE('',*,*,#265,.T.);
#163=ORIENTED_EDGE('',*,*,#209,.T.);
#164=ORIENTED_EDGE('',*,*,#266,.F.);
#165=ORIENTED_EDGE('',*,*,#267,.F.);
#166=ORIENTED_EDGE('',*,*,#263,.T.);
#167=ORIENTED_EDGE('',*,*,#208,.T.);
#168=ORIENTED_EDGE('',*,*,#268,.F.);
#169=ORIENTED_EDGE('',*,*,#269,.F.);
#170=ORIENTED_EDGE('',*,*,#266,.T.);
#171=ORIENTED_EDGE('',*,*,#207,.T.);
#172=ORIENTED_EDGE('',*,*,#270,.F.);
#173=ORIENTED_EDGE('',*,*,#271,.F.);
#174=ORIENTED_EDGE('',*,*,#268,.T.);
#175=ORIENTED_EDGE('',*,*,#206,.T.);
#176=ORIENTED_EDGE('',*,*,#272,.F.);
#177=ORIENTED_EDGE('',*,*,#273,.F.);
#178=ORIENTED_EDGE('',*,*,#270,.T.);
#179=ORIENTED_EDGE('',*,*,#205,.T.);
#180=ORIENTED_EDGE('',*,*,#265,.F.);
#181=ORIENTED_EDGE('',*,*,#274,.F.);
#182=ORIENTED_EDGE('',*,*,#272,.T.);
#183=ORIENTED_EDGE('',*,*,#275,.F.);
#184=ORIENTED_EDGE('',*,*,#264,.T.);
#185=ORIENTED_EDGE('',*,*,#267,.T.);
#186=ORIENTED_EDGE('',*,*,#269,.T.);
#187=ORIENTED_EDGE('',*,*,#271,.T.);
#188=ORIENTED_EDGE('',*,*,#273,.T.);
#189=ORIENTED_EDGE('',*,*,#274,.T.);
#190=ORIENTED_EDGE('',*,*,#275,.T.);
#191=ORIENTED_EDGE('',*,*,#218,.F.);
#192=ORIENTED_EDGE('',*,*,#262,.T.);
#193=ORIENTED_EDGE('',*,*,#217,.F.);
#194=EDGE_CURVE('',#276,#277,#328,.T.);
#195=EDGE_CURVE('',#278,#276,#329,.T.);
#196=EDGE_CURVE('',#278,#279,#330,.T.);
#197=EDGE_CURVE('',#279,#277,#331,.T.);
#198=EDGE_CURVE('',#280,#276,#332,.T.);
#199=EDGE_CURVE('',#281,#280,#333,.T.);
#200=EDGE_CURVE('',#281,#278,#334,.T.);
#201=EDGE_CURVE('',#282,#277,#335,.T.);
#202=EDGE_CURVE('',#283,#279,#336,.T.);
#203=EDGE_CURVE('',#283,#282,#337,.T.);
#204=EDGE_CURVE('',#284,#285,#338,.T.);
#205=EDGE_CURVE('',#286,#284,#339,.T.);
#206=EDGE_CURVE('',#287,#286,#340,.T.);
#207=EDGE_CURVE('',#288,#287,#341,.T.);
#208=EDGE_CURVE('',#289,#288,#342,.T.);
#209=EDGE_CURVE('',#285,#289,#343,.T.);
#210=EDGE_CURVE('',#290,#291,#344,.T.);
#211=EDGE_CURVE('',#292,#290,#345,.T.);
#212=EDGE_CURVE('',#293,#292,#346,.T.);
#213=EDGE_CURVE('',#294,#293,#347,.T.);
#214=EDGE_CURVE('',#295,#294,#348,.T.);
#215=EDGE_CURVE('',#291,#295,#349,.T.);
#216=EDGE_CURVE('',#283,#281,#350,.T.);
#217=EDGE_CURVE('',#296,#296,#26,.T.);
#218=EDGE_CURVE('',#297,#297,#27,.T.);
#219=EDGE_CURVE('',#282,#280,#351,.T.);
#220=EDGE_CURVE('',#298,#299,#352,.T.);
#221=EDGE_CURVE('',#300,#298,#353,.T.);
#222=EDGE_CURVE('',#300,#301,#18,.T.);
#223=EDGE_CURVE('',#301,#302,#354,.T.);
#224=EDGE_CURVE('',#303,#302,#355,.F.);
#225=EDGE_CURVE('',#304,#303,#356,.T.);
#226=EDGE_CURVE('',#305,#304,#19,.T.);
#227=EDGE_CURVE('',#305,#299,#357,.T.);
#228=EDGE_CURVE('',#282,#298,#358,.T.);
#229=EDGE_CURVE('',#306,#282,#359,.T.);
#230=EDGE_CURVE('',#306,#300,#360,.T.);
#231=EDGE_CURVE('',#280,#299,#361,.T.);
#232=EDGE_CURVE('',#307,#305,#362,.T.);
#233=EDGE_CURVE('',#307,#280,#363,.T.);
#234=EDGE_CURVE('',#306,#283,#20,.T.);
#235=EDGE_CURVE('',#307,#281,#21,.T.);
#236=EDGE_CURVE('',#306,#307,#364,.T.);
#237=EDGE_CURVE('',#308,#304,#365,.T.);
#238=EDGE_CURVE('',#307,#308,#22,.T.);
#239=EDGE_CURVE('',#309,#308,#366,.T.);
#240=EDGE_CURVE('',#306,#309,#23,.T.);
#241=EDGE_CURVE('',#301,#309,#367,.F.);
#242=EDGE_CURVE('',#309,#310,#24,.T.);
#243=EDGE_CURVE('',#310,#311,#368,.F.);
#244=EDGE_CURVE('',#302,#311,#369,.T.);
#245=EDGE_CURVE('',#312,#303,#370,.F.);
#246=EDGE_CURVE('',#312,#313,#371,.T.);
#247=EDGE_CURVE('',#308,#313,#25,.T.);
#248=EDGE_CURVE('',#313,#310,#372,.F.);
#249=EDGE_CURVE('',#311,#312,#373,.T.);
#250=EDGE_CURVE('',#314,#291,#374,.T.);
#251=EDGE_CURVE('',#315,#314,#375,.T.);
#252=EDGE_CURVE('',#315,#290,#376,.T.);
#253=EDGE_CURVE('',#316,#295,#377,.T.);
#254=EDGE_CURVE('',#314,#316,#378,.T.);
#255=EDGE_CURVE('',#317,#294,#379,.T.);
#256=EDGE_CURVE('',#316,#317,#380,.T.);
#257=EDGE_CURVE('',#318,#293,#381,.T.);
#258=EDGE_CURVE('',#317,#318,#382,.T.);
#259=EDGE_CURVE('',#319,#292,#383,.T.);
#260=EDGE_CURVE('',#318,#319,#384,.T.);
#261=EDGE_CURVE('',#319,#315,#385,.T.);
#262=EDGE_CURVE('',#320,#320,#28,.T.);
#263=EDGE_CURVE('',#321,#285,#386,.T.);
#264=EDGE_CURVE('',#322,#321,#387,.T.);
#265=EDGE_CURVE('',#322,#284,#388,.T.);
#266=EDGE_CURVE('',#323,#289,#389,.T.);
#267=EDGE_CURVE('',#321,#323,#390,.T.);
#268=EDGE_CURVE('',#324,#288,#391,.T.);
#269=EDGE_CURVE('',#323,#324,#392,.T.);
#270=EDGE_CURVE('',#325,#287,#393,.T.);
#271=EDGE_CURVE('',#324,#325,#394,.T.);
#272=EDGE_CURVE('',#326,#286,#395,.T.);
#273=EDGE_CURVE('',#325,#326,#396,.T.);
#274=EDGE_CURVE('',#326,#322,#397,.T.);
#275=EDGE_CURVE('',#327,#327,#29,.T.);
#276=VERTEX_POINT('',#818);
#277=VERTEX_POINT('',#819);
#278=VERTEX_POINT('',#821);
#279=VERTEX_POINT('',#823);
#280=VERTEX_POINT('',#827);
#281=VERTEX_POINT('',#829);
#282=VERTEX_POINT('',#833);
#283=VERTEX_POINT('',#835);
#284=VERTEX_POINT('',#839);
#285=VERTEX_POINT('',#840);
#286=VERTEX_POINT('',#842);
#287=VERTEX_POINT('',#844);
#288=VERTEX_POINT('',#846);
#289=VERTEX_POINT('',#848);
#290=VERTEX_POINT('',#851);
#291=VERTEX_POINT('',#852);
#292=VERTEX_POINT('',#854);
#293=VERTEX_POINT('',#856);
#294=VERTEX_POINT('',#858);
#295=VERTEX_POINT('',#860);
#296=VERTEX_POINT('',#865);
#297=VERTEX_POINT('',#867);
#298=VERTEX_POINT('',#871);
#299=VERTEX_POINT('',#872);
#300=VERTEX_POINT('',#874);
#301=VERTEX_POINT('',#879);
#302=VERTEX_POINT('',#881);
#303=VERTEX_POINT('',#883);
#304=VERTEX_POINT('',#885);
#305=VERTEX_POINT('',#890);
#306=VERTEX_POINT('',#895);
#307=VERTEX_POINT('',#900);
#308=VERTEX_POINT('',#931);
#309=VERTEX_POINT('',#938);
#310=VERTEX_POINT('',#957);
#311=VERTEX_POINT('',#959);
#312=VERTEX_POINT('',#963);
#313=VERTEX_POINT('',#965);
#314=VERTEX_POINT('',#984);
#315=VERTEX_POINT('',#986);
#316=VERTEX_POINT('',#990);
#317=VERTEX_POINT('',#994);
#318=VERTEX_POINT('',#998);
#319=VERTEX_POINT('',#1002);
#320=VERTEX_POINT('',#1008);
#321=VERTEX_POINT('',#1011);
#322=VERTEX_POINT('',#1013);
#323=VERTEX_POINT('',#1017);
#324=VERTEX_POINT('',#1021);
#325=VERTEX_POINT('',#1025);
#326=VERTEX_POINT('',#1029);
#327=VERTEX_POINT('',#1035);
#328=LINE('',#817,#398);
#329=LINE('',#820,#399);
#330=LINE('',#822,#400);
#331=LINE('',#824,#401);
#332=LINE('',#826,#402);
#333=LINE('',#828,#403);
#334=LINE('',#830,#404);
#335=LINE('',#832,#405);
#336=LINE('',#834,#406);
#337=LINE('',#836,#407);
#338=LINE('',#838,#408);
#339=LINE('',#841,#409);
#340=LINE('',#843,#410);
#341=LINE('',#845,#411);
#342=LINE('',#847,#412);
#343=LINE('',#849,#413);
#344=LINE('',#850,#414);
#345=LINE('',#853,#415);
#346=LINE('',#855,#416);
#347=LINE('',#857,#417);
#348=LINE('',#859,#418);
#349=LINE('',#861,#419);
#350=LINE('',#862,#420);
#351=LINE('',#868,#421);
#352=LINE('',#870,#422);
#353=LINE('',#873,#423);
#354=LINE('',#880,#424);
#355=LINE('',#882,#425);
#356=LINE('',#884,#426);
#357=LINE('',#891,#427);
#358=LINE('',#893,#428);
#359=LINE('',#894,#429);
#360=LINE('',#896,#430);
#361=LINE('',#898,#431);
#362=LINE('',#899,#432);
#363=LINE('',#901,#433);
#364=LINE('',#920,#434);
#365=LINE('',#930,#435);
#366=LINE('',#937,#436);
#367=LINE('',#951,#437);
#368=LINE('',#958,#438);
#369=LINE('',#960,#439);
#370=LINE('',#962,#440);
#371=LINE('',#964,#441);
#372=LINE('',#978,#442);
#373=LINE('',#980,#443);
#374=LINE('',#983,#444);
#375=LINE('',#985,#445);
#376=LINE('',#987,#446);
#377=LINE('',#989,#447);
#378=LINE('',#991,#448);
#379=LINE('',#993,#449);
#380=LINE('',#995,#450);
#381=LINE('',#997,#451);
#382=LINE('',#999,#452);
#383=LINE('',#1001,#453);
#384=LINE('',#1003,#454);
#385=LINE('',#1005,#455);
#386=LINE('',#1010,#456);
#387=LINE('',#1012,#457);
#388=LINE('',#1014,#458);
#389=LINE('',#1016,#459);
#390=LINE('',#1018,#460);
#391=LINE('',#1020,#461);
#392=LINE('',#1022,#462);
#393=LINE('',#1024,#463);
#394=LINE('',#1026,#464);
#395=LINE('',#1028,#465);
#396=LINE('',#1030,#466);
#397=LINE('',#1032,#467);
#398=VECTOR('',#675,1.);
#399=VECTOR('',#676,1.);
#400=VECTOR('',#677,1.);
#401=VECTOR('',#678,1.);
#402=VECTOR('',#681,1.);
#403=VECTOR('',#682,1.);
#404=VECTOR('',#683,1.);
#405=VECTOR('',#686,1.);
#406=VECTOR('',#687,1.);
#407=VECTOR('',#688,1.);
#408=VECTOR('',#691,1.);
#409=VECTOR('',#692,1.);
#410=VECTOR('',#693,1.);
#411=VECTOR('',#694,1.);
#412=VECTOR('',#695,1.);
#413=VECTOR('',#696,1.);
#414=VECTOR('',#697,1.);
#415=VECTOR('',#698,1.);
#416=VECTOR('',#699,1.);
#417=VECTOR('',#700,1.);
#418=VECTOR('',#701,1.);
#419=VECTOR('',#702,1.);
#420=VECTOR('',#703,1.);
#421=VECTOR('',#710,1.);
#422=VECTOR('',#713,1.);
#423=VECTOR('',#714,1.);
#424=VECTOR('',#715,1.);
#425=VECTOR('',#716,1.);
#426=VECTOR('',#717,1.);
#427=VECTOR('',#718,1.);
#428=VECTOR('',#721,1.);
#429=VECTOR('',#722,1.);
#430=VECTOR('',#723,1.);
#431=VECTOR('',#726,1.);
#432=VECTOR('',#727,1.);
#433=VECTOR('',#728,1.);
#434=VECTOR('',#733,1.);
#435=VECTOR('',#736,1.);
#436=VECTOR('',#739,1.);
#437=VECTOR('',#740,1.);
#438=VECTOR('',#743,1.);
#439=VECTOR('',#744,1.);
#440=VECTOR('',#747,1.);
#441=VECTOR('',#748,1.);
#442=VECTOR('',#749,1.);
#443=VECTOR('',#752,1.);
#444=VECTOR('',#757,1.);
#445=VECTOR('',#758,1.);
#446=VECTOR('',#759,1.);
#447=VECTOR('',#762,1.);
#448=VECTOR('',#763,1.);
#449=VECTOR('',#766,1.);
#450=VECTOR('',#767,1.);
#451=VECTOR('',#770,1.);
#452=VECTOR('',#771,1.);
#453=VECTOR('',#774,1.);
#454=VECTOR('',#775,1.);
#455=VECTOR('',#778,1.);
#456=VECTOR('',#785,1.);
#457=VECTOR('',#786,1.);
#458=VECTOR('',#787,1.);
#459=VECTOR('',#790,1.);
#460=VECTOR('',#791,1.);
#461=VECTOR('',#794,1.);
#462=VECTOR('',#795,1.);
#463=VECTOR('',#798,1.);
#464=VECTOR('',#799,1.);
#465=VECTOR('',#802,1.);
#466=VECTOR('',#803,1.);
#467=VECTOR('',#806,1.);
#468=EDGE_LOOP('',(#30,#31,#32,#33));
#469=EDGE_LOOP('',(#34,#35,#36,#37));
#470=EDGE_LOOP('',(#38,#39,#40,#41));
#471=EDGE_LOOP('',(#42,#43,#44,#45,#46,#47));
#472=EDGE_LOOP('',(#48,#49,#50,#51,#52,#53));
#473=EDGE_LOOP('',(#54,#55,#56,#57));
#474=EDGE_LOOP('',(#58));
#475=EDGE_LOOP('',(#59));
#476=EDGE_LOOP('',(#60,#61,#62,#63));
#477=EDGE_LOOP('',(#64,#65,#66,#67,#68,#69,#70,#71));
#478=EDGE_LOOP('',(#72,#73,#74,#75));
#479=EDGE_LOOP('',(#76,#77,#78,#79));
#480=EDGE_LOOP('',(#80,#81,#82,#83));
#481=EDGE_LOOP('',(#84,#85,#86));
#482=EDGE_LOOP('',(#87,#88,#89,#90));
#483=EDGE_LOOP('',(#91,#92,#93));
#484=EDGE_LOOP('',(#94,#95,#96,#97));
#485=EDGE_LOOP('',(#98,#99,#100,#101));
#486=EDGE_LOOP('',(#102,#103,#104,#105));
#487=EDGE_LOOP('',(#106,#107,#108,#109,#110));
#488=EDGE_LOOP('',(#111,#112,#113,#114,#115));
#489=EDGE_LOOP('',(#116,#117,#118,#119));
#490=EDGE_LOOP('',(#120,#121,#122,#123));
#491=EDGE_LOOP('',(#124,#125,#126,#127));
#492=EDGE_LOOP('',(#128,#129,#130,#131));
#493=EDGE_LOOP('',(#132,#133,#134,#135));
#494=EDGE_LOOP('',(#136,#137,#138,#139));
#495=EDGE_LOOP('',(#140,#141,#142,#143));
#496=EDGE_LOOP('',(#144,#145,#146,#147));
#497=EDGE_LOOP('',(#148,#149,#150,#151));
#498=EDGE_LOOP('',(#152));
#499=EDGE_LOOP('',(#153,#154,#155,#156,#157,#158));
#500=EDGE_LOOP('',(#159,#160,#161,#162));
#501=EDGE_LOOP('',(#163,#164,#165,#166));
#502=EDGE_LOOP('',(#167,#168,#169,#170));
#503=EDGE_LOOP('',(#171,#172,#173,#174));
#504=EDGE_LOOP('',(#175,#176,#177,#178));
#505=EDGE_LOOP('',(#179,#180,#181,#182));
#506=EDGE_LOOP('',(#183));
#507=EDGE_LOOP('',(#184,#185,#186,#187,#188,#189));
#508=EDGE_LOOP('',(#190));
#509=EDGE_LOOP('',(#191));
#510=EDGE_LOOP('',(#192));
#511=EDGE_LOOP('',(#193));
#512=FACE_BOUND('',#468,.T.);
#513=FACE_BOUND('',#469,.T.);
#514=FACE_BOUND('',#470,.T.);
#515=FACE_BOUND('',#471,.T.);
#516=FACE_BOUND('',#472,.T.);
#517=FACE_BOUND('',#473,.T.);
#518=FACE_BOUND('',#474,.T.);
#519=FACE_BOUND('',#475,.T.);
#520=FACE_BOUND('',#476,.T.);
#521=FACE_BOUND('',#477,.T.);
#522=FACE_BOUND('',#478,.T.);
#523=FACE_BOUND('',#479,.T.);
#524=FACE_BOUND('',#480,.T.);
#525=FACE_BOUND('',#481,.T.);
#526=FACE_BOUND('',#482,.T.);
#527=FACE_BOUND('',#483,.T.);
#528=FACE_BOUND('',#484,.T.);
#529=FACE_BOUND('',#485,.T.);
#530=FACE_BOUND('',#486,.T.);
#531=FACE_BOUND('',#487,.T.);
#532=FACE_BOUND('',#488,.T.);
#533=FACE_BOUND('',#489,.T.);
#534=FACE_BOUND('',#490,.T.);
#535=FACE_BOUND('',#491,.T.);
#536=FACE_BOUND('',#492,.T.);
#537=FACE_BOUND('',#493,.T.);
#538=FACE_BOUND('',#494,.T.);
#539=FACE_BOUND('',#495,.T.);
#540=FACE_BOUND('',#496,.T.);
#541=FACE_BOUND('',#497,.T.);
#542=FACE_BOUND('',#498,.T.);
#543=FACE_BOUND('',#499,.T.);
#544=FACE_BOUND('',#500,.T.);
#545=FACE_BOUND('',#501,.T.);
#546=FACE_BOUND('',#502,.T.);
#547=FACE_BOUND('',#503,.T.);
#548=FACE_BOUND('',#504,.T.);
#549=FACE_BOUND('',#505,.T.);
#550=FACE_BOUND('',#506,.T.);
#551=FACE_BOUND('',#507,.T.);
#552=FACE_BOUND('',#508,.T.);
#553=FACE_BOUND('',#509,.T.);
#554=FACE_BOUND('',#510,.T.);
#555=FACE_BOUND('',#511,.T.);
#556=PLANE('',#635);
#557=PLANE('',#636);
#558=PLANE('',#637);
#559=PLANE('',#638);
#560=PLANE('',#639);
#561=PLANE('',#642);
#562=PLANE('',#643);
#563=PLANE('',#644);
#564=PLANE('',#645);
#565=PLANE('',#646);
#566=PLANE('',#647);
#567=PLANE('',#648);
#568=PLANE('',#649);
#569=PLANE('',#650);
#570=PLANE('',#651);
#571=PLANE('',#652);
#572=PLANE('',#653);
#573=PLANE('',#654);
#574=PLANE('',#655);
#575=PLANE('',#656);
#576=PLANE('',#657);
#577=PLANE('',#658);
#578=PLANE('',#659);
#579=PLANE('',#661);
#580=PLANE('',#662);
#581=PLANE('',#663);
#582=PLANE('',#664);
#583=PLANE('',#665);
#584=PLANE('',#666);
#585=PLANE('',#667);
#586=ADVANCED_FACE('',(#512),#556,.T.);
#587=ADVANCED_FACE('',(#513),#557,.T.);
#588=ADVANCED_FACE('',(#514),#558,.F.);
#589=ADVANCED_FACE('',(#515,#516,#517),#559,.T.);
#590=ADVANCED_FACE('',(#518,#519,#520),#560,.F.);
#591=ADVANCED_FACE('',(#521),#561,.T.);
#592=ADVANCED_FACE('',(#522),#562,.T.);
#593=ADVANCED_FACE('',(#523),#563,.F.);
#594=ADVANCED_FACE('',(#524),#564,.F.);
#595=ADVANCED_FACE('',(#525),#565,.T.);
#596=ADVANCED_FACE('',(#526),#14,.T.);
#597=ADVANCED_FACE('',(#527),#566,.T.);
#598=ADVANCED_FACE('',(#528),#15,.T.);
#599=ADVANCED_FACE('',(#529),#567,.F.);
#600=ADVANCED_FACE('',(#530),#16,.T.);
#601=ADVANCED_FACE('',(#531),#568,.T.);
#602=ADVANCED_FACE('',(#532),#569,.F.);
#603=ADVANCED_FACE('',(#533),#17,.T.);
#604=ADVANCED_FACE('',(#534),#570,.T.);
#605=ADVANCED_FACE('',(#535),#571,.F.);
#606=ADVANCED_FACE('',(#536),#572,.F.);
#607=ADVANCED_FACE('',(#537),#573,.F.);
#608=ADVANCED_FACE('',(#538),#574,.F.);
#609=ADVANCED_FACE('',(#539),#575,.F.);
#610=ADVANCED_FACE('',(#540),#576,.F.);
#611=ADVANCED_FACE('',(#541),#577,.F.);
#612=ADVANCED_FACE('',(#542,#543),#578,.T.);
#613=ADVANCED_FACE('',(#544),#579,.F.);
#614=ADVANCED_FACE('',(#545),#580,.F.);
#615=ADVANCED_FACE('',(#546),#581,.F.);
#616=ADVANCED_FACE('',(#547),#582,.F.);
#617=ADVANCED_FACE('',(#548),#583,.F.);
#618=ADVANCED_FACE('',(#549),#584,.F.);
#619=ADVANCED_FACE('',(#550,#551),#585,.T.);
#620=ADVANCED_FACE('',(#552,#553),#12,.F.);
#621=ADVANCED_FACE('',(#554,#555),#13,.F.);
#622=CLOSED_SHELL('',(#586,#587,#588,#589,#590,#591,#592,#593,#594,#595,
#596,#597,#598,#599,#600,#601,#602,#603,#604,#605,#606,#607,#608,#609,#610,
#611,#612,#613,#614,#615,#616,#617,#618,#619,#620,#621));
#623=STYLED_ITEM('',(#624),#631);
#624=PRESENTATION_STYLE_ASSIGNMENT((#625));
#625=SURFACE_STYLE_USAGE(.BOTH.,#626);
#626=SURFACE_SIDE_STYLE('',(#627));
#627=SURFACE_STYLE_FILL_AREA(#628);
#628=FILL_AREA_STYLE('',(#629));
#629=FILL_AREA_STYLE_COLOUR('',#630);
#630=COLOUR_RGB('',0.262745098039216,0.282352941176471,0.301960784313725);
#631=MANIFOLD_SOLID_BREP('Part 18',#622);
#632=SHAPE_DEFINITION_REPRESENTATION(#1044,#633);
#633=SHAPE_REPRESENTATION('Part 18',(#634),#1039);
#634=AXIS2_PLACEMENT_3D('',#815,#671,#672);
#635=AXIS2_PLACEMENT_3D('',#816,#673,#674);
#636=AXIS2_PLACEMENT_3D('',#825,#679,#680);
#637=AXIS2_PLACEMENT_3D('',#831,#684,#685);
#638=AXIS2_PLACEMENT_3D('',#837,#689,#690);
#639=AXIS2_PLACEMENT_3D('',#863,#704,#705);
#640=AXIS2_PLACEMENT_3D('',#864,#706,#707);
#641=AXIS2_PLACEMENT_3D('',#866,#708,#709);
#642=AXIS2_PLACEMENT_3D('',#869,#711,#712);
#643=AXIS2_PLACEMENT_3D('',#892,#719,#720);
#644=AXIS2_PLACEMENT_3D('',#897,#724,#725);
#645=AXIS2_PLACEMENT_3D('',#902,#729,#730);
#646=AXIS2_PLACEMENT_3D('',#903,#731,#732);
#647=AXIS2_PLACEMENT_3D('',#921,#734,#735);
#648=AXIS2_PLACEMENT_3D('',#936,#737,#738);
#649=AXIS2_PLACEMENT_3D('',#952,#741,#742);
#650=AXIS2_PLACEMENT_3D('',#961,#745,#746);
#651=AXIS2_PLACEMENT_3D('',#979,#750,#751);
#652=AXIS2_PLACEMENT_3D('',#981,#753,#754);
#653=AXIS2_PLACEMENT_3D('',#982,#755,#756);
#654=AXIS2_PLACEMENT_3D('',#988,#760,#761);
#655=AXIS2_PLACEMENT_3D('',#992,#764,#765);
#656=AXIS2_PLACEMENT_3D('',#996,#768,#769);
#657=AXIS2_PLACEMENT_3D('',#1000,#772,#773);
#658=AXIS2_PLACEMENT_3D('',#1004,#776,#777);
#659=AXIS2_PLACEMENT_3D('',#1006,#779,#780);
#660=AXIS2_PLACEMENT_3D('',#1007,#781,#782);
#661=AXIS2_PLACEMENT_3D('',#1009,#783,#784);
#662=AXIS2_PLACEMENT_3D('',#1015,#788,#789);
#663=AXIS2_PLACEMENT_3D('',#1019,#792,#793);
#664=AXIS2_PLACEMENT_3D('',#1023,#796,#797);
#665=AXIS2_PLACEMENT_3D('',#1027,#800,#801);
#666=AXIS2_PLACEMENT_3D('',#1031,#804,#805);
#667=AXIS2_PLACEMENT_3D('',#1033,#807,#808);
#668=AXIS2_PLACEMENT_3D('',#1034,#809,#810);
#669=AXIS2_PLACEMENT_3D('',#1036,#811,#812);
#670=AXIS2_PLACEMENT_3D('',#1037,#813,#814);
#671=DIRECTION('',(0.,0.,1.));
#672=DIRECTION('',(1.,0.,0.));
#673=DIRECTION('',(0.00722892899150986,-0.0174521784124423,-0.999821566107821));
#674=DIRECTION('',(-1.27122704723925E-16,-0.999847691176682,0.0174526344331747));
#675=DIRECTION('',(0.999973870951454,0.000126163855029678,0.00722782796184136));
#676=DIRECTION('',(-2.52180004309266E-15,-0.999847691176682,0.0174526344331747));
#677=DIRECTION('',(0.999973870951454,0.000126163855029678,0.00722782796184136));
#678=DIRECTION('',(-2.52180004309266E-15,-0.999847691176682,0.0174526344331747));
#679=DIRECTION('',(-0.999973870951454,-0.000126163855029697,-0.00722782796184243));
#680=DIRECTION('',(0.00722782801936616,-0.0348990408611169,-0.999364705925268));
#681=DIRECTION('',(0.00722892899151093,-0.0174521784124423,-0.999821566107821));
#682=DIRECTION('',(-2.52180004309266E-15,-0.999847691176682,0.0174526344331747));
#683=DIRECTION('',(0.00722892899151093,-0.0174521784124423,-0.999821566107821));
#684=DIRECTION('',(-0.999973870951454,-0.000126163855029697,-0.00722782796184243));
#685=DIRECTION('',(0.00722782801936616,-0.0348990408611169,-0.999364705925268));
#686=DIRECTION('',(0.00722892899151093,-0.0174521784124423,-0.999821566107821));
#687=DIRECTION('',(0.00722892899151093,-0.0174521784124423,-0.999821566107821));
#688=DIRECTION('',(-2.52180004309266E-15,-0.999847691176682,0.0174526344331747));
#689=DIRECTION('',(2.52185425320129E-15,0.999847691176682,-0.0174526344331747));
#690=DIRECTION('',(-0.999895485171271,-0.000252321116978895,-0.0144552782111475));
#691=DIRECTION('',(0.873163631394161,-0.00850688868982304,-0.487352957983617));
#692=DIRECTION('',(0.858706151181214,0.00894392168425301,0.512390234282868));
#693=DIRECTION('',(-0.0144574802129468,0.017450810374076,0.999743192266484));
#694=DIRECTION('',(-0.873163631394161,0.00850688868982304,0.487352957983617));
#695=DIRECTION('',(-0.858706151181214,-0.00894392168425302,-0.512390234282868));
#696=DIRECTION('',(0.0144574802129468,-0.017450810374076,-0.999743192266484));
#697=DIRECTION('',(0.873163631394162,-0.00850688868982301,-0.487352957983615));
#698=DIRECTION('',(0.858706151181213,0.00894392168425304,0.512390234282869));
#699=DIRECTION('',(-0.0144574802129468,0.017450810374076,0.999743192266484));
#700=DIRECTION('',(-0.873163631394161,0.00850688868982304,0.487352957983617));
#701=DIRECTION('',(-0.858706151181214,-0.00894392168425301,-0.512390234282868));
#702=DIRECTION('',(0.0144574802129468,-0.017450810374076,-0.999743192266484));
#703=DIRECTION('',(-0.999973870951454,-0.000126163855031878,-0.00722782796184239));
#704=DIRECTION('',(2.52185425320129E-15,0.999847691176682,-0.0174526344331747));
#705=DIRECTION('',(-0.999895485171271,-0.000252321116978895,-0.0144552782111475));
#706=DIRECTION('',(2.52185425320129E-15,0.999847691176682,-0.0174526344331747));
#707=DIRECTION('',(0.0144574802129468,-0.017450810374076,-0.999743192266484));
#708=DIRECTION('',(2.52185425320129E-15,0.999847691176682,-0.0174526344331747));
#709=DIRECTION('',(0.0144574802129468,-0.017450810374076,-0.999743192266484));
#710=DIRECTION('',(-0.999973870951454,-0.000126163855031878,-0.00722782796184239));
#711=DIRECTION('',(1.93096406919668E-16,-0.999847691176682,0.0174526344331747));
#712=DIRECTION('',(-0.0144574802129468,0.017450810374076,0.999743192266484));
#713=DIRECTION('',(-0.999973870951454,-0.000126163855032411,-0.00722782796184238));
#714=DIRECTION('',(0.00722892899151093,-0.0174521784124423,-0.999821566107821));
#715=DIRECTION('',(-0.00722892899151034,0.0174521784124423,0.999821566107821));
#716=DIRECTION('',(-0.999973870951454,-0.00012616385503185,-0.00722782796184239));
#717=DIRECTION('',(-0.00722892899150214,0.0174521784124426,0.999821566107821));
#718=DIRECTION('',(0.00722892899151093,-0.0174521784124423,-0.999821566107821));
#719=DIRECTION('',(0.999973870951454,0.000126163855032091,0.00722782796184239));
#720=DIRECTION('',(-0.0072278280193662,0.0348990408611169,0.999364705925268));
#721=DIRECTION('',(-1.27447965375671E-16,-0.999847691176682,0.0174526344331747));
#722=DIRECTION('',(0.00722892899151093,-0.0174521784124423,-0.999821566107821));
#723=DIRECTION('',(-1.27447965375671E-16,-0.999847691176682,0.0174526344331747));
#724=DIRECTION('',(0.999973870951454,0.000126163855032089,0.00722782796184239));
#725=DIRECTION('',(-0.0072278280193662,0.0348990408611169,0.999364705925268));
#726=DIRECTION('',(-1.28857428199902E-16,-0.999847691176682,0.0174526344331747));
#727=DIRECTION('',(-1.28857428199902E-16,-0.999847691176682,0.0174526344331747));
#728=DIRECTION('',(0.00722892899151093,-0.0174521784124423,-0.999821566107821));
#729=DIRECTION('',(-0.00722892899151093,0.0174521784124423,0.999821566107821));
#730=DIRECTION('',(-0.999973870951454,-0.000126163855032091,-0.00722782796184239));
#731=DIRECTION('',(0.999973870951454,0.000126163855031963,0.00722782796184888));
#732=DIRECTION('',(0.00722892899151742,-0.0174521784124405,-0.999821566107821));
#733=DIRECTION('',(-0.999973870951454,-0.000126163855031878,-0.00722782796184239));
#734=DIRECTION('',(-0.999973870951455,-0.000126163855033984,-0.00722782796181055));
#735=DIRECTION('',(-0.00722892899147913,0.0174521784124391,0.999821566107821));
#736=DIRECTION('',(-1.28749007982654E-16,-0.999847691176682,0.0174526344331747));
#737=DIRECTION('',(-7.666393561645E-16,-0.999847691176682,0.0174526344331741));
#738=DIRECTION('',(-0.0144574802129468,0.0174508103740754,0.999743192266484));
#739=DIRECTION('',(-0.999973870951454,-0.000126163855032,-0.00722782796184239));
#740=DIRECTION('',(-1.28586377656781E-16,-0.999847691176682,0.0174526344331747));
#741=DIRECTION('',(0.999973870951454,0.000126163855043795,0.00722782796184322));
#742=DIRECTION('',(-0.00722782801936744,0.0348990408611169,0.999364705925268));
#743=DIRECTION('',(0.00505730232958821,0.702224100634905,-0.711938014282596));
#744=DIRECTION('',(1.6940658945086E-16,0.999847691176682,-0.0174526344331747));
#745=DIRECTION('',(0.999973870951454,0.000126163855044237,0.0072278279618433));
#746=DIRECTION('',(-0.00722782801936754,0.0348990408611169,0.999364705925268));
#747=DIRECTION('',(1.6940658945086E-16,0.999847691176682,-0.0174526344331747));
#748=DIRECTION('',(0.00505730232958795,0.702224100634905,-0.711938014282596));
#749=DIRECTION('',(-0.999973870951454,-0.000126163855031871,-0.00722782796184355));
#750=DIRECTION('',(-0.00722892899151093,0.0174521784124423,0.999821566107821));
#751=DIRECTION('',(-0.999973870951454,-0.000126163855032091,-0.00722782796184239));
#752=DIRECTION('',(-0.999973870951454,-0.000126163855031713,-0.00722782796184239));
#753=DIRECTION('',(0.00516537583447503,-0.711955965330849,-0.702205114138531));
#754=DIRECTION('',(-0.999973870951454,-0.000126163855031871,-0.00722782796184355));
#755=DIRECTION('',(0.487427197446512,0.0152390056590643,0.8730306408689));
#756=DIRECTION('',(-0.873130378065155,0.0172325496016269,0.487182083141434));
#757=DIRECTION('',(2.52185425320129E-15,0.999847691176682,-0.0174526344331747));
#758=DIRECTION('',(0.873163631394162,-0.00850688868982301,-0.487352957983615));
#759=DIRECTION('',(2.52185425320129E-15,0.999847691176682,-0.0174526344331747));
#760=DIRECTION('',(0.999895485171271,0.000252321116978895,0.0144552782111475));
#761=DIRECTION('',(-0.000252321116983929,-0.999390842937321,0.0348981287046417));
#762=DIRECTION('',(2.52185425320129E-15,0.999847691176682,-0.0174526344331747));
#763=DIRECTION('',(0.0144574802129468,-0.017450810374076,-0.999743192266484));
#764=DIRECTION('',(0.512468287724759,-0.0149866845420854,-0.858575362657752));
#765=DIRECTION('',(0.858673448446997,0.017669565952214,0.512218405927787));
#766=DIRECTION('',(2.52185425320129E-15,0.999847691176682,-0.0174526344331747));
#767=DIRECTION('',(-0.858706151181214,-0.00894392168425301,-0.512390234282868));
#768=DIRECTION('',(-0.487427197446513,-0.0152390056590643,-0.873030640868899));
#769=DIRECTION('',(0.873130378065154,-0.017232549601627,-0.487182083141436));
#770=DIRECTION('',(2.52185425320129E-15,0.999847691176682,-0.0174526344331747));
#771=DIRECTION('',(-0.873163631394161,0.00850688868982304,0.487352957983617));
#772=DIRECTION('',(-0.999895485171271,-0.000252321116978895,-0.0144552782111475));
#773=DIRECTION('',(0.000252321116983929,0.999390842937321,-0.0348981287046417));
#774=DIRECTION('',(2.52185425320129E-15,0.999847691176682,-0.0174526344331747));
#775=DIRECTION('',(-0.0144574802129468,0.017450810374076,0.999743192266484));
#776=DIRECTION('',(-0.51246828772476,0.0149866845420854,0.858575362657751));
#777=DIRECTION('',(-0.858673448446996,-0.0176695659522141,-0.512218405927788));
#778=DIRECTION('',(0.858706151181213,0.00894392168425304,0.512390234282869));
#779=DIRECTION('',(2.52185425320129E-15,0.999847691176682,-0.0174526344331747));
#780=DIRECTION('',(-0.999895485171271,-0.000252321116978895,-0.0144552782111475));
#781=DIRECTION('',(2.52185425320129E-15,0.999847691176682,-0.0174526344331747));
#782=DIRECTION('',(0.0144574802129468,-0.017450810374076,-0.999743192266484));
#783=DIRECTION('',(0.487427197446513,0.0152390056590643,0.873030640868899));
#784=DIRECTION('',(-0.873130378065154,0.017232549601627,0.487182083141436));
#785=DIRECTION('',(2.52185425320129E-15,0.999847691176682,-0.0174526344331747));
#786=DIRECTION('',(0.873163631394161,-0.00850688868982304,-0.487352957983617));
#787=DIRECTION('',(2.52185425320129E-15,0.999847691176682,-0.0174526344331747));
#788=DIRECTION('',(0.999895485171271,0.000252321116978895,0.0144552782111475));
#789=DIRECTION('',(-0.000252321116983929,-0.999390842937321,0.0348981287046417));
#790=DIRECTION('',(2.52185425320129E-15,0.999847691176682,-0.0174526344331747));
#791=DIRECTION('',(0.0144574802129468,-0.017450810374076,-0.999743192266484));
#792=DIRECTION('',(0.512468287724759,-0.0149866845420854,-0.858575362657752));
#793=DIRECTION('',(0.858673448446997,0.017669565952214,0.512218405927787));
#794=DIRECTION('',(2.52185425320129E-15,0.999847691176682,-0.0174526344331747));
#795=DIRECTION('',(-0.858706151181214,-0.00894392168425302,-0.512390234282868));
#796=DIRECTION('',(-0.487427197446513,-0.0152390056590643,-0.873030640868899));
#797=DIRECTION('',(0.873130378065154,-0.017232549601627,-0.487182083141436));
#798=DIRECTION('',(2.52185425320129E-15,0.999847691176682,-0.0174526344331747));
#799=DIRECTION('',(-0.873163631394161,0.00850688868982304,0.487352957983617));
#800=DIRECTION('',(-0.999895485171271,-0.000252321116978895,-0.0144552782111475));
#801=DIRECTION('',(0.000252321116983929,0.999390842937321,-0.0348981287046417));
#802=DIRECTION('',(2.52185425320129E-15,0.999847691176682,-0.0174526344331747));
#803=DIRECTION('',(-0.0144574802129468,0.017450810374076,0.999743192266484));
#804=DIRECTION('',(-0.512468287724758,0.0149866845420854,0.858575362657752));
#805=DIRECTION('',(-0.858673448446997,-0.017669565952214,-0.512218405927787));
#806=DIRECTION('',(0.858706151181214,0.00894392168425301,0.512390234282868));
#807=DIRECTION('',(2.52185425320129E-15,0.999847691176682,-0.0174526344331747));
#808=DIRECTION('',(-0.999895485171271,-0.000252321116978895,-0.0144552782111475));
#809=DIRECTION('',(2.52185425320129E-15,0.999847691176682,-0.0174526344331747));
#810=DIRECTION('',(0.0144574802129468,-0.017450810374076,-0.999743192266484));
#811=DIRECTION('',(2.52185425320129E-15,0.999847691176682,-0.0174526344331747));
#812=DIRECTION('',(0.0144574802129468,-0.017450810374076,-0.999743192266484));
#813=DIRECTION('',(2.52185425320129E-15,0.999847691176682,-0.0174526344331747));
#814=DIRECTION('',(0.0144574802129468,-0.017450810374076,-0.999743192266484));
#815=CARTESIAN_POINT('',(0.,0.,0.));
#816=CARTESIAN_POINT('',(-0.0838912902332101,0.0958487604297088,0.133739477857891));
#817=CARTESIAN_POINT('',(-0.0838912902332101,0.0908495219738254,0.133826741030057));
#818=CARTESIAN_POINT('',(-0.100390859103909,0.0908474402702174,0.133707481868686));
#819=CARTESIAN_POINT('',(-0.0673917213625111,0.0908516036774335,0.133946000191427));
#820=CARTESIAN_POINT('',(-0.100390859103909,0.0958466787261008,0.13362021869652));
#821=CARTESIAN_POINT('',(-0.100390859103909,0.0958466787261008,0.13362021869652));
#822=CARTESIAN_POINT('',(-0.0838912902332101,0.0958487604297088,0.133739477857891));
#823=CARTESIAN_POINT('',(-0.0673917213625111,0.0958508421333169,0.133858737019261));
#824=CARTESIAN_POINT('',(-0.0673917213625111,0.0958508421333169,0.133858737019261));
#825=CARTESIAN_POINT('',(-0.100484835180799,0.0960735570454626,0.146617899055922));
#826=CARTESIAN_POINT('',(-0.100484835180799,0.0910743185895792,0.146705162228088));
#827=CARTESIAN_POINT('',(-0.100484835180799,0.0910743185895792,0.146705162228088));
#828=CARTESIAN_POINT('',(-0.100484835180799,0.0960735570454626,0.146617899055922));
#829=CARTESIAN_POINT('',(-0.100484835180799,0.0960735570454626,0.146617899055922));
#830=CARTESIAN_POINT('',(-0.100484835180799,0.0960735570454626,0.146617899055922));
#831=CARTESIAN_POINT('',(-0.067377263504528,0.095815937776492,0.131859093887045));
#832=CARTESIAN_POINT('',(-0.067377263504528,0.0908166993206086,0.131946357059211));
#833=CARTESIAN_POINT('',(-0.0674856974394007,0.0910784819967952,0.146943680550829));
#834=CARTESIAN_POINT('',(-0.067377263504528,0.095815937776492,0.131859093887045));
#835=CARTESIAN_POINT('',(-0.0674856974394007,0.0960777204526786,0.146856417378663));
#836=CARTESIAN_POINT('',(-0.0674856974394007,0.0960777204526786,0.146856417378663));
#837=CARTESIAN_POINT('',(-0.0838963156110269,0.0958591895529471,0.134336954120324));
#838=CARTESIAN_POINT('',(-0.0739824986452425,0.0960165769610004,0.143353554861318));
#839=CARTESIAN_POINT('',(-0.0757469230469546,0.0960337670516631,0.144338361626506));
#840=CARTESIAN_POINT('',(-0.0722180742435305,0.0959993868703378,0.14236874809613));
#841=CARTESIAN_POINT('',(-0.077482132843342,0.096015693837091,0.143302961387579));
#842=CARTESIAN_POINT('',(-0.0792173426397294,0.095997620622519,0.142267561148652));
#843=CARTESIAN_POINT('',(-0.0791881280344048,0.0959623573172843,0.140247354144538));
#844=CARTESIAN_POINT('',(-0.0791589134290802,0.0959270940120496,0.138227147140423));
#845=CARTESIAN_POINT('',(-0.0773944890273682,0.095909903921387,0.137242340375236));
#846=CARTESIAN_POINT('',(-0.0756300646256561,0.0958927138307244,0.136257533610048));
#847=CARTESIAN_POINT('',(-0.0738948548292687,0.0959107870452964,0.137292933848975));
#848=CARTESIAN_POINT('',(-0.0721596450328813,0.0959288602598685,0.138328334087901));
#849=CARTESIAN_POINT('',(-0.0721888596382059,0.0959641235651031,0.140348541092016));
#850=CARTESIAN_POINT('',(-0.0904820675159416,0.0960144952573924,0.143234295699948));
#851=CARTESIAN_POINT('',(-0.0922464919176536,0.0960316853480551,0.144219102465135));
#852=CARTESIAN_POINT('',(-0.0887176431142295,0.0959973051667298,0.14224948893476));
#853=CARTESIAN_POINT('',(-0.093981701714041,0.096013612133483,0.143183702226209));
#854=CARTESIAN_POINT('',(-0.0957169115104284,0.095995538918911,0.142148301987282));
#855=CARTESIAN_POINT('',(-0.0956876969051038,0.0959602756136763,0.140128094983167));
#856=CARTESIAN_POINT('',(-0.0956584822997792,0.0959250123084416,0.138107887979053));
#857=CARTESIAN_POINT('',(-0.0938940578980671,0.095907822217779,0.137123081213865));
#858=CARTESIAN_POINT('',(-0.0921296334963551,0.0958906321271164,0.136138274448678));
#859=CARTESIAN_POINT('',(-0.0903944236999677,0.0959087053416884,0.137173674687604));
#860=CARTESIAN_POINT('',(-0.0886592139035803,0.0959267785562605,0.138209074926531));
#861=CARTESIAN_POINT('',(-0.0886884285089049,0.0959620418614952,0.140229281930645));
#862=CARTESIAN_POINT('',(-0.0939850050196142,0.0960743771105203,0.146664879937674));
#863=CARTESIAN_POINT('',(-0.0838963156110269,0.0908599510970637,0.13442421729249));
#864=CARTESIAN_POINT('',(-0.0921880627070043,0.0909619202817023,0.140265951629072));
#865=CARTESIAN_POINT('',(-0.0921555333765252,0.0909226559583606,0.138016529446473));
#866=CARTESIAN_POINT('',(-0.0756884938363054,0.0909640019853103,0.140385210790443));
#867=CARTESIAN_POINT('',(-0.0756559645058263,0.0909247376619686,0.138135788607843));
#868=CARTESIAN_POINT('',(-0.0939850050196143,0.0910751386546369,0.14675214310984));
#869=CARTESIAN_POINT('',(-0.0940211496645718,0.0861631610908157,0.151838514112545));
#870=CARTESIAN_POINT('',(-0.0939850050196143,0.0860759001987535,0.146839406282006));
#871=CARTESIAN_POINT('',(-0.0674856974394007,0.0860792435409118,0.147030943722995));
#872=CARTESIAN_POINT('',(-0.100484835180799,0.0860750801336958,0.146792425400254));
#873=CARTESIAN_POINT('',(-0.0675218420843583,0.086166504432974,0.152030051553534));
#874=CARTESIAN_POINT('',(-0.0675218420843583,0.086166504432974,0.152030051553534));
#875=CARTESIAN_POINT('',(-0.0675218420843583,0.086166504432974,0.152030051553534));
#876=CARTESIAN_POINT('',(-0.0708077394261479,0.0862529632634313,0.156983209905961));
#877=CARTESIAN_POINT('',(-0.0740936367679375,0.0863394220938886,0.161936368258388));
#878=CARTESIAN_POINT('',(-0.0741301061804154,0.0864274670441029,0.166980394163399));
#879=CARTESIAN_POINT('',(-0.0741301061804154,0.0864274670441029,0.166980394163399));
#880=CARTESIAN_POINT('',(-0.0741526965835139,0.0864820051016418,0.170104836557486));
#881=CARTESIAN_POINT('',(-0.0742023954703305,0.0866019888282274,0.176978609824477));
#882=CARTESIAN_POINT('',(-0.084202134179845,0.086600727189677,0.176906331544859));
#883=CARTESIAN_POINT('',(-0.0942018728893595,0.0865994655511267,0.176834053265241));
#884=CARTESIAN_POINT('',(-0.0941521740025429,0.0864794818245412,0.169960279998249));
#885=CARTESIAN_POINT('',(-0.0941295835994445,0.0864249437670023,0.166835837604163));
#886=CARTESIAN_POINT('',(-0.100520979825756,0.086162341025758,0.151791533230793));
#887=CARTESIAN_POINT('',(-0.0973070470063614,0.086249619921273,0.156791672464972));
#888=CARTESIAN_POINT('',(-0.0940931141869666,0.0863368988167879,0.161791811699151));
#889=CARTESIAN_POINT('',(-0.0941295835994445,0.0864249437670023,0.166835837604163));
#890=CARTESIAN_POINT('',(-0.100520979825756,0.086162341025758,0.151791533230793));
#891=CARTESIAN_POINT('',(-0.100520979825756,0.086162341025758,0.151791533230793));
#892=CARTESIAN_POINT('',(-0.0675218420843583,0.0613233338434531,0.152463696375926));
#893=CARTESIAN_POINT('',(-0.0674856974394007,0.0612360729513909,0.147464588545387));
#894=CARTESIAN_POINT('',(-0.0675218420843583,0.0911657428888574,0.151942788381368));
#895=CARTESIAN_POINT('',(-0.0675218420843583,0.0911657428888574,0.151942788381368));
#896=CARTESIAN_POINT('',(-0.0675218420843583,0.0613233338434531,0.152463696375926));
#897=CARTESIAN_POINT('',(-0.100520979825756,0.0886619602536997,0.15174790164471));
#898=CARTESIAN_POINT('',(-0.100484835180799,0.0885746993616375,0.146748793814171));
#899=CARTESIAN_POINT('',(-0.100520979825756,0.0886619602536997,0.15174790164471));
#900=CARTESIAN_POINT('',(-0.100520979825756,0.0911615794816414,0.151704270058627));
#901=CARTESIAN_POINT('',(-0.100520979825756,0.0911615794816414,0.151704270058627));
#902=CARTESIAN_POINT('',(-0.0939815554379802,0.0612329822953089,0.14727307163492));
#903=CARTESIAN_POINT('',(-0.0675218420843583,0.0911657428888574,0.151942788381368));
#904=CARTESIAN_POINT('',(-0.0675218420843583,0.0911657428888574,0.151942788381368));
#905=CARTESIAN_POINT('',(-0.0675097938693724,0.0911366559248367,0.150276419104521));
#906=CARTESIAN_POINT('',(-0.0674856974394007,0.0944113076340508,0.146885505102718));
#907=CARTESIAN_POINT('',(-0.0674856974394007,0.0960777204526786,0.146856417378663));
#908=CARTESIAN_POINT('',(-0.100484835180799,0.0960735570019027,0.146617899056682));
#909=CARTESIAN_POINT('',(-0.0674856974394006,0.096077720409119,0.146856417379423));
#910=CARTESIAN_POINT('',(-0.100484835181219,0.094407144184288,0.146646986838815));
#911=CARTESIAN_POINT('',(-0.0674856974398206,0.0944113075915043,0.146885505161556));
#912=CARTESIAN_POINT('',(-0.100508931610456,0.0911324925749409,0.150037900737208));
#913=CARTESIAN_POINT('',(-0.0675097938690578,0.0911366559821571,0.150276419059949));
#914=CARTESIAN_POINT('',(-0.100520979825441,0.091161579480881,0.151704270015068));
#915=CARTESIAN_POINT('',(-0.0675218420840433,0.0911657428880972,0.151942788337809));
#916=CARTESIAN_POINT('',(-0.100520979825756,0.0911615794816414,0.151704270058627));
#917=CARTESIAN_POINT('',(-0.10050893161077,0.0911324925176206,0.150037900781781));
#918=CARTESIAN_POINT('',(-0.100484835180799,0.0944071442268348,0.146646986779977));
#919=CARTESIAN_POINT('',(-0.100484835180799,0.0960735570454626,0.146617899055922));
#920=CARTESIAN_POINT('',(-0.0940211496645718,0.0911623995466991,0.151751250940379));
#921=CARTESIAN_POINT('',(-0.100484835180799,0.0910743185895792,0.146705162228088));
#922=CARTESIAN_POINT('',(-0.094129583599524,0.0914241822230778,0.166748574442999));
#923=CARTESIAN_POINT('',(-0.0941295835995241,0.0864249437671943,0.166835837615166));
#924=CARTESIAN_POINT('',(-0.0940931141821096,0.0913361372723572,0.161704548508967));
#925=CARTESIAN_POINT('',(-0.0940931141821096,0.0863368988164738,0.161791811681134));
#926=CARTESIAN_POINT('',(-0.0973070470362532,0.0912488583763451,0.156704409246302));
#927=CARTESIAN_POINT('',(-0.0973070470362532,0.0862496199204616,0.156791672418469));
#928=CARTESIAN_POINT('',(-0.100520979874099,0.0911615794803286,0.151704269983417));
#929=CARTESIAN_POINT('',(-0.100520979874099,0.0861623410244452,0.151791533155583));
#930=CARTESIAN_POINT('',(-0.0941295835994445,0.088924562994944,0.16679220601808));
#931=CARTESIAN_POINT('',(-0.0941295835994445,0.0914241822228857,0.166748574431996));
#932=CARTESIAN_POINT('',(-0.100520979825756,0.0911615794816414,0.151704270058627));
#933=CARTESIAN_POINT('',(-0.0973070470063614,0.0912488583771563,0.156704409292807));
#934=CARTESIAN_POINT('',(-0.0940931141869666,0.0913361372726713,0.161704548526985));
#935=CARTESIAN_POINT('',(-0.0941295835994445,0.0914241822228857,0.166748574431996));
#936=CARTESIAN_POINT('',(-0.0720445096058787,0.091295629399513,0.159383884354081));
#937=CARTESIAN_POINT('',(-0.0841298448899299,0.091425443861436,0.166820852711615));
#938=CARTESIAN_POINT('',(-0.0741301061804154,0.0914267054999864,0.166893130991233));
#939=CARTESIAN_POINT('',(-0.0675218420843583,0.0911657428888574,0.151942788381368));
#940=CARTESIAN_POINT('',(-0.0708077394261479,0.0912522017193147,0.156895946733795));
#941=CARTESIAN_POINT('',(-0.0740936367679375,0.091338660549772,0.161849105086222));
#942=CARTESIAN_POINT('',(-0.0741301061804154,0.0914267054999864,0.166893130991233));
#943=CARTESIAN_POINT('',(-0.074130106180495,0.0864274670442949,0.166980394174402));
#944=CARTESIAN_POINT('',(-0.074130106180495,0.0914267055001785,0.166893131002237));
#945=CARTESIAN_POINT('',(-0.0740936367725333,0.0863394220935727,0.161936368240302));
#946=CARTESIAN_POINT('',(-0.0740936367725333,0.0913386605494562,0.161849105068137));
#947=CARTESIAN_POINT('',(-0.0708077393955868,0.0862529632626274,0.156983209859894));
#948=CARTESIAN_POINT('',(-0.0708077393955868,0.091252201718511,0.156895946687729));
#949=CARTESIAN_POINT('',(-0.0675218420349332,0.0861665044316735,0.15203005147903));
#950=CARTESIAN_POINT('',(-0.0675218420349332,0.0911657428875571,0.151942788306865));
#951=CARTESIAN_POINT('',(-0.0741301061804154,0.0889270862720447,0.166936762577316));
#952=CARTESIAN_POINT('',(-0.0741526131533427,0.0897625539200645,0.170036031007683));
#953=CARTESIAN_POINT('',(-0.0741301061804154,0.0914267054999864,0.166893130991233));
#954=CARTESIAN_POINT('',(-0.0741420802352491,0.0902058038115911,0.168571059089504));
#955=CARTESIAN_POINT('',(-0.0741540542900827,0.0889849021231958,0.170248987187776));
#956=CARTESIAN_POINT('',(-0.0742023954703305,0.0891016080561691,0.176934978238395));
#957=CARTESIAN_POINT('',(-0.0741879408437757,0.0891089880810106,0.174935044089728));
#958=CARTESIAN_POINT('',(-0.0741679800659912,0.0918806118270637,0.172125080284271));
#959=CARTESIAN_POINT('',(-0.0742023954703305,0.0871019126738157,0.176969883507261));
#960=CARTESIAN_POINT('',(-0.0742023954703305,0.0878517984421982,0.176956794031436));
#961=CARTESIAN_POINT('',(-0.0941520905723717,0.0897600306429639,0.169891474448446));
#962=CARTESIAN_POINT('',(-0.0942018728893596,0.0878492751650976,0.176812237472199));
#963=CARTESIAN_POINT('',(-0.0942018728893596,0.087099389396715,0.176825326948024));
#964=CARTESIAN_POINT('',(-0.0941674574850203,0.0918780885499631,0.171980523725034));
#965=CARTESIAN_POINT('',(-0.0941874182628047,0.0891064648039099,0.174790487530491));
#966=CARTESIAN_POINT('',(-0.0941295835994445,0.0914241822228857,0.166748574431996));
#967=CARTESIAN_POINT('',(-0.0941415576542781,0.0902032805344904,0.168426502530268));
#968=CARTESIAN_POINT('',(-0.0941535317091118,0.0889823788460952,0.170104430628538));
#969=CARTESIAN_POINT('',(-0.0942018728893596,0.0890990847790684,0.176790421679158));
#970=CARTESIAN_POINT('',(-0.0741879408437615,0.0891089880810651,0.174935044087765));
#971=CARTESIAN_POINT('',(-0.0941874182627906,0.0891064648039643,0.174790487528527));
#972=CARTESIAN_POINT('',(-0.0741514642194288,0.089248991579809,0.169886039766276));
#973=CARTESIAN_POINT('',(-0.0941509416384579,0.0892464683027083,0.169741483207038));
#974=CARTESIAN_POINT('',(-0.0741407851999221,0.0903378485398977,0.168389585378755));
#975=CARTESIAN_POINT('',(-0.0941402626189512,0.0903353252627969,0.168245028819517));
#976=CARTESIAN_POINT('',(-0.0741301061804154,0.0914267054999864,0.166893130991234));
#977=CARTESIAN_POINT('',(-0.0941295835994445,0.0914241822228857,0.166748574431996));
#978=CARTESIAN_POINT('',(-0.0941874182628047,0.0891064648039099,0.174790487530491));
#979=CARTESIAN_POINT('',(-0.084202134179845,0.0878505368036479,0.176884515751817));
#980=CARTESIAN_POINT('',(-0.084202134179845,0.0871006510352653,0.176897605227643));
#981=CARTESIAN_POINT('',(-0.084202134179845,0.0871006510352654,0.176897605227643));
#982=CARTESIAN_POINT('',(-0.0904820675159416,0.0945147237206274,0.143260474651597));
#983=CARTESIAN_POINT('',(-0.0887176431142295,0.0944975336299648,0.14227566788641));
#984=CARTESIAN_POINT('',(-0.0887176431142295,0.0944975336299648,0.14227566788641));
#985=CARTESIAN_POINT('',(-0.0904820675159416,0.0945147237206274,0.143260474651597));
#986=CARTESIAN_POINT('',(-0.0922464919176536,0.0945319138112901,0.144245281416785));
#987=CARTESIAN_POINT('',(-0.0922464919176536,0.0945319138112901,0.144245281416785));
#988=CARTESIAN_POINT('',(-0.0886884285089049,0.0944622703247301,0.140255460882295));
#989=CARTESIAN_POINT('',(-0.0886592139035803,0.0944270070194954,0.138235253878181));
#990=CARTESIAN_POINT('',(-0.0886592139035803,0.0944270070194954,0.138235253878181));
#991=CARTESIAN_POINT('',(-0.0886884285089049,0.0944622703247301,0.140255460882295));
#992=CARTESIAN_POINT('',(-0.0903944236999677,0.0944089338049234,0.137199853639254));
#993=CARTESIAN_POINT('',(-0.0921296334963551,0.0943908605903514,0.136164453400327));
#994=CARTESIAN_POINT('',(-0.0921296334963551,0.0943908605903514,0.136164453400327));
#995=CARTESIAN_POINT('',(-0.0903944236999677,0.0944089338049234,0.137199853639254));
#996=CARTESIAN_POINT('',(-0.0938940578980671,0.094408050681014,0.137149260165515));
#997=CARTESIAN_POINT('',(-0.0956584822997792,0.0944252407716766,0.138134066930703));
#998=CARTESIAN_POINT('',(-0.0956584822997792,0.0944252407716766,0.138134066930703));
#999=CARTESIAN_POINT('',(-0.0938940578980671,0.094408050681014,0.137149260165515));
#1000=CARTESIAN_POINT('',(-0.0956876969051038,0.0944605040769113,0.140154273934817));
#1001=CARTESIAN_POINT('',(-0.0957169115104284,0.0944957673821459,0.142174480938932));
#1002=CARTESIAN_POINT('',(-0.0957169115104284,0.0944957673821459,0.142174480938932));
#1003=CARTESIAN_POINT('',(-0.0956876969051038,0.0944605040769113,0.140154273934817));
#1004=CARTESIAN_POINT('',(-0.093981701714041,0.094513840596718,0.143209881177858));
#1005=CARTESIAN_POINT('',(-0.093981701714041,0.094513840596718,0.143209881177858));
#1006=CARTESIAN_POINT('',(-0.0839382782716549,0.0944624280526247,0.140264496989241));
#1007=CARTESIAN_POINT('',(-0.0921880627070043,0.0944613872008207,0.140204867408556));
#1008=CARTESIAN_POINT('',(-0.0921555333765252,0.094422122877479,0.137955445225957));
#1009=CARTESIAN_POINT('',(-0.0739824986452425,0.0945168054242354,0.143379733812968));
#1010=CARTESIAN_POINT('',(-0.0722180742435305,0.0944996153335728,0.14239492704778));
#1011=CARTESIAN_POINT('',(-0.0722180742435305,0.0944996153335728,0.14239492704778));
#1012=CARTESIAN_POINT('',(-0.0739824986452425,0.0945168054242354,0.143379733812968));
#1013=CARTESIAN_POINT('',(-0.0757469230469546,0.0945339955148981,0.144364540578155));
#1014=CARTESIAN_POINT('',(-0.0757469230469546,0.0945339955148981,0.144364540578155));
#1015=CARTESIAN_POINT('',(-0.0721888596382059,0.0944643520283381,0.140374720043666));
#1016=CARTESIAN_POINT('',(-0.0721596450328813,0.0944290887231034,0.138354513039551));
#1017=CARTESIAN_POINT('',(-0.0721596450328813,0.0944290887231034,0.138354513039551));
#1018=CARTESIAN_POINT('',(-0.0721888596382059,0.0944643520283381,0.140374720043666));
#1019=CARTESIAN_POINT('',(-0.0738948548292687,0.0944110155085314,0.137319112800624));
#1020=CARTESIAN_POINT('',(-0.0756300646256561,0.0943929422939593,0.136283712561698));
#1021=CARTESIAN_POINT('',(-0.0756300646256561,0.0943929422939593,0.136283712561698));
#1022=CARTESIAN_POINT('',(-0.0738948548292687,0.0944110155085314,0.137319112800624));
#1023=CARTESIAN_POINT('',(-0.0773944890273682,0.094410132384622,0.137268519326885));
#1024=CARTESIAN_POINT('',(-0.0791589134290802,0.0944273224752846,0.138253326092073));
#1025=CARTESIAN_POINT('',(-0.0791589134290802,0.0944273224752846,0.138253326092073));
#1026=CARTESIAN_POINT('',(-0.0773944890273682,0.094410132384622,0.137268519326885));
#1027=CARTESIAN_POINT('',(-0.0791881280344048,0.0944625857805193,0.140273533096188));
#1028=CARTESIAN_POINT('',(-0.0792173426397294,0.094497849085754,0.142293740100302));
#1029=CARTESIAN_POINT('',(-0.0792173426397294,0.094497849085754,0.142293740100302));
#1030=CARTESIAN_POINT('',(-0.0791881280344048,0.0944625857805193,0.140273533096188));
#1031=CARTESIAN_POINT('',(-0.077482132843342,0.094515922300326,0.143329140339229));
#1032=CARTESIAN_POINT('',(-0.077482132843342,0.094515922300326,0.143329140339229));
#1033=CARTESIAN_POINT('',(-0.0839382782716549,0.0944624280526247,0.140264496989241));
#1034=CARTESIAN_POINT('',(-0.0756884938363054,0.0944634689044287,0.140324126569927));
#1035=CARTESIAN_POINT('',(-0.0756559645058263,0.094424204581087,0.138074704387327));
#1036=CARTESIAN_POINT('',(-0.0756884938363054,0.0694672766250117,0.140760442430756));
#1037=CARTESIAN_POINT('',(-0.0921880627070044,0.0694651949214037,0.140641183269386));
#1038=MECHANICAL_DESIGN_GEOMETRIC_PRESENTATION_REPRESENTATION('',(#623),
#1039);
#1039=(
GEOMETRIC_REPRESENTATION_CONTEXT(3)
GLOBAL_UNCERTAINTY_ASSIGNED_CONTEXT((#1040))
GLOBAL_UNIT_ASSIGNED_CONTEXT((#1043,#1042,#1041))
REPRESENTATION_CONTEXT('Part 18','TOP_LEVEL_ASSEMBLY_PART')
);
#1040=UNCERTAINTY_MEASURE_WITH_UNIT(LENGTH_MEASURE(2.E-5),#1043,
'DISTANCE_ACCURACY_VALUE','Maximum Tolerance applied to model');
#1041=(
NAMED_UNIT(*)
SI_UNIT($,.STERADIAN.)
SOLID_ANGLE_UNIT()
);
#1042=(
NAMED_UNIT(*)
PLANE_ANGLE_UNIT()
SI_UNIT($,.RADIAN.)
);
#1043=(
LENGTH_UNIT()
NAMED_UNIT(*)
SI_UNIT($,.METRE.)
);
#1044=PRODUCT_DEFINITION_SHAPE('','',#1045);
#1045=PRODUCT_DEFINITION('','',#1047,#1046);
#1046=PRODUCT_DEFINITION_CONTEXT('',#1053,'design');
#1047=PRODUCT_DEFINITION_FORMATION_WITH_SPECIFIED_SOURCE('','',#1049,
 .NOT_KNOWN.);
#1048=PRODUCT_RELATED_PRODUCT_CATEGORY('','',(#1049));
#1049=PRODUCT('Part 18','Part 18','Part 18',(#1051));
#1050=PRODUCT_CATEGORY('','');
#1051=PRODUCT_CONTEXT('',#1053,'mechanical');
#1052=APPLICATION_PROTOCOL_DEFINITION('international standard',
'ap242_managed_model_based_3d_engineering',2020,#1053);
#1053=APPLICATION_CONTEXT('managed model based 3d engineering');
ENDSEC;
END-ISO-10303-21;
