ISO-10303-21;
HEADER;
/* Generated by software containing ST-Developer
 * from STEP Tools, Inc. (www.steptools.com) 
 */
/* OPTION: using custom renumber hook */

FILE_DESCRIPTION(
/* description */ ('STEP AP242 Edition 2',
'CAx-IF Rec.Pracs.---Representation and Presentation of Product Manufa
cturing Information (PMI)---4.0---2014-10-13',
'CAx-IF Rec.Pracs.---3D Tessellated Geometry---0.4---2014-09-14','2;1',
'CAx-IF Rec.Pracs.---User Defined Attributes---1.5---2016-08-15'),
/* implementation_level */ '2;1');

FILE_NAME(
/* name */ 'Overhead Cam Mount - Key',
/* time_stamp */ '2026-08-09T23:59:09Z',
/* author */ (''),
/* organization */ (''),
/* preprocessor_version */ 'ST-DEVELOPER v20',
/* originating_system */ 'ONSHAPE BY PTC INC, 1.219',
/* authorisation */ '  ');

FILE_SCHEMA (('AP242_MANAGED_MODEL_BASED_3D_ENGINEERING_MIM_LF { 1 0 10303 442 3 1 4 }'));
ENDSEC;

DATA;
#10=SHAPE_REPRESENTATION_RELATIONSHIP('','',#436,#11);
#11=ADVANCED_BREP_SHAPE_REPRESENTATION('',(#434),#682);
#12=ORIENTED_EDGE('',*,*,#126,.T.);
#13=ORIENTED_EDGE('',*,*,#127,.T.);
#14=ORIENTED_EDGE('',*,*,#128,.T.);
#15=ORIENTED_EDGE('',*,*,#129,.T.);
#16=ORIENTED_EDGE('',*,*,#130,.T.);
#17=ORIENTED_EDGE('',*,*,#131,.T.);
#18=ORIENTED_EDGE('',*,*,#132,.F.);
#19=ORIENTED_EDGE('',*,*,#133,.T.);
#20=ORIENTED_EDGE('',*,*,#134,.F.);
#21=ORIENTED_EDGE('',*,*,#135,.F.);
#22=ORIENTED_EDGE('',*,*,#127,.F.);
#23=ORIENTED_EDGE('',*,*,#136,.T.);
#24=ORIENTED_EDGE('',*,*,#137,.F.);
#25=ORIENTED_EDGE('',*,*,#138,.F.);
#26=ORIENTED_EDGE('',*,*,#139,.F.);
#27=ORIENTED_EDGE('',*,*,#128,.F.);
#28=ORIENTED_EDGE('',*,*,#135,.T.);
#29=ORIENTED_EDGE('',*,*,#140,.F.);
#30=ORIENTED_EDGE('',*,*,#141,.F.);
#31=ORIENTED_EDGE('',*,*,#129,.F.);
#32=ORIENTED_EDGE('',*,*,#141,.T.);
#33=ORIENTED_EDGE('',*,*,#142,.F.);
#34=ORIENTED_EDGE('',*,*,#143,.F.);
#35=ORIENTED_EDGE('',*,*,#130,.F.);
#36=ORIENTED_EDGE('',*,*,#143,.T.);
#37=ORIENTED_EDGE('',*,*,#144,.F.);
#38=ORIENTED_EDGE('',*,*,#145,.F.);
#39=ORIENTED_EDGE('',*,*,#131,.F.);
#40=ORIENTED_EDGE('',*,*,#145,.T.);
#41=ORIENTED_EDGE('',*,*,#146,.F.);
#42=ORIENTED_EDGE('',*,*,#147,.F.);
#43=ORIENTED_EDGE('',*,*,#148,.F.);
#44=ORIENTED_EDGE('',*,*,#149,.F.);
#45=ORIENTED_EDGE('',*,*,#150,.F.);
#46=ORIENTED_EDGE('',*,*,#151,.F.);
#47=ORIENTED_EDGE('',*,*,#136,.F.);
#48=ORIENTED_EDGE('',*,*,#126,.F.);
#49=ORIENTED_EDGE('',*,*,#147,.T.);
#50=ORIENTED_EDGE('',*,*,#152,.F.);
#51=ORIENTED_EDGE('',*,*,#133,.F.);
#52=ORIENTED_EDGE('',*,*,#153,.F.);
#53=ORIENTED_EDGE('',*,*,#154,.F.);
#54=ORIENTED_EDGE('',*,*,#155,.F.);
#55=ORIENTED_EDGE('',*,*,#156,.F.);
#56=ORIENTED_EDGE('',*,*,#157,.F.);
#57=ORIENTED_EDGE('',*,*,#158,.F.);
#58=ORIENTED_EDGE('',*,*,#134,.T.);
#59=ORIENTED_EDGE('',*,*,#152,.T.);
#60=ORIENTED_EDGE('',*,*,#146,.T.);
#61=ORIENTED_EDGE('',*,*,#144,.T.);
#62=ORIENTED_EDGE('',*,*,#142,.T.);
#63=ORIENTED_EDGE('',*,*,#140,.T.);
#64=ORIENTED_EDGE('',*,*,#153,.T.);
#65=ORIENTED_EDGE('',*,*,#159,.F.);
#66=ORIENTED_EDGE('',*,*,#160,.F.);
#67=ORIENTED_EDGE('',*,*,#161,.T.);
#68=ORIENTED_EDGE('',*,*,#158,.T.);
#69=ORIENTED_EDGE('',*,*,#162,.F.);
#70=ORIENTED_EDGE('',*,*,#163,.F.);
#71=ORIENTED_EDGE('',*,*,#159,.T.);
#72=ORIENTED_EDGE('',*,*,#157,.T.);
#73=ORIENTED_EDGE('',*,*,#164,.F.);
#74=ORIENTED_EDGE('',*,*,#165,.F.);
#75=ORIENTED_EDGE('',*,*,#162,.T.);
#76=ORIENTED_EDGE('',*,*,#156,.T.);
#77=ORIENTED_EDGE('',*,*,#166,.F.);
#78=ORIENTED_EDGE('',*,*,#167,.F.);
#79=ORIENTED_EDGE('',*,*,#164,.T.);
#80=ORIENTED_EDGE('',*,*,#155,.T.);
#81=ORIENTED_EDGE('',*,*,#168,.F.);
#82=ORIENTED_EDGE('',*,*,#169,.F.);
#83=ORIENTED_EDGE('',*,*,#166,.T.);
#84=ORIENTED_EDGE('',*,*,#154,.T.);
#85=ORIENTED_EDGE('',*,*,#161,.F.);
#86=ORIENTED_EDGE('',*,*,#170,.F.);
#87=ORIENTED_EDGE('',*,*,#168,.T.);
#88=ORIENTED_EDGE('',*,*,#160,.T.);
#89=ORIENTED_EDGE('',*,*,#163,.T.);
#90=ORIENTED_EDGE('',*,*,#165,.T.);
#91=ORIENTED_EDGE('',*,*,#167,.T.);
#92=ORIENTED_EDGE('',*,*,#169,.T.);
#93=ORIENTED_EDGE('',*,*,#170,.T.);
#94=ORIENTED_EDGE('',*,*,#149,.T.);
#95=ORIENTED_EDGE('',*,*,#171,.F.);
#96=ORIENTED_EDGE('',*,*,#172,.F.);
#97=ORIENTED_EDGE('',*,*,#173,.T.);
#98=ORIENTED_EDGE('',*,*,#148,.T.);
#99=ORIENTED_EDGE('',*,*,#132,.T.);
#100=ORIENTED_EDGE('',*,*,#174,.F.);
#101=ORIENTED_EDGE('',*,*,#175,.F.);
#102=ORIENTED_EDGE('',*,*,#171,.T.);
#103=ORIENTED_EDGE('',*,*,#139,.T.);
#104=ORIENTED_EDGE('',*,*,#176,.F.);
#105=ORIENTED_EDGE('',*,*,#177,.F.);
#106=ORIENTED_EDGE('',*,*,#174,.T.);
#107=ORIENTED_EDGE('',*,*,#138,.T.);
#108=ORIENTED_EDGE('',*,*,#178,.F.);
#109=ORIENTED_EDGE('',*,*,#179,.F.);
#110=ORIENTED_EDGE('',*,*,#176,.T.);
#111=ORIENTED_EDGE('',*,*,#151,.T.);
#112=ORIENTED_EDGE('',*,*,#180,.F.);
#113=ORIENTED_EDGE('',*,*,#181,.F.);
#114=ORIENTED_EDGE('',*,*,#178,.T.);
#115=ORIENTED_EDGE('',*,*,#137,.T.);
#116=ORIENTED_EDGE('',*,*,#150,.T.);
#117=ORIENTED_EDGE('',*,*,#173,.F.);
#118=ORIENTED_EDGE('',*,*,#182,.F.);
#119=ORIENTED_EDGE('',*,*,#180,.T.);
#120=ORIENTED_EDGE('',*,*,#172,.T.);
#121=ORIENTED_EDGE('',*,*,#175,.T.);
#122=ORIENTED_EDGE('',*,*,#177,.T.);
#123=ORIENTED_EDGE('',*,*,#179,.T.);
#124=ORIENTED_EDGE('',*,*,#181,.T.);
#125=ORIENTED_EDGE('',*,*,#182,.T.);
#126=EDGE_CURVE('',#183,#184,#221,.T.);
#127=EDGE_CURVE('',#184,#185,#222,.T.);
#128=EDGE_CURVE('',#185,#186,#223,.T.);
#129=EDGE_CURVE('',#186,#187,#224,.T.);
#130=EDGE_CURVE('',#187,#188,#225,.T.);
#131=EDGE_CURVE('',#188,#183,#226,.T.);
#132=EDGE_CURVE('',#189,#190,#227,.T.);
#133=EDGE_CURVE('',#189,#191,#228,.T.);
#134=EDGE_CURVE('',#192,#191,#229,.T.);
#135=EDGE_CURVE('',#185,#192,#230,.T.);
#136=EDGE_CURVE('',#184,#193,#231,.T.);
#137=EDGE_CURVE('',#194,#193,#232,.T.);
#138=EDGE_CURVE('',#195,#194,#233,.T.);
#139=EDGE_CURVE('',#190,#195,#234,.T.);
#140=EDGE_CURVE('',#196,#192,#235,.T.);
#141=EDGE_CURVE('',#186,#196,#236,.T.);
#142=EDGE_CURVE('',#197,#196,#237,.T.);
#143=EDGE_CURVE('',#187,#197,#238,.T.);
#144=EDGE_CURVE('',#198,#197,#239,.T.);
#145=EDGE_CURVE('',#188,#198,#240,.T.);
#146=EDGE_CURVE('',#199,#198,#241,.T.);
#147=EDGE_CURVE('',#183,#199,#242,.T.);
#148=EDGE_CURVE('',#200,#189,#243,.T.);
#149=EDGE_CURVE('',#201,#200,#244,.T.);
#150=EDGE_CURVE('',#202,#201,#245,.T.);
#151=EDGE_CURVE('',#193,#202,#246,.T.);
#152=EDGE_CURVE('',#191,#199,#247,.T.);
#153=EDGE_CURVE('',#203,#204,#248,.T.);
#154=EDGE_CURVE('',#205,#203,#249,.T.);
#155=EDGE_CURVE('',#206,#205,#250,.T.);
#156=EDGE_CURVE('',#207,#206,#251,.T.);
#157=EDGE_CURVE('',#208,#207,#252,.T.);
#158=EDGE_CURVE('',#204,#208,#253,.T.);
#159=EDGE_CURVE('',#209,#204,#254,.T.);
#160=EDGE_CURVE('',#210,#209,#255,.T.);
#161=EDGE_CURVE('',#210,#203,#256,.T.);
#162=EDGE_CURVE('',#211,#208,#257,.T.);
#163=EDGE_CURVE('',#209,#211,#258,.T.);
#164=EDGE_CURVE('',#212,#207,#259,.T.);
#165=EDGE_CURVE('',#211,#212,#260,.T.);
#166=EDGE_CURVE('',#213,#206,#261,.T.);
#167=EDGE_CURVE('',#212,#213,#262,.T.);
#168=EDGE_CURVE('',#214,#205,#263,.T.);
#169=EDGE_CURVE('',#213,#214,#264,.T.);
#170=EDGE_CURVE('',#214,#210,#265,.T.);
#171=EDGE_CURVE('',#215,#200,#266,.T.);
#172=EDGE_CURVE('',#216,#215,#267,.T.);
#173=EDGE_CURVE('',#216,#201,#268,.T.);
#174=EDGE_CURVE('',#217,#190,#269,.T.);
#175=EDGE_CURVE('',#215,#217,#270,.T.);
#176=EDGE_CURVE('',#218,#195,#271,.T.);
#177=EDGE_CURVE('',#217,#218,#272,.T.);
#178=EDGE_CURVE('',#219,#194,#273,.T.);
#179=EDGE_CURVE('',#218,#219,#274,.T.);
#180=EDGE_CURVE('',#220,#202,#275,.T.);
#181=EDGE_CURVE('',#219,#220,#276,.T.);
#182=EDGE_CURVE('',#220,#216,#277,.T.);
#183=VERTEX_POINT('',#566);
#184=VERTEX_POINT('',#567);
#185=VERTEX_POINT('',#569);
#186=VERTEX_POINT('',#571);
#187=VERTEX_POINT('',#573);
#188=VERTEX_POINT('',#575);
#189=VERTEX_POINT('',#579);
#190=VERTEX_POINT('',#580);
#191=VERTEX_POINT('',#582);
#192=VERTEX_POINT('',#584);
#193=VERTEX_POINT('',#587);
#194=VERTEX_POINT('',#589);
#195=VERTEX_POINT('',#591);
#196=VERTEX_POINT('',#595);
#197=VERTEX_POINT('',#599);
#198=VERTEX_POINT('',#603);
#199=VERTEX_POINT('',#607);
#200=VERTEX_POINT('',#611);
#201=VERTEX_POINT('',#613);
#202=VERTEX_POINT('',#615);
#203=VERTEX_POINT('',#620);
#204=VERTEX_POINT('',#621);
#205=VERTEX_POINT('',#623);
#206=VERTEX_POINT('',#625);
#207=VERTEX_POINT('',#627);
#208=VERTEX_POINT('',#629);
#209=VERTEX_POINT('',#633);
#210=VERTEX_POINT('',#635);
#211=VERTEX_POINT('',#639);
#212=VERTEX_POINT('',#643);
#213=VERTEX_POINT('',#647);
#214=VERTEX_POINT('',#651);
#215=VERTEX_POINT('',#658);
#216=VERTEX_POINT('',#660);
#217=VERTEX_POINT('',#664);
#218=VERTEX_POINT('',#668);
#219=VERTEX_POINT('',#672);
#220=VERTEX_POINT('',#676);
#221=LINE('',#565,#278);
#222=LINE('',#568,#279);
#223=LINE('',#570,#280);
#224=LINE('',#572,#281);
#225=LINE('',#574,#282);
#226=LINE('',#576,#283);
#227=LINE('',#578,#284);
#228=LINE('',#581,#285);
#229=LINE('',#583,#286);
#230=LINE('',#585,#287);
#231=LINE('',#586,#288);
#232=LINE('',#588,#289);
#233=LINE('',#590,#290);
#234=LINE('',#592,#291);
#235=LINE('',#594,#292);
#236=LINE('',#596,#293);
#237=LINE('',#598,#294);
#238=LINE('',#600,#295);
#239=LINE('',#602,#296);
#240=LINE('',#604,#297);
#241=LINE('',#606,#298);
#242=LINE('',#608,#299);
#243=LINE('',#610,#300);
#244=LINE('',#612,#301);
#245=LINE('',#614,#302);
#246=LINE('',#616,#303);
#247=LINE('',#617,#304);
#248=LINE('',#619,#305);
#249=LINE('',#622,#306);
#250=LINE('',#624,#307);
#251=LINE('',#626,#308);
#252=LINE('',#628,#309);
#253=LINE('',#630,#310);
#254=LINE('',#632,#311);
#255=LINE('',#634,#312);
#256=LINE('',#636,#313);
#257=LINE('',#638,#314);
#258=LINE('',#640,#315);
#259=LINE('',#642,#316);
#260=LINE('',#644,#317);
#261=LINE('',#646,#318);
#262=LINE('',#648,#319);
#263=LINE('',#650,#320);
#264=LINE('',#652,#321);
#265=LINE('',#654,#322);
#266=LINE('',#657,#323);
#267=LINE('',#659,#324);
#268=LINE('',#661,#325);
#269=LINE('',#663,#326);
#270=LINE('',#665,#327);
#271=LINE('',#667,#328);
#272=LINE('',#669,#329);
#273=LINE('',#671,#330);
#274=LINE('',#673,#331);
#275=LINE('',#675,#332);
#276=LINE('',#677,#333);
#277=LINE('',#679,#334);
#278=VECTOR('',#464,1.);
#279=VECTOR('',#465,1.);
#280=VECTOR('',#466,1.);
#281=VECTOR('',#467,1.);
#282=VECTOR('',#468,1.);
#283=VECTOR('',#469,1.);
#284=VECTOR('',#472,1.);
#285=VECTOR('',#473,1.);
#286=VECTOR('',#474,1.);
#287=VECTOR('',#475,1.);
#288=VECTOR('',#476,1.);
#289=VECTOR('',#477,1.);
#290=VECTOR('',#478,1.);
#291=VECTOR('',#479,1.);
#292=VECTOR('',#482,1.);
#293=VECTOR('',#483,1.);
#294=VECTOR('',#486,1.);
#295=VECTOR('',#487,1.);
#296=VECTOR('',#490,1.);
#297=VECTOR('',#491,1.);
#298=VECTOR('',#494,1.);
#299=VECTOR('',#495,1.);
#300=VECTOR('',#498,1.);
#301=VECTOR('',#499,1.);
#302=VECTOR('',#500,1.);
#303=VECTOR('',#501,1.);
#304=VECTOR('',#502,1.);
#305=VECTOR('',#505,1.);
#306=VECTOR('',#506,1.);
#307=VECTOR('',#507,1.);
#308=VECTOR('',#508,1.);
#309=VECTOR('',#509,1.);
#310=VECTOR('',#510,1.);
#311=VECTOR('',#513,1.);
#312=VECTOR('',#514,1.);
#313=VECTOR('',#515,1.);
#314=VECTOR('',#518,1.);
#315=VECTOR('',#519,1.);
#316=VECTOR('',#522,1.);
#317=VECTOR('',#523,1.);
#318=VECTOR('',#526,1.);
#319=VECTOR('',#527,1.);
#320=VECTOR('',#530,1.);
#321=VECTOR('',#531,1.);
#322=VECTOR('',#534,1.);
#323=VECTOR('',#539,1.);
#324=VECTOR('',#540,1.);
#325=VECTOR('',#541,1.);
#326=VECTOR('',#544,1.);
#327=VECTOR('',#545,1.);
#328=VECTOR('',#548,1.);
#329=VECTOR('',#549,1.);
#330=VECTOR('',#552,1.);
#331=VECTOR('',#553,1.);
#332=VECTOR('',#556,1.);
#333=VECTOR('',#557,1.);
#334=VECTOR('',#560,1.);
#335=EDGE_LOOP('',(#12,#13,#14,#15,#16,#17));
#336=EDGE_LOOP('',(#18,#19,#20,#21,#22,#23,#24,#25,#26));
#337=EDGE_LOOP('',(#27,#28,#29,#30));
#338=EDGE_LOOP('',(#31,#32,#33,#34));
#339=EDGE_LOOP('',(#35,#36,#37,#38));
#340=EDGE_LOOP('',(#39,#40,#41,#42));
#341=EDGE_LOOP('',(#43,#44,#45,#46,#47,#48,#49,#50,#51));
#342=EDGE_LOOP('',(#52,#53,#54,#55,#56,#57));
#343=EDGE_LOOP('',(#58,#59,#60,#61,#62,#63));
#344=EDGE_LOOP('',(#64,#65,#66,#67));
#345=EDGE_LOOP('',(#68,#69,#70,#71));
#346=EDGE_LOOP('',(#72,#73,#74,#75));
#347=EDGE_LOOP('',(#76,#77,#78,#79));
#348=EDGE_LOOP('',(#80,#81,#82,#83));
#349=EDGE_LOOP('',(#84,#85,#86,#87));
#350=EDGE_LOOP('',(#88,#89,#90,#91,#92,#93));
#351=EDGE_LOOP('',(#94,#95,#96,#97));
#352=EDGE_LOOP('',(#98,#99,#100,#101,#102));
#353=EDGE_LOOP('',(#103,#104,#105,#106));
#354=EDGE_LOOP('',(#107,#108,#109,#110));
#355=EDGE_LOOP('',(#111,#112,#113,#114,#115));
#356=EDGE_LOOP('',(#116,#117,#118,#119));
#357=EDGE_LOOP('',(#120,#121,#122,#123,#124,#125));
#358=FACE_BOUND('',#335,.T.);
#359=FACE_BOUND('',#336,.T.);
#360=FACE_BOUND('',#337,.T.);
#361=FACE_BOUND('',#338,.T.);
#362=FACE_BOUND('',#339,.T.);
#363=FACE_BOUND('',#340,.T.);
#364=FACE_BOUND('',#341,.T.);
#365=FACE_BOUND('',#342,.T.);
#366=FACE_BOUND('',#343,.T.);
#367=FACE_BOUND('',#344,.T.);
#368=FACE_BOUND('',#345,.T.);
#369=FACE_BOUND('',#346,.T.);
#370=FACE_BOUND('',#347,.T.);
#371=FACE_BOUND('',#348,.T.);
#372=FACE_BOUND('',#349,.T.);
#373=FACE_BOUND('',#350,.T.);
#374=FACE_BOUND('',#351,.T.);
#375=FACE_BOUND('',#352,.T.);
#376=FACE_BOUND('',#353,.T.);
#377=FACE_BOUND('',#354,.T.);
#378=FACE_BOUND('',#355,.T.);
#379=FACE_BOUND('',#356,.T.);
#380=FACE_BOUND('',#357,.T.);
#381=PLANE('',#438);
#382=PLANE('',#439);
#383=PLANE('',#440);
#384=PLANE('',#441);
#385=PLANE('',#442);
#386=PLANE('',#443);
#387=PLANE('',#444);
#388=PLANE('',#445);
#389=PLANE('',#446);
#390=PLANE('',#447);
#391=PLANE('',#448);
#392=PLANE('',#449);
#393=PLANE('',#450);
#394=PLANE('',#451);
#395=PLANE('',#452);
#396=PLANE('',#453);
#397=PLANE('',#454);
#398=PLANE('',#455);
#399=PLANE('',#456);
#400=PLANE('',#457);
#401=PLANE('',#458);
#402=PLANE('',#459);
#403=ADVANCED_FACE('',(#358),#381,.F.);
#404=ADVANCED_FACE('',(#359),#382,.T.);
#405=ADVANCED_FACE('',(#360),#383,.T.);
#406=ADVANCED_FACE('',(#361),#384,.T.);
#407=ADVANCED_FACE('',(#362),#385,.T.);
#408=ADVANCED_FACE('',(#363),#386,.T.);
#409=ADVANCED_FACE('',(#364),#387,.T.);
#410=ADVANCED_FACE('',(#365,#366),#388,.F.);
#411=ADVANCED_FACE('',(#367),#389,.F.);
#412=ADVANCED_FACE('',(#368),#390,.F.);
#413=ADVANCED_FACE('',(#369),#391,.F.);
#414=ADVANCED_FACE('',(#370),#392,.F.);
#415=ADVANCED_FACE('',(#371),#393,.F.);
#416=ADVANCED_FACE('',(#372),#394,.F.);
#417=ADVANCED_FACE('',(#373),#395,.T.);
#418=ADVANCED_FACE('',(#374),#396,.F.);
#419=ADVANCED_FACE('',(#375),#397,.F.);
#420=ADVANCED_FACE('',(#376),#398,.F.);
#421=ADVANCED_FACE('',(#377),#399,.F.);
#422=ADVANCED_FACE('',(#378),#400,.F.);
#423=ADVANCED_FACE('',(#379),#401,.F.);
#424=ADVANCED_FACE('',(#380),#402,.T.);
#425=CLOSED_SHELL('',(#403,#404,#405,#406,#407,#408,#409,#410,#411,#412,
#413,#414,#415,#416,#417,#418,#419,#420,#421,#422,#423,#424));
#426=STYLED_ITEM('',(#427),#434);
#427=PRESENTATION_STYLE_ASSIGNMENT((#428));
#428=SURFACE_STYLE_USAGE(.BOTH.,#429);
#429=SURFACE_SIDE_STYLE('',(#430));
#430=SURFACE_STYLE_FILL_AREA(#431);
#431=FILL_AREA_STYLE('',(#432));
#432=FILL_AREA_STYLE_COLOUR('',#433);
#433=COLOUR_RGB('',0.729411764705882,0.250980392156863,0.105882352941176);
#434=MANIFOLD_SOLID_BREP('Key',#425);
#435=SHAPE_DEFINITION_REPRESENTATION(#687,#436);
#436=SHAPE_REPRESENTATION('Key',(#437),#682);
#437=AXIS2_PLACEMENT_3D('',#563,#460,#461);
#438=AXIS2_PLACEMENT_3D('',#564,#462,#463);
#439=AXIS2_PLACEMENT_3D('',#577,#470,#471);
#440=AXIS2_PLACEMENT_3D('',#593,#480,#481);
#441=AXIS2_PLACEMENT_3D('',#597,#484,#485);
#442=AXIS2_PLACEMENT_3D('',#601,#488,#489);
#443=AXIS2_PLACEMENT_3D('',#605,#492,#493);
#444=AXIS2_PLACEMENT_3D('',#609,#496,#497);
#445=AXIS2_PLACEMENT_3D('',#618,#503,#504);
#446=AXIS2_PLACEMENT_3D('',#631,#511,#512);
#447=AXIS2_PLACEMENT_3D('',#637,#516,#517);
#448=AXIS2_PLACEMENT_3D('',#641,#520,#521);
#449=AXIS2_PLACEMENT_3D('',#645,#524,#525);
#450=AXIS2_PLACEMENT_3D('',#649,#528,#529);
#451=AXIS2_PLACEMENT_3D('',#653,#532,#533);
#452=AXIS2_PLACEMENT_3D('',#655,#535,#536);
#453=AXIS2_PLACEMENT_3D('',#656,#537,#538);
#454=AXIS2_PLACEMENT_3D('',#662,#542,#543);
#455=AXIS2_PLACEMENT_3D('',#666,#546,#547);
#456=AXIS2_PLACEMENT_3D('',#670,#550,#551);
#457=AXIS2_PLACEMENT_3D('',#674,#554,#555);
#458=AXIS2_PLACEMENT_3D('',#678,#558,#559);
#459=AXIS2_PLACEMENT_3D('',#680,#561,#562);
#460=DIRECTION('',(0.,0.,1.));
#461=DIRECTION('',(1.,0.,0.));
#462=DIRECTION('',(1.,0.,0.));
#463=DIRECTION('',(0.,-1.,0.));
#464=DIRECTION('',(0.,0.5,-0.866025403784439));
#465=DIRECTION('',(0.,-0.5,-0.866025403784438));
#466=DIRECTION('',(0.,-1.,4.69473312105356E-16));
#467=DIRECTION('',(0.,-0.5,0.866025403784439));
#468=DIRECTION('',(0.,0.5,0.866025403784439));
#469=DIRECTION('',(0.,1.,1.56491104035119E-16));
#470=DIRECTION('',(1.20185167898973E-16,0.866025403784438,-0.5));
#471=DIRECTION('',(0.,0.5,0.866025403784438));
#472=DIRECTION('',(8.67361737988403E-16,-0.5,-0.866025403784438));
#473=DIRECTION('',(1.,0.,2.40370335797945E-16));
#474=DIRECTION('',(-2.08166817117217E-16,0.5,0.866025403784438));
#475=DIRECTION('',(1.,0.,2.40370335797945E-16));
#476=DIRECTION('',(1.,0.,2.40370335797945E-16));
#477=DIRECTION('',(0.,0.5,0.866025403784438));
#478=DIRECTION('',(-0.832050294337844,0.277350098112615,0.480384461415261));
#479=DIRECTION('',(-0.832050294337843,-0.277350098112615,-0.480384461415262));
#480=DIRECTION('',(2.40370335797945E-16,-4.69473312105356E-16,-1.));
#481=DIRECTION('',(0.,1.,-4.69473312105356E-16));
#482=DIRECTION('',(1.12847457678938E-31,1.,-4.69473312105356E-16));
#483=DIRECTION('',(1.,0.,2.40370335797945E-16));
#484=DIRECTION('',(1.20185167898973E-16,-0.866025403784439,-0.5));
#485=DIRECTION('',(0.,0.5,-0.866025403784439));
#486=DIRECTION('',(2.08166817117217E-16,0.5,-0.866025403784439));
#487=DIRECTION('',(1.,0.,2.40370335797945E-16));
#488=DIRECTION('',(-1.20185167898973E-16,-0.866025403784439,0.5));
#489=DIRECTION('',(0.,-0.5,-0.866025403784439));
#490=DIRECTION('',(2.08166817117217E-16,-0.5,-0.866025403784439));
#491=DIRECTION('',(1.,0.,2.40370335797945E-16));
#492=DIRECTION('',(-2.40370335797945E-16,-1.56491104035119E-16,1.));
#493=DIRECTION('',(1.,0.,2.40370335797945E-16));
#494=DIRECTION('',(3.76158192263129E-32,-1.,-1.56491104035119E-16));
#495=DIRECTION('',(1.,0.,2.40370335797945E-16));
#496=DIRECTION('',(-1.20185167898973E-16,0.866025403784439,0.5));
#497=DIRECTION('',(0.,-0.5,0.866025403784439));
#498=DIRECTION('',(8.67361737988403E-16,0.5,-0.866025403784439));
#499=DIRECTION('',(0.832050294337844,0.277350098112614,-0.480384461415261));
#500=DIRECTION('',(0.832050294337843,-0.277350098112615,0.480384461415262));
#501=DIRECTION('',(0.,-0.5,0.866025403784439));
#502=DIRECTION('',(-2.08166817117217E-16,-0.5,0.866025403784439));
#503=DIRECTION('',(1.,0.,2.40370335797945E-16));
#504=DIRECTION('',(2.40370335797945E-16,0.,-1.));
#505=DIRECTION('',(-2.08166817117217E-16,-0.5,0.866025403784439));
#506=DIRECTION('',(-2.08166817117217E-16,0.5,0.866025403784438));
#507=DIRECTION('',(8.2070878311956E-32,1.,-3.41435136076626E-16));
#508=DIRECTION('',(2.08166817117217E-16,0.5,-0.866025403784439));
#509=DIRECTION('',(2.08166817117217E-16,-0.5,-0.866025403784439));
#510=DIRECTION('',(0.,-1.,0.));
#511=DIRECTION('',(1.20185167898973E-16,-0.866025403784439,-0.5));
#512=DIRECTION('',(0.,0.5,-0.866025403784439));
#513=DIRECTION('',(-1.,0.,-2.40370335797945E-16));
#514=DIRECTION('',(-2.08166817117217E-16,-0.5,0.866025403784439));
#515=DIRECTION('',(-1.,0.,-2.40370335797945E-16));
#516=DIRECTION('',(2.40370335797945E-16,0.,-1.));
#517=DIRECTION('',(-1.,0.,-2.40370335797945E-16));
#518=DIRECTION('',(-1.,0.,-2.40370335797945E-16));
#519=DIRECTION('',(0.,-1.,0.));
#520=DIRECTION('',(1.20185167898973E-16,0.866025403784439,-0.5));
#521=DIRECTION('',(0.,0.5,0.866025403784439));
#522=DIRECTION('',(-1.,0.,-2.40370335797945E-16));
#523=DIRECTION('',(2.08166817117217E-16,-0.5,-0.866025403784439));
#524=DIRECTION('',(-1.20185167898973E-16,0.866025403784439,0.5));
#525=DIRECTION('',(0.,-0.5,0.866025403784439));
#526=DIRECTION('',(-1.,0.,-2.40370335797945E-16));
#527=DIRECTION('',(2.08166817117217E-16,0.5,-0.866025403784439));
#528=DIRECTION('',(-2.40370335797945E-16,3.41435136076626E-16,1.));
#529=DIRECTION('',(0.,-1.,3.41435136076626E-16));
#530=DIRECTION('',(-1.,0.,-2.40370335797945E-16));
#531=DIRECTION('',(8.2070878311956E-32,1.,-3.41435136076626E-16));
#532=DIRECTION('',(-1.20185167898973E-16,-0.866025403784438,0.5));
#533=DIRECTION('',(0.,-0.5,-0.866025403784438));
#534=DIRECTION('',(-2.08166817117217E-16,0.5,0.866025403784438));
#535=DIRECTION('',(1.,0.,2.40370335797945E-16));
#536=DIRECTION('',(2.40370335797945E-16,0.,-1.));
#537=DIRECTION('',(0.5,0.,0.866025403784439));
#538=DIRECTION('',(0.866025403784439,0.,-0.5));
#539=DIRECTION('',(0.,1.,0.));
#540=DIRECTION('',(0.866025403784439,0.,-0.5));
#541=DIRECTION('',(0.,1.,0.));
#542=DIRECTION('',(1.,0.,1.00154306582477E-15));
#543=DIRECTION('',(1.00154306582477E-15,0.,-1.));
#544=DIRECTION('',(0.,1.,0.));
#545=DIRECTION('',(1.00154306582477E-15,0.,-1.));
#546=DIRECTION('',(0.5,0.,-0.866025403784438));
#547=DIRECTION('',(-0.866025403784438,0.,-0.5));
#548=DIRECTION('',(0.,1.,0.));
#549=DIRECTION('',(-0.866025403784438,0.,-0.5));
#550=DIRECTION('',(-0.5,0.,-0.866025403784439));
#551=DIRECTION('',(-0.866025403784439,0.,0.5));
#552=DIRECTION('',(0.,1.,0.));
#553=DIRECTION('',(-0.866025403784439,0.,0.5));
#554=DIRECTION('',(-1.,0.,0.));
#555=DIRECTION('',(0.,1.,0.));
#556=DIRECTION('',(0.,1.,0.));
#557=DIRECTION('',(0.,0.,1.));
#558=DIRECTION('',(-0.5,0.,0.866025403784438));
#559=DIRECTION('',(0.866025403784438,0.,0.5));
#560=DIRECTION('',(0.866025403784438,0.,0.5));
#561=DIRECTION('',(0.,1.,0.));
#562=DIRECTION('',(1.,0.,0.));
#563=CARTESIAN_POINT('',(0.,0.,0.));
#564=CARTESIAN_POINT('',(-0.0225,0.246,-2.40370335797945E-18));
#565=CARTESIAN_POINT('',(-0.0225,0.230256921938165,0.00239999999999993));
#566=CARTESIAN_POINT('',(-0.0225,0.228871281292111,0.0048));
#567=CARTESIAN_POINT('',(-0.0225,0.231642562584221,-7.54560001493969E-18));
#568=CARTESIAN_POINT('',(-0.0225,0.230256921938165,-0.00240000000000009));
#569=CARTESIAN_POINT('',(-0.0225,0.228871281292111,-0.0048));
#570=CARTESIAN_POINT('',(-0.0225,0.2261,-0.0048));
#571=CARTESIAN_POINT('',(-0.0225,0.22332871870789,-0.0048));
#572=CARTESIAN_POINT('',(-0.0225,0.221943078061834,-0.00240000000000007));
#573=CARTESIAN_POINT('',(-0.0225,0.220557437415779,-1.88213026087889E-17));
#574=CARTESIAN_POINT('',(-0.0225,0.221943078061834,0.00239999999999989));
#575=CARTESIAN_POINT('',(-0.0225,0.22332871870789,0.0048));
#576=CARTESIAN_POINT('',(-0.0225,0.2261,0.0048));
#577=CARTESIAN_POINT('',(-0.382237837392933,0.230256921938165,-0.00240000000000011));
#578=CARTESIAN_POINT('',(-0.0145,0.230256921938165,-0.00239999999999981));
#579=CARTESIAN_POINT('',(-0.0145,0.231642562584221,1.80334439150373E-18));
#580=CARTESIAN_POINT('',(-0.0145,0.230642562584221,-0.0017320508075689));
#581=CARTESIAN_POINT('',(-0.382237837392933,0.231642562584221,-9.40159047883057E-17));
#582=CARTESIAN_POINT('',(0.0127,0.231642562584221,9.15435805147993E-19));
#583=CARTESIAN_POINT('',(0.0127,0.230256921938165,-0.0024));
#584=CARTESIAN_POINT('',(0.0127,0.228871281292111,-0.0048));
#585=CARTESIAN_POINT('',(-0.382237837392933,0.228871281292111,-0.00480000000000011));
#586=CARTESIAN_POINT('',(-0.382237837392933,0.231642562584221,-9.40159047883057E-17));
#587=CARTESIAN_POINT('',(-0.0205,0.231642562584221,1.80334439150373E-18));
#588=CARTESIAN_POINT('',(-0.0205,0.230256921938165,-0.00240000000000009));
#589=CARTESIAN_POINT('',(-0.0205,0.230642562584221,-0.00173205080756888));
#590=CARTESIAN_POINT('',(-0.270577911444903,0.314001866399188,0.142650498683525));
#591=CARTESIAN_POINT('',(-0.0175,0.22964256258422,-0.00346410161513773));
#592=CARTESIAN_POINT('',(-0.269443709560696,0.145661326063988,-0.148923870150639));
#593=CARTESIAN_POINT('',(-0.382237837392933,0.2261,-0.00480000000000009));
#594=CARTESIAN_POINT('',(0.0127,0.2261,-0.0048));
#595=CARTESIAN_POINT('',(0.0127,0.22332871870789,-0.0048));
#596=CARTESIAN_POINT('',(-0.382237837392933,0.22332871870789,-0.00480000000000009));
#597=CARTESIAN_POINT('',(-0.382237837392933,0.221943078061834,-0.00240000000000009));
#598=CARTESIAN_POINT('',(0.0127,0.221943078061834,-0.0024));
#599=CARTESIAN_POINT('',(0.0127,0.220557437415779,-1.03602667887012E-17));
#600=CARTESIAN_POINT('',(-0.382237837392933,0.220557437415779,-1.05291607382155E-16));
#601=CARTESIAN_POINT('',(-0.382237837392933,0.221943078061834,0.00239999999999986));
#602=CARTESIAN_POINT('',(0.0127,0.221943078061834,0.00239999999999996));
#603=CARTESIAN_POINT('',(0.0127,0.22332871870789,0.0048));
#604=CARTESIAN_POINT('',(-0.382237837392933,0.22332871870789,0.00479999999999987));
#605=CARTESIAN_POINT('',(-0.382237837392933,0.2261,0.00479999999999991));
#606=CARTESIAN_POINT('',(0.0127,0.2261,0.0048));
#607=CARTESIAN_POINT('',(0.0127,0.228871281292111,0.0048));
#608=CARTESIAN_POINT('',(-0.382237837392933,0.228871281292111,0.00479999999999992));
#609=CARTESIAN_POINT('',(-0.382237837392933,0.230256921938165,0.00239999999999991));
#610=CARTESIAN_POINT('',(-0.0145,0.230256921938165,0.00240000000000021));
#611=CARTESIAN_POINT('',(-0.0145,0.230642562584221,0.00173205080756887));
#612=CARTESIAN_POINT('',(-0.269443709560696,0.145661326063988,0.148923870150639));
#613=CARTESIAN_POINT('',(-0.0175,0.22964256258422,0.0034641016151377));
#614=CARTESIAN_POINT('',(-0.270577911444902,0.314001866399188,-0.142650498683525));
#615=CARTESIAN_POINT('',(-0.0205,0.230642562584221,0.00173205080756883));
#616=CARTESIAN_POINT('',(-0.0205,0.230256921938165,0.00239999999999993));
#617=CARTESIAN_POINT('',(0.0127,0.230256921938165,0.0024));
#618=CARTESIAN_POINT('',(0.0127,0.2261,1.3179797886571E-18));
#619=CARTESIAN_POINT('',(0.0127,0.233721023553303,0.0044));
#620=CARTESIAN_POINT('',(0.0127,0.236261364737738,-3.46944695195361E-18));
#621=CARTESIAN_POINT('',(0.0127,0.231180682368868,0.0088));
#622=CARTESIAN_POINT('',(0.0127,0.233721023553303,-0.0044));
#623=CARTESIAN_POINT('',(0.0127,0.231180682368868,-0.0088));
#624=CARTESIAN_POINT('',(0.0127,0.2261,-0.0088));
#625=CARTESIAN_POINT('',(0.0127,0.221019317631132,-0.0088));
#626=CARTESIAN_POINT('',(0.0127,0.218478976446697,-0.0044));
#627=CARTESIAN_POINT('',(0.0127,0.215938635262262,-2.25514051876985E-17));
#628=CARTESIAN_POINT('',(0.0127,0.218478976446697,0.0044));
#629=CARTESIAN_POINT('',(0.0127,0.221019317631132,0.0088));
#630=CARTESIAN_POINT('',(0.0127,0.2261,0.0088));
#631=CARTESIAN_POINT('',(0.0147,0.233721023553303,0.0044));
#632=CARTESIAN_POINT('',(0.0147,0.231180682368868,0.0088));
#633=CARTESIAN_POINT('',(0.0147,0.231180682368868,0.0088));
#634=CARTESIAN_POINT('',(0.0147,0.233721023553303,0.0044));
#635=CARTESIAN_POINT('',(0.0147,0.236261364737738,-2.98870628035772E-18));
#636=CARTESIAN_POINT('',(0.0147,0.236261364737738,-2.98870628035772E-18));
#637=CARTESIAN_POINT('',(0.0147,0.2261,0.0088));
#638=CARTESIAN_POINT('',(0.0147,0.221019317631132,0.0088));
#639=CARTESIAN_POINT('',(0.0147,0.221019317631132,0.0088));
#640=CARTESIAN_POINT('',(0.0147,0.2261,0.0088));
#641=CARTESIAN_POINT('',(0.0147,0.218478976446697,0.0044));
#642=CARTESIAN_POINT('',(0.0147,0.215938635262262,-2.20706645161026E-17));
#643=CARTESIAN_POINT('',(0.0147,0.215938635262262,-2.20706645161026E-17));
#644=CARTESIAN_POINT('',(0.0147,0.218478976446697,0.0044));
#645=CARTESIAN_POINT('',(0.0147,0.218478976446697,-0.0044));
#646=CARTESIAN_POINT('',(0.0147,0.221019317631132,-0.0088));
#647=CARTESIAN_POINT('',(0.0147,0.221019317631132,-0.0088));
#648=CARTESIAN_POINT('',(0.0147,0.218478976446697,-0.0044));
#649=CARTESIAN_POINT('',(0.0147,0.2261,-0.0088));
#650=CARTESIAN_POINT('',(0.0147,0.231180682368868,-0.0088));
#651=CARTESIAN_POINT('',(0.0147,0.231180682368868,-0.0088));
#652=CARTESIAN_POINT('',(0.0147,0.2261,-0.0088));
#653=CARTESIAN_POINT('',(0.0147,0.233721023553303,-0.0044));
#654=CARTESIAN_POINT('',(0.0147,0.233721023553303,-0.0044));
#655=CARTESIAN_POINT('',(0.0147,0.2261,1.798720460253E-18));
#656=CARTESIAN_POINT('',(-0.016,0.22364256258422,0.00259807621135331));
#657=CARTESIAN_POINT('',(-0.0145,0.22364256258422,0.00173205080756888));
#658=CARTESIAN_POINT('',(-0.0145,0.22364256258422,0.00173205080756888));
#659=CARTESIAN_POINT('',(-0.016,0.22364256258422,0.00259807621135331));
#660=CARTESIAN_POINT('',(-0.0175,0.22364256258422,0.00346410161513774));
#661=CARTESIAN_POINT('',(-0.0175,0.22364256258422,0.00346410161513774));
#662=CARTESIAN_POINT('',(-0.0145,0.22364256258422,-6.07153216591882E-18));
#663=CARTESIAN_POINT('',(-0.0145,0.22364256258422,-0.00173205080756888));
#664=CARTESIAN_POINT('',(-0.0145,0.22364256258422,-0.00173205080756888));
#665=CARTESIAN_POINT('',(-0.0145,0.22364256258422,-6.07153216591882E-18));
#666=CARTESIAN_POINT('',(-0.016,0.22364256258422,-0.00259807621135332));
#667=CARTESIAN_POINT('',(-0.0175,0.22364256258422,-0.00346410161513775));
#668=CARTESIAN_POINT('',(-0.0175,0.22364256258422,-0.00346410161513775));
#669=CARTESIAN_POINT('',(-0.016,0.22364256258422,-0.00259807621135332));
#670=CARTESIAN_POINT('',(-0.019,0.22364256258422,-0.00259807621135332));
#671=CARTESIAN_POINT('',(-0.0205,0.22364256258422,-0.00173205080756888));
#672=CARTESIAN_POINT('',(-0.0205,0.22364256258422,-0.00173205080756888));
#673=CARTESIAN_POINT('',(-0.019,0.22364256258422,-0.00259807621135332));
#674=CARTESIAN_POINT('',(-0.0205,0.22364256258422,-6.93889390390723E-18));
#675=CARTESIAN_POINT('',(-0.0205,0.22364256258422,0.00173205080756887));
#676=CARTESIAN_POINT('',(-0.0205,0.22364256258422,0.00173205080756887));
#677=CARTESIAN_POINT('',(-0.0205,0.22364256258422,-6.93889390390723E-18));
#678=CARTESIAN_POINT('',(-0.019,0.22364256258422,0.00259807621135331));
#679=CARTESIAN_POINT('',(-0.019,0.22364256258422,0.00259807621135331));
#680=CARTESIAN_POINT('',(-0.0175,0.22364256258422,-6.93889390390723E-18));
#681=MECHANICAL_DESIGN_GEOMETRIC_PRESENTATION_REPRESENTATION('',(#426),
#682);
#682=(
GEOMETRIC_REPRESENTATION_CONTEXT(3)
GLOBAL_UNCERTAINTY_ASSIGNED_CONTEXT((#683))
GLOBAL_UNIT_ASSIGNED_CONTEXT((#686,#685,#684))
REPRESENTATION_CONTEXT('Key','TOP_LEVEL_ASSEMBLY_PART')
);
#683=UNCERTAINTY_MEASURE_WITH_UNIT(LENGTH_MEASURE(1.E-8),#686,
'DISTANCE_ACCURACY_VALUE','Maximum Tolerance applied to model');
#684=(
NAMED_UNIT(*)
SI_UNIT($,.STERADIAN.)
SOLID_ANGLE_UNIT()
);
#685=(
NAMED_UNIT(*)
PLANE_ANGLE_UNIT()
SI_UNIT($,.RADIAN.)
);
#686=(
LENGTH_UNIT()
NAMED_UNIT(*)
SI_UNIT($,.METRE.)
);
#687=PRODUCT_DEFINITION_SHAPE('','',#688);
#688=PRODUCT_DEFINITION('','',#690,#689);
#689=PRODUCT_DEFINITION_CONTEXT('',#696,'design');
#690=PRODUCT_DEFINITION_FORMATION_WITH_SPECIFIED_SOURCE('','',#692,
 .NOT_KNOWN.);
#691=PRODUCT_RELATED_PRODUCT_CATEGORY('','',(#692));
#692=PRODUCT('Key','Key','Key',(#694));
#693=PRODUCT_CATEGORY('','');
#694=PRODUCT_CONTEXT('',#696,'mechanical');
#695=APPLICATION_PROTOCOL_DEFINITION('international standard',
'ap242_managed_model_based_3d_engineering',2020,#696);
#696=APPLICATION_CONTEXT('managed model based 3d engineering');
ENDSEC;
END-ISO-10303-21;
