ISO-10303-21;
HEADER;
/* Generated by software containing ST-Developer
 * from STEP Tools, Inc. (www.steptools.com) 
 */
/* OPTION: using custom renumber hook */

FILE_DESCRIPTION(
/* description */ ('STEP AP242 Edition 2',
'CAx-IF Rec.Pracs.---Representation and Presentation of Product Manufa
cturing Information (PMI)---4.0---2014-10-13',
'CAx-IF Rec.Pracs.---3D Tessellated Geometry---0.4---2014-09-14','2;1',
'CAx-IF Rec.Pracs.---User Defined Attributes---1.5---2016-08-15'),
/* implementation_level */ '2;1');

FILE_NAME(
/* name */ 'Overhead Cam Mount - Lock',
/* time_stamp */ '2026-08-09T23:59:09Z',
/* author */ (''),
/* organization */ (''),
/* preprocessor_version */ 'ST-DEVELOPER v20',
/* originating_system */ 'ONSHAPE BY PTC INC, 1.219',
/* authorisation */ '  ');

FILE_SCHEMA (('AP242_MANAGED_MODEL_BASED_3D_ENGINEERING_MIM_LF { 1 0 10303 442 3 1 4 }'));
ENDSEC;

DATA;
#10=SHAPE_REPRESENTATION_RELATIONSHIP('','',#247,#11);
#11=ADVANCED_BREP_SHAPE_REPRESENTATION('',(#245),#411);
#12=B_SPLINE_SURFACE_WITH_KNOTS('',3,1,((#343,#344),(#345,#346),(#347,#348),
(#349,#350)),.RULED_SURF.,.F.,.F.,.F.,(4,4),(2,2),(0.,1.),(0.,1.),
 .PIECEWISE_BEZIER_KNOTS.);
#13=B_SPLINE_SURFACE_WITH_KNOTS('',3,1,((#356,#357),(#358,#359),(#360,#361),
(#362,#363)),.RULED_SURF.,.F.,.F.,.F.,(4,4),(2,2),(0.,1.),(0.,1.),
 .PIECEWISE_BEZIER_KNOTS.);
#14=B_SPLINE_SURFACE_WITH_KNOTS('',3,1,((#367,#368),(#369,#370),(#371,#372),
(#373,#374)),.RULED_SURF.,.F.,.F.,.F.,(4,4),(2,2),(0.,1.),(0.,1.),
 .PIECEWISE_BEZIER_KNOTS.);
#15=B_SPLINE_SURFACE_WITH_KNOTS('',3,1,((#378,#379),(#380,#381),(#382,#383),
(#384,#385)),.RULED_SURF.,.F.,.F.,.F.,(4,4),(2,2),(0.,1.),(0.,1.),
 .PIECEWISE_BEZIER_KNOTS.);
#16=B_SPLINE_SURFACE_WITH_KNOTS('',3,1,((#389,#390),(#391,#392),(#393,#394),
(#395,#396)),.RULED_SURF.,.F.,.F.,.F.,(4,4),(2,2),(0.,1.),(0.,1.),
 .PIECEWISE_BEZIER_KNOTS.);
#17=B_SPLINE_SURFACE_WITH_KNOTS('',3,1,((#400,#401),(#402,#403),(#404,#405),
(#406,#407)),.RULED_SURF.,.F.,.F.,.F.,(4,4),(2,2),(0.,1.),(0.,1.),
 .PIECEWISE_BEZIER_KNOTS.);
#18=ORIENTED_EDGE('',*,*,#78,.T.);
#19=ORIENTED_EDGE('',*,*,#79,.F.);
#20=ORIENTED_EDGE('',*,*,#80,.F.);
#21=ORIENTED_EDGE('',*,*,#81,.T.);
#22=ORIENTED_EDGE('',*,*,#82,.T.);
#23=ORIENTED_EDGE('',*,*,#83,.F.);
#24=ORIENTED_EDGE('',*,*,#84,.F.);
#25=ORIENTED_EDGE('',*,*,#79,.T.);
#26=ORIENTED_EDGE('',*,*,#85,.T.);
#27=ORIENTED_EDGE('',*,*,#86,.F.);
#28=ORIENTED_EDGE('',*,*,#87,.F.);
#29=ORIENTED_EDGE('',*,*,#83,.T.);
#30=ORIENTED_EDGE('',*,*,#88,.T.);
#31=ORIENTED_EDGE('',*,*,#89,.F.);
#32=ORIENTED_EDGE('',*,*,#90,.F.);
#33=ORIENTED_EDGE('',*,*,#86,.T.);
#34=ORIENTED_EDGE('',*,*,#91,.T.);
#35=ORIENTED_EDGE('',*,*,#92,.F.);
#36=ORIENTED_EDGE('',*,*,#93,.F.);
#37=ORIENTED_EDGE('',*,*,#89,.T.);
#38=ORIENTED_EDGE('',*,*,#94,.T.);
#39=ORIENTED_EDGE('',*,*,#81,.F.);
#40=ORIENTED_EDGE('',*,*,#95,.F.);
#41=ORIENTED_EDGE('',*,*,#92,.T.);
#42=ORIENTED_EDGE('',*,*,#78,.F.);
#43=ORIENTED_EDGE('',*,*,#94,.F.);
#44=ORIENTED_EDGE('',*,*,#91,.F.);
#45=ORIENTED_EDGE('',*,*,#88,.F.);
#46=ORIENTED_EDGE('',*,*,#85,.F.);
#47=ORIENTED_EDGE('',*,*,#82,.F.);
#48=ORIENTED_EDGE('',*,*,#96,.F.);
#49=ORIENTED_EDGE('',*,*,#97,.F.);
#50=ORIENTED_EDGE('',*,*,#80,.T.);
#51=ORIENTED_EDGE('',*,*,#98,.T.);
#52=ORIENTED_EDGE('',*,*,#97,.T.);
#53=ORIENTED_EDGE('',*,*,#99,.F.);
#54=ORIENTED_EDGE('',*,*,#100,.F.);
#55=ORIENTED_EDGE('',*,*,#95,.T.);
#56=ORIENTED_EDGE('',*,*,#100,.T.);
#57=ORIENTED_EDGE('',*,*,#101,.F.);
#58=ORIENTED_EDGE('',*,*,#102,.F.);
#59=ORIENTED_EDGE('',*,*,#93,.T.);
#60=ORIENTED_EDGE('',*,*,#102,.T.);
#61=ORIENTED_EDGE('',*,*,#103,.F.);
#62=ORIENTED_EDGE('',*,*,#104,.F.);
#63=ORIENTED_EDGE('',*,*,#90,.T.);
#64=ORIENTED_EDGE('',*,*,#104,.T.);
#65=ORIENTED_EDGE('',*,*,#105,.F.);
#66=ORIENTED_EDGE('',*,*,#106,.F.);
#67=ORIENTED_EDGE('',*,*,#87,.T.);
#68=ORIENTED_EDGE('',*,*,#106,.T.);
#69=ORIENTED_EDGE('',*,*,#107,.F.);
#70=ORIENTED_EDGE('',*,*,#98,.F.);
#71=ORIENTED_EDGE('',*,*,#84,.T.);
#72=ORIENTED_EDGE('',*,*,#107,.T.);
#73=ORIENTED_EDGE('',*,*,#105,.T.);
#74=ORIENTED_EDGE('',*,*,#103,.T.);
#75=ORIENTED_EDGE('',*,*,#101,.T.);
#76=ORIENTED_EDGE('',*,*,#99,.T.);
#77=ORIENTED_EDGE('',*,*,#96,.T.);
#78=EDGE_CURVE('',#108,#109,#126,.T.);
#79=EDGE_CURVE('',#110,#109,#127,.T.);
#80=EDGE_CURVE('',#111,#110,#128,.T.);
#81=EDGE_CURVE('',#111,#108,#129,.T.);
#82=EDGE_CURVE('',#109,#112,#130,.T.);
#83=EDGE_CURVE('',#113,#112,#131,.T.);
#84=EDGE_CURVE('',#110,#113,#132,.T.);
#85=EDGE_CURVE('',#112,#114,#133,.T.);
#86=EDGE_CURVE('',#115,#114,#134,.T.);
#87=EDGE_CURVE('',#113,#115,#135,.T.);
#88=EDGE_CURVE('',#114,#116,#136,.T.);
#89=EDGE_CURVE('',#117,#116,#137,.T.);
#90=EDGE_CURVE('',#115,#117,#138,.T.);
#91=EDGE_CURVE('',#116,#118,#139,.T.);
#92=EDGE_CURVE('',#119,#118,#140,.T.);
#93=EDGE_CURVE('',#117,#119,#141,.T.);
#94=EDGE_CURVE('',#118,#108,#142,.T.);
#95=EDGE_CURVE('',#119,#111,#143,.T.);
#96=EDGE_CURVE('',#120,#121,#144,.T.);
#97=EDGE_CURVE('',#111,#120,#145,.T.);
#98=EDGE_CURVE('',#110,#121,#146,.T.);
#99=EDGE_CURVE('',#122,#120,#147,.T.);
#100=EDGE_CURVE('',#119,#122,#148,.T.);
#101=EDGE_CURVE('',#123,#122,#149,.T.);
#102=EDGE_CURVE('',#117,#123,#150,.T.);
#103=EDGE_CURVE('',#124,#123,#151,.T.);
#104=EDGE_CURVE('',#115,#124,#152,.T.);
#105=EDGE_CURVE('',#125,#124,#153,.T.);
#106=EDGE_CURVE('',#113,#125,#154,.T.);
#107=EDGE_CURVE('',#121,#125,#155,.T.);
#108=VERTEX_POINT('',#308);
#109=VERTEX_POINT('',#309);
#110=VERTEX_POINT('',#311);
#111=VERTEX_POINT('',#313);
#112=VERTEX_POINT('',#317);
#113=VERTEX_POINT('',#319);
#114=VERTEX_POINT('',#323);
#115=VERTEX_POINT('',#325);
#116=VERTEX_POINT('',#329);
#117=VERTEX_POINT('',#331);
#118=VERTEX_POINT('',#335);
#119=VERTEX_POINT('',#337);
#120=VERTEX_POINT('',#352);
#121=VERTEX_POINT('',#353);
#122=VERTEX_POINT('',#365);
#123=VERTEX_POINT('',#376);
#124=VERTEX_POINT('',#387);
#125=VERTEX_POINT('',#398);
#126=LINE('',#307,#156);
#127=LINE('',#310,#157);
#128=LINE('',#312,#158);
#129=LINE('',#314,#159);
#130=LINE('',#316,#160);
#131=LINE('',#318,#161);
#132=LINE('',#320,#162);
#133=LINE('',#322,#163);
#134=LINE('',#324,#164);
#135=LINE('',#326,#165);
#136=LINE('',#328,#166);
#137=LINE('',#330,#167);
#138=LINE('',#332,#168);
#139=LINE('',#334,#169);
#140=LINE('',#336,#170);
#141=LINE('',#338,#171);
#142=LINE('',#340,#172);
#143=LINE('',#341,#173);
#144=LINE('',#351,#174);
#145=LINE('',#354,#175);
#146=LINE('',#355,#176);
#147=LINE('',#364,#177);
#148=LINE('',#366,#178);
#149=LINE('',#375,#179);
#150=LINE('',#377,#180);
#151=LINE('',#386,#181);
#152=LINE('',#388,#182);
#153=LINE('',#397,#183);
#154=LINE('',#399,#184);
#155=LINE('',#408,#185);
#156=VECTOR('',#261,1.);
#157=VECTOR('',#262,1.);
#158=VECTOR('',#263,1.);
#159=VECTOR('',#264,1.);
#160=VECTOR('',#267,1.);
#161=VECTOR('',#268,1.);
#162=VECTOR('',#269,1.);
#163=VECTOR('',#272,1.);
#164=VECTOR('',#273,1.);
#165=VECTOR('',#274,1.);
#166=VECTOR('',#277,1.);
#167=VECTOR('',#278,1.);
#168=VECTOR('',#279,1.);
#169=VECTOR('',#282,1.);
#170=VECTOR('',#283,1.);
#171=VECTOR('',#284,1.);
#172=VECTOR('',#287,1.);
#173=VECTOR('',#288,1.);
#174=VECTOR('',#291,1.);
#175=VECTOR('',#292,1.);
#176=VECTOR('',#293,1.);
#177=VECTOR('',#294,1.);
#178=VECTOR('',#295,1.);
#179=VECTOR('',#296,1.);
#180=VECTOR('',#297,1.);
#181=VECTOR('',#298,1.);
#182=VECTOR('',#299,1.);
#183=VECTOR('',#300,1.);
#184=VECTOR('',#301,1.);
#185=VECTOR('',#302,1.);
#186=EDGE_LOOP('',(#18,#19,#20,#21));
#187=EDGE_LOOP('',(#22,#23,#24,#25));
#188=EDGE_LOOP('',(#26,#27,#28,#29));
#189=EDGE_LOOP('',(#30,#31,#32,#33));
#190=EDGE_LOOP('',(#34,#35,#36,#37));
#191=EDGE_LOOP('',(#38,#39,#40,#41));
#192=EDGE_LOOP('',(#42,#43,#44,#45,#46,#47));
#193=EDGE_LOOP('',(#48,#49,#50,#51));
#194=EDGE_LOOP('',(#52,#53,#54,#55));
#195=EDGE_LOOP('',(#56,#57,#58,#59));
#196=EDGE_LOOP('',(#60,#61,#62,#63));
#197=EDGE_LOOP('',(#64,#65,#66,#67));
#198=EDGE_LOOP('',(#68,#69,#70,#71));
#199=EDGE_LOOP('',(#72,#73,#74,#75,#76,#77));
#200=FACE_BOUND('',#186,.T.);
#201=FACE_BOUND('',#187,.T.);
#202=FACE_BOUND('',#188,.T.);
#203=FACE_BOUND('',#189,.T.);
#204=FACE_BOUND('',#190,.T.);
#205=FACE_BOUND('',#191,.T.);
#206=FACE_BOUND('',#192,.T.);
#207=FACE_BOUND('',#193,.T.);
#208=FACE_BOUND('',#194,.T.);
#209=FACE_BOUND('',#195,.T.);
#210=FACE_BOUND('',#196,.T.);
#211=FACE_BOUND('',#197,.T.);
#212=FACE_BOUND('',#198,.T.);
#213=FACE_BOUND('',#199,.T.);
#214=PLANE('',#249);
#215=PLANE('',#250);
#216=PLANE('',#251);
#217=PLANE('',#252);
#218=PLANE('',#253);
#219=PLANE('',#254);
#220=PLANE('',#255);
#221=PLANE('',#256);
#222=ADVANCED_FACE('',(#200),#214,.F.);
#223=ADVANCED_FACE('',(#201),#215,.F.);
#224=ADVANCED_FACE('',(#202),#216,.F.);
#225=ADVANCED_FACE('',(#203),#217,.F.);
#226=ADVANCED_FACE('',(#204),#218,.F.);
#227=ADVANCED_FACE('',(#205),#219,.F.);
#228=ADVANCED_FACE('',(#206),#220,.F.);
#229=ADVANCED_FACE('',(#207),#12,.T.);
#230=ADVANCED_FACE('',(#208),#13,.T.);
#231=ADVANCED_FACE('',(#209),#14,.T.);
#232=ADVANCED_FACE('',(#210),#15,.T.);
#233=ADVANCED_FACE('',(#211),#16,.T.);
#234=ADVANCED_FACE('',(#212),#17,.T.);
#235=ADVANCED_FACE('',(#213),#221,.T.);
#236=CLOSED_SHELL('',(#222,#223,#224,#225,#226,#227,#228,#229,#230,#231,
#232,#233,#234,#235));
#237=STYLED_ITEM('',(#238),#245);
#238=PRESENTATION_STYLE_ASSIGNMENT((#239));
#239=SURFACE_STYLE_USAGE(.BOTH.,#240);
#240=SURFACE_SIDE_STYLE('',(#241));
#241=SURFACE_STYLE_FILL_AREA(#242);
#242=FILL_AREA_STYLE('',(#243));
#243=FILL_AREA_STYLE_COLOUR('',#244);
#244=COLOUR_RGB('',0.729411764705882,0.250980392156863,0.105882352941176);
#245=MANIFOLD_SOLID_BREP('Lock',#236);
#246=SHAPE_DEFINITION_REPRESENTATION(#416,#247);
#247=SHAPE_REPRESENTATION('Lock',(#248),#411);
#248=AXIS2_PLACEMENT_3D('',#305,#257,#258);
#249=AXIS2_PLACEMENT_3D('',#306,#259,#260);
#250=AXIS2_PLACEMENT_3D('',#315,#265,#266);
#251=AXIS2_PLACEMENT_3D('',#321,#270,#271);
#252=AXIS2_PLACEMENT_3D('',#327,#275,#276);
#253=AXIS2_PLACEMENT_3D('',#333,#280,#281);
#254=AXIS2_PLACEMENT_3D('',#339,#285,#286);
#255=AXIS2_PLACEMENT_3D('',#342,#289,#290);
#256=AXIS2_PLACEMENT_3D('',#409,#303,#304);
#257=DIRECTION('',(0.,0.,1.));
#258=DIRECTION('',(1.,0.,0.));
#259=DIRECTION('',(-0.5,0.,-0.866025403784439));
#260=DIRECTION('',(-0.866025403784439,0.,0.5));
#261=DIRECTION('',(0.866025403784439,0.,-0.5));
#262=DIRECTION('',(0.,-1.,0.));
#263=DIRECTION('',(0.866025403784439,0.,-0.5));
#264=DIRECTION('',(0.,-1.,0.));
#265=DIRECTION('',(-1.,0.,-1.07308185624083E-15));
#266=DIRECTION('',(-1.07308185624083E-15,0.,1.));
#267=DIRECTION('',(1.07308185624083E-15,0.,-1.));
#268=DIRECTION('',(0.,-1.,0.));
#269=DIRECTION('',(1.07308185624083E-15,0.,-1.));
#270=DIRECTION('',(-0.5,0.,0.866025403784438));
#271=DIRECTION('',(0.866025403784438,0.,0.5));
#272=DIRECTION('',(-0.866025403784438,0.,-0.5));
#273=DIRECTION('',(0.,-1.,0.));
#274=DIRECTION('',(-0.866025403784438,0.,-0.5));
#275=DIRECTION('',(0.5,0.,0.866025403784439));
#276=DIRECTION('',(0.866025403784439,0.,-0.5));
#277=DIRECTION('',(-0.866025403784439,0.,0.5));
#278=DIRECTION('',(0.,-1.,0.));
#279=DIRECTION('',(-0.866025403784439,0.,0.5));
#280=DIRECTION('',(1.,0.,0.));
#281=DIRECTION('',(0.,-1.,0.));
#282=DIRECTION('',(0.,0.,1.));
#283=DIRECTION('',(0.,-1.,0.));
#284=DIRECTION('',(0.,0.,1.));
#285=DIRECTION('',(0.5,0.,-0.866025403784438));
#286=DIRECTION('',(-0.866025403784438,0.,-0.5));
#287=DIRECTION('',(0.866025403784438,0.,0.5));
#288=DIRECTION('',(0.866025403784438,0.,0.5));
#289=DIRECTION('',(0.,1.,0.));
#290=DIRECTION('',(1.,0.,0.));
#291=DIRECTION('',(0.5,0.,-0.866025403784438));
#292=DIRECTION('',(0.415307685331267,0.899167514709477,0.137903252303809));
#293=DIRECTION('',(0.327081562425227,0.899167514709477,-0.290715379731886));
#294=DIRECTION('',(1.,0.,0.));
#295=DIRECTION('',(0.0882261229060401,0.899167514709477,0.428618632035697));
#296=DIRECTION('',(0.5,0.,0.866025403784439));
#297=DIRECTION('',(-0.327081562425226,0.899167514709477,0.290715379731887));
#298=DIRECTION('',(-0.5,0.,0.866025403784439));
#299=DIRECTION('',(-0.415307685331268,0.899167514709477,-0.137903252303807));
#300=DIRECTION('',(-1.,0.,0.));
#301=DIRECTION('',(-0.0882261229060408,0.899167514709478,-0.428618632035694));
#302=DIRECTION('',(-0.5,0.,-0.866025403784439));
#303=DIRECTION('',(0.,1.,0.));
#304=DIRECTION('',(1.,0.,0.));
#305=CARTESIAN_POINT('',(0.,0.,0.));
#306=CARTESIAN_POINT('',(-0.0161,0.233642562584221,0.00242487113059642));
#307=CARTESIAN_POINT('',(-0.0161,0.22364256258422,0.00242487113059642));
#308=CARTESIAN_POINT('',(-0.0175,0.22364256258422,0.0032331615074619));
#309=CARTESIAN_POINT('',(-0.0147,0.22364256258422,0.00161658075373095));
#310=CARTESIAN_POINT('',(-0.0147,0.233642562584221,0.00161658075373095));
#311=CARTESIAN_POINT('',(-0.0147,0.233642562584221,0.00161658075373095));
#312=CARTESIAN_POINT('',(-0.0161,0.233642562584221,0.00242487113059642));
#313=CARTESIAN_POINT('',(-0.0175,0.233642562584221,0.0032331615074619));
#314=CARTESIAN_POINT('',(-0.0175,0.233642562584221,0.0032331615074619));
#315=CARTESIAN_POINT('',(-0.0147,0.233642562584221,-6.28837260041593E-18));
#316=CARTESIAN_POINT('',(-0.0147,0.22364256258422,-6.28837260041593E-18));
#317=CARTESIAN_POINT('',(-0.0147,0.22364256258422,-0.00161658075373096));
#318=CARTESIAN_POINT('',(-0.0147,0.233642562584221,-0.00161658075373096));
#319=CARTESIAN_POINT('',(-0.0147,0.233642562584221,-0.00161658075373096));
#320=CARTESIAN_POINT('',(-0.0147,0.233642562584221,-6.28837260041593E-18));
#321=CARTESIAN_POINT('',(-0.0161,0.233642562584221,-0.00242487113059643));
#322=CARTESIAN_POINT('',(-0.0161,0.22364256258422,-0.00242487113059643));
#323=CARTESIAN_POINT('',(-0.0175,0.22364256258422,-0.00323316150746191));
#324=CARTESIAN_POINT('',(-0.0175,0.233642562584221,-0.00323316150746191));
#325=CARTESIAN_POINT('',(-0.0175,0.233642562584221,-0.00323316150746191));
#326=CARTESIAN_POINT('',(-0.0161,0.233642562584221,-0.00242487113059643));
#327=CARTESIAN_POINT('',(-0.0189,0.233642562584221,-0.00242487113059643));
#328=CARTESIAN_POINT('',(-0.0189,0.22364256258422,-0.00242487113059643));
#329=CARTESIAN_POINT('',(-0.0203,0.22364256258422,-0.00161658075373095));
#330=CARTESIAN_POINT('',(-0.0203,0.233642562584221,-0.00161658075373095));
#331=CARTESIAN_POINT('',(-0.0203,0.233642562584221,-0.00161658075373095));
#332=CARTESIAN_POINT('',(-0.0189,0.233642562584221,-0.00242487113059643));
#333=CARTESIAN_POINT('',(-0.0203,0.233642562584221,-3.46944695195361E-18));
#334=CARTESIAN_POINT('',(-0.0203,0.22364256258422,-3.46944695195361E-18));
#335=CARTESIAN_POINT('',(-0.0203,0.22364256258422,0.00161658075373095));
#336=CARTESIAN_POINT('',(-0.0203,0.233642562584221,0.00161658075373095));
#337=CARTESIAN_POINT('',(-0.0203,0.233642562584221,0.00161658075373095));
#338=CARTESIAN_POINT('',(-0.0203,0.233642562584221,-3.46944695195361E-18));
#339=CARTESIAN_POINT('',(-0.0189,0.233642562584221,0.00242487113059642));
#340=CARTESIAN_POINT('',(-0.0189,0.22364256258422,0.00242487113059642));
#341=CARTESIAN_POINT('',(-0.0189,0.233642562584221,0.00242487113059642));
#342=CARTESIAN_POINT('',(-0.0175,0.22364256258422,-4.33680868994202E-18));
#343=CARTESIAN_POINT('',(-0.0175,0.233642562584221,0.0032331615074619));
#344=CARTESIAN_POINT('',(-0.0151905989232415,0.238642562584221,0.004));
#345=CARTESIAN_POINT('',(-0.0165666666666667,0.233642562584221,0.00269430125621825));
#346=CARTESIAN_POINT('',(-0.014420798564322,0.238642562584221,0.00266666666666667));
#347=CARTESIAN_POINT('',(-0.0156333333333333,0.233642562584221,0.00215544100497461));
#348=CARTESIAN_POINT('',(-0.0136509982054025,0.238642562584221,0.00133333333333333));
#349=CARTESIAN_POINT('',(-0.0147,0.233642562584221,0.00161658075373095));
#350=CARTESIAN_POINT('',(-0.012881197846483,0.238642562584221,4.33680868994202E-19));
#351=CARTESIAN_POINT('',(-0.0140358983848623,0.238642562584221,0.002));
#352=CARTESIAN_POINT('',(-0.0151905989232415,0.238642562584221,0.004));
#353=CARTESIAN_POINT('',(-0.012881197846483,0.238642562584221,-8.13151629364128E-19));
#354=CARTESIAN_POINT('',(-0.0163452994616207,0.236142562584221,0.00361658075373095));
#355=CARTESIAN_POINT('',(-0.0137905989232415,0.236142562584221,0.000808290376865473));
#356=CARTESIAN_POINT('',(-0.0203,0.233642562584221,0.00161658075373095));
#357=CARTESIAN_POINT('',(-0.0198094010767585,0.238642562584221,0.004));
#358=CARTESIAN_POINT('',(-0.0193666666666667,0.233642562584221,0.0021554410049746));
#359=CARTESIAN_POINT('',(-0.0182698003589195,0.238642562584221,0.004));
#360=CARTESIAN_POINT('',(-0.0184333333333334,0.233642562584221,0.00269430125621825));
#361=CARTESIAN_POINT('',(-0.0167301996410805,0.238642562584221,0.004));
#362=CARTESIAN_POINT('',(-0.0175,0.233642562584221,0.0032331615074619));
#363=CARTESIAN_POINT('',(-0.0151905989232415,0.238642562584221,0.004));
#364=CARTESIAN_POINT('',(-0.0175,0.238642562584221,0.004));
#365=CARTESIAN_POINT('',(-0.0198094010767585,0.238642562584221,0.004));
#366=CARTESIAN_POINT('',(-0.0200547005383792,0.236142562584221,0.00280829037686548));
#367=CARTESIAN_POINT('',(-0.0203,0.233642562584221,-0.00161658075373095));
#368=CARTESIAN_POINT('',(-0.022118802153517,0.238642562584221,2.60208521396521E-18));
#369=CARTESIAN_POINT('',(-0.0203,0.233642562584221,-0.000538860251243652));
#370=CARTESIAN_POINT('',(-0.0213490017945975,0.238642562584221,0.00133333333333333));
#371=CARTESIAN_POINT('',(-0.0203,0.233642562584221,0.000538860251243645));
#372=CARTESIAN_POINT('',(-0.020579201435678,0.238642562584221,0.00266666666666667));
#373=CARTESIAN_POINT('',(-0.0203,0.233642562584221,0.00161658075373095));
#374=CARTESIAN_POINT('',(-0.0198094010767585,0.238642562584221,0.004));
#375=CARTESIAN_POINT('',(-0.0209641016151378,0.238642562584221,0.002));
#376=CARTESIAN_POINT('',(-0.022118802153517,0.238642562584221,2.27682456221956E-18));
#377=CARTESIAN_POINT('',(-0.0212094010767585,0.236142562584221,-0.000808290376865475));
#378=CARTESIAN_POINT('',(-0.0175,0.233642562584221,-0.00323316150746191));
#379=CARTESIAN_POINT('',(-0.0198094010767585,0.238642562584221,-0.004));
#380=CARTESIAN_POINT('',(-0.0184333333333334,0.233642562584221,-0.00269430125621826));
#381=CARTESIAN_POINT('',(-0.020579201435678,0.238642562584221,-0.00266666666666667));
#382=CARTESIAN_POINT('',(-0.0193666666666667,0.233642562584221,-0.0021554410049746));
#383=CARTESIAN_POINT('',(-0.0213490017945975,0.238642562584221,-0.00133333333333333));
#384=CARTESIAN_POINT('',(-0.0203,0.233642562584221,-0.00161658075373096));
#385=CARTESIAN_POINT('',(-0.022118802153517,0.238642562584221,2.16840434497101E-18));
#386=CARTESIAN_POINT('',(-0.0209641016151378,0.238642562584221,-0.002));
#387=CARTESIAN_POINT('',(-0.0198094010767585,0.238642562584221,-0.004));
#388=CARTESIAN_POINT('',(-0.0186547005383792,0.236142562584221,-0.00361658075373096));
#389=CARTESIAN_POINT('',(-0.0147,0.233642562584221,-0.00161658075373096));
#390=CARTESIAN_POINT('',(-0.0151905989232415,0.238642562584221,-0.004));
#391=CARTESIAN_POINT('',(-0.0156333333333333,0.233642562584221,-0.00215544100497462));
#392=CARTESIAN_POINT('',(-0.0167301996410805,0.238642562584221,-0.004));
#393=CARTESIAN_POINT('',(-0.0165666666666666,0.233642562584221,-0.00269430125621826));
#394=CARTESIAN_POINT('',(-0.0182698003589195,0.238642562584221,-0.004));
#395=CARTESIAN_POINT('',(-0.0175,0.233642562584221,-0.00323316150746191));
#396=CARTESIAN_POINT('',(-0.0198094010767585,0.238642562584221,-0.004));
#397=CARTESIAN_POINT('',(-0.0175,0.238642562584221,-0.004));
#398=CARTESIAN_POINT('',(-0.0151905989232415,0.238642562584221,-0.004));
#399=CARTESIAN_POINT('',(-0.0149452994616208,0.236142562584221,-0.00280829037686548));
#400=CARTESIAN_POINT('',(-0.0147,0.233642562584221,0.00161658075373095));
#401=CARTESIAN_POINT('',(-0.012881197846483,0.238642562584221,-8.67361737988404E-19));
#402=CARTESIAN_POINT('',(-0.0147,0.233642562584221,0.000538860251243645));
#403=CARTESIAN_POINT('',(-0.0136509982054025,0.238642562584221,-0.00133333333333334));
#404=CARTESIAN_POINT('',(-0.0147,0.233642562584221,-0.000538860251243658));
#405=CARTESIAN_POINT('',(-0.014420798564322,0.238642562584221,-0.00266666666666666));
#406=CARTESIAN_POINT('',(-0.0147,0.233642562584221,-0.00161658075373096));
#407=CARTESIAN_POINT('',(-0.0151905989232415,0.238642562584221,-0.004));
#408=CARTESIAN_POINT('',(-0.0140358983848623,0.238642562584221,-0.002));
#409=CARTESIAN_POINT('',(-0.0175,0.238642562584221,8.67361737988404E-19));
#410=MECHANICAL_DESIGN_GEOMETRIC_PRESENTATION_REPRESENTATION('',(#237),
#411);
#411=(
GEOMETRIC_REPRESENTATION_CONTEXT(3)
GLOBAL_UNCERTAINTY_ASSIGNED_CONTEXT((#412))
GLOBAL_UNIT_ASSIGNED_CONTEXT((#415,#414,#413))
REPRESENTATION_CONTEXT('Lock','TOP_LEVEL_ASSEMBLY_PART')
);
#412=UNCERTAINTY_MEASURE_WITH_UNIT(LENGTH_MEASURE(1.E-8),#415,
'DISTANCE_ACCURACY_VALUE','Maximum Tolerance applied to model');
#413=(
NAMED_UNIT(*)
SI_UNIT($,.STERADIAN.)
SOLID_ANGLE_UNIT()
);
#414=(
NAMED_UNIT(*)
PLANE_ANGLE_UNIT()
SI_UNIT($,.RADIAN.)
);
#415=(
LENGTH_UNIT()
NAMED_UNIT(*)
SI_UNIT($,.METRE.)
);
#416=PRODUCT_DEFINITION_SHAPE('','',#417);
#417=PRODUCT_DEFINITION('','',#419,#418);
#418=PRODUCT_DEFINITION_CONTEXT('',#425,'design');
#419=PRODUCT_DEFINITION_FORMATION_WITH_SPECIFIED_SOURCE('','',#421,
 .NOT_KNOWN.);
#420=PRODUCT_RELATED_PRODUCT_CATEGORY('','',(#421));
#421=PRODUCT('Lock','Lock','Lock',(#423));
#422=PRODUCT_CATEGORY('','');
#423=PRODUCT_CONTEXT('',#425,'mechanical');
#424=APPLICATION_PROTOCOL_DEFINITION('international standard',
'ap242_managed_model_based_3d_engineering',2020,#425);
#425=APPLICATION_CONTEXT('managed model based 3d engineering');
ENDSEC;
END-ISO-10303-21;
