ISO-10303-21;
HEADER;
/* Generated by software containing ST-Developer
 * from STEP Tools, Inc. (www.steptools.com) 
 */
/* OPTION: using custom renumber hook */

FILE_DESCRIPTION(
/* description */ ('STEP AP242 Edition 2',
'CAx-IF Rec.Pracs.---Representation and Presentation of Product Manufa
cturing Information (PMI)---4.0---2014-10-13',
'CAx-IF Rec.Pracs.---3D Tessellated Geometry---0.4---2014-09-14','2;1',
'CAx-IF Rec.Pracs.---User Defined Attributes---1.5---2016-08-15'),
/* implementation_level */ '2;1');

FILE_NAME(
/* name */ 'Overhead Cam Mount - Base',
/* time_stamp */ '2026-08-09T23:59:09Z',
/* author */ (''),
/* organization */ (''),
/* preprocessor_version */ 'ST-DEVELOPER v20',
/* originating_system */ 'ONSHAPE BY PTC INC, 1.219',
/* authorisation */ '  ');

FILE_SCHEMA (('AP242_MANAGED_MODEL_BASED_3D_ENGINEERING_MIM_LF { 1 0 10303 442 3 1 4 }'));
ENDSEC;

DATA;
#10=SHAPE_REPRESENTATION_RELATIONSHIP('','',#921,#11);
#11=ADVANCED_BREP_SHAPE_REPRESENTATION('',(#919),#1444);
#12=ORIENTED_EDGE('',*,*,#258,.F.);
#13=ORIENTED_EDGE('',*,*,#259,.T.);
#14=ORIENTED_EDGE('',*,*,#260,.T.);
#15=ORIENTED_EDGE('',*,*,#261,.T.);
#16=ORIENTED_EDGE('',*,*,#262,.T.);
#17=ORIENTED_EDGE('',*,*,#263,.T.);
#18=ORIENTED_EDGE('',*,*,#264,.T.);
#19=ORIENTED_EDGE('',*,*,#265,.F.);
#20=ORIENTED_EDGE('',*,*,#266,.F.);
#21=ORIENTED_EDGE('',*,*,#267,.T.);
#22=ORIENTED_EDGE('',*,*,#268,.T.);
#23=ORIENTED_EDGE('',*,*,#269,.F.);
#24=ORIENTED_EDGE('',*,*,#270,.F.);
#25=ORIENTED_EDGE('',*,*,#265,.T.);
#26=ORIENTED_EDGE('',*,*,#271,.T.);
#27=ORIENTED_EDGE('',*,*,#272,.F.);
#28=ORIENTED_EDGE('',*,*,#273,.F.);
#29=ORIENTED_EDGE('',*,*,#269,.T.);
#30=ORIENTED_EDGE('',*,*,#274,.T.);
#31=ORIENTED_EDGE('',*,*,#275,.F.);
#32=ORIENTED_EDGE('',*,*,#276,.F.);
#33=ORIENTED_EDGE('',*,*,#272,.T.);
#34=ORIENTED_EDGE('',*,*,#277,.T.);
#35=ORIENTED_EDGE('',*,*,#278,.F.);
#36=ORIENTED_EDGE('',*,*,#279,.F.);
#37=ORIENTED_EDGE('',*,*,#275,.T.);
#38=ORIENTED_EDGE('',*,*,#280,.T.);
#39=ORIENTED_EDGE('',*,*,#267,.F.);
#40=ORIENTED_EDGE('',*,*,#281,.F.);
#41=ORIENTED_EDGE('',*,*,#278,.T.);
#42=ORIENTED_EDGE('',*,*,#263,.F.);
#43=ORIENTED_EDGE('',*,*,#282,.F.);
#44=ORIENTED_EDGE('',*,*,#260,.F.);
#45=ORIENTED_EDGE('',*,*,#283,.T.);
#46=ORIENTED_EDGE('',*,*,#284,.T.);
#47=ORIENTED_EDGE('',*,*,#285,.T.);
#48=ORIENTED_EDGE('',*,*,#286,.T.);
#49=ORIENTED_EDGE('',*,*,#266,.T.);
#50=ORIENTED_EDGE('',*,*,#270,.T.);
#51=ORIENTED_EDGE('',*,*,#273,.T.);
#52=ORIENTED_EDGE('',*,*,#276,.T.);
#53=ORIENTED_EDGE('',*,*,#279,.T.);
#54=ORIENTED_EDGE('',*,*,#281,.T.);
#55=ORIENTED_EDGE('',*,*,#264,.F.);
#56=ORIENTED_EDGE('',*,*,#280,.F.);
#57=ORIENTED_EDGE('',*,*,#277,.F.);
#58=ORIENTED_EDGE('',*,*,#274,.F.);
#59=ORIENTED_EDGE('',*,*,#271,.F.);
#60=ORIENTED_EDGE('',*,*,#268,.F.);
#61=ORIENTED_EDGE('',*,*,#287,.T.);
#62=ORIENTED_EDGE('',*,*,#288,.T.);
#63=ORIENTED_EDGE('',*,*,#289,.F.);
#64=ORIENTED_EDGE('',*,*,#290,.F.);
#65=ORIENTED_EDGE('',*,*,#291,.T.);
#66=ORIENTED_EDGE('',*,*,#292,.T.);
#67=ORIENTED_EDGE('',*,*,#293,.T.);
#68=ORIENTED_EDGE('',*,*,#294,.T.);
#69=ORIENTED_EDGE('',*,*,#295,.T.);
#70=ORIENTED_EDGE('',*,*,#296,.T.);
#71=ORIENTED_EDGE('',*,*,#289,.T.);
#72=ORIENTED_EDGE('',*,*,#297,.T.);
#73=ORIENTED_EDGE('',*,*,#298,.F.);
#74=ORIENTED_EDGE('',*,*,#299,.F.);
#75=ORIENTED_EDGE('',*,*,#300,.F.);
#76=ORIENTED_EDGE('',*,*,#301,.T.);
#77=ORIENTED_EDGE('',*,*,#302,.T.);
#78=ORIENTED_EDGE('',*,*,#303,.F.);
#79=ORIENTED_EDGE('',*,*,#304,.F.);
#80=ORIENTED_EDGE('',*,*,#299,.T.);
#81=ORIENTED_EDGE('',*,*,#303,.T.);
#82=ORIENTED_EDGE('',*,*,#305,.T.);
#83=ORIENTED_EDGE('',*,*,#306,.T.);
#84=ORIENTED_EDGE('',*,*,#307,.F.);
#85=ORIENTED_EDGE('',*,*,#308,.F.);
#86=ORIENTED_EDGE('',*,*,#309,.F.);
#87=ORIENTED_EDGE('',*,*,#310,.F.);
#88=ORIENTED_EDGE('',*,*,#311,.F.);
#89=ORIENTED_EDGE('',*,*,#312,.F.);
#90=ORIENTED_EDGE('',*,*,#313,.F.);
#91=ORIENTED_EDGE('',*,*,#314,.F.);
#92=ORIENTED_EDGE('',*,*,#307,.T.);
#93=ORIENTED_EDGE('',*,*,#315,.T.);
#94=ORIENTED_EDGE('',*,*,#316,.T.);
#95=ORIENTED_EDGE('',*,*,#317,.F.);
#96=ORIENTED_EDGE('',*,*,#318,.F.);
#97=ORIENTED_EDGE('',*,*,#317,.T.);
#98=ORIENTED_EDGE('',*,*,#319,.T.);
#99=ORIENTED_EDGE('',*,*,#287,.F.);
#100=ORIENTED_EDGE('',*,*,#320,.F.);
#101=ORIENTED_EDGE('',*,*,#321,.F.);
#102=ORIENTED_EDGE('',*,*,#322,.F.);
#103=ORIENTED_EDGE('',*,*,#323,.F.);
#104=ORIENTED_EDGE('',*,*,#324,.F.);
#105=ORIENTED_EDGE('',*,*,#325,.F.);
#106=ORIENTED_EDGE('',*,*,#326,.F.);
#107=ORIENTED_EDGE('',*,*,#290,.T.);
#108=ORIENTED_EDGE('',*,*,#300,.T.);
#109=ORIENTED_EDGE('',*,*,#304,.T.);
#110=ORIENTED_EDGE('',*,*,#308,.T.);
#111=ORIENTED_EDGE('',*,*,#318,.T.);
#112=ORIENTED_EDGE('',*,*,#320,.T.);
#113=ORIENTED_EDGE('',*,*,#261,.F.);
#114=ORIENTED_EDGE('',*,*,#286,.F.);
#115=ORIENTED_EDGE('',*,*,#327,.F.);
#116=ORIENTED_EDGE('',*,*,#316,.F.);
#117=ORIENTED_EDGE('',*,*,#327,.T.);
#118=ORIENTED_EDGE('',*,*,#285,.F.);
#119=ORIENTED_EDGE('',*,*,#328,.F.);
#120=ORIENTED_EDGE('',*,*,#319,.F.);
#121=ORIENTED_EDGE('',*,*,#328,.T.);
#122=ORIENTED_EDGE('',*,*,#284,.F.);
#123=ORIENTED_EDGE('',*,*,#329,.F.);
#124=ORIENTED_EDGE('',*,*,#288,.F.);
#125=ORIENTED_EDGE('',*,*,#329,.T.);
#126=ORIENTED_EDGE('',*,*,#283,.F.);
#127=ORIENTED_EDGE('',*,*,#259,.F.);
#128=ORIENTED_EDGE('',*,*,#297,.F.);
#129=ORIENTED_EDGE('',*,*,#330,.T.);
#130=ORIENTED_EDGE('',*,*,#331,.T.);
#131=ORIENTED_EDGE('',*,*,#332,.T.);
#132=ORIENTED_EDGE('',*,*,#315,.F.);
#133=ORIENTED_EDGE('',*,*,#333,.T.);
#134=ORIENTED_EDGE('',*,*,#298,.T.);
#135=ORIENTED_EDGE('',*,*,#258,.T.);
#136=ORIENTED_EDGE('',*,*,#282,.T.);
#137=ORIENTED_EDGE('',*,*,#262,.F.);
#138=ORIENTED_EDGE('',*,*,#334,.T.);
#139=ORIENTED_EDGE('',*,*,#335,.T.);
#140=ORIENTED_EDGE('',*,*,#336,.T.);
#141=ORIENTED_EDGE('',*,*,#337,.T.);
#142=ORIENTED_EDGE('',*,*,#301,.F.);
#143=ORIENTED_EDGE('',*,*,#333,.F.);
#144=ORIENTED_EDGE('',*,*,#306,.F.);
#145=ORIENTED_EDGE('',*,*,#338,.T.);
#146=ORIENTED_EDGE('',*,*,#339,.F.);
#147=ORIENTED_EDGE('',*,*,#340,.T.);
#148=ORIENTED_EDGE('',*,*,#336,.F.);
#149=ORIENTED_EDGE('',*,*,#341,.T.);
#150=ORIENTED_EDGE('',*,*,#330,.F.);
#151=ORIENTED_EDGE('',*,*,#334,.F.);
#152=ORIENTED_EDGE('',*,*,#342,.T.);
#153=ORIENTED_EDGE('',*,*,#339,.T.);
#154=ORIENTED_EDGE('',*,*,#332,.F.);
#155=ORIENTED_EDGE('',*,*,#343,.T.);
#156=ORIENTED_EDGE('',*,*,#337,.F.);
#157=ORIENTED_EDGE('',*,*,#340,.F.);
#158=ORIENTED_EDGE('',*,*,#344,.F.);
#159=ORIENTED_EDGE('',*,*,#302,.F.);
#160=ORIENTED_EDGE('',*,*,#344,.T.);
#161=ORIENTED_EDGE('',*,*,#342,.F.);
#162=ORIENTED_EDGE('',*,*,#338,.F.);
#163=ORIENTED_EDGE('',*,*,#305,.F.);
#164=ORIENTED_EDGE('',*,*,#341,.F.);
#165=ORIENTED_EDGE('',*,*,#335,.F.);
#166=ORIENTED_EDGE('',*,*,#343,.F.);
#167=ORIENTED_EDGE('',*,*,#331,.F.);
#168=ORIENTED_EDGE('',*,*,#321,.T.);
#169=ORIENTED_EDGE('',*,*,#345,.F.);
#170=ORIENTED_EDGE('',*,*,#346,.F.);
#171=ORIENTED_EDGE('',*,*,#347,.T.);
#172=ORIENTED_EDGE('',*,*,#348,.T.);
#173=ORIENTED_EDGE('',*,*,#349,.T.);
#174=ORIENTED_EDGE('',*,*,#350,.T.);
#175=ORIENTED_EDGE('',*,*,#351,.T.);
#176=ORIENTED_EDGE('',*,*,#352,.T.);
#177=ORIENTED_EDGE('',*,*,#353,.T.);
#178=ORIENTED_EDGE('',*,*,#326,.T.);
#179=ORIENTED_EDGE('',*,*,#354,.F.);
#180=ORIENTED_EDGE('',*,*,#355,.F.);
#181=ORIENTED_EDGE('',*,*,#345,.T.);
#182=ORIENTED_EDGE('',*,*,#325,.T.);
#183=ORIENTED_EDGE('',*,*,#356,.F.);
#184=ORIENTED_EDGE('',*,*,#357,.F.);
#185=ORIENTED_EDGE('',*,*,#354,.T.);
#186=ORIENTED_EDGE('',*,*,#324,.T.);
#187=ORIENTED_EDGE('',*,*,#358,.F.);
#188=ORIENTED_EDGE('',*,*,#359,.F.);
#189=ORIENTED_EDGE('',*,*,#356,.T.);
#190=ORIENTED_EDGE('',*,*,#360,.T.);
#191=ORIENTED_EDGE('',*,*,#361,.T.);
#192=ORIENTED_EDGE('',*,*,#362,.T.);
#193=ORIENTED_EDGE('',*,*,#363,.T.);
#194=ORIENTED_EDGE('',*,*,#364,.T.);
#195=ORIENTED_EDGE('',*,*,#365,.T.);
#196=ORIENTED_EDGE('',*,*,#323,.T.);
#197=ORIENTED_EDGE('',*,*,#366,.F.);
#198=ORIENTED_EDGE('',*,*,#367,.F.);
#199=ORIENTED_EDGE('',*,*,#358,.T.);
#200=ORIENTED_EDGE('',*,*,#322,.T.);
#201=ORIENTED_EDGE('',*,*,#347,.F.);
#202=ORIENTED_EDGE('',*,*,#368,.F.);
#203=ORIENTED_EDGE('',*,*,#366,.T.);
#204=ORIENTED_EDGE('',*,*,#346,.T.);
#205=ORIENTED_EDGE('',*,*,#355,.T.);
#206=ORIENTED_EDGE('',*,*,#357,.T.);
#207=ORIENTED_EDGE('',*,*,#359,.T.);
#208=ORIENTED_EDGE('',*,*,#367,.T.);
#209=ORIENTED_EDGE('',*,*,#368,.T.);
#210=ORIENTED_EDGE('',*,*,#369,.T.);
#211=ORIENTED_EDGE('',*,*,#362,.F.);
#212=ORIENTED_EDGE('',*,*,#370,.F.);
#213=ORIENTED_EDGE('',*,*,#291,.F.);
#214=ORIENTED_EDGE('',*,*,#371,.T.);
#215=ORIENTED_EDGE('',*,*,#363,.F.);
#216=ORIENTED_EDGE('',*,*,#369,.F.);
#217=ORIENTED_EDGE('',*,*,#296,.F.);
#218=ORIENTED_EDGE('',*,*,#372,.T.);
#219=ORIENTED_EDGE('',*,*,#364,.F.);
#220=ORIENTED_EDGE('',*,*,#371,.F.);
#221=ORIENTED_EDGE('',*,*,#295,.F.);
#222=ORIENTED_EDGE('',*,*,#373,.T.);
#223=ORIENTED_EDGE('',*,*,#365,.F.);
#224=ORIENTED_EDGE('',*,*,#372,.F.);
#225=ORIENTED_EDGE('',*,*,#294,.F.);
#226=ORIENTED_EDGE('',*,*,#374,.T.);
#227=ORIENTED_EDGE('',*,*,#360,.F.);
#228=ORIENTED_EDGE('',*,*,#373,.F.);
#229=ORIENTED_EDGE('',*,*,#293,.F.);
#230=ORIENTED_EDGE('',*,*,#370,.T.);
#231=ORIENTED_EDGE('',*,*,#361,.F.);
#232=ORIENTED_EDGE('',*,*,#374,.F.);
#233=ORIENTED_EDGE('',*,*,#292,.F.);
#234=ORIENTED_EDGE('',*,*,#375,.T.);
#235=ORIENTED_EDGE('',*,*,#310,.T.);
#236=ORIENTED_EDGE('',*,*,#376,.F.);
#237=ORIENTED_EDGE('',*,*,#349,.F.);
#238=ORIENTED_EDGE('',*,*,#376,.T.);
#239=ORIENTED_EDGE('',*,*,#309,.T.);
#240=ORIENTED_EDGE('',*,*,#377,.F.);
#241=ORIENTED_EDGE('',*,*,#350,.F.);
#242=ORIENTED_EDGE('',*,*,#377,.T.);
#243=ORIENTED_EDGE('',*,*,#314,.T.);
#244=ORIENTED_EDGE('',*,*,#378,.F.);
#245=ORIENTED_EDGE('',*,*,#351,.F.);
#246=ORIENTED_EDGE('',*,*,#378,.T.);
#247=ORIENTED_EDGE('',*,*,#313,.T.);
#248=ORIENTED_EDGE('',*,*,#379,.F.);
#249=ORIENTED_EDGE('',*,*,#352,.F.);
#250=ORIENTED_EDGE('',*,*,#379,.T.);
#251=ORIENTED_EDGE('',*,*,#312,.T.);
#252=ORIENTED_EDGE('',*,*,#380,.F.);
#253=ORIENTED_EDGE('',*,*,#353,.F.);
#254=ORIENTED_EDGE('',*,*,#380,.T.);
#255=ORIENTED_EDGE('',*,*,#311,.T.);
#256=ORIENTED_EDGE('',*,*,#375,.F.);
#257=ORIENTED_EDGE('',*,*,#348,.F.);
#258=EDGE_CURVE('',#381,#382,#460,.T.);
#259=EDGE_CURVE('',#381,#383,#461,.T.);
#260=EDGE_CURVE('',#383,#382,#462,.T.);
#261=EDGE_CURVE('',#384,#385,#463,.T.);
#262=EDGE_CURVE('',#385,#386,#464,.T.);
#263=EDGE_CURVE('',#386,#384,#465,.T.);
#264=EDGE_CURVE('',#387,#388,#466,.T.);
#265=EDGE_CURVE('',#389,#388,#467,.T.);
#266=EDGE_CURVE('',#390,#389,#468,.T.);
#267=EDGE_CURVE('',#390,#387,#469,.T.);
#268=EDGE_CURVE('',#388,#391,#470,.T.);
#269=EDGE_CURVE('',#392,#391,#471,.T.);
#270=EDGE_CURVE('',#389,#392,#472,.T.);
#271=EDGE_CURVE('',#391,#393,#473,.T.);
#272=EDGE_CURVE('',#394,#393,#474,.T.);
#273=EDGE_CURVE('',#392,#394,#475,.T.);
#274=EDGE_CURVE('',#393,#395,#476,.T.);
#275=EDGE_CURVE('',#396,#395,#477,.T.);
#276=EDGE_CURVE('',#394,#396,#478,.T.);
#277=EDGE_CURVE('',#395,#397,#479,.T.);
#278=EDGE_CURVE('',#398,#397,#480,.T.);
#279=EDGE_CURVE('',#396,#398,#481,.T.);
#280=EDGE_CURVE('',#397,#387,#482,.T.);
#281=EDGE_CURVE('',#398,#390,#483,.T.);
#282=EDGE_CURVE('',#382,#386,#484,.T.);
#283=EDGE_CURVE('',#383,#399,#485,.T.);
#284=EDGE_CURVE('',#399,#400,#486,.T.);
#285=EDGE_CURVE('',#400,#401,#487,.T.);
#286=EDGE_CURVE('',#401,#384,#488,.T.);
#287=EDGE_CURVE('',#402,#403,#489,.T.);
#288=EDGE_CURVE('',#403,#404,#490,.T.);
#289=EDGE_CURVE('',#405,#404,#491,.T.);
#290=EDGE_CURVE('',#402,#405,#492,.T.);
#291=EDGE_CURVE('',#406,#407,#493,.T.);
#292=EDGE_CURVE('',#407,#408,#494,.T.);
#293=EDGE_CURVE('',#408,#409,#495,.T.);
#294=EDGE_CURVE('',#409,#410,#496,.T.);
#295=EDGE_CURVE('',#410,#411,#497,.T.);
#296=EDGE_CURVE('',#411,#406,#498,.T.);
#297=EDGE_CURVE('',#404,#381,#499,.T.);
#298=EDGE_CURVE('',#412,#381,#500,.T.);
#299=EDGE_CURVE('',#413,#412,#501,.T.);
#300=EDGE_CURVE('',#405,#413,#502,.T.);
#301=EDGE_CURVE('',#412,#414,#503,.F.);
#302=EDGE_CURVE('',#414,#415,#504,.T.);
#303=EDGE_CURVE('',#416,#415,#505,.T.);
#304=EDGE_CURVE('',#413,#416,#506,.T.);
#305=EDGE_CURVE('',#415,#417,#507,.T.);
#306=EDGE_CURVE('',#417,#418,#508,.F.);
#307=EDGE_CURVE('',#419,#418,#509,.T.);
#308=EDGE_CURVE('',#416,#419,#510,.T.);
#309=EDGE_CURVE('',#420,#421,#511,.T.);
#310=EDGE_CURVE('',#422,#420,#512,.T.);
#311=EDGE_CURVE('',#423,#422,#513,.T.);
#312=EDGE_CURVE('',#424,#423,#514,.T.);
#313=EDGE_CURVE('',#425,#424,#515,.T.);
#314=EDGE_CURVE('',#421,#425,#516,.T.);
#315=EDGE_CURVE('',#418,#385,#517,.T.);
#316=EDGE_CURVE('',#385,#426,#518,.T.);
#317=EDGE_CURVE('',#427,#426,#519,.T.);
#318=EDGE_CURVE('',#419,#427,#520,.T.);
#319=EDGE_CURVE('',#426,#403,#521,.T.);
#320=EDGE_CURVE('',#427,#402,#522,.T.);
#321=EDGE_CURVE('',#428,#429,#523,.T.);
#322=EDGE_CURVE('',#430,#428,#524,.T.);
#323=EDGE_CURVE('',#431,#430,#525,.T.);
#324=EDGE_CURVE('',#432,#431,#526,.T.);
#325=EDGE_CURVE('',#433,#432,#527,.T.);
#326=EDGE_CURVE('',#429,#433,#528,.T.);
#327=EDGE_CURVE('',#426,#401,#529,.F.);
#328=EDGE_CURVE('',#403,#400,#530,.F.);
#329=EDGE_CURVE('',#404,#399,#531,.F.);
#330=EDGE_CURVE('',#434,#435,#532,.T.);
#331=EDGE_CURVE('',#435,#436,#533,.T.);
#332=EDGE_CURVE('',#436,#434,#534,.T.);
#333=EDGE_CURVE('',#418,#412,#535,.T.);
#334=EDGE_CURVE('',#437,#438,#536,.T.);
#335=EDGE_CURVE('',#438,#439,#537,.F.);
#336=EDGE_CURVE('',#439,#440,#538,.T.);
#337=EDGE_CURVE('',#440,#414,#539,.T.);
#338=EDGE_CURVE('',#417,#437,#540,.T.);
#339=EDGE_CURVE('',#441,#434,#541,.F.);
#340=EDGE_CURVE('',#441,#440,#542,.F.);
#341=EDGE_CURVE('',#439,#435,#543,.F.);
#342=EDGE_CURVE('',#437,#441,#544,.F.);
#343=EDGE_CURVE('',#436,#438,#545,.F.);
#344=EDGE_CURVE('',#415,#441,#546,.F.);
#345=EDGE_CURVE('',#442,#429,#547,.T.);
#346=EDGE_CURVE('',#443,#442,#548,.T.);
#347=EDGE_CURVE('',#443,#428,#549,.T.);
#348=EDGE_CURVE('',#444,#445,#550,.T.);
#349=EDGE_CURVE('',#445,#446,#551,.T.);
#350=EDGE_CURVE('',#446,#447,#552,.T.);
#351=EDGE_CURVE('',#447,#448,#553,.T.);
#352=EDGE_CURVE('',#448,#449,#554,.T.);
#353=EDGE_CURVE('',#449,#444,#555,.T.);
#354=EDGE_CURVE('',#450,#433,#556,.T.);
#355=EDGE_CURVE('',#442,#450,#557,.T.);
#356=EDGE_CURVE('',#451,#432,#558,.T.);
#357=EDGE_CURVE('',#450,#451,#559,.T.);
#358=EDGE_CURVE('',#452,#431,#560,.T.);
#359=EDGE_CURVE('',#451,#452,#561,.T.);
#360=EDGE_CURVE('',#453,#454,#562,.T.);
#361=EDGE_CURVE('',#454,#455,#563,.T.);
#362=EDGE_CURVE('',#455,#456,#564,.T.);
#363=EDGE_CURVE('',#456,#457,#565,.T.);
#364=EDGE_CURVE('',#457,#458,#566,.T.);
#365=EDGE_CURVE('',#458,#453,#567,.T.);
#366=EDGE_CURVE('',#459,#430,#568,.T.);
#367=EDGE_CURVE('',#452,#459,#569,.T.);
#368=EDGE_CURVE('',#459,#443,#570,.T.);
#369=EDGE_CURVE('',#406,#456,#571,.T.);
#370=EDGE_CURVE('',#407,#455,#572,.T.);
#371=EDGE_CURVE('',#411,#457,#573,.T.);
#372=EDGE_CURVE('',#410,#458,#574,.T.);
#373=EDGE_CURVE('',#409,#453,#575,.T.);
#374=EDGE_CURVE('',#408,#454,#576,.T.);
#375=EDGE_CURVE('',#445,#422,#577,.T.);
#376=EDGE_CURVE('',#446,#420,#578,.T.);
#377=EDGE_CURVE('',#447,#421,#579,.T.);
#378=EDGE_CURVE('',#448,#425,#580,.T.);
#379=EDGE_CURVE('',#449,#424,#581,.T.);
#380=EDGE_CURVE('',#444,#423,#582,.T.);
#381=VERTEX_POINT('',#1195);
#382=VERTEX_POINT('',#1196);
#383=VERTEX_POINT('',#1198);
#384=VERTEX_POINT('',#1202);
#385=VERTEX_POINT('',#1203);
#386=VERTEX_POINT('',#1205);
#387=VERTEX_POINT('',#1209);
#388=VERTEX_POINT('',#1210);
#389=VERTEX_POINT('',#1212);
#390=VERTEX_POINT('',#1214);
#391=VERTEX_POINT('',#1218);
#392=VERTEX_POINT('',#1220);
#393=VERTEX_POINT('',#1224);
#394=VERTEX_POINT('',#1226);
#395=VERTEX_POINT('',#1230);
#396=VERTEX_POINT('',#1232);
#397=VERTEX_POINT('',#1236);
#398=VERTEX_POINT('',#1238);
#399=VERTEX_POINT('',#1246);
#400=VERTEX_POINT('',#1248);
#401=VERTEX_POINT('',#1250);
#402=VERTEX_POINT('',#1255);
#403=VERTEX_POINT('',#1256);
#404=VERTEX_POINT('',#1258);
#405=VERTEX_POINT('',#1260);
#406=VERTEX_POINT('',#1264);
#407=VERTEX_POINT('',#1265);
#408=VERTEX_POINT('',#1267);
#409=VERTEX_POINT('',#1269);
#410=VERTEX_POINT('',#1271);
#411=VERTEX_POINT('',#1273);
#412=VERTEX_POINT('',#1277);
#413=VERTEX_POINT('',#1279);
#414=VERTEX_POINT('',#1283);
#415=VERTEX_POINT('',#1285);
#416=VERTEX_POINT('',#1287);
#417=VERTEX_POINT('',#1291);
#418=VERTEX_POINT('',#1293);
#419=VERTEX_POINT('',#1295);
#420=VERTEX_POINT('',#1299);
#421=VERTEX_POINT('',#1300);
#422=VERTEX_POINT('',#1302);
#423=VERTEX_POINT('',#1304);
#424=VERTEX_POINT('',#1306);
#425=VERTEX_POINT('',#1308);
#426=VERTEX_POINT('',#1312);
#427=VERTEX_POINT('',#1314);
#428=VERTEX_POINT('',#1321);
#429=VERTEX_POINT('',#1322);
#430=VERTEX_POINT('',#1324);
#431=VERTEX_POINT('',#1326);
#432=VERTEX_POINT('',#1328);
#433=VERTEX_POINT('',#1330);
#434=VERTEX_POINT('',#1341);
#435=VERTEX_POINT('',#1342);
#436=VERTEX_POINT('',#1344);
#437=VERTEX_POINT('',#1350);
#438=VERTEX_POINT('',#1351);
#439=VERTEX_POINT('',#1353);
#440=VERTEX_POINT('',#1355);
#441=VERTEX_POINT('',#1360);
#442=VERTEX_POINT('',#1372);
#443=VERTEX_POINT('',#1374);
#444=VERTEX_POINT('',#1378);
#445=VERTEX_POINT('',#1379);
#446=VERTEX_POINT('',#1381);
#447=VERTEX_POINT('',#1383);
#448=VERTEX_POINT('',#1385);
#449=VERTEX_POINT('',#1387);
#450=VERTEX_POINT('',#1390);
#451=VERTEX_POINT('',#1394);
#452=VERTEX_POINT('',#1398);
#453=VERTEX_POINT('',#1402);
#454=VERTEX_POINT('',#1403);
#455=VERTEX_POINT('',#1405);
#456=VERTEX_POINT('',#1407);
#457=VERTEX_POINT('',#1409);
#458=VERTEX_POINT('',#1411);
#459=VERTEX_POINT('',#1414);
#460=LINE('',#1194,#583);
#461=LINE('',#1197,#584);
#462=LINE('',#1199,#585);
#463=LINE('',#1201,#586);
#464=LINE('',#1204,#587);
#465=LINE('',#1206,#588);
#466=LINE('',#1208,#589);
#467=LINE('',#1211,#590);
#468=LINE('',#1213,#591);
#469=LINE('',#1215,#592);
#470=LINE('',#1217,#593);
#471=LINE('',#1219,#594);
#472=LINE('',#1221,#595);
#473=LINE('',#1223,#596);
#474=LINE('',#1225,#597);
#475=LINE('',#1227,#598);
#476=LINE('',#1229,#599);
#477=LINE('',#1231,#600);
#478=LINE('',#1233,#601);
#479=LINE('',#1235,#602);
#480=LINE('',#1237,#603);
#481=LINE('',#1239,#604);
#482=LINE('',#1241,#605);
#483=LINE('',#1242,#606);
#484=LINE('',#1244,#607);
#485=LINE('',#1245,#608);
#486=LINE('',#1247,#609);
#487=LINE('',#1249,#610);
#488=LINE('',#1251,#611);
#489=LINE('',#1254,#612);
#490=LINE('',#1257,#613);
#491=LINE('',#1259,#614);
#492=LINE('',#1261,#615);
#493=LINE('',#1263,#616);
#494=LINE('',#1266,#617);
#495=LINE('',#1268,#618);
#496=LINE('',#1270,#619);
#497=LINE('',#1272,#620);
#498=LINE('',#1274,#621);
#499=LINE('',#1275,#622);
#500=LINE('',#1276,#623);
#501=LINE('',#1278,#624);
#502=LINE('',#1280,#625);
#503=LINE('',#1282,#626);
#504=LINE('',#1284,#627);
#505=LINE('',#1286,#628);
#506=LINE('',#1288,#629);
#507=LINE('',#1290,#630);
#508=LINE('',#1292,#631);
#509=LINE('',#1294,#632);
#510=LINE('',#1296,#633);
#511=LINE('',#1298,#634);
#512=LINE('',#1301,#635);
#513=LINE('',#1303,#636);
#514=LINE('',#1305,#637);
#515=LINE('',#1307,#638);
#516=LINE('',#1309,#639);
#517=LINE('',#1310,#640);
#518=LINE('',#1311,#641);
#519=LINE('',#1313,#642);
#520=LINE('',#1315,#643);
#521=LINE('',#1317,#644);
#522=LINE('',#1318,#645);
#523=LINE('',#1320,#646);
#524=LINE('',#1323,#647);
#525=LINE('',#1325,#648);
#526=LINE('',#1327,#649);
#527=LINE('',#1329,#650);
#528=LINE('',#1331,#651);
#529=LINE('',#1333,#652);
#530=LINE('',#1335,#653);
#531=LINE('',#1337,#654);
#532=LINE('',#1340,#655);
#533=LINE('',#1343,#656);
#534=LINE('',#1345,#657);
#535=LINE('',#1347,#658);
#536=LINE('',#1349,#659);
#537=LINE('',#1352,#660);
#538=LINE('',#1354,#661);
#539=LINE('',#1356,#662);
#540=LINE('',#1357,#663);
#541=LINE('',#1359,#664);
#542=LINE('',#1361,#665);
#543=LINE('',#1362,#666);
#544=LINE('',#1364,#667);
#545=LINE('',#1365,#668);
#546=LINE('',#1367,#669);
#547=LINE('',#1371,#670);
#548=LINE('',#1373,#671);
#549=LINE('',#1375,#672);
#550=LINE('',#1377,#673);
#551=LINE('',#1380,#674);
#552=LINE('',#1382,#675);
#553=LINE('',#1384,#676);
#554=LINE('',#1386,#677);
#555=LINE('',#1388,#678);
#556=LINE('',#1389,#679);
#557=LINE('',#1391,#680);
#558=LINE('',#1393,#681);
#559=LINE('',#1395,#682);
#560=LINE('',#1397,#683);
#561=LINE('',#1399,#684);
#562=LINE('',#1401,#685);
#563=LINE('',#1404,#686);
#564=LINE('',#1406,#687);
#565=LINE('',#1408,#688);
#566=LINE('',#1410,#689);
#567=LINE('',#1412,#690);
#568=LINE('',#1413,#691);
#569=LINE('',#1415,#692);
#570=LINE('',#1417,#693);
#571=LINE('',#1420,#694);
#572=LINE('',#1421,#695);
#573=LINE('',#1423,#696);
#574=LINE('',#1425,#697);
#575=LINE('',#1427,#698);
#576=LINE('',#1429,#699);
#577=LINE('',#1432,#700);
#578=LINE('',#1433,#701);
#579=LINE('',#1435,#702);
#580=LINE('',#1437,#703);
#581=LINE('',#1439,#704);
#582=LINE('',#1441,#705);
#583=VECTOR('',#975,1.);
#584=VECTOR('',#976,1.);
#585=VECTOR('',#977,1.);
#586=VECTOR('',#980,1.);
#587=VECTOR('',#981,1.);
#588=VECTOR('',#982,1.);
#589=VECTOR('',#985,1.);
#590=VECTOR('',#986,1.);
#591=VECTOR('',#987,1.);
#592=VECTOR('',#988,1.);
#593=VECTOR('',#991,1.);
#594=VECTOR('',#992,1.);
#595=VECTOR('',#993,1.);
#596=VECTOR('',#996,1.);
#597=VECTOR('',#997,1.);
#598=VECTOR('',#998,1.);
#599=VECTOR('',#1001,1.);
#600=VECTOR('',#1002,1.);
#601=VECTOR('',#1003,1.);
#602=VECTOR('',#1006,1.);
#603=VECTOR('',#1007,1.);
#604=VECTOR('',#1008,1.);
#605=VECTOR('',#1011,1.);
#606=VECTOR('',#1012,1.);
#607=VECTOR('',#1015,1.);
#608=VECTOR('',#1016,1.);
#609=VECTOR('',#1017,1.);
#610=VECTOR('',#1018,1.);
#611=VECTOR('',#1019,1.);
#612=VECTOR('',#1024,1.);
#613=VECTOR('',#1025,1.);
#614=VECTOR('',#1026,1.);
#615=VECTOR('',#1027,1.);
#616=VECTOR('',#1030,1.);
#617=VECTOR('',#1031,1.);
#618=VECTOR('',#1032,1.);
#619=VECTOR('',#1033,1.);
#620=VECTOR('',#1034,1.);
#621=VECTOR('',#1035,1.);
#622=VECTOR('',#1036,1.);
#623=VECTOR('',#1037,1.);
#624=VECTOR('',#1038,1.);
#625=VECTOR('',#1039,1.);
#626=VECTOR('',#1042,1.);
#627=VECTOR('',#1043,1.);
#628=VECTOR('',#1044,1.);
#629=VECTOR('',#1045,1.);
#630=VECTOR('',#1048,1.);
#631=VECTOR('',#1049,1.);
#632=VECTOR('',#1050,1.);
#633=VECTOR('',#1051,1.);
#634=VECTOR('',#1054,1.);
#635=VECTOR('',#1055,1.);
#636=VECTOR('',#1056,1.);
#637=VECTOR('',#1057,1.);
#638=VECTOR('',#1058,1.);
#639=VECTOR('',#1059,1.);
#640=VECTOR('',#1060,1.);
#641=VECTOR('',#1061,1.);
#642=VECTOR('',#1062,1.);
#643=VECTOR('',#1063,1.);
#644=VECTOR('',#1066,1.);
#645=VECTOR('',#1067,1.);
#646=VECTOR('',#1070,1.);
#647=VECTOR('',#1071,1.);
#648=VECTOR('',#1072,1.);
#649=VECTOR('',#1073,1.);
#650=VECTOR('',#1074,1.);
#651=VECTOR('',#1075,1.);
#652=VECTOR('',#1078,1.);
#653=VECTOR('',#1081,1.);
#654=VECTOR('',#1084,1.);
#655=VECTOR('',#1089,1.);
#656=VECTOR('',#1090,1.);
#657=VECTOR('',#1091,1.);
#658=VECTOR('',#1094,1.);
#659=VECTOR('',#1097,1.);
#660=VECTOR('',#1098,1.);
#661=VECTOR('',#1099,1.);
#662=VECTOR('',#1100,1.);
#663=VECTOR('',#1101,1.);
#664=VECTOR('',#1104,1.);
#665=VECTOR('',#1105,1.);
#666=VECTOR('',#1106,1.);
#667=VECTOR('',#1109,1.);
#668=VECTOR('',#1110,1.);
#669=VECTOR('',#1113,1.);
#670=VECTOR('',#1120,1.);
#671=VECTOR('',#1121,1.);
#672=VECTOR('',#1122,1.);
#673=VECTOR('',#1125,1.);
#674=VECTOR('',#1126,1.);
#675=VECTOR('',#1127,1.);
#676=VECTOR('',#1128,1.);
#677=VECTOR('',#1129,1.);
#678=VECTOR('',#1130,1.);
#679=VECTOR('',#1131,1.);
#680=VECTOR('',#1132,1.);
#681=VECTOR('',#1135,1.);
#682=VECTOR('',#1136,1.);
#683=VECTOR('',#1139,1.);
#684=VECTOR('',#1140,1.);
#685=VECTOR('',#1143,1.);
#686=VECTOR('',#1144,1.);
#687=VECTOR('',#1145,1.);
#688=VECTOR('',#1146,1.);
#689=VECTOR('',#1147,1.);
#690=VECTOR('',#1148,1.);
#691=VECTOR('',#1149,1.);
#692=VECTOR('',#1150,1.);
#693=VECTOR('',#1153,1.);
#694=VECTOR('',#1158,1.);
#695=VECTOR('',#1159,1.);
#696=VECTOR('',#1162,1.);
#697=VECTOR('',#1165,1.);
#698=VECTOR('',#1168,1.);
#699=VECTOR('',#1171,1.);
#700=VECTOR('',#1176,1.);
#701=VECTOR('',#1177,1.);
#702=VECTOR('',#1180,1.);
#703=VECTOR('',#1183,1.);
#704=VECTOR('',#1186,1.);
#705=VECTOR('',#1189,1.);
#706=EDGE_LOOP('',(#12,#13,#14));
#707=EDGE_LOOP('',(#15,#16,#17));
#708=EDGE_LOOP('',(#18,#19,#20,#21));
#709=EDGE_LOOP('',(#22,#23,#24,#25));
#710=EDGE_LOOP('',(#26,#27,#28,#29));
#711=EDGE_LOOP('',(#30,#31,#32,#33));
#712=EDGE_LOOP('',(#34,#35,#36,#37));
#713=EDGE_LOOP('',(#38,#39,#40,#41));
#714=EDGE_LOOP('',(#42,#43,#44,#45,#46,#47,#48));
#715=EDGE_LOOP('',(#49,#50,#51,#52,#53,#54));
#716=EDGE_LOOP('',(#55,#56,#57,#58,#59,#60));
#717=EDGE_LOOP('',(#61,#62,#63,#64));
#718=EDGE_LOOP('',(#65,#66,#67,#68,#69,#70));
#719=EDGE_LOOP('',(#71,#72,#73,#74,#75));
#720=EDGE_LOOP('',(#76,#77,#78,#79,#80));
#721=EDGE_LOOP('',(#81,#82,#83,#84,#85));
#722=EDGE_LOOP('',(#86,#87,#88,#89,#90,#91));
#723=EDGE_LOOP('',(#92,#93,#94,#95,#96));
#724=EDGE_LOOP('',(#97,#98,#99,#100));
#725=EDGE_LOOP('',(#101,#102,#103,#104,#105,#106));
#726=EDGE_LOOP('',(#107,#108,#109,#110,#111,#112));
#727=EDGE_LOOP('',(#113,#114,#115,#116));
#728=EDGE_LOOP('',(#117,#118,#119,#120));
#729=EDGE_LOOP('',(#121,#122,#123,#124));
#730=EDGE_LOOP('',(#125,#126,#127,#128));
#731=EDGE_LOOP('',(#129,#130,#131));
#732=EDGE_LOOP('',(#132,#133,#134,#135,#136,#137));
#733=EDGE_LOOP('',(#138,#139,#140,#141,#142,#143,#144,#145));
#734=EDGE_LOOP('',(#146,#147,#148,#149,#150));
#735=EDGE_LOOP('',(#151,#152,#153,#154,#155));
#736=EDGE_LOOP('',(#156,#157,#158,#159));
#737=EDGE_LOOP('',(#160,#161,#162,#163));
#738=EDGE_LOOP('',(#164,#165,#166,#167));
#739=EDGE_LOOP('',(#168,#169,#170,#171));
#740=EDGE_LOOP('',(#172,#173,#174,#175,#176,#177));
#741=EDGE_LOOP('',(#178,#179,#180,#181));
#742=EDGE_LOOP('',(#182,#183,#184,#185));
#743=EDGE_LOOP('',(#186,#187,#188,#189));
#744=EDGE_LOOP('',(#190,#191,#192,#193,#194,#195));
#745=EDGE_LOOP('',(#196,#197,#198,#199));
#746=EDGE_LOOP('',(#200,#201,#202,#203));
#747=EDGE_LOOP('',(#204,#205,#206,#207,#208,#209));
#748=EDGE_LOOP('',(#210,#211,#212,#213));
#749=EDGE_LOOP('',(#214,#215,#216,#217));
#750=EDGE_LOOP('',(#218,#219,#220,#221));
#751=EDGE_LOOP('',(#222,#223,#224,#225));
#752=EDGE_LOOP('',(#226,#227,#228,#229));
#753=EDGE_LOOP('',(#230,#231,#232,#233));
#754=EDGE_LOOP('',(#234,#235,#236,#237));
#755=EDGE_LOOP('',(#238,#239,#240,#241));
#756=EDGE_LOOP('',(#242,#243,#244,#245));
#757=EDGE_LOOP('',(#246,#247,#248,#249));
#758=EDGE_LOOP('',(#250,#251,#252,#253));
#759=EDGE_LOOP('',(#254,#255,#256,#257));
#760=FACE_BOUND('',#706,.T.);
#761=FACE_BOUND('',#707,.T.);
#762=FACE_BOUND('',#708,.T.);
#763=FACE_BOUND('',#709,.T.);
#764=FACE_BOUND('',#710,.T.);
#765=FACE_BOUND('',#711,.T.);
#766=FACE_BOUND('',#712,.T.);
#767=FACE_BOUND('',#713,.T.);
#768=FACE_BOUND('',#714,.T.);
#769=FACE_BOUND('',#715,.T.);
#770=FACE_BOUND('',#716,.T.);
#771=FACE_BOUND('',#717,.T.);
#772=FACE_BOUND('',#718,.T.);
#773=FACE_BOUND('',#719,.T.);
#774=FACE_BOUND('',#720,.T.);
#775=FACE_BOUND('',#721,.T.);
#776=FACE_BOUND('',#722,.T.);
#777=FACE_BOUND('',#723,.T.);
#778=FACE_BOUND('',#724,.T.);
#779=FACE_BOUND('',#725,.T.);
#780=FACE_BOUND('',#726,.T.);
#781=FACE_BOUND('',#727,.T.);
#782=FACE_BOUND('',#728,.T.);
#783=FACE_BOUND('',#729,.T.);
#784=FACE_BOUND('',#730,.T.);
#785=FACE_BOUND('',#731,.T.);
#786=FACE_BOUND('',#732,.T.);
#787=FACE_BOUND('',#733,.T.);
#788=FACE_BOUND('',#734,.T.);
#789=FACE_BOUND('',#735,.T.);
#790=FACE_BOUND('',#736,.T.);
#791=FACE_BOUND('',#737,.T.);
#792=FACE_BOUND('',#738,.T.);
#793=FACE_BOUND('',#739,.T.);
#794=FACE_BOUND('',#740,.T.);
#795=FACE_BOUND('',#741,.T.);
#796=FACE_BOUND('',#742,.T.);
#797=FACE_BOUND('',#743,.T.);
#798=FACE_BOUND('',#744,.T.);
#799=FACE_BOUND('',#745,.T.);
#800=FACE_BOUND('',#746,.T.);
#801=FACE_BOUND('',#747,.T.);
#802=FACE_BOUND('',#748,.T.);
#803=FACE_BOUND('',#749,.T.);
#804=FACE_BOUND('',#750,.T.);
#805=FACE_BOUND('',#751,.T.);
#806=FACE_BOUND('',#752,.T.);
#807=FACE_BOUND('',#753,.T.);
#808=FACE_BOUND('',#754,.T.);
#809=FACE_BOUND('',#755,.T.);
#810=FACE_BOUND('',#756,.T.);
#811=FACE_BOUND('',#757,.T.);
#812=FACE_BOUND('',#758,.T.);
#813=FACE_BOUND('',#759,.T.);
#814=PLANE('',#923);
#815=PLANE('',#924);
#816=PLANE('',#925);
#817=PLANE('',#926);
#818=PLANE('',#927);
#819=PLANE('',#928);
#820=PLANE('',#929);
#821=PLANE('',#930);
#822=PLANE('',#931);
#823=PLANE('',#932);
#824=PLANE('',#933);
#825=PLANE('',#934);
#826=PLANE('',#935);
#827=PLANE('',#936);
#828=PLANE('',#937);
#829=PLANE('',#938);
#830=PLANE('',#939);
#831=PLANE('',#940);
#832=PLANE('',#941);
#833=PLANE('',#942);
#834=PLANE('',#943);
#835=PLANE('',#944);
#836=PLANE('',#945);
#837=PLANE('',#946);
#838=PLANE('',#947);
#839=PLANE('',#948);
#840=PLANE('',#949);
#841=PLANE('',#950);
#842=PLANE('',#951);
#843=PLANE('',#952);
#844=PLANE('',#953);
#845=PLANE('',#954);
#846=PLANE('',#955);
#847=PLANE('',#956);
#848=PLANE('',#957);
#849=PLANE('',#958);
#850=PLANE('',#959);
#851=PLANE('',#960);
#852=PLANE('',#961);
#853=PLANE('',#962);
#854=PLANE('',#963);
#855=PLANE('',#964);
#856=PLANE('',#965);
#857=PLANE('',#966);
#858=PLANE('',#967);
#859=PLANE('',#968);
#860=PLANE('',#969);
#861=PLANE('',#970);
#862=ADVANCED_FACE('',(#760),#814,.F.);
#863=ADVANCED_FACE('',(#761),#815,.F.);
#864=ADVANCED_FACE('',(#762),#816,.F.);
#865=ADVANCED_FACE('',(#763),#817,.F.);
#866=ADVANCED_FACE('',(#764),#818,.F.);
#867=ADVANCED_FACE('',(#765),#819,.F.);
#868=ADVANCED_FACE('',(#766),#820,.F.);
#869=ADVANCED_FACE('',(#767),#821,.F.);
#870=ADVANCED_FACE('',(#768,#769),#822,.T.);
#871=ADVANCED_FACE('',(#770),#823,.F.);
#872=ADVANCED_FACE('',(#771),#824,.F.);
#873=ADVANCED_FACE('',(#772,#773),#825,.F.);
#874=ADVANCED_FACE('',(#774),#826,.F.);
#875=ADVANCED_FACE('',(#775),#827,.F.);
#876=ADVANCED_FACE('',(#776,#777),#828,.F.);
#877=ADVANCED_FACE('',(#778),#829,.F.);
#878=ADVANCED_FACE('',(#779,#780),#830,.T.);
#879=ADVANCED_FACE('',(#781),#831,.F.);
#880=ADVANCED_FACE('',(#782),#832,.F.);
#881=ADVANCED_FACE('',(#783),#833,.F.);
#882=ADVANCED_FACE('',(#784),#834,.F.);
#883=ADVANCED_FACE('',(#785),#835,.F.);
#884=ADVANCED_FACE('',(#786),#836,.F.);
#885=ADVANCED_FACE('',(#787),#837,.T.);
#886=ADVANCED_FACE('',(#788),#838,.F.);
#887=ADVANCED_FACE('',(#789),#839,.F.);
#888=ADVANCED_FACE('',(#790),#840,.F.);
#889=ADVANCED_FACE('',(#791),#841,.F.);
#890=ADVANCED_FACE('',(#792),#842,.F.);
#891=ADVANCED_FACE('',(#793),#843,.F.);
#892=ADVANCED_FACE('',(#794,#795),#844,.F.);
#893=ADVANCED_FACE('',(#796),#845,.F.);
#894=ADVANCED_FACE('',(#797),#846,.F.);
#895=ADVANCED_FACE('',(#798,#799),#847,.F.);
#896=ADVANCED_FACE('',(#800),#848,.F.);
#897=ADVANCED_FACE('',(#801),#849,.T.);
#898=ADVANCED_FACE('',(#802),#850,.F.);
#899=ADVANCED_FACE('',(#803),#851,.F.);
#900=ADVANCED_FACE('',(#804),#852,.F.);
#901=ADVANCED_FACE('',(#805),#853,.F.);
#902=ADVANCED_FACE('',(#806),#854,.F.);
#903=ADVANCED_FACE('',(#807),#855,.F.);
#904=ADVANCED_FACE('',(#808),#856,.F.);
#905=ADVANCED_FACE('',(#809),#857,.F.);
#906=ADVANCED_FACE('',(#810),#858,.F.);
#907=ADVANCED_FACE('',(#811),#859,.F.);
#908=ADVANCED_FACE('',(#812),#860,.F.);
#909=ADVANCED_FACE('',(#813),#861,.F.);
#910=CLOSED_SHELL('',(#862,#863,#864,#865,#866,#867,#868,#869,#870,#871,
#872,#873,#874,#875,#876,#877,#878,#879,#880,#881,#882,#883,#884,#885,#886,
#887,#888,#889,#890,#891,#892,#893,#894,#895,#896,#897,#898,#899,#900,#901,
#902,#903,#904,#905,#906,#907,#908,#909));
#911=STYLED_ITEM('',(#912),#919);
#912=PRESENTATION_STYLE_ASSIGNMENT((#913));
#913=SURFACE_STYLE_USAGE(.BOTH.,#914);
#914=SURFACE_SIDE_STYLE('',(#915));
#915=SURFACE_STYLE_FILL_AREA(#916);
#916=FILL_AREA_STYLE('',(#917));
#917=FILL_AREA_STYLE_COLOUR('',#918);
#918=COLOUR_RGB('',0.729411764705882,0.250980392156863,0.105882352941176);
#919=MANIFOLD_SOLID_BREP('Base',#910);
#920=SHAPE_DEFINITION_REPRESENTATION(#1449,#921);
#921=SHAPE_REPRESENTATION('Base',(#922),#1444);
#922=AXIS2_PLACEMENT_3D('',#1192,#971,#972);
#923=AXIS2_PLACEMENT_3D('',#1193,#973,#974);
#924=AXIS2_PLACEMENT_3D('',#1200,#978,#979);
#925=AXIS2_PLACEMENT_3D('',#1207,#983,#984);
#926=AXIS2_PLACEMENT_3D('',#1216,#989,#990);
#927=AXIS2_PLACEMENT_3D('',#1222,#994,#995);
#928=AXIS2_PLACEMENT_3D('',#1228,#999,#1000);
#929=AXIS2_PLACEMENT_3D('',#1234,#1004,#1005);
#930=AXIS2_PLACEMENT_3D('',#1240,#1009,#1010);
#931=AXIS2_PLACEMENT_3D('',#1243,#1013,#1014);
#932=AXIS2_PLACEMENT_3D('',#1252,#1020,#1021);
#933=AXIS2_PLACEMENT_3D('',#1253,#1022,#1023);
#934=AXIS2_PLACEMENT_3D('',#1262,#1028,#1029);
#935=AXIS2_PLACEMENT_3D('',#1281,#1040,#1041);
#936=AXIS2_PLACEMENT_3D('',#1289,#1046,#1047);
#937=AXIS2_PLACEMENT_3D('',#1297,#1052,#1053);
#938=AXIS2_PLACEMENT_3D('',#1316,#1064,#1065);
#939=AXIS2_PLACEMENT_3D('',#1319,#1068,#1069);
#940=AXIS2_PLACEMENT_3D('',#1332,#1076,#1077);
#941=AXIS2_PLACEMENT_3D('',#1334,#1079,#1080);
#942=AXIS2_PLACEMENT_3D('',#1336,#1082,#1083);
#943=AXIS2_PLACEMENT_3D('',#1338,#1085,#1086);
#944=AXIS2_PLACEMENT_3D('',#1339,#1087,#1088);
#945=AXIS2_PLACEMENT_3D('',#1346,#1092,#1093);
#946=AXIS2_PLACEMENT_3D('',#1348,#1095,#1096);
#947=AXIS2_PLACEMENT_3D('',#1358,#1102,#1103);
#948=AXIS2_PLACEMENT_3D('',#1363,#1107,#1108);
#949=AXIS2_PLACEMENT_3D('',#1366,#1111,#1112);
#950=AXIS2_PLACEMENT_3D('',#1368,#1114,#1115);
#951=AXIS2_PLACEMENT_3D('',#1369,#1116,#1117);
#952=AXIS2_PLACEMENT_3D('',#1370,#1118,#1119);
#953=AXIS2_PLACEMENT_3D('',#1376,#1123,#1124);
#954=AXIS2_PLACEMENT_3D('',#1392,#1133,#1134);
#955=AXIS2_PLACEMENT_3D('',#1396,#1137,#1138);
#956=AXIS2_PLACEMENT_3D('',#1400,#1141,#1142);
#957=AXIS2_PLACEMENT_3D('',#1416,#1151,#1152);
#958=AXIS2_PLACEMENT_3D('',#1418,#1154,#1155);
#959=AXIS2_PLACEMENT_3D('',#1419,#1156,#1157);
#960=AXIS2_PLACEMENT_3D('',#1422,#1160,#1161);
#961=AXIS2_PLACEMENT_3D('',#1424,#1163,#1164);
#962=AXIS2_PLACEMENT_3D('',#1426,#1166,#1167);
#963=AXIS2_PLACEMENT_3D('',#1428,#1169,#1170);
#964=AXIS2_PLACEMENT_3D('',#1430,#1172,#1173);
#965=AXIS2_PLACEMENT_3D('',#1431,#1174,#1175);
#966=AXIS2_PLACEMENT_3D('',#1434,#1178,#1179);
#967=AXIS2_PLACEMENT_3D('',#1436,#1181,#1182);
#968=AXIS2_PLACEMENT_3D('',#1438,#1184,#1185);
#969=AXIS2_PLACEMENT_3D('',#1440,#1187,#1188);
#970=AXIS2_PLACEMENT_3D('',#1442,#1190,#1191);
#971=DIRECTION('',(0.,0.,1.));
#972=DIRECTION('',(1.,0.,0.));
#973=DIRECTION('',(0.5,0.,-0.866025403784439));
#974=DIRECTION('',(-0.866025403784439,0.,-0.5));
#975=DIRECTION('',(0.,-1.,0.));
#976=DIRECTION('',(-0.654653670707977,-0.654653670707978,-0.377964473009227));
#977=DIRECTION('',(0.866025403784439,0.,0.5));
#978=DIRECTION('',(-0.5,0.,-0.866025403784439));
#979=DIRECTION('',(-0.866025403784439,0.,0.5));
#980=DIRECTION('',(-0.654653670707977,0.654653670707978,0.377964473009227));
#981=DIRECTION('',(0.,-1.,0.));
#982=DIRECTION('',(0.866025403784439,0.,-0.5));
#983=DIRECTION('',(-0.866025403784438,0.,0.5));
#984=DIRECTION('',(0.5,0.,0.866025403784439));
#985=DIRECTION('',(-0.5,0.,-0.866025403784439));
#986=DIRECTION('',(0.,-1.,0.));
#987=DIRECTION('',(-0.5,0.,-0.866025403784439));
#988=DIRECTION('',(0.,-1.,0.));
#989=DIRECTION('',(0.,0.,1.));
#990=DIRECTION('',(0.,-1.,0.));
#991=DIRECTION('',(-1.,0.,0.));
#992=DIRECTION('',(0.,-1.,0.));
#993=DIRECTION('',(-1.,0.,0.));
#994=DIRECTION('',(0.866025403784438,0.,0.5));
#995=DIRECTION('',(0.5,0.,-0.866025403784439));
#996=DIRECTION('',(-0.5,0.,0.866025403784439));
#997=DIRECTION('',(0.,-1.,0.));
#998=DIRECTION('',(-0.5,0.,0.866025403784439));
#999=DIRECTION('',(0.866025403784439,0.,-0.5));
#1000=DIRECTION('',(-0.5,0.,-0.866025403784439));
#1001=DIRECTION('',(0.5,0.,0.866025403784439));
#1002=DIRECTION('',(0.,-1.,0.));
#1003=DIRECTION('',(0.5,0.,0.866025403784439));
#1004=DIRECTION('',(2.00308613164954E-16,0.,-1.));
#1005=DIRECTION('',(-1.,0.,-2.00308613164954E-16));
#1006=DIRECTION('',(1.,0.,2.00308613164954E-16));
#1007=DIRECTION('',(0.,-1.,0.));
#1008=DIRECTION('',(1.,0.,2.00308613164954E-16));
#1009=DIRECTION('',(-0.866025403784438,0.,-0.5));
#1010=DIRECTION('',(-0.5,0.,0.866025403784439));
#1011=DIRECTION('',(0.5,0.,-0.866025403784439));
#1012=DIRECTION('',(0.5,0.,-0.866025403784439));
#1013=DIRECTION('',(0.,1.,0.));
#1014=DIRECTION('',(1.,0.,0.));
#1015=DIRECTION('',(1.,0.,0.));
#1016=DIRECTION('',(0.,0.,-1.));
#1017=DIRECTION('',(0.866025403784439,0.,-0.5));
#1018=DIRECTION('',(0.866025403784439,0.,0.5));
#1019=DIRECTION('',(-2.40370335797945E-16,0.,1.));
#1020=DIRECTION('',(0.,1.,0.));
#1021=DIRECTION('',(1.,0.,0.));
#1022=DIRECTION('',(0.5,0.,0.866025403784439));
#1023=DIRECTION('',(0.866025403784439,0.,-0.5));
#1024=DIRECTION('',(0.,-1.,0.));
#1025=DIRECTION('',(-0.866025403784439,0.,0.5));
#1026=DIRECTION('',(0.,-1.,0.));
#1027=DIRECTION('',(-0.866025403784439,0.,0.5));
#1028=DIRECTION('',(1.,0.,0.));
#1029=DIRECTION('',(0.,-1.,0.));
#1030=DIRECTION('',(0.,0.5,0.866025403784438));
#1031=DIRECTION('',(0.,-0.5,0.866025403784439));
#1032=DIRECTION('',(0.,-1.,-1.50231459873715E-16));
#1033=DIRECTION('',(0.,-0.5,-0.866025403784438));
#1034=DIRECTION('',(0.,0.5,-0.866025403784439));
#1035=DIRECTION('',(0.,1.,-4.50694379621148E-16));
#1036=DIRECTION('',(0.,0.,1.));
#1037=DIRECTION('',(0.,-1.,0.));
#1038=DIRECTION('',(0.,-1.,0.));
#1039=DIRECTION('',(0.,0.,1.));
#1040=DIRECTION('',(0.5,0.,-0.866025403784439));
#1041=DIRECTION('',(-0.866025403784439,0.,-0.5));
#1042=DIRECTION('',(-0.774596669241483,-0.447213595499958,-0.447213595499958));
#1043=DIRECTION('',(0.866025403784439,-7.85046229341886E-17,0.5));
#1044=DIRECTION('',(0.,-1.,0.));
#1045=DIRECTION('',(0.866025403784439,0.,0.5));
#1046=DIRECTION('',(-0.5,0.,-0.866025403784439));
#1047=DIRECTION('',(-0.866025403784439,0.,0.5));
#1048=DIRECTION('',(0.866025403784439,-7.85046229341885E-17,-0.5));
#1049=DIRECTION('',(-0.774596669241484,0.447213595499958,0.447213595499958));
#1050=DIRECTION('',(0.,-1.,0.));
#1051=DIRECTION('',(0.866025403784439,0.,-0.5));
#1052=DIRECTION('',(-1.,0.,-2.40370335797945E-16));
#1053=DIRECTION('',(-2.40370335797945E-16,0.,1.));
#1054=DIRECTION('',(3.61111864572605E-32,-1.,-1.50231459873715E-16));
#1055=DIRECTION('',(-2.08166817117217E-16,-0.5,0.866025403784439));
#1056=DIRECTION('',(-2.08166817117216E-16,0.5,0.866025403784438));
#1057=DIRECTION('',(1.08333559371782E-31,1.,-4.50694379621149E-16));
#1058=DIRECTION('',(2.08166817117217E-16,0.5,-0.866025403784439));
#1059=DIRECTION('',(2.08166817117217E-16,-0.5,-0.866025403784438));
#1060=DIRECTION('',(0.,-1.,0.));
#1061=DIRECTION('',(2.40370335797945E-16,0.,-1.));
#1062=DIRECTION('',(0.,-1.,0.));
#1063=DIRECTION('',(2.40370335797945E-16,0.,-1.));
#1064=DIRECTION('',(-0.5,0.,0.866025403784439));
#1065=DIRECTION('',(0.866025403784439,0.,0.5));
#1066=DIRECTION('',(-0.866025403784439,0.,-0.5));
#1067=DIRECTION('',(-0.866025403784439,0.,-0.5));
#1068=DIRECTION('',(0.,1.,0.));
#1069=DIRECTION('',(1.,0.,0.));
#1070=DIRECTION('',(0.866025403784439,0.,-0.5));
#1071=DIRECTION('',(0.866025403784439,0.,0.5));
#1072=DIRECTION('',(0.,0.,1.));
#1073=DIRECTION('',(-0.866025403784439,0.,0.5));
#1074=DIRECTION('',(-0.866025403784439,0.,-0.5));
#1075=DIRECTION('',(0.,0.,-1.));
#1076=DIRECTION('',(-0.707106781186548,-0.707106781186547,-1.69967494438815E-16));
#1077=DIRECTION('',(2.40370335797945E-16,0.,-1.));
#1078=DIRECTION('',(-0.654653670707977,0.654653670707978,0.377964473009228));
#1079=DIRECTION('',(-0.353553390593274,-0.707106781186547,0.612372435695795));
#1080=DIRECTION('',(-0.866025403784439,0.,-0.5));
#1081=DIRECTION('',(-6.41727818244143E-16,0.654653670707977,0.755928946018454));
#1082=DIRECTION('',(0.353553390593274,-0.707106781186547,0.612372435695795));
#1083=DIRECTION('',(-0.866025403784439,0.,0.5));
#1084=DIRECTION('',(0.654653670707977,0.654653670707978,0.377964473009227));
#1085=DIRECTION('',(0.707106781186548,-0.707106781186547,0.));
#1086=DIRECTION('',(0.,0.,1.));
#1087=DIRECTION('',(0.,1.,0.));
#1088=DIRECTION('',(1.,0.,0.));
#1089=DIRECTION('',(-0.866025403784439,0.,-0.5));
#1090=DIRECTION('',(1.,0.,0.));
#1091=DIRECTION('',(-0.866025403784439,0.,0.5));
#1092=DIRECTION('',(0.,0.,-1.));
#1093=DIRECTION('',(0.,1.,0.));
#1094=DIRECTION('',(-1.,0.,0.));
#1095=DIRECTION('',(0.,-0.707106781186548,0.707106781186548));
#1096=DIRECTION('',(-1.,0.,0.));
#1097=DIRECTION('',(-0.186156787897394,-0.694746590606865,-0.694746590606865));
#1098=DIRECTION('',(1.,0.,0.));
#1099=DIRECTION('',(-0.186156787897391,0.694746590606865,0.694746590606865));
#1100=DIRECTION('',(0.538430892857405,0.595857438325971,0.595857438325971));
#1101=DIRECTION('',(0.538430892857406,-0.595857438325971,-0.595857438325971));
#1102=DIRECTION('',(0.353553390593274,0.707106781186549,-0.612372435695793));
#1103=DIRECTION('',(0.866025403784439,0.,0.5));
#1104=DIRECTION('',(1.28854653971158E-15,0.654653670707975,0.755928946018456));
#1105=DIRECTION('',(0.866025403784439,-5.31300992749089E-17,0.5));
#1106=DIRECTION('',(-0.640866468341657,-0.293767845955571,-0.709218317895073));
#1107=DIRECTION('',(-0.353553390593273,0.70710678118655,-0.612372435695793));
#1108=DIRECTION('',(0.866025403784439,0.,-0.5));
#1109=DIRECTION('',(0.866025403784439,-9.23824107420029E-17,-0.5));
#1110=DIRECTION('',(-0.640866468341657,0.293767845955571,0.709218317895073));
#1111=DIRECTION('',(0.461939766255643,0.382683432365091,-0.800103145191265));
#1112=DIRECTION('',(0.866025403784439,-9.4763462698352E-17,0.5));
#1113=DIRECTION('',(-6.41010110406116E-16,0.902123071454818,0.431478810544533));
#1114=DIRECTION('',(-0.461939766255643,0.38268343236509,-0.800103145191266));
#1115=DIRECTION('',(0.866025403784439,-6.70078870827229E-17,-0.5));
#1116=DIRECTION('',(0.,0.923879532511288,-0.382683432365089));
#1117=DIRECTION('',(1.,0.,0.));
#1118=DIRECTION('',(0.5,0.,0.866025403784439));
#1119=DIRECTION('',(0.866025403784439,0.,-0.5));
#1120=DIRECTION('',(0.,1.,0.));
#1121=DIRECTION('',(0.866025403784439,0.,-0.5));
#1122=DIRECTION('',(0.,1.,0.));
#1123=DIRECTION('',(1.,0.,0.));
#1124=DIRECTION('',(0.,-1.,0.));
#1125=DIRECTION('',(0.,0.5,0.866025403784438));
#1126=DIRECTION('',(0.,-0.5,0.866025403784439));
#1127=DIRECTION('',(0.,-1.,-1.50231459873715E-16));
#1128=DIRECTION('',(0.,-0.5,-0.866025403784438));
#1129=DIRECTION('',(0.,0.5,-0.866025403784439));
#1130=DIRECTION('',(0.,1.,-4.50694379621148E-16));
#1131=DIRECTION('',(0.,1.,0.));
#1132=DIRECTION('',(0.,0.,-1.));
#1133=DIRECTION('',(0.5,0.,-0.866025403784439));
#1134=DIRECTION('',(-0.866025403784439,0.,-0.5));
#1135=DIRECTION('',(0.,1.,0.));
#1136=DIRECTION('',(-0.866025403784439,0.,-0.5));
#1137=DIRECTION('',(-0.5,0.,-0.866025403784439));
#1138=DIRECTION('',(-0.866025403784439,0.,0.5));
#1139=DIRECTION('',(0.,1.,0.));
#1140=DIRECTION('',(-0.866025403784439,0.,0.5));
#1141=DIRECTION('',(-1.,0.,0.));
#1142=DIRECTION('',(0.,1.,0.));
#1143=DIRECTION('',(0.,1.,1.50231459873715E-16));
#1144=DIRECTION('',(0.,0.5,-0.866025403784439));
#1145=DIRECTION('',(0.,-0.5,-0.866025403784438));
#1146=DIRECTION('',(0.,-1.,4.50694379621148E-16));
#1147=DIRECTION('',(0.,-0.5,0.866025403784439));
#1148=DIRECTION('',(0.,0.5,0.866025403784438));
#1149=DIRECTION('',(0.,1.,0.));
#1150=DIRECTION('',(0.,0.,1.));
#1151=DIRECTION('',(-0.5,0.,0.866025403784439));
#1152=DIRECTION('',(0.866025403784439,0.,0.5));
#1153=DIRECTION('',(0.866025403784439,0.,0.5));
#1154=DIRECTION('',(0.,1.,0.));
#1155=DIRECTION('',(1.,0.,0.));
#1156=DIRECTION('',(1.20185167898973E-16,0.866025403784437,-0.5));
#1157=DIRECTION('',(0.,0.5,0.866025403784438));
#1158=DIRECTION('',(1.,0.,2.40370335797945E-16));
#1159=DIRECTION('',(1.,0.,2.40370335797945E-16));
#1160=DIRECTION('',(2.40370335797945E-16,-4.50694379621148E-16,-1.));
#1161=DIRECTION('',(0.,1.,-4.50694379621148E-16));
#1162=DIRECTION('',(1.,0.,2.40370335797945E-16));
#1163=DIRECTION('',(1.20185167898973E-16,-0.866025403784439,-0.5));
#1164=DIRECTION('',(0.,0.5,-0.866025403784439));
#1165=DIRECTION('',(1.,0.,2.40370335797945E-16));
#1166=DIRECTION('',(-1.20185167898973E-16,-0.866025403784438,0.5));
#1167=DIRECTION('',(0.,-0.5,-0.866025403784438));
#1168=DIRECTION('',(1.,0.,2.40370335797945E-16));
#1169=DIRECTION('',(-2.40370335797945E-16,-1.50231459873715E-16,1.));
#1170=DIRECTION('',(1.,0.,2.40370335797945E-16));
#1171=DIRECTION('',(1.,0.,2.40370335797945E-16));
#1172=DIRECTION('',(-1.20185167898973E-16,0.866025403784439,0.5));
#1173=DIRECTION('',(0.,-0.5,0.866025403784439));
#1174=DIRECTION('',(-1.20185167898973E-16,0.866025403784439,0.5));
#1175=DIRECTION('',(0.,-0.5,0.866025403784439));
#1176=DIRECTION('',(1.,0.,2.40370335797945E-16));
#1177=DIRECTION('',(1.,0.,2.40370335797945E-16));
#1178=DIRECTION('',(-2.40370335797945E-16,-1.50231459873715E-16,1.));
#1179=DIRECTION('',(1.,0.,2.40370335797945E-16));
#1180=DIRECTION('',(1.,0.,2.40370335797945E-16));
#1181=DIRECTION('',(-1.20185167898973E-16,-0.866025403784438,0.5));
#1182=DIRECTION('',(0.,-0.5,-0.866025403784438));
#1183=DIRECTION('',(1.,0.,2.40370335797945E-16));
#1184=DIRECTION('',(1.20185167898973E-16,-0.866025403784439,-0.5));
#1185=DIRECTION('',(0.,0.5,-0.866025403784439));
#1186=DIRECTION('',(1.,0.,2.40370335797945E-16));
#1187=DIRECTION('',(2.40370335797945E-16,-4.50694379621148E-16,-1.));
#1188=DIRECTION('',(0.,1.,-4.50694379621148E-16));
#1189=DIRECTION('',(1.,0.,2.40370335797945E-16));
#1190=DIRECTION('',(1.20185167898973E-16,0.866025403784437,-0.5));
#1191=DIRECTION('',(0.,0.5,0.866025403784438));
#1192=CARTESIAN_POINT('',(0.,0.,0.));
#1193=CARTESIAN_POINT('',(-0.00625,0.246,0.0108253175473055));
#1194=CARTESIAN_POINT('',(-0.0125,0.026,0.00721687836487032));
#1195=CARTESIAN_POINT('',(-0.0125,0.016,0.00721687836487032));
#1196=CARTESIAN_POINT('',(-0.0125,0.006,0.00721687836487032));
#1197=CARTESIAN_POINT('',(0.0896428571428571,0.118142857142857,0.0661890844320964));
#1198=CARTESIAN_POINT('',(-0.0225,0.006,0.00144337567297406));
#1199=CARTESIAN_POINT('',(-0.00625,0.006,0.0108253175473055));
#1200=CARTESIAN_POINT('',(0.00625,0.246,0.0108253175473055));
#1201=CARTESIAN_POINT('',(-0.0896428571428572,0.118142857142857,0.0661890844320964));
#1202=CARTESIAN_POINT('',(0.0225,0.006,0.00144337567297407));
#1203=CARTESIAN_POINT('',(0.0125,0.016,0.00721687836487033));
#1204=CARTESIAN_POINT('',(0.0125,0.246,0.00721687836487032));
#1205=CARTESIAN_POINT('',(0.0125,0.006,0.00721687836487033));
#1206=CARTESIAN_POINT('',(0.00625,0.006,0.0108253175473055));
#1207=CARTESIAN_POINT('',(0.0259807621135331,0.006,-0.015));
#1208=CARTESIAN_POINT('',(0.0259807621135331,0.,-0.015));
#1209=CARTESIAN_POINT('',(0.0346410161513775,0.,-5.20417042793042E-18));
#1210=CARTESIAN_POINT('',(0.0173205080756888,0.,-0.03));
#1211=CARTESIAN_POINT('',(0.0173205080756888,0.006,-0.03));
#1212=CARTESIAN_POINT('',(0.0173205080756888,0.006,-0.03));
#1213=CARTESIAN_POINT('',(0.0259807621135331,0.006,-0.015));
#1214=CARTESIAN_POINT('',(0.0346410161513775,0.006,-5.20417042793042E-18));
#1215=CARTESIAN_POINT('',(0.0346410161513775,0.006,-5.20417042793042E-18));
#1216=CARTESIAN_POINT('',(0.,0.006,-0.03));
#1217=CARTESIAN_POINT('',(0.,0.,-0.03));
#1218=CARTESIAN_POINT('',(-0.0173205080756888,0.,-0.03));
#1219=CARTESIAN_POINT('',(-0.0173205080756888,0.006,-0.03));
#1220=CARTESIAN_POINT('',(-0.0173205080756888,0.006,-0.03));
#1221=CARTESIAN_POINT('',(0.,0.006,-0.03));
#1222=CARTESIAN_POINT('',(-0.0259807621135331,0.006,-0.015));
#1223=CARTESIAN_POINT('',(-0.0259807621135331,0.,-0.015));
#1224=CARTESIAN_POINT('',(-0.0346410161513775,0.,-3.46944695195361E-18));
#1225=CARTESIAN_POINT('',(-0.0346410161513775,0.006,-3.46944695195361E-18));
#1226=CARTESIAN_POINT('',(-0.0346410161513775,0.006,-3.46944695195361E-18));
#1227=CARTESIAN_POINT('',(-0.0259807621135331,0.006,-0.015));
#1228=CARTESIAN_POINT('',(-0.0259807621135331,0.006,0.015));
#1229=CARTESIAN_POINT('',(-0.0259807621135331,0.,0.015));
#1230=CARTESIAN_POINT('',(-0.0173205080756888,0.,0.03));
#1231=CARTESIAN_POINT('',(-0.0173205080756888,0.006,0.03));
#1232=CARTESIAN_POINT('',(-0.0173205080756888,0.006,0.03));
#1233=CARTESIAN_POINT('',(-0.0259807621135331,0.006,0.015));
#1234=CARTESIAN_POINT('',(-3.46944695195361E-18,0.006,0.03));
#1235=CARTESIAN_POINT('',(-3.46944695195361E-18,0.,0.03));
#1236=CARTESIAN_POINT('',(0.0173205080756888,0.,0.03));
#1237=CARTESIAN_POINT('',(0.0173205080756888,0.006,0.03));
#1238=CARTESIAN_POINT('',(0.0173205080756888,0.006,0.03));
#1239=CARTESIAN_POINT('',(-3.46944695195361E-18,0.006,0.03));
#1240=CARTESIAN_POINT('',(0.0259807621135331,0.006,0.015));
#1241=CARTESIAN_POINT('',(0.0259807621135331,0.,0.015));
#1242=CARTESIAN_POINT('',(0.0259807621135331,0.006,0.015));
#1243=CARTESIAN_POINT('',(0.,0.006,6.93889390390723E-18));
#1244=CARTESIAN_POINT('',(-5.20417042793042E-18,0.006,0.00721687836487032));
#1245=CARTESIAN_POINT('',(-0.0225,0.006,6.93889390390723E-18));
#1246=CARTESIAN_POINT('',(-0.0225,0.006,-0.0129903810567666));
#1247=CARTESIAN_POINT('',(-0.01125,0.006,-0.0194855715851498));
#1248=CARTESIAN_POINT('',(1.18886382220277E-17,0.006,-0.0259807621135331));
#1249=CARTESIAN_POINT('',(0.01125,0.006,-0.0194855715851498));
#1250=CARTESIAN_POINT('',(0.0225,0.006,-0.0129903810567666));
#1251=CARTESIAN_POINT('',(0.0225,0.006,1.2347226459361E-17));
#1252=CARTESIAN_POINT('',(0.,0.,6.93889390390723E-18));
#1253=CARTESIAN_POINT('',(-0.00625,0.246,-0.0108253175473055));
#1254=CARTESIAN_POINT('',(-4.33680868994202E-18,0.246,-0.0144337567297406));
#1255=CARTESIAN_POINT('',(-4.33680868994202E-18,0.246,-0.0144337567297406));
#1256=CARTESIAN_POINT('',(-4.33680868994202E-18,0.016,-0.0144337567297406));
#1257=CARTESIAN_POINT('',(-0.00625,0.016,-0.0108253175473055));
#1258=CARTESIAN_POINT('',(-0.0125,0.016,-0.00721687836487032));
#1259=CARTESIAN_POINT('',(-0.0125,0.246,-0.00721687836487032));
#1260=CARTESIAN_POINT('',(-0.0125,0.246,-0.00721687836487032));
#1261=CARTESIAN_POINT('',(-0.00625,0.246,-0.0108253175473055));
#1262=CARTESIAN_POINT('',(-0.0125,0.246,0.));
#1263=CARTESIAN_POINT('',(-0.0125,0.235405127018922,0.00611695276765515));
#1264=CARTESIAN_POINT('',(-0.0125,0.228986751345948,-0.005));
#1265=CARTESIAN_POINT('',(-0.0125,0.231873502691897,3.03576608295941E-17));
#1266=CARTESIAN_POINT('',(-0.0125,0.235405127018922,-0.00611695276765515));
#1267=CARTESIAN_POINT('',(-0.0125,0.228986751345948,0.005));
#1268=CARTESIAN_POINT('',(-0.0125,0.246,0.005));
#1269=CARTESIAN_POINT('',(-0.0125,0.223213248654052,0.005));
#1270=CARTESIAN_POINT('',(-0.0125,0.226744872981078,0.0111169527676552));
#1271=CARTESIAN_POINT('',(-0.0125,0.220326497308103,4.3990824609122E-18));
#1272=CARTESIAN_POINT('',(-0.0125,0.226744872981078,-0.0111169527676552));
#1273=CARTESIAN_POINT('',(-0.0125,0.223213248654052,-0.005));
#1274=CARTESIAN_POINT('',(-0.0125,0.246,-0.005));
#1275=CARTESIAN_POINT('',(-0.0125,0.016,0.));
#1276=CARTESIAN_POINT('',(-0.0125,0.026,0.00721687836487032));
#1277=CARTESIAN_POINT('',(-0.0125,0.022,0.00721687836487032));
#1278=CARTESIAN_POINT('',(-0.0125,0.246,0.00721687836487032));
#1279=CARTESIAN_POINT('',(-0.0125,0.246,0.00721687836487032));
#1280=CARTESIAN_POINT('',(-0.0125,0.246,0.));
#1281=CARTESIAN_POINT('',(-0.00625,0.246,0.0108253175473055));
#1282=CARTESIAN_POINT('',(0.0700958761790857,0.0696867513459482,0.0549036297108185));
#1283=CARTESIAN_POINT('',(-0.00297372055837119,0.0275,0.0127168783648703));
#1284=CARTESIAN_POINT('',(-2.81892564846231E-18,0.0275,0.0144337567297406));
#1285=CARTESIAN_POINT('',(-2.60208521396521E-18,0.0275,0.0144337567297406));
#1286=CARTESIAN_POINT('',(-2.60208521396521E-18,0.246,0.0144337567297406));
#1287=CARTESIAN_POINT('',(-2.60208521396521E-18,0.246,0.0144337567297406));
#1288=CARTESIAN_POINT('',(-0.00625,0.246,0.0108253175473055));
#1289=CARTESIAN_POINT('',(0.00625,0.246,0.0108253175473055));
#1290=CARTESIAN_POINT('',(0.00383974596215566,0.0275,0.0122168783648703));
#1291=CARTESIAN_POINT('',(0.00297372055837123,0.0275,0.0127168783648703));
#1292=CARTESIAN_POINT('',(-0.0700958761790857,0.0696867513459481,0.0549036297108184));
#1293=CARTESIAN_POINT('',(0.0125,0.022,0.00721687836487033));
#1294=CARTESIAN_POINT('',(0.0125,0.246,0.00721687836487032));
#1295=CARTESIAN_POINT('',(0.0125,0.246,0.00721687836487032));
#1296=CARTESIAN_POINT('',(0.00625,0.246,0.0108253175473055));
#1297=CARTESIAN_POINT('',(0.0125,0.246,8.67361737988404E-19));
#1298=CARTESIAN_POINT('',(0.0125,0.2261,0.005));
#1299=CARTESIAN_POINT('',(0.0125,0.228986751345948,0.005));
#1300=CARTESIAN_POINT('',(0.0125,0.223213248654052,0.005));
#1301=CARTESIAN_POINT('',(0.0125,0.230430127018922,0.0025));
#1302=CARTESIAN_POINT('',(0.0125,0.231873502691897,2.97071395261029E-17));
#1303=CARTESIAN_POINT('',(0.0125,0.230430127018923,-0.0025));
#1304=CARTESIAN_POINT('',(0.0125,0.228986751345948,-0.00500000000000009));
#1305=CARTESIAN_POINT('',(0.0125,0.2261,-0.005));
#1306=CARTESIAN_POINT('',(0.0125,0.223213248654052,-0.005));
#1307=CARTESIAN_POINT('',(0.0125,0.221769872981078,-0.0025));
#1308=CARTESIAN_POINT('',(0.0125,0.220326497308103,1.04083408558608E-17));
#1309=CARTESIAN_POINT('',(0.0125,0.221769872981078,0.0025));
#1310=CARTESIAN_POINT('',(0.0125,0.026,0.00721687836487033));
#1311=CARTESIAN_POINT('',(0.0125,0.016,8.67361737988404E-19));
#1312=CARTESIAN_POINT('',(0.0125,0.016,-0.00721687836487032));
#1313=CARTESIAN_POINT('',(0.0125,0.246,-0.00721687836487032));
#1314=CARTESIAN_POINT('',(0.0125,0.246,-0.00721687836487032));
#1315=CARTESIAN_POINT('',(0.0125,0.246,8.67361737988404E-19));
#1316=CARTESIAN_POINT('',(0.00625,0.246,-0.0108253175473055));
#1317=CARTESIAN_POINT('',(0.00625,0.016,-0.0108253175473055));
#1318=CARTESIAN_POINT('',(0.00625,0.246,-0.0108253175473055));
#1319=CARTESIAN_POINT('',(6.93889390390723E-18,0.246,6.93889390390723E-18));
#1320=CARTESIAN_POINT('',(0.005,0.246,0.00866025403784439));
#1321=CARTESIAN_POINT('',(-4.33680868994202E-18,0.246,0.0115470053837925));
#1322=CARTESIAN_POINT('',(0.01,0.246,0.00577350269189626));
#1323=CARTESIAN_POINT('',(-0.005,0.246,0.00866025403784439));
#1324=CARTESIAN_POINT('',(-0.01,0.246,0.00577350269189626));
#1325=CARTESIAN_POINT('',(-0.01,0.246,-2.60208521396521E-18));
#1326=CARTESIAN_POINT('',(-0.01,0.246,-0.00577350269189626));
#1327=CARTESIAN_POINT('',(-0.005,0.246,-0.00866025403784439));
#1328=CARTESIAN_POINT('',(0.,0.246,-0.0115470053837925));
#1329=CARTESIAN_POINT('',(0.005,0.246,-0.00866025403784439));
#1330=CARTESIAN_POINT('',(0.01,0.246,-0.00577350269189625));
#1331=CARTESIAN_POINT('',(0.01,0.246,2.60208521396521E-18));
#1332=CARTESIAN_POINT('',(0.0125,0.016,8.67361737988404E-19));
#1333=CARTESIAN_POINT('',(0.0107142857142857,0.0177857142857143,-0.00618589574131741));
#1334=CARTESIAN_POINT('',(0.00625,0.016,-0.0108253175473055));
#1335=CARTESIAN_POINT('',(8.67361737988404E-19,0.0177857142857143,-0.0123717914826348));
#1336=CARTESIAN_POINT('',(-0.00625,0.016,-0.0108253175473055));
#1337=CARTESIAN_POINT('',(-0.0107142857142857,0.0177857142857143,-0.00618589574131742));
#1338=CARTESIAN_POINT('',(-0.0125,0.016,0.));
#1339=CARTESIAN_POINT('',(6.93889390390723E-18,0.026,6.93889390390723E-18));
#1340=CARTESIAN_POINT('',(-0.00575,0.026,0.00995929214352105));
#1341=CARTESIAN_POINT('',(-4.33160451951409E-18,0.026,0.0132790561913614));
#1342=CARTESIAN_POINT('',(-0.00270577136594006,0.026,0.0117168783648703));
#1343=CARTESIAN_POINT('',(0.00357179676972449,0.026,0.0117168783648703));
#1344=CARTESIAN_POINT('',(0.00270577136594005,0.026,0.0117168783648703));
#1345=CARTESIAN_POINT('',(0.00575,0.026,0.00995929214352105));
#1346=CARTESIAN_POINT('',(-5.20417042793042E-18,0.026,0.00721687836487032));
#1347=CARTESIAN_POINT('',(-0.0125,0.022,0.00721687836487032));
#1348=CARTESIAN_POINT('',(6.93889390390723E-18,0.026,0.0112168783648703));
#1349=CARTESIAN_POINT('',(0.00344801847547959,0.0255380531170038,0.0107549314818741));
#1350=CARTESIAN_POINT('',(0.00374501161666487,0.0266464466094067,0.011863324974277));
#1351=CARTESIAN_POINT('',(0.00347706242423374,0.0256464466094068,0.010863324974277));
#1352=CARTESIAN_POINT('',(-0.0035717967697245,0.0256464466094068,0.010863324974277));
#1353=CARTESIAN_POINT('',(-0.00347706242423374,0.0256464466094068,0.010863324974277));
#1354=CARTESIAN_POINT('',(-0.0034480184754796,0.0255380531170038,0.0107549314818741));
#1355=CARTESIAN_POINT('',(-0.00374501161666487,0.0266464466094067,0.011863324974277));
#1356=CARTESIAN_POINT('',(-0.00307409985262343,0.0273889147150961,0.0126057930799664));
#1357=CARTESIAN_POINT('',(0.00307409985262342,0.0273889147150961,0.0126057930799664));
#1358=CARTESIAN_POINT('',(-0.00625,0.027,0.0108253175473055));
#1359=CARTESIAN_POINT('',(-6.93889390390723E-18,0.0252142857142857,0.0123717914826348));
#1360=CARTESIAN_POINT('',(-4.11998972863129E-18,0.0266464466094067,0.0140255084392768));
#1361=CARTESIAN_POINT('',(-0.003662969266859,0.0266464466094067,0.0119106921470224));
#1362=CARTESIAN_POINT('',(-0.00159448446755383,0.0265094046490251,0.0129466899772828));
#1363=CARTESIAN_POINT('',(0.00625,0.027,0.0108253175473055));
#1364=CARTESIAN_POINT('',(-0.000176776695296638,0.0266464466094067,0.0141275705118927));
#1365=CARTESIAN_POINT('',(0.00159448446755383,0.0265094046490251,0.0129466899772827));
#1366=CARTESIAN_POINT('',(-0.00625,0.0275,0.0108253175473055));
#1367=CARTESIAN_POINT('',(-1.7347234759768E-18,0.0260954259102304,0.0137619593034781));
#1368=CARTESIAN_POINT('',(0.00625,0.0275,0.0108253175473055));
#1369=CARTESIAN_POINT('',(6.93889390390723E-18,0.026,0.0117168783648703));
#1370=CARTESIAN_POINT('',(0.005,0.206,0.00866025403784439));
#1371=CARTESIAN_POINT('',(0.01,0.206,0.00577350269189626));
#1372=CARTESIAN_POINT('',(0.01,0.206,0.00577350269189626));
#1373=CARTESIAN_POINT('',(0.005,0.206,0.00866025403784439));
#1374=CARTESIAN_POINT('',(-4.33680868994202E-18,0.206,0.0115470053837925));
#1375=CARTESIAN_POINT('',(-4.33680868994202E-18,0.206,0.0115470053837925));
#1376=CARTESIAN_POINT('',(0.01,0.206,2.60208521396521E-18));
#1377=CARTESIAN_POINT('',(0.01,0.225405127018922,-0.0112035553080337));
#1378=CARTESIAN_POINT('',(0.01,0.228986751345948,-0.005));
#1379=CARTESIAN_POINT('',(0.01,0.231873502691897,2.94902990916057E-17));
#1380=CARTESIAN_POINT('',(0.01,0.225405127018923,0.0112035553080336));
#1381=CARTESIAN_POINT('',(0.01,0.228986751345948,0.005));
#1382=CARTESIAN_POINT('',(0.01,0.206,0.005));
#1383=CARTESIAN_POINT('',(0.01,0.223213248654052,0.005));
#1384=CARTESIAN_POINT('',(0.01,0.216744872981078,-0.00620355530803362));
#1385=CARTESIAN_POINT('',(0.01,0.220326497308103,9.80741501636598E-18));
#1386=CARTESIAN_POINT('',(0.01,0.216744872981078,0.0062035553080336));
#1387=CARTESIAN_POINT('',(0.01,0.223213248654052,-0.005));
#1388=CARTESIAN_POINT('',(0.01,0.206,-0.005));
#1389=CARTESIAN_POINT('',(0.01,0.206,-0.00577350269189625));
#1390=CARTESIAN_POINT('',(0.01,0.206,-0.00577350269189625));
#1391=CARTESIAN_POINT('',(0.01,0.206,2.60208521396521E-18));
#1392=CARTESIAN_POINT('',(0.005,0.206,-0.00866025403784439));
#1393=CARTESIAN_POINT('',(0.,0.206,-0.0115470053837925));
#1394=CARTESIAN_POINT('',(0.,0.206,-0.0115470053837925));
#1395=CARTESIAN_POINT('',(0.005,0.206,-0.00866025403784439));
#1396=CARTESIAN_POINT('',(-0.005,0.206,-0.00866025403784439));
#1397=CARTESIAN_POINT('',(-0.01,0.206,-0.00577350269189626));
#1398=CARTESIAN_POINT('',(-0.01,0.206,-0.00577350269189626));
#1399=CARTESIAN_POINT('',(-0.005,0.206,-0.00866025403784439));
#1400=CARTESIAN_POINT('',(-0.01,0.206,-2.60208521396521E-18));
#1401=CARTESIAN_POINT('',(-0.01,0.206,0.005));
#1402=CARTESIAN_POINT('',(-0.01,0.223213248654052,0.005));
#1403=CARTESIAN_POINT('',(-0.01,0.228986751345948,0.005));
#1404=CARTESIAN_POINT('',(-0.01,0.225405127018923,0.0112035553080336));
#1405=CARTESIAN_POINT('',(-0.01,0.231873502691897,2.4298806970649E-17));
#1406=CARTESIAN_POINT('',(-0.01,0.225405127018922,-0.0112035553080337));
#1407=CARTESIAN_POINT('',(-0.01,0.228986751345948,-0.00500000000000009));
#1408=CARTESIAN_POINT('',(-0.01,0.206,-0.005));
#1409=CARTESIAN_POINT('',(-0.01,0.223213248654052,-0.005));
#1410=CARTESIAN_POINT('',(-0.01,0.216744872981078,0.0062035553080336));
#1411=CARTESIAN_POINT('',(-0.01,0.220326497308103,5.00000830040706E-18));
#1412=CARTESIAN_POINT('',(-0.01,0.216744872981078,-0.00620355530803363));
#1413=CARTESIAN_POINT('',(-0.01,0.206,0.00577350269189625));
#1414=CARTESIAN_POINT('',(-0.01,0.206,0.00577350269189625));
#1415=CARTESIAN_POINT('',(-0.01,0.206,-2.60208521396521E-18));
#1416=CARTESIAN_POINT('',(-0.005,0.206,0.00866025403784439));
#1417=CARTESIAN_POINT('',(-0.005,0.206,0.00866025403784439));
#1418=CARTESIAN_POINT('',(3.46944695195361E-18,0.206,0.));
#1419=CARTESIAN_POINT('',(-0.250215995363639,0.230430127018923,-0.00250000000000009));
#1420=CARTESIAN_POINT('',(-0.250215995363639,0.228986751345948,-0.00500000000000009));
#1421=CARTESIAN_POINT('',(-0.250215995363639,0.231873502691897,-3.34419924989464E-17));
#1422=CARTESIAN_POINT('',(-0.250215995363639,0.2261,-0.00500000000000006));
#1423=CARTESIAN_POINT('',(-0.250215995363639,0.223213248654052,-0.00500000000000006));
#1424=CARTESIAN_POINT('',(-0.250215995363639,0.221769872981078,-0.00250000000000006));
#1425=CARTESIAN_POINT('',(-0.250215995363639,0.220326497308103,-5.27407911691884E-17));
#1426=CARTESIAN_POINT('',(-0.250215995363639,0.221769872981078,0.00249999999999993));
#1427=CARTESIAN_POINT('',(-0.250215995363639,0.223213248654052,0.00499999999999991));
#1428=CARTESIAN_POINT('',(-0.250215995363639,0.2261,0.00499999999999994));
#1429=CARTESIAN_POINT('',(-0.250215995363639,0.228986751345948,0.005));
#1430=CARTESIAN_POINT('',(-0.250215995363639,0.230430127018922,0.00249999999999996));
#1431=CARTESIAN_POINT('',(-0.250215995363639,0.230430127018922,0.00249999999999996));
#1432=CARTESIAN_POINT('',(-0.250215995363639,0.231873502691897,-3.34419924989464E-17));
#1433=CARTESIAN_POINT('',(-0.250215995363639,0.228986751345948,0.005));
#1434=CARTESIAN_POINT('',(-0.250215995363639,0.2261,0.00499999999999994));
#1435=CARTESIAN_POINT('',(-0.250215995363639,0.223213248654052,0.00499999999999991));
#1436=CARTESIAN_POINT('',(-0.250215995363639,0.221769872981078,0.00249999999999993));
#1437=CARTESIAN_POINT('',(-0.250215995363639,0.220326497308103,-5.27407911691884E-17));
#1438=CARTESIAN_POINT('',(-0.250215995363639,0.221769872981078,-0.00250000000000006));
#1439=CARTESIAN_POINT('',(-0.250215995363639,0.223213248654052,-0.00500000000000006));
#1440=CARTESIAN_POINT('',(-0.250215995363639,0.2261,-0.00500000000000006));
#1441=CARTESIAN_POINT('',(-0.250215995363639,0.228986751345948,-0.00500000000000009));
#1442=CARTESIAN_POINT('',(-0.250215995363639,0.230430127018923,-0.00250000000000009));
#1443=MECHANICAL_DESIGN_GEOMETRIC_PRESENTATION_REPRESENTATION('',(#911),
#1444);
#1444=(
GEOMETRIC_REPRESENTATION_CONTEXT(3)
GLOBAL_UNCERTAINTY_ASSIGNED_CONTEXT((#1445))
GLOBAL_UNIT_ASSIGNED_CONTEXT((#1448,#1447,#1446))
REPRESENTATION_CONTEXT('Base','TOP_LEVEL_ASSEMBLY_PART')
);
#1445=UNCERTAINTY_MEASURE_WITH_UNIT(LENGTH_MEASURE(1.E-8),#1448,
'DISTANCE_ACCURACY_VALUE','Maximum Tolerance applied to model');
#1446=(
NAMED_UNIT(*)
SI_UNIT($,.STERADIAN.)
SOLID_ANGLE_UNIT()
);
#1447=(
NAMED_UNIT(*)
PLANE_ANGLE_UNIT()
SI_UNIT($,.RADIAN.)
);
#1448=(
LENGTH_UNIT()
NAMED_UNIT(*)
SI_UNIT($,.METRE.)
);
#1449=PRODUCT_DEFINITION_SHAPE('','',#1450);
#1450=PRODUCT_DEFINITION('','',#1452,#1451);
#1451=PRODUCT_DEFINITION_CONTEXT('',#1458,'design');
#1452=PRODUCT_DEFINITION_FORMATION_WITH_SPECIFIED_SOURCE('','',#1454,
 .NOT_KNOWN.);
#1453=PRODUCT_RELATED_PRODUCT_CATEGORY('','',(#1454));
#1454=PRODUCT('Base','Base','Base',(#1456));
#1455=PRODUCT_CATEGORY('','');
#1456=PRODUCT_CONTEXT('',#1458,'mechanical');
#1457=APPLICATION_PROTOCOL_DEFINITION('international standard',
'ap242_managed_model_based_3d_engineering',2020,#1458);
#1458=APPLICATION_CONTEXT('managed model based 3d engineering');
ENDSEC;
END-ISO-10303-21;
